M48
; DRILL file {KiCad (7.0.0)} date Wed Mar 22 16:00:19 2023
; FORMAT={-:-/ absolute / inch / decimal}
; #@! TF.CreationDate,2023-03-22T16:00:19+00:00
; #@! TF.GenerationSoftware,Kicad,Pcbnew,(7.0.0)
; #@! TF.FileFunction,Plated,1,4,PTH
FMAT,2
INCH
; #@! TA.AperFunction,Plated,PTH,ViaDrill
T1C0.0157
; #@! TA.AperFunction,Plated,PTH,ComponentDrill
T2C0.0469
%
G90
G05
T1
X4.7244Y-3.3465
X4.7638Y-3.8583
X4.8819Y-3.3465
X4.8819Y-3.5039
X4.9213Y-3.8583
X4.9921Y-3.4055
X5.0Y-3.937
X5.0Y-4.0551
X5.0394Y-3.4291
X5.0787Y-3.5039
X5.1575Y-3.8583
X5.1575Y-4.0551
X5.248Y-3.4134
X5.2638Y-3.8701
X5.315Y-3.4016
X5.315Y-3.5433
X5.3465Y-4.0118
X5.3898Y-3.2717
X5.4291Y-3.8701
X5.4331Y-3.5433
X5.435Y-3.2008
X5.5079Y-4.063
X5.5768Y-3.5709
X5.626Y-3.8583
X5.6693Y-4.0551
X5.6969Y-3.6083
X5.6988Y-3.4055
X5.752Y-3.126
X5.752Y-3.3071
X5.8268Y-3.8583
X5.8268Y-4.0551
X5.8661Y-3.1181
X5.8701Y-3.3425
X5.8937Y-3.4921
X5.8937Y-3.7795
X5.9173Y-3.1181
X5.9173Y-3.3425
X5.9213Y-3.4449
X6.0236Y-3.5827
X6.0236Y-3.8583
X6.0236Y-4.0551
X6.2008Y-3.3031
X6.2205Y-3.5827
X6.2205Y-3.8583
X6.3386Y-3.3465
X6.3386Y-3.622
T2
X6.0118Y-3.2205
X6.1118Y-3.2205
T0
M30
