%TF.GenerationSoftware,KiCad,Pcbnew,(7.0.0)*%
%TF.CreationDate,2023-03-22T16:00:14+00:00*%
%TF.ProjectId,CSAD2,43534144-322e-46b6-9963-61645f706362,0.2*%
%TF.SameCoordinates,Original*%
%TF.FileFunction,Copper,L1,Top*%
%TF.FilePolarity,Positive*%
%FSLAX46Y46*%
G04 Gerber Fmt 4.6, Leading zero omitted, Abs format (unit mm)*
G04 Created by KiCad (PCBNEW (7.0.0)) date 2023-03-22 16:00:14*
%MOMM*%
%LPD*%
G01*
G04 APERTURE LIST*
G04 Aperture macros list*
%AMRoundRect*
0 Rectangle with rounded corners*
0 $1 Rounding radius*
0 $2 $3 $4 $5 $6 $7 $8 $9 X,Y pos of 4 corners*
0 Add a 4 corners polygon primitive as box body*
4,1,4,$2,$3,$4,$5,$6,$7,$8,$9,$2,$3,0*
0 Add four circle primitives for the rounded corners*
1,1,$1+$1,$2,$3*
1,1,$1+$1,$4,$5*
1,1,$1+$1,$6,$7*
1,1,$1+$1,$8,$9*
0 Add four rect primitives between the rounded corners*
20,1,$1+$1,$2,$3,$4,$5,0*
20,1,$1+$1,$4,$5,$6,$7,0*
20,1,$1+$1,$6,$7,$8,$9,0*
20,1,$1+$1,$8,$9,$2,$3,0*%
%AMFreePoly0*
4,1,19,0.500000,-0.750000,0.000000,-0.750000,0.000000,-0.744911,-0.071157,-0.744911,-0.207708,-0.704816,-0.327430,-0.627875,-0.420627,-0.520320,-0.479746,-0.390866,-0.500000,-0.250000,-0.500000,0.250000,-0.479746,0.390866,-0.420627,0.520320,-0.327430,0.627875,-0.207708,0.704816,-0.071157,0.744911,0.000000,0.744911,0.000000,0.750000,0.500000,0.750000,0.500000,-0.750000,0.500000,-0.750000,
$1*%
%AMFreePoly1*
4,1,19,0.000000,0.744911,0.071157,0.744911,0.207708,0.704816,0.327430,0.627875,0.420627,0.520320,0.479746,0.390866,0.500000,0.250000,0.500000,-0.250000,0.479746,-0.390866,0.420627,-0.520320,0.327430,-0.627875,0.207708,-0.704816,0.071157,-0.744911,0.000000,-0.744911,0.000000,-0.750000,-0.500000,-0.750000,-0.500000,0.750000,0.000000,0.750000,0.000000,0.744911,0.000000,0.744911,
$1*%
%AMFreePoly2*
4,1,19,0.550000,-0.750000,0.000000,-0.750000,0.000000,-0.744911,-0.071157,-0.744911,-0.207708,-0.704816,-0.327430,-0.627875,-0.420627,-0.520320,-0.479746,-0.390866,-0.500000,-0.250000,-0.500000,0.250000,-0.479746,0.390866,-0.420627,0.520320,-0.327430,0.627875,-0.207708,0.704816,-0.071157,0.744911,0.000000,0.744911,0.000000,0.750000,0.550000,0.750000,0.550000,-0.750000,0.550000,-0.750000,
$1*%
%AMFreePoly3*
4,1,19,0.000000,0.744911,0.071157,0.744911,0.207708,0.704816,0.327430,0.627875,0.420627,0.520320,0.479746,0.390866,0.500000,0.250000,0.500000,-0.250000,0.479746,-0.390866,0.420627,-0.520320,0.327430,-0.627875,0.207708,-0.704816,0.071157,-0.744911,0.000000,-0.744911,0.000000,-0.750000,-0.550000,-0.750000,-0.550000,0.750000,0.000000,0.750000,0.000000,0.744911,0.000000,0.744911,
$1*%
G04 Aperture macros list end*
%TA.AperFunction,SMDPad,CuDef*%
%ADD10RoundRect,0.200000X-0.200000X-0.275000X0.200000X-0.275000X0.200000X0.275000X-0.200000X0.275000X0*%
%TD*%
%TA.AperFunction,SMDPad,CuDef*%
%ADD11RoundRect,0.225000X-0.225000X-0.250000X0.225000X-0.250000X0.225000X0.250000X-0.225000X0.250000X0*%
%TD*%
%TA.AperFunction,SMDPad,CuDef*%
%ADD12RoundRect,0.225000X0.250000X-0.225000X0.250000X0.225000X-0.250000X0.225000X-0.250000X-0.225000X0*%
%TD*%
%TA.AperFunction,SMDPad,CuDef*%
%ADD13RoundRect,0.225000X-0.250000X0.225000X-0.250000X-0.225000X0.250000X-0.225000X0.250000X0.225000X0*%
%TD*%
%TA.AperFunction,SMDPad,CuDef*%
%ADD14RoundRect,0.225000X0.225000X0.250000X-0.225000X0.250000X-0.225000X-0.250000X0.225000X-0.250000X0*%
%TD*%
%TA.AperFunction,SMDPad,CuDef*%
%ADD15RoundRect,0.200000X0.200000X0.275000X-0.200000X0.275000X-0.200000X-0.275000X0.200000X-0.275000X0*%
%TD*%
%TA.AperFunction,SMDPad,CuDef*%
%ADD16FreePoly0,90.000000*%
%TD*%
%TA.AperFunction,SMDPad,CuDef*%
%ADD17FreePoly1,90.000000*%
%TD*%
%TA.AperFunction,SMDPad,CuDef*%
%ADD18RoundRect,0.100000X-0.625000X-0.100000X0.625000X-0.100000X0.625000X0.100000X-0.625000X0.100000X0*%
%TD*%
%TA.AperFunction,SMDPad,CuDef*%
%ADD19R,1.000000X1.000000*%
%TD*%
%TA.AperFunction,SMDPad,CuDef*%
%ADD20R,2.200000X1.050000*%
%TD*%
%TA.AperFunction,SMDPad,CuDef*%
%ADD21RoundRect,0.243750X-0.243750X-0.456250X0.243750X-0.456250X0.243750X0.456250X-0.243750X0.456250X0*%
%TD*%
%TA.AperFunction,SMDPad,CuDef*%
%ADD22RoundRect,0.200000X0.275000X-0.200000X0.275000X0.200000X-0.275000X0.200000X-0.275000X-0.200000X0*%
%TD*%
%TA.AperFunction,ComponentPad*%
%ADD23RoundRect,0.250000X-0.620000X-0.845000X0.620000X-0.845000X0.620000X0.845000X-0.620000X0.845000X0*%
%TD*%
%TA.AperFunction,ComponentPad*%
%ADD24O,1.740000X2.190000*%
%TD*%
%TA.AperFunction,SMDPad,CuDef*%
%ADD25FreePoly2,270.000000*%
%TD*%
%TA.AperFunction,SMDPad,CuDef*%
%ADD26R,1.500000X1.000000*%
%TD*%
%TA.AperFunction,SMDPad,CuDef*%
%ADD27FreePoly3,270.000000*%
%TD*%
%TA.AperFunction,SMDPad,CuDef*%
%ADD28RoundRect,0.200000X-0.275000X0.200000X-0.275000X-0.200000X0.275000X-0.200000X0.275000X0.200000X0*%
%TD*%
%TA.AperFunction,SMDPad,CuDef*%
%ADD29R,2.000000X1.500000*%
%TD*%
%TA.AperFunction,SMDPad,CuDef*%
%ADD30R,2.000000X3.800000*%
%TD*%
%TA.AperFunction,SMDPad,CuDef*%
%ADD31RoundRect,0.250000X-0.262500X-0.450000X0.262500X-0.450000X0.262500X0.450000X-0.262500X0.450000X0*%
%TD*%
%TA.AperFunction,SMDPad,CuDef*%
%ADD32R,1.140000X0.760000*%
%TD*%
%TA.AperFunction,SMDPad,CuDef*%
%ADD33RoundRect,0.150000X0.150000X-0.587500X0.150000X0.587500X-0.150000X0.587500X-0.150000X-0.587500X0*%
%TD*%
%TA.AperFunction,SMDPad,CuDef*%
%ADD34R,0.600000X1.150000*%
%TD*%
%TA.AperFunction,SMDPad,CuDef*%
%ADD35R,0.300000X1.150000*%
%TD*%
%TA.AperFunction,SMDPad,CuDef*%
%ADD36R,2.180000X2.000000*%
%TD*%
%TA.AperFunction,ViaPad*%
%ADD37C,0.800000*%
%TD*%
%TA.AperFunction,Conductor*%
%ADD38C,0.400000*%
%TD*%
%TA.AperFunction,Conductor*%
%ADD39C,0.250000*%
%TD*%
%TA.AperFunction,Conductor*%
%ADD40C,0.300000*%
%TD*%
G04 APERTURE END LIST*
%TO.C,JP1*%
G36*
X134000000Y-101500000D02*
G01*
X133400000Y-101500000D01*
X133400000Y-101000000D01*
X134000000Y-101000000D01*
X134000000Y-101500000D01*
G37*
%TO.C,JP2*%
G36*
X138200000Y-101500000D02*
G01*
X137600000Y-101500000D01*
X137600000Y-101000000D01*
X138200000Y-101000000D01*
X138200000Y-101500000D01*
G37*
%TD*%
D10*
%TO.P,R6,1*%
%TO.N,Net-(C5-Pad2)*%
X155075000Y-94946250D03*
%TO.P,R6,2*%
%TO.N,Net-(J4-In)*%
X156725000Y-94946250D03*
%TD*%
D11*
%TO.P,C8,1*%
%TO.N,GND*%
X146525000Y-90200000D03*
%TO.P,C8,2*%
%TO.N,+3.3V*%
X148075000Y-90200000D03*
%TD*%
D12*
%TO.P,C2,1*%
%TO.N,GND*%
X141025000Y-82875000D03*
%TO.P,C2,2*%
%TO.N,Net-(U1-VI)*%
X141025000Y-81325000D03*
%TD*%
D13*
%TO.P,C17,1*%
%TO.N,Net-(T1-SC)*%
X127700000Y-96425000D03*
%TO.P,C17,2*%
%TO.N,GND*%
X127700000Y-97975000D03*
%TD*%
D14*
%TO.P,C31,1*%
%TO.N,GND*%
X144675000Y-88700000D03*
%TO.P,C31,2*%
%TO.N,+3.3V*%
X143125000Y-88700000D03*
%TD*%
D15*
%TO.P,R5,1*%
%TO.N,GND*%
X138325000Y-87500000D03*
%TO.P,R5,2*%
%TO.N,Net-(J2-CC1)*%
X136675000Y-87500000D03*
%TD*%
D12*
%TO.P,C1,1*%
%TO.N,GND*%
X139200000Y-82850000D03*
%TO.P,C1,2*%
%TO.N,Net-(JP3-B)*%
X139200000Y-81300000D03*
%TD*%
D11*
%TO.P,C16,1*%
%TO.N,Net-(D2-A)*%
X139125000Y-92445000D03*
%TO.P,C16,2*%
%TO.N,Net-(U2-IN+)*%
X140675000Y-92445000D03*
%TD*%
D16*
%TO.P,JP3,1,A*%
%TO.N,Net-(J1-Pin_2)*%
X146100000Y-82400000D03*
D17*
%TO.P,JP3,2,B*%
%TO.N,Net-(JP3-B)*%
X146100000Y-81100000D03*
%TD*%
D11*
%TO.P,C18,1*%
%TO.N,Net-(C18-Pad1)*%
X139125000Y-94095000D03*
%TO.P,C18,2*%
%TO.N,Net-(U2-IN-)*%
X140675000Y-94095000D03*
%TD*%
%TO.P,C10,1*%
%TO.N,Net-(J7-In)*%
X122825000Y-91750000D03*
%TO.P,C10,2*%
%TO.N,Net-(T1-AA)*%
X124375000Y-91750000D03*
%TD*%
D18*
%TO.P,U2,1,FILTA*%
%TO.N,Net-(JP1-C)*%
X143450000Y-91645000D03*
%TO.P,U2,2,V+*%
%TO.N,+3.3V*%
X143450000Y-92295000D03*
%TO.P,U2,3,IN+*%
%TO.N,Net-(U2-IN+)*%
X143450000Y-92945000D03*
%TO.P,U2,4,IN-*%
%TO.N,Net-(U2-IN-)*%
X143450000Y-93595000D03*
%TO.P,U2,5,GND*%
%TO.N,GND*%
X143450000Y-94245000D03*
%TO.P,U2,6,FILTB*%
%TO.N,Net-(JP2-C)*%
X143450000Y-94895000D03*
%TO.P,U2,7,SD2*%
%TO.N,+3.3V*%
X147750000Y-94895000D03*
%TO.P,U2,8,GNDOUT*%
%TO.N,GND*%
X147750000Y-94245000D03*
%TO.P,U2,9,OUT2*%
%TO.N,Net-(U2-OUT2)*%
X147750000Y-93595000D03*
%TO.P,U2,10,OUT1*%
%TO.N,Net-(U2-OUT1)*%
X147750000Y-92945000D03*
%TO.P,U2,11,VDD*%
%TO.N,+3.3V*%
X147750000Y-92295000D03*
%TO.P,U2,12,SD1*%
X147750000Y-91645000D03*
%TD*%
D10*
%TO.P,R10,1*%
%TO.N,Net-(T1-SB)*%
X130875000Y-91750000D03*
%TO.P,R10,2*%
%TO.N,Net-(D2-A)*%
X132525000Y-91750000D03*
%TD*%
D11*
%TO.P,C30,1*%
%TO.N,GND*%
X146525000Y-88700000D03*
%TO.P,C30,2*%
%TO.N,+3.3V*%
X148075000Y-88700000D03*
%TD*%
D19*
%TO.P,J4,1,In*%
%TO.N,Net-(J4-In)*%
X159699999Y-94946249D03*
D20*
%TO.P,J4,2,Ext*%
%TO.N,GND*%
X161099999Y-96421249D03*
X161199999Y-93471249D03*
%TD*%
D21*
%TO.P,D1,1,K*%
%TO.N,Net-(D1-K)*%
X141462500Y-86500000D03*
%TO.P,D1,2,A*%
%TO.N,+3.3V*%
X143337500Y-86500000D03*
%TD*%
D11*
%TO.P,C4,1*%
%TO.N,Net-(U2-OUT1)*%
X152025000Y-88446250D03*
%TO.P,C4,2*%
%TO.N,Net-(C4-Pad2)*%
X153575000Y-88446250D03*
%TD*%
D22*
%TO.P,R7,1*%
%TO.N,GND*%
X158200000Y-96596250D03*
%TO.P,R7,2*%
%TO.N,Net-(J4-In)*%
X158200000Y-94946250D03*
%TD*%
D23*
%TO.P,J1,1,Pin_1*%
%TO.N,GND*%
X152700000Y-81800000D03*
D24*
%TO.P,J1,2,Pin_2*%
%TO.N,Net-(J1-Pin_2)*%
X155239999Y-81799999D03*
%TD*%
D10*
%TO.P,R12,1*%
%TO.N,Net-(T1-SA)*%
X130875000Y-94790000D03*
%TO.P,R12,2*%
%TO.N,Net-(C18-Pad1)*%
X132525000Y-94790000D03*
%TD*%
D25*
%TO.P,JP1,1,A*%
%TO.N,+3.3V*%
X133700000Y-100600000D03*
D26*
%TO.P,JP1,2,C*%
%TO.N,Net-(JP1-C)*%
X133699999Y-101899999D03*
D27*
%TO.P,JP1,3,B*%
%TO.N,GND*%
X133700000Y-103200000D03*
%TD*%
D28*
%TO.P,R3,1*%
%TO.N,GND*%
X158200000Y-86796250D03*
%TO.P,R3,2*%
%TO.N,Net-(J3-In)*%
X158200000Y-88446250D03*
%TD*%
D29*
%TO.P,U1,1,VI*%
%TO.N,Net-(U1-VI)*%
X143337499Y-79499999D03*
%TO.P,U1,2,GND*%
%TO.N,GND*%
X143337499Y-81799999D03*
D30*
X149637499Y-81799999D03*
D29*
%TO.P,U1,3,VO*%
%TO.N,+3.3V*%
X143337499Y-84099999D03*
%TD*%
D31*
%TO.P,FB1,1*%
%TO.N,Net-(JP3-B)*%
X139200000Y-79500000D03*
%TO.P,FB1,2*%
%TO.N,Net-(U1-VI)*%
X141025000Y-79500000D03*
%TD*%
D32*
%TO.P,T1,1,SB*%
%TO.N,Net-(T1-SB)*%
X129224999Y-91749999D03*
%TO.P,T1,2,SC*%
%TO.N,Net-(T1-SC)*%
X129224999Y-93269999D03*
%TO.P,T1,3,SA*%
%TO.N,Net-(T1-SA)*%
X129224999Y-94789999D03*
%TO.P,T1,4,AB*%
%TO.N,Earth*%
X126174999Y-94789999D03*
%TO.P,T1,5*%
%TO.N,N/C*%
X126174999Y-93269999D03*
%TO.P,T1,6,AA*%
%TO.N,Net-(T1-AA)*%
X126174999Y-91749999D03*
%TD*%
D15*
%TO.P,R1,1*%
%TO.N,Net-(D1-K)*%
X139925000Y-85900000D03*
%TO.P,R1,2*%
%TO.N,GND*%
X138275000Y-85900000D03*
%TD*%
D19*
%TO.P,J3,1,In*%
%TO.N,Net-(J3-In)*%
X159699999Y-88446249D03*
D20*
%TO.P,J3,2,Ext*%
%TO.N,GND*%
X161099999Y-89921249D03*
X161199999Y-86971249D03*
%TD*%
D11*
%TO.P,C3,1*%
%TO.N,GND*%
X139425000Y-84400000D03*
%TO.P,C3,2*%
%TO.N,+3.3V*%
X140975000Y-84400000D03*
%TD*%
D10*
%TO.P,R2,1*%
%TO.N,Net-(C4-Pad2)*%
X155050000Y-88446250D03*
%TO.P,R2,2*%
%TO.N,Net-(J3-In)*%
X156700000Y-88446250D03*
%TD*%
D33*
%TO.P,D2,1,K*%
%TO.N,Net-(C18-Pad1)*%
X135550000Y-94207500D03*
%TO.P,D2,2,K*%
X137450000Y-94207500D03*
%TO.P,D2,3,A*%
%TO.N,Net-(D2-A)*%
X136500000Y-92332500D03*
%TD*%
D25*
%TO.P,JP2,1,A*%
%TO.N,+3.3V*%
X137900000Y-100600000D03*
D26*
%TO.P,JP2,2,C*%
%TO.N,Net-(JP2-C)*%
X137899999Y-101899999D03*
D27*
%TO.P,JP2,3,B*%
%TO.N,GND*%
X137900000Y-103200000D03*
%TD*%
D14*
%TO.P,C7,1*%
%TO.N,GND*%
X144675000Y-90200000D03*
%TO.P,C7,2*%
%TO.N,+3.3V*%
X143125000Y-90200000D03*
%TD*%
D28*
%TO.P,R11,1*%
%TO.N,Net-(D2-A)*%
X134000000Y-92445000D03*
%TO.P,R11,2*%
%TO.N,Net-(C18-Pad1)*%
X134000000Y-94095000D03*
%TD*%
D11*
%TO.P,C5,1*%
%TO.N,Net-(U2-OUT2)*%
X152025000Y-94946250D03*
%TO.P,C5,2*%
%TO.N,Net-(C5-Pad2)*%
X153575000Y-94946250D03*
%TD*%
D19*
%TO.P,J7,1,In*%
%TO.N,Net-(J7-In)*%
X121299999Y-91749999D03*
D20*
%TO.P,J7,2,Ext*%
%TO.N,Earth*%
X119899999Y-90274999D03*
X119799999Y-93224999D03*
%TD*%
D15*
%TO.P,R4,1*%
%TO.N,GND*%
X141425000Y-88300000D03*
%TO.P,R4,2*%
%TO.N,Net-(J2-CC2)*%
X139775000Y-88300000D03*
%TD*%
D34*
%TO.P,J2,A1,GND*%
%TO.N,GND*%
X134099999Y-85389999D03*
%TO.P,J2,A4,VBUS*%
%TO.N,Net-(JP3-B)*%
X133299999Y-85389999D03*
D35*
%TO.P,J2,A5,CC1*%
%TO.N,Net-(J2-CC1)*%
X132149999Y-85389999D03*
%TO.P,J2,A6,D+*%
%TO.N,unconnected-(J2-D+-PadA6)*%
X131149999Y-85389999D03*
%TO.P,J2,A7,D-*%
%TO.N,unconnected-(J2-D--PadA7)*%
X130649999Y-85389999D03*
%TO.P,J2,A8,SBU1*%
%TO.N,unconnected-(J2-SBU1-PadA8)*%
X129649999Y-85389999D03*
D34*
%TO.P,J2,A9,VBUS*%
%TO.N,Net-(JP3-B)*%
X128499999Y-85389999D03*
%TO.P,J2,A12,GND*%
%TO.N,GND*%
X127699999Y-85389999D03*
%TO.P,J2,B1,GND*%
X127699999Y-85389999D03*
%TO.P,J2,B4,VBUS*%
%TO.N,Net-(JP3-B)*%
X128499999Y-85389999D03*
D35*
%TO.P,J2,B5,CC2*%
%TO.N,Net-(J2-CC2)*%
X129149999Y-85389999D03*
%TO.P,J2,B6,D+*%
%TO.N,unconnected-(J2-D+-PadB6)*%
X130149999Y-85389999D03*
%TO.P,J2,B7,D-*%
%TO.N,unconnected-(J2-D--PadB7)*%
X131649999Y-85389999D03*
%TO.P,J2,B8,SBU2*%
%TO.N,unconnected-(J2-SBU2-PadB8)*%
X132649999Y-85389999D03*
D34*
%TO.P,J2,B9,VBUS*%
%TO.N,Net-(JP3-B)*%
X133299999Y-85389999D03*
%TO.P,J2,B12,GND*%
%TO.N,GND*%
X134099999Y-85389999D03*
D36*
%TO.P,J2,S1,SHIELD*%
X136009999Y-84814999D03*
X136009999Y-80884999D03*
X125789999Y-84814999D03*
X125789999Y-80884999D03*
%TD*%
D37*
%TO.N,GND*%
X124000000Y-85000000D03*
X120000000Y-85000000D03*
X127000000Y-103000000D03*
X135000000Y-90000000D03*
X150400000Y-87500000D03*
X153000000Y-98000000D03*
X161000000Y-92000000D03*
X157500000Y-83900000D03*
X136900000Y-83100000D03*
X161000000Y-85000000D03*
X158000000Y-98000000D03*
X127000000Y-100000000D03*
X131000000Y-98000000D03*
X126800000Y-86500000D03*
X125000000Y-98000000D03*
X153000000Y-91000000D03*
X138000000Y-90000000D03*
X150300000Y-84900000D03*
X148000000Y-103000000D03*
X139900000Y-103200000D03*
X131000000Y-103000000D03*
X124000000Y-89000000D03*
X144000000Y-103000000D03*
X129000000Y-89000000D03*
X149100000Y-84900000D03*
X149000000Y-79200000D03*
X142900000Y-98000000D03*
X148000000Y-98000000D03*
X135000000Y-86400000D03*
X150300000Y-79200000D03*
X121000000Y-98000000D03*
X153000000Y-103000000D03*
X158000000Y-91000000D03*
%TO.N,+3.3V*%
X144750000Y-86500000D03*
X133700000Y-98300000D03*
X149700000Y-96000000D03*
X141650000Y-90700000D03*
X137900000Y-98300000D03*
X149700000Y-88700000D03*
%TO.N,Net-(JP1-C)*%
X144700000Y-91650000D03*
X135800000Y-101900000D03*
%TO.N,Net-(JP3-B)*%
X138050000Y-81300000D03*
X128000000Y-87100000D03*
X133300000Y-86700000D03*
X146100000Y-79400000D03*
%TO.N,Net-(J1-Pin_2)*%
X146100000Y-84000000D03*
%TD*%
D38*
%TO.N,GND*%
X147750000Y-94245000D02*
X143450000Y-94245000D01*
X127700000Y-85600000D02*
X126800000Y-86500000D01*
X134100000Y-85500000D02*
X135000000Y-86400000D01*
X134100000Y-85390000D02*
X134100000Y-85500000D01*
X127700000Y-85390000D02*
X127700000Y-85600000D01*
%TO.N,Net-(U1-VI)*%
X141025000Y-79500000D02*
X141025000Y-81325000D01*
X141025000Y-79500000D02*
X143337500Y-79500000D01*
%TO.N,+3.3V*%
X148075000Y-90200000D02*
X148075000Y-88700000D01*
X149195000Y-91645000D02*
X149200000Y-91650000D01*
D39*
X149700000Y-96000000D02*
X149700000Y-95500000D01*
X137900000Y-100600000D02*
X137900000Y-98300000D01*
D38*
X141650000Y-91450000D02*
X141650000Y-90700000D01*
X149200000Y-91850000D02*
X149200000Y-91650000D01*
X149200000Y-91650000D02*
X149200000Y-90400000D01*
D39*
X149095000Y-94895000D02*
X147750000Y-94895000D01*
X133700000Y-100600000D02*
X133700000Y-98300000D01*
D38*
X149200000Y-90400000D02*
X149000000Y-90200000D01*
X143337500Y-84100000D02*
X143337500Y-86500000D01*
X147750000Y-92295000D02*
X148755000Y-92295000D01*
X140975000Y-84400000D02*
X141700000Y-84400000D01*
X142495000Y-92295000D02*
X141650000Y-91450000D01*
X141700000Y-84400000D02*
X142000000Y-84100000D01*
X148075000Y-88700000D02*
X149700000Y-88700000D01*
X147750000Y-91645000D02*
X149195000Y-91645000D01*
X142000000Y-84100000D02*
X143337500Y-84100000D01*
D39*
X149700000Y-95500000D02*
X149095000Y-94895000D01*
D38*
X142150000Y-90200000D02*
X143125000Y-90200000D01*
X141650000Y-90700000D02*
X142150000Y-90200000D01*
X148755000Y-92295000D02*
X149200000Y-91850000D01*
X143125000Y-90200000D02*
X143125000Y-88700000D01*
X143450000Y-92295000D02*
X142495000Y-92295000D01*
X149000000Y-90200000D02*
X148075000Y-90200000D01*
X143337500Y-86500000D02*
X144750000Y-86500000D01*
D40*
%TO.N,Net-(U2-OUT1)*%
X149055000Y-92945000D02*
X152025000Y-89975000D01*
X152025000Y-89975000D02*
X152025000Y-88446250D01*
X147750000Y-92945000D02*
X149055000Y-92945000D01*
%TO.N,Net-(C4-Pad2)*%
X153575000Y-88446250D02*
X155050000Y-88446250D01*
%TO.N,Net-(U2-OUT2)*%
X148300000Y-93595000D02*
X147750000Y-93595000D01*
X149595018Y-94204965D02*
X149204982Y-94204965D01*
X152025000Y-94946250D02*
X152025000Y-94025000D01*
X150590050Y-92785049D02*
X150304975Y-92785049D01*
X150995025Y-93190025D02*
X150995025Y-93190024D01*
X149900000Y-93190024D02*
X149900000Y-93190025D01*
X151595000Y-93595000D02*
X151400000Y-93595000D01*
X148595018Y-93595000D02*
X148300000Y-93595000D01*
X148900000Y-93899983D02*
X148900000Y-93899982D01*
X149900000Y-93190025D02*
X149900000Y-93899983D01*
X152025000Y-94025000D02*
X151595000Y-93595000D01*
X148900000Y-93899982D02*
G75*
G03*
X148595018Y-93595000I-305000J-18D01*
G01*
X148900035Y-93899983D02*
G75*
G03*
X149204982Y-94204965I304965J-17D01*
G01*
X149595018Y-94205000D02*
G75*
G03*
X149900000Y-93899983I-18J305000D01*
G01*
X150995051Y-93190024D02*
G75*
G03*
X150590050Y-92785049I-404951J24D01*
G01*
X150304975Y-92785000D02*
G75*
G03*
X149900000Y-93190024I25J-405000D01*
G01*
X150995000Y-93190025D02*
G75*
G03*
X151400000Y-93595000I405000J25D01*
G01*
%TO.N,Net-(C5-Pad2)*%
X153575000Y-94946250D02*
X155075000Y-94946250D01*
%TO.N,Net-(J7-In)*%
X121300000Y-91750000D02*
X122825000Y-91750000D01*
%TO.N,Net-(T1-AA)*%
X124375000Y-91750000D02*
X126175000Y-91750000D01*
%TO.N,Net-(D2-A)*%
X139125000Y-92445000D02*
X134000000Y-92445000D01*
X132525000Y-91750000D02*
X133305000Y-91750000D01*
X133305000Y-91750000D02*
X134000000Y-92445000D01*
%TO.N,Net-(U2-IN+)*%
X141745000Y-92445000D02*
X142245000Y-92945000D01*
X140675000Y-92445000D02*
X141745000Y-92445000D01*
X142245000Y-92945000D02*
X143450000Y-92945000D01*
%TO.N,Net-(T1-SC)*%
X128130000Y-93270000D02*
X127700000Y-93700000D01*
X129225000Y-93270000D02*
X128130000Y-93270000D01*
X127700000Y-93700000D02*
X127700000Y-96425000D01*
%TO.N,Net-(C18-Pad1)*%
X133305000Y-94790000D02*
X134000000Y-94095000D01*
X132525000Y-94790000D02*
X133305000Y-94790000D01*
X139125000Y-94095000D02*
X134000000Y-94095000D01*
%TO.N,Net-(U2-IN-)*%
X142205000Y-93595000D02*
X143450000Y-93595000D01*
X141705000Y-94095000D02*
X142205000Y-93595000D01*
X140675000Y-94095000D02*
X141705000Y-94095000D01*
D39*
%TO.N,Net-(D1-K)*%
X140700000Y-86500000D02*
X141462500Y-86500000D01*
X140500000Y-85900000D02*
X140600000Y-86000000D01*
X140600000Y-86000000D02*
X140600000Y-86400000D01*
X140600000Y-86400000D02*
X140700000Y-86500000D01*
X139925000Y-85900000D02*
X140500000Y-85900000D01*
%TO.N,Net-(J2-CC1)*%
X132500000Y-87500000D02*
X132150000Y-87150000D01*
X136675000Y-87500000D02*
X132500000Y-87500000D01*
X132150000Y-87150000D02*
X132150000Y-85390000D01*
%TO.N,Net-(J2-CC2)*%
X130300000Y-88300000D02*
X129150000Y-87150000D01*
X139775000Y-88300000D02*
X130300000Y-88300000D01*
X129150000Y-87150000D02*
X129150000Y-85390000D01*
D40*
%TO.N,Net-(J3-In)*%
X156700000Y-88446250D02*
X159700000Y-88446250D01*
%TO.N,Net-(J4-In)*%
X156725000Y-94946250D02*
X159700000Y-94946250D01*
D39*
%TO.N,Net-(JP1-C)*%
X135800000Y-101900000D02*
X133700000Y-101900000D01*
X143450000Y-91645000D02*
X144695000Y-91645000D01*
X144695000Y-91645000D02*
X144700000Y-91650000D01*
%TO.N,Net-(JP2-C)*%
X137900000Y-101900000D02*
X139400000Y-101900000D01*
X139900000Y-96900000D02*
X141900000Y-94900000D01*
X139900000Y-101400000D02*
X139900000Y-96900000D01*
X141900000Y-94900000D02*
X143445000Y-94900000D01*
X143445000Y-94900000D02*
X143450000Y-94895000D01*
X139400000Y-101900000D02*
X139900000Y-101400000D01*
D40*
%TO.N,Net-(T1-SB)*%
X129225000Y-91750000D02*
X130875000Y-91750000D01*
%TO.N,Net-(T1-SA)*%
X129225000Y-94790000D02*
X130875000Y-94790000D01*
D38*
%TO.N,Net-(JP3-B)*%
X133300000Y-85390000D02*
X133300000Y-86700000D01*
X139200000Y-81325000D02*
X139200000Y-79500000D01*
X139200000Y-81300000D02*
X138050000Y-81300000D01*
X146100000Y-79400000D02*
X146100000Y-81100000D01*
X128500000Y-86600000D02*
X128500000Y-85390000D01*
X128000000Y-87100000D02*
X128500000Y-86600000D01*
%TO.N,Net-(J1-Pin_2)*%
X146100000Y-84000000D02*
X146100000Y-82400000D01*
%TD*%
%TA.AperFunction,Conductor*%
%TO.N,Earth*%
G36*
X121838000Y-89516613D02*
G01*
X121883387Y-89562000D01*
X121900000Y-89624000D01*
X121900000Y-90625500D01*
X121883387Y-90687500D01*
X121838000Y-90732887D01*
X121776000Y-90749500D01*
X120755439Y-90749500D01*
X120755420Y-90749500D01*
X120752128Y-90749501D01*
X120748850Y-90749853D01*
X120748838Y-90749854D01*
X120700231Y-90755079D01*
X120700225Y-90755080D01*
X120692517Y-90755909D01*
X120685252Y-90758618D01*
X120685246Y-90758620D01*
X120565980Y-90803104D01*
X120565978Y-90803104D01*
X120557669Y-90806204D01*
X120550572Y-90811516D01*
X120550568Y-90811519D01*
X120449550Y-90887141D01*
X120449546Y-90887144D01*
X120442454Y-90892454D01*
X120437144Y-90899546D01*
X120437141Y-90899550D01*
X120361519Y-91000568D01*
X120361516Y-91000572D01*
X120356204Y-91007669D01*
X120353104Y-91015978D01*
X120353104Y-91015980D01*
X120308620Y-91135247D01*
X120308619Y-91135250D01*
X120305909Y-91142517D01*
X120305079Y-91150227D01*
X120305079Y-91150232D01*
X120299855Y-91198819D01*
X120299854Y-91198831D01*
X120299500Y-91202127D01*
X120299500Y-91205448D01*
X120299500Y-91205449D01*
X120299500Y-92294560D01*
X120299500Y-92294578D01*
X120299501Y-92297872D01*
X120299853Y-92301150D01*
X120299854Y-92301161D01*
X120305079Y-92349768D01*
X120305080Y-92349773D01*
X120305909Y-92357483D01*
X120308619Y-92364749D01*
X120308620Y-92364753D01*
X120341551Y-92453044D01*
X120356204Y-92492331D01*
X120361518Y-92499430D01*
X120361519Y-92499431D01*
X120428090Y-92588359D01*
X120442454Y-92607546D01*
X120557669Y-92693796D01*
X120692517Y-92744091D01*
X120752127Y-92750500D01*
X121847872Y-92750499D01*
X121907483Y-92744091D01*
X122042331Y-92693796D01*
X122110518Y-92642750D01*
X122154849Y-92621696D01*
X122203879Y-92619490D01*
X122249923Y-92636479D01*
X122291303Y-92662003D01*
X122452292Y-92715349D01*
X122551655Y-92725500D01*
X123098344Y-92725499D01*
X123197708Y-92715349D01*
X123358697Y-92662003D01*
X123429289Y-92618460D01*
X123494385Y-92600000D01*
X123705615Y-92600000D01*
X123770710Y-92618460D01*
X123841303Y-92662003D01*
X124002292Y-92715349D01*
X124101655Y-92725500D01*
X124648344Y-92725499D01*
X124747708Y-92715349D01*
X124908697Y-92662003D01*
X124925357Y-92651726D01*
X124980343Y-92633677D01*
X125037537Y-92642550D01*
X125084473Y-92676415D01*
X125110926Y-92727894D01*
X125111119Y-92781953D01*
X125110909Y-92782517D01*
X125110080Y-92790222D01*
X125110079Y-92790229D01*
X125104855Y-92838819D01*
X125104854Y-92838831D01*
X125104500Y-92842127D01*
X125104500Y-92845448D01*
X125104500Y-92845449D01*
X125104500Y-93694560D01*
X125104500Y-93694578D01*
X125104501Y-93697872D01*
X125104853Y-93701150D01*
X125104854Y-93701161D01*
X125110079Y-93749768D01*
X125110080Y-93749773D01*
X125110909Y-93757483D01*
X125113619Y-93764749D01*
X125113620Y-93764753D01*
X125147217Y-93854831D01*
X125161204Y-93892331D01*
X125247454Y-94007546D01*
X125362669Y-94093796D01*
X125497517Y-94144091D01*
X125557127Y-94150500D01*
X126792872Y-94150499D01*
X126852483Y-94144091D01*
X126852499Y-94144244D01*
X126902902Y-94143909D01*
X126952943Y-94167715D01*
X126987618Y-94210942D01*
X127000000Y-94264956D01*
X127000000Y-95276000D01*
X126983387Y-95338000D01*
X126938000Y-95383387D01*
X126876000Y-95400000D01*
X118524500Y-95400000D01*
X118462500Y-95383387D01*
X118417113Y-95338000D01*
X118400500Y-95276000D01*
X118400500Y-89624000D01*
X118417113Y-89562000D01*
X118462500Y-89516613D01*
X118524500Y-89500000D01*
X121776000Y-89500000D01*
X121838000Y-89516613D01*
G37*
%TD.AperFunction*%
%TD*%
%TA.AperFunction,Conductor*%
%TO.N,GND*%
G36*
X138296938Y-78417566D02*
G01*
X138342436Y-78464068D01*
X138358130Y-78527204D01*
X138339698Y-78589596D01*
X138257236Y-78723290D01*
X138252686Y-78730666D01*
X138250415Y-78737517D01*
X138250414Y-78737521D01*
X138205385Y-78873410D01*
X138197501Y-78897203D01*
X138196813Y-78903933D01*
X138196812Y-78903940D01*
X138187319Y-78996859D01*
X138187318Y-78996877D01*
X138187000Y-78999991D01*
X138187000Y-79003138D01*
X138187000Y-79003139D01*
X138187000Y-79996859D01*
X138187000Y-79996878D01*
X138187001Y-80000008D01*
X138187320Y-80003140D01*
X138187321Y-80003141D01*
X138196812Y-80096061D01*
X138196813Y-80096069D01*
X138197501Y-80102797D01*
X138240301Y-80231959D01*
X138241805Y-80236496D01*
X138246656Y-80294363D01*
X138224629Y-80348093D01*
X138180555Y-80385903D01*
X138124099Y-80399500D01*
X137955354Y-80399500D01*
X137948995Y-80400851D01*
X137948991Y-80400852D01*
X137776559Y-80437503D01*
X137776552Y-80437505D01*
X137770197Y-80438856D01*
X137764262Y-80441498D01*
X137764254Y-80441501D01*
X137603207Y-80513205D01*
X137603202Y-80513207D01*
X137597270Y-80515849D01*
X137592016Y-80519665D01*
X137592011Y-80519669D01*
X137449388Y-80623290D01*
X137449381Y-80623295D01*
X137444129Y-80627112D01*
X137439784Y-80631937D01*
X137439779Y-80631942D01*
X137321813Y-80762956D01*
X137321808Y-80762962D01*
X137317467Y-80767784D01*
X137314222Y-80773404D01*
X137314218Y-80773410D01*
X137226069Y-80926089D01*
X137226066Y-80926094D01*
X137222821Y-80931716D01*
X137220815Y-80937888D01*
X137220813Y-80937894D01*
X137166333Y-81105564D01*
X137166331Y-81105573D01*
X137164326Y-81111744D01*
X137163648Y-81118194D01*
X137163646Y-81118204D01*
X137151517Y-81233613D01*
X137144540Y-81300000D01*
X137145219Y-81306460D01*
X137163646Y-81481795D01*
X137163647Y-81481803D01*
X137164326Y-81488256D01*
X137166331Y-81494428D01*
X137166333Y-81494435D01*
X137220813Y-81662105D01*
X137222821Y-81668284D01*
X137226068Y-81673908D01*
X137226069Y-81673910D01*
X137313690Y-81825675D01*
X137317467Y-81832216D01*
X137321811Y-81837041D01*
X137321813Y-81837043D01*
X137418319Y-81944223D01*
X137444129Y-81972888D01*
X137449387Y-81976708D01*
X137449388Y-81976709D01*
X137463573Y-81987015D01*
X137597270Y-82084151D01*
X137770197Y-82161144D01*
X137955354Y-82200500D01*
X138138143Y-82200500D01*
X138144646Y-82200500D01*
X138329803Y-82161144D01*
X138426560Y-82118064D01*
X138485281Y-82107621D01*
X138542085Y-82125804D01*
X138641303Y-82187003D01*
X138802292Y-82240349D01*
X138901655Y-82250500D01*
X139498344Y-82250499D01*
X139597708Y-82240349D01*
X139758697Y-82187003D01*
X139903044Y-82097968D01*
X140013999Y-81987012D01*
X140074252Y-81953767D01*
X140142956Y-81957768D01*
X140198666Y-81997588D01*
X140202032Y-82003044D01*
X140321956Y-82122968D01*
X140466303Y-82212003D01*
X140627292Y-82265349D01*
X140726655Y-82275500D01*
X141323344Y-82275499D01*
X141422708Y-82265349D01*
X141583697Y-82212003D01*
X141728044Y-82122968D01*
X141847968Y-82003044D01*
X141937003Y-81858697D01*
X141990349Y-81697708D01*
X142000500Y-81598345D01*
X142000499Y-81051656D01*
X141990349Y-80952292D01*
X141959215Y-80858337D01*
X141956534Y-80789622D01*
X141990879Y-80730045D01*
X142051686Y-80697929D01*
X142120253Y-80703151D01*
X142230017Y-80744091D01*
X142289627Y-80750500D01*
X144385372Y-80750499D01*
X144444983Y-80744091D01*
X144579831Y-80693796D01*
X144695046Y-80607546D01*
X144707303Y-80591171D01*
X144753717Y-80553309D01*
X144812467Y-80541621D01*
X144869841Y-80558837D01*
X144912450Y-80600940D01*
X144930351Y-80658104D01*
X144919367Y-80716988D01*
X144905342Y-80747700D01*
X144904094Y-80751950D01*
X144904093Y-80751953D01*
X144866083Y-80881402D01*
X144866080Y-80881412D01*
X144864835Y-80885655D01*
X144864205Y-80890032D01*
X144864204Y-80890040D01*
X144844982Y-81023730D01*
X144844981Y-81023742D01*
X144844353Y-81028111D01*
X144844353Y-81600000D01*
X144844881Y-81604017D01*
X144844882Y-81604019D01*
X144861583Y-81730871D01*
X144859211Y-81731183D01*
X144859213Y-81768817D01*
X144861583Y-81769129D01*
X144844353Y-81900000D01*
X144844353Y-82471889D01*
X144844981Y-82476258D01*
X144844982Y-82476269D01*
X144862219Y-82596152D01*
X144864835Y-82614345D01*
X144866081Y-82618590D01*
X144866083Y-82618597D01*
X144895284Y-82718044D01*
X144905342Y-82752300D01*
X144907180Y-82756326D01*
X144907184Y-82756335D01*
X144963286Y-82879181D01*
X144965129Y-82883216D01*
X144967519Y-82886936D01*
X144967523Y-82886942D01*
X145022590Y-82972628D01*
X145042861Y-83004170D01*
X145086097Y-83061927D01*
X145137113Y-83112943D01*
X145245774Y-83207097D01*
X145249502Y-83209493D01*
X145249513Y-83209501D01*
X145342539Y-83269285D01*
X145384332Y-83314173D01*
X145399500Y-83373600D01*
X145399500Y-83384608D01*
X145391251Y-83429080D01*
X145374296Y-83456720D01*
X145375637Y-83457694D01*
X145371812Y-83462957D01*
X145367467Y-83467784D01*
X145364220Y-83473407D01*
X145364217Y-83473412D01*
X145276069Y-83626089D01*
X145276066Y-83626094D01*
X145272821Y-83631716D01*
X145270815Y-83637888D01*
X145270813Y-83637894D01*
X145216333Y-83805564D01*
X145216331Y-83805573D01*
X145214326Y-83811744D01*
X145213648Y-83818194D01*
X145213646Y-83818204D01*
X145204572Y-83904549D01*
X145194540Y-84000000D01*
X145195219Y-84006460D01*
X145213646Y-84181795D01*
X145213647Y-84181803D01*
X145214326Y-84188256D01*
X145216331Y-84194428D01*
X145216333Y-84194435D01*
X145256703Y-84318679D01*
X145272821Y-84368284D01*
X145367467Y-84532216D01*
X145494129Y-84672888D01*
X145499387Y-84676708D01*
X145499388Y-84676709D01*
X145557607Y-84719007D01*
X145647270Y-84784151D01*
X145820197Y-84861144D01*
X146005354Y-84900500D01*
X146188143Y-84900500D01*
X146194646Y-84900500D01*
X146379803Y-84861144D01*
X146552730Y-84784151D01*
X146705871Y-84672888D01*
X146832533Y-84532216D01*
X146927179Y-84368284D01*
X146985674Y-84188256D01*
X147005460Y-84000000D01*
X146985674Y-83811744D01*
X146927179Y-83631716D01*
X146832533Y-83467784D01*
X146828185Y-83462955D01*
X146824363Y-83457694D01*
X146825703Y-83456720D01*
X146808749Y-83429080D01*
X146800500Y-83384608D01*
X146800500Y-83373600D01*
X146815668Y-83314173D01*
X146857461Y-83269285D01*
X146950486Y-83209501D01*
X146950490Y-83209497D01*
X146954226Y-83207097D01*
X147062887Y-83112943D01*
X147113903Y-83061927D01*
X147157139Y-83004170D01*
X147234871Y-82883216D01*
X147294658Y-82752300D01*
X147335165Y-82614345D01*
X147355647Y-82471889D01*
X147355647Y-82083216D01*
X153869500Y-82083216D01*
X153869722Y-82085832D01*
X153869723Y-82085840D01*
X153883882Y-82252199D01*
X153883883Y-82252208D01*
X153884330Y-82257453D01*
X153943115Y-82483219D01*
X153945283Y-82488015D01*
X153945284Y-82488018D01*
X154037036Y-82690999D01*
X154037040Y-82691007D01*
X154039208Y-82695802D01*
X154169847Y-82889088D01*
X154331272Y-83057516D01*
X154518839Y-83196240D01*
X154727153Y-83301270D01*
X154950220Y-83369583D01*
X155181624Y-83399216D01*
X155414707Y-83389314D01*
X155642765Y-83340164D01*
X155859235Y-83253179D01*
X156057891Y-83130862D01*
X156233018Y-82976731D01*
X156379578Y-82795220D01*
X156493354Y-82591552D01*
X156571073Y-82371584D01*
X156610500Y-82141647D01*
X156610500Y-81516784D01*
X156595670Y-81342547D01*
X156550160Y-81167765D01*
X158045788Y-81167765D01*
X158046282Y-81172262D01*
X158046283Y-81172267D01*
X158074917Y-81432506D01*
X158074918Y-81432513D01*
X158075414Y-81437018D01*
X158076559Y-81441398D01*
X158076561Y-81441408D01*
X158096955Y-81519415D01*
X158143928Y-81699088D01*
X158145693Y-81703242D01*
X158145696Y-81703250D01*
X158214367Y-81864845D01*
X158249870Y-81948390D01*
X158252226Y-81952251D01*
X158252229Y-81952256D01*
X158378097Y-82158498D01*
X158390982Y-82179610D01*
X158460561Y-82263218D01*
X158554878Y-82376553D01*
X158564255Y-82387820D01*
X158567630Y-82390844D01*
X158567631Y-82390845D01*
X158672330Y-82484656D01*
X158765998Y-82568582D01*
X158991910Y-82718044D01*
X159237176Y-82833020D01*
X159496569Y-82911060D01*
X159764561Y-82950500D01*
X159965369Y-82950500D01*
X159967631Y-82950500D01*
X160170156Y-82935677D01*
X160434553Y-82876780D01*
X160687558Y-82780014D01*
X160923777Y-82647441D01*
X161138177Y-82481888D01*
X161326186Y-82286881D01*
X161483799Y-82066579D01*
X161607656Y-81825675D01*
X161695118Y-81569305D01*
X161744319Y-81302933D01*
X161754212Y-81032235D01*
X161724586Y-80762982D01*
X161656072Y-80500912D01*
X161652425Y-80492331D01*
X161613551Y-80400852D01*
X161550130Y-80251610D01*
X161409018Y-80020390D01*
X161235745Y-79812180D01*
X161130759Y-79718112D01*
X161037382Y-79634446D01*
X161037378Y-79634442D01*
X161034002Y-79631418D01*
X160808090Y-79481956D01*
X160803996Y-79480036D01*
X160803991Y-79480034D01*
X160566929Y-79368904D01*
X160566925Y-79368902D01*
X160562824Y-79366980D01*
X160558477Y-79365672D01*
X160558474Y-79365671D01*
X160307772Y-79290246D01*
X160307771Y-79290245D01*
X160303431Y-79288940D01*
X160298957Y-79288281D01*
X160298950Y-79288280D01*
X160039913Y-79250158D01*
X160039907Y-79250157D01*
X160035439Y-79249500D01*
X159832369Y-79249500D01*
X159830120Y-79249664D01*
X159830109Y-79249665D01*
X159634363Y-79263992D01*
X159634359Y-79263992D01*
X159629844Y-79264323D01*
X159625426Y-79265307D01*
X159625420Y-79265308D01*
X159369877Y-79322232D01*
X159369861Y-79322236D01*
X159365447Y-79323220D01*
X159361216Y-79324838D01*
X159361210Y-79324840D01*
X159116673Y-79418367D01*
X159116663Y-79418371D01*
X159112442Y-79419986D01*
X159108494Y-79422201D01*
X159108489Y-79422204D01*
X158880176Y-79550340D01*
X158880171Y-79550343D01*
X158876223Y-79552559D01*
X158872639Y-79555325D01*
X158872635Y-79555329D01*
X158665407Y-79715343D01*
X158665394Y-79715354D01*
X158661823Y-79718112D01*
X158658685Y-79721366D01*
X158658678Y-79721373D01*
X158476958Y-79909857D01*
X158476952Y-79909864D01*
X158473814Y-79913119D01*
X158471189Y-79916787D01*
X158471179Y-79916800D01*
X158318834Y-80129740D01*
X158318830Y-80129745D01*
X158316201Y-80133421D01*
X158314132Y-80137444D01*
X158314129Y-80137450D01*
X158194416Y-80370293D01*
X158194411Y-80370304D01*
X158192344Y-80374325D01*
X158190884Y-80378602D01*
X158190879Y-80378616D01*
X158106348Y-80626395D01*
X158106344Y-80626407D01*
X158104882Y-80630695D01*
X158104057Y-80635159D01*
X158104057Y-80635161D01*
X158056504Y-80892606D01*
X158056502Y-80892619D01*
X158055681Y-80897067D01*
X158055515Y-80901593D01*
X158055515Y-80901599D01*
X158047827Y-81111981D01*
X158045788Y-81167765D01*
X156550160Y-81167765D01*
X156536885Y-81116781D01*
X156459627Y-80945865D01*
X156442963Y-80909000D01*
X156442961Y-80908996D01*
X156440792Y-80904198D01*
X156310153Y-80710912D01*
X156148728Y-80542484D01*
X156098296Y-80505185D01*
X156080917Y-80492331D01*
X155961161Y-80403760D01*
X155956465Y-80401392D01*
X155956463Y-80401391D01*
X155757706Y-80301180D01*
X155752847Y-80298730D01*
X155725967Y-80290498D01*
X155534816Y-80231959D01*
X155534813Y-80231958D01*
X155529780Y-80230417D01*
X155524556Y-80229748D01*
X155303593Y-80201452D01*
X155303592Y-80201451D01*
X155298376Y-80200784D01*
X155293121Y-80201007D01*
X155293117Y-80201007D01*
X155070558Y-80210462D01*
X155070554Y-80210462D01*
X155065293Y-80210686D01*
X155060153Y-80211793D01*
X155060143Y-80211795D01*
X154842383Y-80258726D01*
X154842377Y-80258727D01*
X154837235Y-80259836D01*
X154832351Y-80261798D01*
X154832346Y-80261800D01*
X154625649Y-80344858D01*
X154625644Y-80344860D01*
X154620765Y-80346821D01*
X154616288Y-80349577D01*
X154616285Y-80349579D01*
X154426588Y-80466379D01*
X154426578Y-80466386D01*
X154422109Y-80469138D01*
X154418167Y-80472607D01*
X154418158Y-80472614D01*
X154258811Y-80612858D01*
X154246982Y-80623269D01*
X154243674Y-80627365D01*
X154243669Y-80627371D01*
X154117512Y-80783614D01*
X154100422Y-80804780D01*
X154097855Y-80809374D01*
X154097853Y-80809378D01*
X153989215Y-81003847D01*
X153989209Y-81003858D01*
X153986646Y-81008448D01*
X153984893Y-81013408D01*
X153984890Y-81013416D01*
X153910682Y-81223446D01*
X153910679Y-81223456D01*
X153908927Y-81228416D01*
X153908037Y-81233603D01*
X153908035Y-81233613D01*
X153870390Y-81453159D01*
X153870389Y-81453166D01*
X153869500Y-81458353D01*
X153869500Y-82083216D01*
X147355647Y-82083216D01*
X147355647Y-81900000D01*
X147338417Y-81769129D01*
X147340797Y-81768816D01*
X147340797Y-81731184D01*
X147338417Y-81730871D01*
X147342783Y-81697708D01*
X147355647Y-81600000D01*
X147355647Y-81028111D01*
X147335165Y-80885655D01*
X147294658Y-80747700D01*
X147234871Y-80616784D01*
X147224374Y-80600451D01*
X147194078Y-80553309D01*
X147157139Y-80495830D01*
X147113903Y-80438073D01*
X147062887Y-80387057D01*
X147053145Y-80378616D01*
X146957580Y-80295809D01*
X146957578Y-80295807D01*
X146954226Y-80292903D01*
X146950499Y-80290508D01*
X146950486Y-80290498D01*
X146857461Y-80230715D01*
X146815668Y-80185827D01*
X146800500Y-80126400D01*
X146800500Y-80015392D01*
X146808749Y-79970920D01*
X146825703Y-79943279D01*
X146824363Y-79942306D01*
X146828184Y-79937045D01*
X146832533Y-79932216D01*
X146927179Y-79768284D01*
X146985674Y-79588256D01*
X147005460Y-79400000D01*
X146985674Y-79211744D01*
X146927179Y-79031716D01*
X146832533Y-78867784D01*
X146705871Y-78727112D01*
X146700613Y-78723292D01*
X146700611Y-78723290D01*
X146565075Y-78624818D01*
X146525762Y-78577297D01*
X146514205Y-78516714D01*
X146533263Y-78458058D01*
X146578223Y-78415838D01*
X146637960Y-78400500D01*
X162475500Y-78400500D01*
X162537500Y-78417113D01*
X162582887Y-78462500D01*
X162599500Y-78524500D01*
X162599500Y-104975500D01*
X162582887Y-105037500D01*
X162537500Y-105082887D01*
X162475500Y-105099500D01*
X118524500Y-105099500D01*
X118462500Y-105082887D01*
X118417113Y-105037500D01*
X118400500Y-104975500D01*
X118400500Y-102467765D01*
X119245788Y-102467765D01*
X119246282Y-102472262D01*
X119246283Y-102472267D01*
X119274917Y-102732506D01*
X119274918Y-102732513D01*
X119275414Y-102737018D01*
X119276559Y-102741398D01*
X119276561Y-102741408D01*
X119339605Y-102982554D01*
X119343928Y-102999088D01*
X119345693Y-103003242D01*
X119345696Y-103003250D01*
X119448099Y-103244223D01*
X119449870Y-103248390D01*
X119452226Y-103252251D01*
X119452229Y-103252256D01*
X119588618Y-103475737D01*
X119590982Y-103479610D01*
X119764255Y-103687820D01*
X119767630Y-103690844D01*
X119767631Y-103690845D01*
X119950513Y-103854708D01*
X119965998Y-103868582D01*
X120191910Y-104018044D01*
X120437176Y-104133020D01*
X120696569Y-104211060D01*
X120964561Y-104250500D01*
X121165369Y-104250500D01*
X121167631Y-104250500D01*
X121370156Y-104235677D01*
X121634553Y-104176780D01*
X121714536Y-104146189D01*
X133111387Y-104146189D01*
X133120838Y-104152750D01*
X133161215Y-104167810D01*
X133169702Y-104170302D01*
X133233623Y-104184207D01*
X133237990Y-104184995D01*
X133375911Y-104204825D01*
X133380326Y-104205300D01*
X133445582Y-104209968D01*
X133454418Y-104209968D01*
X133517472Y-104205458D01*
X133526319Y-104205142D01*
X133873681Y-104205142D01*
X133882528Y-104205458D01*
X133945582Y-104209968D01*
X133954418Y-104209968D01*
X134019673Y-104205300D01*
X134024088Y-104204825D01*
X134162009Y-104184995D01*
X134166376Y-104184207D01*
X134230306Y-104170300D01*
X134238775Y-104167813D01*
X134279161Y-104152749D01*
X134288610Y-104146189D01*
X137311387Y-104146189D01*
X137320838Y-104152750D01*
X137361215Y-104167810D01*
X137369702Y-104170302D01*
X137433623Y-104184207D01*
X137437990Y-104184995D01*
X137575911Y-104204825D01*
X137580326Y-104205300D01*
X137645582Y-104209968D01*
X137654418Y-104209968D01*
X137717472Y-104205458D01*
X137726319Y-104205142D01*
X138073681Y-104205142D01*
X138082528Y-104205458D01*
X138145582Y-104209968D01*
X138154418Y-104209968D01*
X138219673Y-104205300D01*
X138224088Y-104204825D01*
X138362009Y-104184995D01*
X138366376Y-104184207D01*
X138430306Y-104170300D01*
X138438775Y-104167813D01*
X138479161Y-104152749D01*
X138488611Y-104146188D01*
X138482741Y-104136294D01*
X137911542Y-103565095D01*
X137899999Y-103558431D01*
X137888457Y-103565095D01*
X137317257Y-104136295D01*
X137311387Y-104146189D01*
X134288610Y-104146189D01*
X134288611Y-104146188D01*
X134282741Y-104136294D01*
X133711542Y-103565095D01*
X133699999Y-103558431D01*
X133688457Y-103565095D01*
X133117257Y-104136295D01*
X133111387Y-104146189D01*
X121714536Y-104146189D01*
X121887558Y-104080014D01*
X122123777Y-103947441D01*
X122338177Y-103781888D01*
X122526186Y-103586881D01*
X122683799Y-103366579D01*
X122807656Y-103125675D01*
X122895118Y-102869305D01*
X122944319Y-102602933D01*
X122954212Y-102332235D01*
X122924586Y-102062982D01*
X122856072Y-101800912D01*
X122750130Y-101551610D01*
X122609018Y-101320390D01*
X122435745Y-101112180D01*
X122432368Y-101109154D01*
X122237382Y-100934446D01*
X122237378Y-100934442D01*
X122234002Y-100931418D01*
X122008090Y-100781956D01*
X122003996Y-100780036D01*
X122003991Y-100780034D01*
X121766929Y-100668904D01*
X121766925Y-100668902D01*
X121762824Y-100666980D01*
X121758477Y-100665672D01*
X121758474Y-100665671D01*
X121507772Y-100590246D01*
X121507771Y-100590245D01*
X121503431Y-100588940D01*
X121498957Y-100588281D01*
X121498950Y-100588280D01*
X121239913Y-100550158D01*
X121239907Y-100550157D01*
X121235439Y-100549500D01*
X121032369Y-100549500D01*
X121030120Y-100549664D01*
X121030109Y-100549665D01*
X120834363Y-100563992D01*
X120834359Y-100563992D01*
X120829844Y-100564323D01*
X120825426Y-100565307D01*
X120825420Y-100565308D01*
X120569877Y-100622232D01*
X120569861Y-100622236D01*
X120565447Y-100623220D01*
X120561216Y-100624838D01*
X120561210Y-100624840D01*
X120316673Y-100718367D01*
X120316663Y-100718371D01*
X120312442Y-100719986D01*
X120308494Y-100722201D01*
X120308489Y-100722204D01*
X120080176Y-100850340D01*
X120080171Y-100850343D01*
X120076223Y-100852559D01*
X120072639Y-100855325D01*
X120072635Y-100855329D01*
X119865407Y-101015343D01*
X119865394Y-101015354D01*
X119861823Y-101018112D01*
X119858685Y-101021366D01*
X119858678Y-101021373D01*
X119676958Y-101209857D01*
X119676952Y-101209864D01*
X119673814Y-101213119D01*
X119671189Y-101216787D01*
X119671179Y-101216800D01*
X119518834Y-101429740D01*
X119518830Y-101429745D01*
X119516201Y-101433421D01*
X119514132Y-101437444D01*
X119514129Y-101437450D01*
X119394416Y-101670293D01*
X119394411Y-101670304D01*
X119392344Y-101674325D01*
X119390884Y-101678602D01*
X119390879Y-101678616D01*
X119306348Y-101926395D01*
X119306344Y-101926407D01*
X119304882Y-101930695D01*
X119304057Y-101935159D01*
X119304057Y-101935161D01*
X119256504Y-102192606D01*
X119256502Y-102192619D01*
X119255681Y-102197067D01*
X119255515Y-102201593D01*
X119255515Y-102201599D01*
X119246077Y-102459862D01*
X119245788Y-102467765D01*
X118400500Y-102467765D01*
X118400500Y-96029500D01*
X118417113Y-95967500D01*
X118462500Y-95922113D01*
X118524500Y-95905500D01*
X126613474Y-95905500D01*
X126666897Y-95917598D01*
X126709895Y-95951532D01*
X126734078Y-96000681D01*
X126734689Y-96052176D01*
X126734651Y-96052292D01*
X126733963Y-96059023D01*
X126733963Y-96059025D01*
X126724819Y-96148523D01*
X126724818Y-96148541D01*
X126724500Y-96151655D01*
X126724500Y-96154802D01*
X126724500Y-96154803D01*
X126724500Y-96695194D01*
X126724500Y-96695213D01*
X126724501Y-96698344D01*
X126724820Y-96701476D01*
X126724821Y-96701477D01*
X126733962Y-96790972D01*
X126733963Y-96790980D01*
X126734651Y-96797708D01*
X126736779Y-96804131D01*
X126736780Y-96804134D01*
X126776392Y-96923676D01*
X126787997Y-96958697D01*
X126877032Y-97103044D01*
X126996956Y-97222968D01*
X127141303Y-97312003D01*
X127302292Y-97365349D01*
X127401655Y-97375500D01*
X127998344Y-97375499D01*
X128097708Y-97365349D01*
X128258697Y-97312003D01*
X128403044Y-97222968D01*
X128522968Y-97103044D01*
X128612003Y-96958697D01*
X128665349Y-96797708D01*
X128675500Y-96698345D01*
X128675499Y-96151656D01*
X128665349Y-96052292D01*
X128612003Y-95891303D01*
X128592444Y-95859593D01*
X128574014Y-95797204D01*
X128589707Y-95734067D01*
X128635205Y-95687566D01*
X128697980Y-95670499D01*
X129842872Y-95670499D01*
X129902483Y-95664091D01*
X130037331Y-95613796D01*
X130063295Y-95594358D01*
X130117040Y-95571342D01*
X130175361Y-95575513D01*
X130225287Y-95605944D01*
X130239815Y-95620472D01*
X130385394Y-95708478D01*
X130504859Y-95745704D01*
X130541542Y-95757135D01*
X130541544Y-95757135D01*
X130547804Y-95759086D01*
X130618384Y-95765500D01*
X131128797Y-95765500D01*
X131131616Y-95765500D01*
X131202196Y-95759086D01*
X131364606Y-95708478D01*
X131510185Y-95620472D01*
X131612319Y-95518337D01*
X131667906Y-95486244D01*
X131732094Y-95486244D01*
X131787681Y-95518338D01*
X131889815Y-95620472D01*
X132035394Y-95708478D01*
X132154859Y-95745704D01*
X132191542Y-95757135D01*
X132191544Y-95757135D01*
X132197804Y-95759086D01*
X132268384Y-95765500D01*
X132778797Y-95765500D01*
X132781616Y-95765500D01*
X132852196Y-95759086D01*
X133014606Y-95708478D01*
X133160185Y-95620472D01*
X133280472Y-95500185D01*
X133284352Y-95493766D01*
X133288980Y-95487860D01*
X133290739Y-95489238D01*
X133325219Y-95455247D01*
X133383938Y-95438339D01*
X133407569Y-95437597D01*
X133427951Y-95431674D01*
X133446991Y-95427731D01*
X133468058Y-95425071D01*
X133488859Y-95416835D01*
X133510508Y-95408264D01*
X133521557Y-95404480D01*
X133565398Y-95391744D01*
X133583660Y-95380942D01*
X133601136Y-95372380D01*
X133620871Y-95364568D01*
X133657816Y-95337725D01*
X133667558Y-95331326D01*
X133706865Y-95308081D01*
X133721869Y-95293076D01*
X133736664Y-95280438D01*
X133753837Y-95267963D01*
X133782947Y-95232772D01*
X133790780Y-95224164D01*
X133983129Y-95031816D01*
X134023356Y-95004939D01*
X134070808Y-94995500D01*
X134328797Y-94995500D01*
X134331616Y-94995500D01*
X134402196Y-94989086D01*
X134564606Y-94938478D01*
X134596277Y-94919331D01*
X134649799Y-94901904D01*
X134705514Y-94909936D01*
X134751938Y-94941771D01*
X134779503Y-94990851D01*
X134798256Y-95055398D01*
X134802226Y-95062111D01*
X134802227Y-95062113D01*
X134877946Y-95190148D01*
X134877948Y-95190151D01*
X134881919Y-95196865D01*
X134998135Y-95313081D01*
X135139602Y-95396744D01*
X135297431Y-95442598D01*
X135334306Y-95445500D01*
X135763249Y-95445500D01*
X135765694Y-95445500D01*
X135802569Y-95442598D01*
X135960398Y-95396744D01*
X136101865Y-95313081D01*
X136218081Y-95196865D01*
X136301744Y-95055398D01*
X136347598Y-94897569D01*
X136350500Y-94860694D01*
X136351429Y-94860767D01*
X136368414Y-94804730D01*
X136413555Y-94761316D01*
X136474154Y-94745500D01*
X136525846Y-94745500D01*
X136586445Y-94761316D01*
X136631586Y-94804730D01*
X136648570Y-94860767D01*
X136649500Y-94860694D01*
X136651904Y-94891251D01*
X136651905Y-94891258D01*
X136652402Y-94897569D01*
X136654168Y-94903650D01*
X136654170Y-94903657D01*
X136693312Y-95038381D01*
X136698256Y-95055398D01*
X136702226Y-95062111D01*
X136702227Y-95062113D01*
X136777946Y-95190148D01*
X136777948Y-95190151D01*
X136781919Y-95196865D01*
X136898135Y-95313081D01*
X137039602Y-95396744D01*
X137197431Y-95442598D01*
X137234306Y-95445500D01*
X137663249Y-95445500D01*
X137665694Y-95445500D01*
X137702569Y-95442598D01*
X137860398Y-95396744D01*
X138001865Y-95313081D01*
X138118081Y-95196865D01*
X138201744Y-95055398D01*
X138229389Y-94960243D01*
X138262172Y-94905791D01*
X138317628Y-94874735D01*
X138381185Y-94875234D01*
X138436146Y-94907158D01*
X138446956Y-94917968D01*
X138591303Y-95007003D01*
X138752292Y-95060349D01*
X138851655Y-95070500D01*
X139398344Y-95070499D01*
X139497708Y-95060349D01*
X139658697Y-95007003D01*
X139803044Y-94917968D01*
X139812319Y-94908693D01*
X139867906Y-94876599D01*
X139932094Y-94876599D01*
X139987681Y-94908693D01*
X139996956Y-94917968D01*
X140141303Y-95007003D01*
X140302292Y-95060349D01*
X140401655Y-95070500D01*
X140545547Y-95070499D01*
X140601840Y-95084014D01*
X140645864Y-95121613D01*
X140668019Y-95175101D01*
X140663477Y-95232817D01*
X140633227Y-95282180D01*
X139512696Y-96402711D01*
X139504511Y-96410159D01*
X139498123Y-96414214D01*
X139492788Y-96419894D01*
X139492783Y-96419899D01*
X139452096Y-96463225D01*
X139449392Y-96466016D01*
X139432628Y-96482780D01*
X139432621Y-96482787D01*
X139429880Y-96485529D01*
X139427500Y-96488596D01*
X139427489Y-96488609D01*
X139427400Y-96488725D01*
X139419842Y-96497570D01*
X139395280Y-96523727D01*
X139395273Y-96523736D01*
X139389938Y-96529418D01*
X139386182Y-96536249D01*
X139386179Y-96536254D01*
X139380285Y-96546975D01*
X139369609Y-96563227D01*
X139362109Y-96572896D01*
X139362101Y-96572907D01*
X139357327Y-96579064D01*
X139354234Y-96586208D01*
X139354229Y-96586219D01*
X139339974Y-96619160D01*
X139334838Y-96629643D01*
X139313803Y-96667908D01*
X139311864Y-96675456D01*
X139311863Y-96675461D01*
X139308822Y-96687307D01*
X139302521Y-96705711D01*
X139297658Y-96716948D01*
X139297656Y-96716952D01*
X139294562Y-96724104D01*
X139293342Y-96731803D01*
X139293342Y-96731805D01*
X139287729Y-96767241D01*
X139285361Y-96778676D01*
X139276438Y-96813428D01*
X139276436Y-96813436D01*
X139274500Y-96820981D01*
X139274500Y-96828777D01*
X139274500Y-96841017D01*
X139272974Y-96860402D01*
X139269840Y-96880196D01*
X139270574Y-96887961D01*
X139270574Y-96887964D01*
X139273950Y-96923676D01*
X139274500Y-96935345D01*
X139274500Y-100071481D01*
X139256687Y-100135515D01*
X139208366Y-100181151D01*
X139143420Y-100195279D01*
X139080508Y-100173839D01*
X139039041Y-100124579D01*
X139038830Y-100124695D01*
X139038258Y-100123649D01*
X139037706Y-100122992D01*
X139034871Y-100116784D01*
X138957139Y-99995830D01*
X138913903Y-99938073D01*
X138862887Y-99887057D01*
X138754226Y-99792903D01*
X138750495Y-99790505D01*
X138636876Y-99717487D01*
X138636872Y-99717485D01*
X138633155Y-99715096D01*
X138597985Y-99699034D01*
X138559757Y-99671812D01*
X138534382Y-99632328D01*
X138525500Y-99586242D01*
X138525500Y-98998687D01*
X138533736Y-98954249D01*
X138557350Y-98915715D01*
X138632533Y-98832216D01*
X138727179Y-98668284D01*
X138785674Y-98488256D01*
X138805460Y-98300000D01*
X138785674Y-98111744D01*
X138727179Y-97931716D01*
X138632533Y-97767784D01*
X138505871Y-97627112D01*
X138500613Y-97623292D01*
X138500611Y-97623290D01*
X138357988Y-97519669D01*
X138357987Y-97519668D01*
X138352730Y-97515849D01*
X138346792Y-97513205D01*
X138185745Y-97441501D01*
X138185740Y-97441499D01*
X138179803Y-97438856D01*
X138173444Y-97437504D01*
X138173440Y-97437503D01*
X138001008Y-97400852D01*
X138001005Y-97400851D01*
X137994646Y-97399500D01*
X137805354Y-97399500D01*
X137798995Y-97400851D01*
X137798991Y-97400852D01*
X137626559Y-97437503D01*
X137626552Y-97437505D01*
X137620197Y-97438856D01*
X137614262Y-97441498D01*
X137614254Y-97441501D01*
X137453207Y-97513205D01*
X137453202Y-97513207D01*
X137447270Y-97515849D01*
X137442016Y-97519665D01*
X137442011Y-97519669D01*
X137299388Y-97623290D01*
X137299381Y-97623295D01*
X137294129Y-97627112D01*
X137289784Y-97631937D01*
X137289779Y-97631942D01*
X137171813Y-97762956D01*
X137171808Y-97762962D01*
X137167467Y-97767784D01*
X137164222Y-97773404D01*
X137164218Y-97773410D01*
X137076069Y-97926089D01*
X137076066Y-97926094D01*
X137072821Y-97931716D01*
X137070815Y-97937888D01*
X137070813Y-97937894D01*
X137016333Y-98105564D01*
X137016331Y-98105573D01*
X137014326Y-98111744D01*
X137013648Y-98118194D01*
X137013646Y-98118204D01*
X136995962Y-98286464D01*
X136994540Y-98300000D01*
X136995219Y-98306460D01*
X137013646Y-98481795D01*
X137013647Y-98481803D01*
X137014326Y-98488256D01*
X137016331Y-98494428D01*
X137016333Y-98494435D01*
X137070813Y-98662105D01*
X137072821Y-98668284D01*
X137167467Y-98832216D01*
X137171811Y-98837041D01*
X137171813Y-98837043D01*
X137242650Y-98915715D01*
X137266264Y-98954249D01*
X137274500Y-98998687D01*
X137274500Y-99586242D01*
X137265618Y-99632328D01*
X137240243Y-99671812D01*
X137202014Y-99699034D01*
X137182261Y-99708055D01*
X137170864Y-99713260D01*
X137170857Y-99713263D01*
X137166845Y-99715096D01*
X137163132Y-99717481D01*
X137163123Y-99717487D01*
X137049504Y-99790505D01*
X137049495Y-99790511D01*
X137045774Y-99792903D01*
X137042428Y-99795802D01*
X137042419Y-99795809D01*
X136938799Y-99885595D01*
X136938782Y-99885610D01*
X136937113Y-99887057D01*
X136935549Y-99888620D01*
X136935535Y-99888634D01*
X136889234Y-99934935D01*
X136889227Y-99934942D01*
X136886097Y-99938073D01*
X136883443Y-99941617D01*
X136883438Y-99941624D01*
X136844190Y-99994053D01*
X136844174Y-99994075D01*
X136842861Y-99995830D01*
X136841673Y-99997677D01*
X136841665Y-99997690D01*
X136767523Y-100113057D01*
X136767516Y-100113069D01*
X136765129Y-100116784D01*
X136763290Y-100120809D01*
X136763286Y-100120818D01*
X136707184Y-100243664D01*
X136707178Y-100243677D01*
X136705342Y-100247700D01*
X136704094Y-100251950D01*
X136704093Y-100251953D01*
X136666083Y-100381402D01*
X136666080Y-100381412D01*
X136664835Y-100385655D01*
X136664205Y-100390032D01*
X136664204Y-100390040D01*
X136644982Y-100523730D01*
X136644981Y-100523742D01*
X136644353Y-100528111D01*
X136644353Y-101150000D01*
X136644881Y-101154012D01*
X136644882Y-101154024D01*
X136644962Y-101154629D01*
X136644935Y-101154839D01*
X136645148Y-101158074D01*
X136644530Y-101158114D01*
X136637306Y-101216457D01*
X136600549Y-101266758D01*
X136543970Y-101292836D01*
X136481850Y-101288107D01*
X136429870Y-101253765D01*
X136405871Y-101227112D01*
X136400613Y-101223292D01*
X136400611Y-101223290D01*
X136257988Y-101119669D01*
X136257987Y-101119668D01*
X136252730Y-101115849D01*
X136246792Y-101113205D01*
X136085745Y-101041501D01*
X136085740Y-101041499D01*
X136079803Y-101038856D01*
X136073444Y-101037504D01*
X136073440Y-101037503D01*
X135901008Y-101000852D01*
X135901005Y-101000851D01*
X135894646Y-100999500D01*
X135705354Y-100999500D01*
X135698995Y-101000851D01*
X135698991Y-101000852D01*
X135526559Y-101037503D01*
X135526552Y-101037505D01*
X135520197Y-101038856D01*
X135514262Y-101041498D01*
X135514254Y-101041501D01*
X135353207Y-101113205D01*
X135353202Y-101113207D01*
X135347270Y-101115849D01*
X135342016Y-101119665D01*
X135342011Y-101119669D01*
X135199388Y-101223290D01*
X135199381Y-101223295D01*
X135194129Y-101227112D01*
X135189780Y-101231941D01*
X135189781Y-101231941D01*
X135188399Y-101233476D01*
X135186728Y-101234689D01*
X135184950Y-101236291D01*
X135184781Y-101236104D01*
X135146685Y-101263781D01*
X135096252Y-101274500D01*
X135079614Y-101274500D01*
X135015270Y-101256499D01*
X134969607Y-101207723D01*
X134957492Y-101150000D01*
X134955647Y-101150000D01*
X134955647Y-100532537D01*
X134955647Y-100528111D01*
X134935165Y-100385655D01*
X134894658Y-100247700D01*
X134834871Y-100116784D01*
X134757139Y-99995830D01*
X134713903Y-99938073D01*
X134662887Y-99887057D01*
X134554226Y-99792903D01*
X134550495Y-99790505D01*
X134436876Y-99717487D01*
X134436872Y-99717485D01*
X134433155Y-99715096D01*
X134397985Y-99699034D01*
X134359757Y-99671812D01*
X134334382Y-99632328D01*
X134325500Y-99586242D01*
X134325500Y-98998687D01*
X134333736Y-98954249D01*
X134357350Y-98915715D01*
X134432533Y-98832216D01*
X134527179Y-98668284D01*
X134585674Y-98488256D01*
X134605460Y-98300000D01*
X134585674Y-98111744D01*
X134527179Y-97931716D01*
X134432533Y-97767784D01*
X134305871Y-97627112D01*
X134300613Y-97623292D01*
X134300611Y-97623290D01*
X134157988Y-97519669D01*
X134157987Y-97519668D01*
X134152730Y-97515849D01*
X134146792Y-97513205D01*
X133985745Y-97441501D01*
X133985740Y-97441499D01*
X133979803Y-97438856D01*
X133973444Y-97437504D01*
X133973440Y-97437503D01*
X133801008Y-97400852D01*
X133801005Y-97400851D01*
X133794646Y-97399500D01*
X133605354Y-97399500D01*
X133598995Y-97400851D01*
X133598991Y-97400852D01*
X133426559Y-97437503D01*
X133426552Y-97437505D01*
X133420197Y-97438856D01*
X133414262Y-97441498D01*
X133414254Y-97441501D01*
X133253207Y-97513205D01*
X133253202Y-97513207D01*
X133247270Y-97515849D01*
X133242016Y-97519665D01*
X133242011Y-97519669D01*
X133099388Y-97623290D01*
X133099381Y-97623295D01*
X133094129Y-97627112D01*
X133089784Y-97631937D01*
X133089779Y-97631942D01*
X132971813Y-97762956D01*
X132971808Y-97762962D01*
X132967467Y-97767784D01*
X132964222Y-97773404D01*
X132964218Y-97773410D01*
X132876069Y-97926089D01*
X132876066Y-97926094D01*
X132872821Y-97931716D01*
X132870815Y-97937888D01*
X132870813Y-97937894D01*
X132816333Y-98105564D01*
X132816331Y-98105573D01*
X132814326Y-98111744D01*
X132813648Y-98118194D01*
X132813646Y-98118204D01*
X132795962Y-98286464D01*
X132794540Y-98300000D01*
X132795219Y-98306460D01*
X132813646Y-98481795D01*
X132813647Y-98481803D01*
X132814326Y-98488256D01*
X132816331Y-98494428D01*
X132816333Y-98494435D01*
X132870813Y-98662105D01*
X132872821Y-98668284D01*
X132967467Y-98832216D01*
X132971811Y-98837041D01*
X132971813Y-98837043D01*
X133042650Y-98915715D01*
X133066264Y-98954249D01*
X133074500Y-98998687D01*
X133074500Y-99586242D01*
X133065618Y-99632328D01*
X133040243Y-99671812D01*
X133002014Y-99699034D01*
X132982261Y-99708055D01*
X132970864Y-99713260D01*
X132970857Y-99713263D01*
X132966845Y-99715096D01*
X132963132Y-99717481D01*
X132963123Y-99717487D01*
X132849504Y-99790505D01*
X132849495Y-99790511D01*
X132845774Y-99792903D01*
X132842428Y-99795802D01*
X132842419Y-99795809D01*
X132738799Y-99885595D01*
X132738782Y-99885610D01*
X132737113Y-99887057D01*
X132735549Y-99888620D01*
X132735535Y-99888634D01*
X132689234Y-99934935D01*
X132689227Y-99934942D01*
X132686097Y-99938073D01*
X132683443Y-99941617D01*
X132683438Y-99941624D01*
X132644190Y-99994053D01*
X132644174Y-99994075D01*
X132642861Y-99995830D01*
X132641673Y-99997677D01*
X132641665Y-99997690D01*
X132567523Y-100113057D01*
X132567516Y-100113069D01*
X132565129Y-100116784D01*
X132563290Y-100120809D01*
X132563286Y-100120818D01*
X132507184Y-100243664D01*
X132507178Y-100243677D01*
X132505342Y-100247700D01*
X132504094Y-100251950D01*
X132504093Y-100251953D01*
X132466083Y-100381402D01*
X132466080Y-100381412D01*
X132464835Y-100385655D01*
X132464205Y-100390032D01*
X132464204Y-100390040D01*
X132444982Y-100523730D01*
X132444981Y-100523742D01*
X132444353Y-100528111D01*
X132444353Y-101150000D01*
X132444881Y-101154014D01*
X132444882Y-101154022D01*
X132457922Y-101253073D01*
X132455930Y-101292460D01*
X132455909Y-101292517D01*
X132455080Y-101300221D01*
X132455080Y-101300224D01*
X132449855Y-101348819D01*
X132449854Y-101348831D01*
X132449500Y-101352127D01*
X132449500Y-101355448D01*
X132449500Y-101355449D01*
X132449500Y-102444560D01*
X132449500Y-102444578D01*
X132449501Y-102447872D01*
X132449853Y-102451150D01*
X132449854Y-102451161D01*
X132455080Y-102499774D01*
X132455909Y-102507483D01*
X132456223Y-102508327D01*
X132458246Y-102548298D01*
X132445387Y-102645977D01*
X132444858Y-102654055D01*
X132444858Y-103267463D01*
X132445487Y-103276269D01*
X132464689Y-103409817D01*
X132466568Y-103418455D01*
X132504579Y-103547910D01*
X132507664Y-103556181D01*
X132563716Y-103678920D01*
X132567945Y-103686664D01*
X132642088Y-103802033D01*
X132644619Y-103805678D01*
X132675096Y-103846389D01*
X132686208Y-103854708D01*
X132698389Y-103848056D01*
X133609628Y-102936818D01*
X133649856Y-102909938D01*
X133697306Y-102900499D01*
X133702692Y-102900499D01*
X133750143Y-102909938D01*
X133790371Y-102936818D01*
X134701608Y-103848055D01*
X134713790Y-103854707D01*
X134724903Y-103846389D01*
X134755390Y-103805665D01*
X134757907Y-103802040D01*
X134832054Y-103686664D01*
X134836283Y-103678920D01*
X134892335Y-103556181D01*
X134895420Y-103547910D01*
X134933431Y-103418455D01*
X134935310Y-103409817D01*
X134954512Y-103276269D01*
X134955142Y-103267463D01*
X134955142Y-102650000D01*
X134956987Y-102650000D01*
X134969102Y-102592277D01*
X135014765Y-102543501D01*
X135079109Y-102525500D01*
X135096252Y-102525500D01*
X135146685Y-102536219D01*
X135184781Y-102563895D01*
X135184950Y-102563709D01*
X135186728Y-102565310D01*
X135188398Y-102566523D01*
X135194129Y-102572888D01*
X135199387Y-102576708D01*
X135199388Y-102576709D01*
X135241621Y-102607393D01*
X135347270Y-102684151D01*
X135520197Y-102761144D01*
X135705354Y-102800500D01*
X135888143Y-102800500D01*
X135894646Y-102800500D01*
X136079803Y-102761144D01*
X136252730Y-102684151D01*
X136405871Y-102572888D01*
X136430463Y-102545575D01*
X136482442Y-102511235D01*
X136544564Y-102506507D01*
X136601145Y-102532586D01*
X136637900Y-102582891D01*
X136645203Y-102641898D01*
X136645653Y-102641928D01*
X136645498Y-102644282D01*
X136645553Y-102644721D01*
X136645387Y-102645980D01*
X136644858Y-102654055D01*
X136644858Y-103267463D01*
X136645487Y-103276269D01*
X136664689Y-103409817D01*
X136666568Y-103418455D01*
X136704579Y-103547910D01*
X136707664Y-103556181D01*
X136763716Y-103678920D01*
X136767945Y-103686664D01*
X136842088Y-103802033D01*
X136844619Y-103805678D01*
X136875096Y-103846389D01*
X136886208Y-103854708D01*
X136898389Y-103848056D01*
X137809628Y-102936818D01*
X137849856Y-102909938D01*
X137897306Y-102900499D01*
X137902692Y-102900499D01*
X137950143Y-102909938D01*
X137990371Y-102936818D01*
X138901608Y-103848055D01*
X138913790Y-103854707D01*
X138924903Y-103846389D01*
X138955390Y-103805665D01*
X138957907Y-103802040D01*
X139032054Y-103686664D01*
X139036283Y-103678920D01*
X139092335Y-103556181D01*
X139095420Y-103547910D01*
X139133431Y-103418455D01*
X139135310Y-103409817D01*
X139154512Y-103276269D01*
X139155142Y-103267463D01*
X139155142Y-102650000D01*
X139156987Y-102650000D01*
X139169102Y-102592277D01*
X139214765Y-102543501D01*
X139279109Y-102525500D01*
X139322225Y-102525500D01*
X139333280Y-102526021D01*
X139340667Y-102527673D01*
X139407872Y-102525561D01*
X139411768Y-102525500D01*
X139435448Y-102525500D01*
X139439350Y-102525500D01*
X139443313Y-102524999D01*
X139454963Y-102524080D01*
X139498627Y-102522709D01*
X139517861Y-102517119D01*
X139536917Y-102513174D01*
X139556792Y-102510664D01*
X139597395Y-102494587D01*
X139608450Y-102490802D01*
X139650390Y-102478618D01*
X139667629Y-102468422D01*
X139668970Y-102467765D01*
X158045788Y-102467765D01*
X158046282Y-102472262D01*
X158046283Y-102472267D01*
X158074917Y-102732506D01*
X158074918Y-102732513D01*
X158075414Y-102737018D01*
X158076559Y-102741398D01*
X158076561Y-102741408D01*
X158139605Y-102982554D01*
X158143928Y-102999088D01*
X158145693Y-103003242D01*
X158145696Y-103003250D01*
X158248099Y-103244223D01*
X158249870Y-103248390D01*
X158252226Y-103252251D01*
X158252229Y-103252256D01*
X158388618Y-103475737D01*
X158390982Y-103479610D01*
X158564255Y-103687820D01*
X158567630Y-103690844D01*
X158567631Y-103690845D01*
X158750513Y-103854708D01*
X158765998Y-103868582D01*
X158991910Y-104018044D01*
X159237176Y-104133020D01*
X159496569Y-104211060D01*
X159764561Y-104250500D01*
X159965369Y-104250500D01*
X159967631Y-104250500D01*
X160170156Y-104235677D01*
X160434553Y-104176780D01*
X160687558Y-104080014D01*
X160923777Y-103947441D01*
X161138177Y-103781888D01*
X161326186Y-103586881D01*
X161483799Y-103366579D01*
X161607656Y-103125675D01*
X161695118Y-102869305D01*
X161744319Y-102602933D01*
X161754212Y-102332235D01*
X161724586Y-102062982D01*
X161656072Y-101800912D01*
X161550130Y-101551610D01*
X161409018Y-101320390D01*
X161235745Y-101112180D01*
X161232368Y-101109154D01*
X161037382Y-100934446D01*
X161037378Y-100934442D01*
X161034002Y-100931418D01*
X160808090Y-100781956D01*
X160803996Y-100780036D01*
X160803991Y-100780034D01*
X160566929Y-100668904D01*
X160566925Y-100668902D01*
X160562824Y-100666980D01*
X160558477Y-100665672D01*
X160558474Y-100665671D01*
X160307772Y-100590246D01*
X160307771Y-100590245D01*
X160303431Y-100588940D01*
X160298957Y-100588281D01*
X160298950Y-100588280D01*
X160039913Y-100550158D01*
X160039907Y-100550157D01*
X160035439Y-100549500D01*
X159832369Y-100549500D01*
X159830120Y-100549664D01*
X159830109Y-100549665D01*
X159634363Y-100563992D01*
X159634359Y-100563992D01*
X159629844Y-100564323D01*
X159625426Y-100565307D01*
X159625420Y-100565308D01*
X159369877Y-100622232D01*
X159369861Y-100622236D01*
X159365447Y-100623220D01*
X159361216Y-100624838D01*
X159361210Y-100624840D01*
X159116673Y-100718367D01*
X159116663Y-100718371D01*
X159112442Y-100719986D01*
X159108494Y-100722201D01*
X159108489Y-100722204D01*
X158880176Y-100850340D01*
X158880171Y-100850343D01*
X158876223Y-100852559D01*
X158872639Y-100855325D01*
X158872635Y-100855329D01*
X158665407Y-101015343D01*
X158665394Y-101015354D01*
X158661823Y-101018112D01*
X158658685Y-101021366D01*
X158658678Y-101021373D01*
X158476958Y-101209857D01*
X158476952Y-101209864D01*
X158473814Y-101213119D01*
X158471189Y-101216787D01*
X158471179Y-101216800D01*
X158318834Y-101429740D01*
X158318830Y-101429745D01*
X158316201Y-101433421D01*
X158314132Y-101437444D01*
X158314129Y-101437450D01*
X158194416Y-101670293D01*
X158194411Y-101670304D01*
X158192344Y-101674325D01*
X158190884Y-101678602D01*
X158190879Y-101678616D01*
X158106348Y-101926395D01*
X158106344Y-101926407D01*
X158104882Y-101930695D01*
X158104057Y-101935159D01*
X158104057Y-101935161D01*
X158056504Y-102192606D01*
X158056502Y-102192619D01*
X158055681Y-102197067D01*
X158055515Y-102201593D01*
X158055515Y-102201599D01*
X158046077Y-102459862D01*
X158045788Y-102467765D01*
X139668970Y-102467765D01*
X139685103Y-102459862D01*
X139696474Y-102455360D01*
X139696476Y-102455358D01*
X139703732Y-102452486D01*
X139739069Y-102426811D01*
X139748824Y-102420403D01*
X139786420Y-102398170D01*
X139800584Y-102384005D01*
X139815379Y-102371368D01*
X139831587Y-102359594D01*
X139859428Y-102325938D01*
X139867279Y-102317309D01*
X140287306Y-101897282D01*
X140295482Y-101889843D01*
X140301877Y-101885786D01*
X140347933Y-101836740D01*
X140350550Y-101834038D01*
X140370120Y-101814470D01*
X140372565Y-101811316D01*
X140380155Y-101802428D01*
X140410062Y-101770582D01*
X140419713Y-101753023D01*
X140430390Y-101736770D01*
X140442673Y-101720936D01*
X140460022Y-101680841D01*
X140465157Y-101670362D01*
X140465195Y-101670293D01*
X140486197Y-101632092D01*
X140491178Y-101612687D01*
X140497483Y-101594277D01*
X140502339Y-101583056D01*
X140502339Y-101583055D01*
X140505438Y-101575895D01*
X140512269Y-101532756D01*
X140514639Y-101521315D01*
X140523560Y-101486574D01*
X140523559Y-101486574D01*
X140525500Y-101479019D01*
X140525500Y-101458983D01*
X140527025Y-101439597D01*
X140530160Y-101419804D01*
X140526050Y-101376324D01*
X140525500Y-101364655D01*
X140525500Y-97210452D01*
X140534939Y-97162999D01*
X140561819Y-97122771D01*
X142122772Y-95561819D01*
X142163000Y-95534939D01*
X142210453Y-95525500D01*
X142511892Y-95525500D01*
X142559344Y-95534938D01*
X142668238Y-95580044D01*
X142785639Y-95595500D01*
X144114360Y-95595499D01*
X144231762Y-95580044D01*
X144377841Y-95519536D01*
X144503282Y-95423282D01*
X144599536Y-95297841D01*
X144660044Y-95151762D01*
X144675500Y-95034361D01*
X144675500Y-95030320D01*
X146524500Y-95030320D01*
X146524501Y-95034360D01*
X146525029Y-95038374D01*
X146525030Y-95038382D01*
X146535814Y-95120296D01*
X146539956Y-95151762D01*
X146543063Y-95159263D01*
X146543065Y-95159270D01*
X146597354Y-95290333D01*
X146600464Y-95297841D01*
X146696718Y-95423282D01*
X146822159Y-95519536D01*
X146968238Y-95580044D01*
X147085639Y-95595500D01*
X148414360Y-95595499D01*
X148531762Y-95580044D01*
X148652726Y-95529938D01*
X148700179Y-95520500D01*
X148738286Y-95520500D01*
X148794581Y-95534015D01*
X148838604Y-95571615D01*
X148860759Y-95625102D01*
X148856217Y-95682818D01*
X148816333Y-95805564D01*
X148816331Y-95805573D01*
X148814326Y-95811744D01*
X148813648Y-95818194D01*
X148813646Y-95818204D01*
X148799634Y-95951532D01*
X148794540Y-96000000D01*
X148795219Y-96006460D01*
X148813646Y-96181795D01*
X148813647Y-96181803D01*
X148814326Y-96188256D01*
X148816331Y-96194428D01*
X148816333Y-96194435D01*
X148870813Y-96362105D01*
X148872821Y-96368284D01*
X148876068Y-96373908D01*
X148876069Y-96373910D01*
X148942357Y-96488725D01*
X148967467Y-96532216D01*
X148971811Y-96537041D01*
X148971813Y-96537043D01*
X149045752Y-96619160D01*
X149094129Y-96672888D01*
X149099387Y-96676708D01*
X149099388Y-96676709D01*
X149139306Y-96705711D01*
X149247270Y-96784151D01*
X149420197Y-96861144D01*
X149605354Y-96900500D01*
X149788143Y-96900500D01*
X149794646Y-96900500D01*
X149979803Y-96861144D01*
X150152730Y-96784151D01*
X150305871Y-96672888D01*
X150432533Y-96532216D01*
X150527179Y-96368284D01*
X150585674Y-96188256D01*
X150605460Y-96000000D01*
X150585674Y-95811744D01*
X150527179Y-95631716D01*
X150432533Y-95467784D01*
X150339597Y-95364568D01*
X150317980Y-95340560D01*
X150294848Y-95303262D01*
X150294598Y-95302631D01*
X150290803Y-95291551D01*
X150280794Y-95257100D01*
X150278618Y-95249610D01*
X150274647Y-95242896D01*
X150274645Y-95242891D01*
X150268421Y-95232368D01*
X150259858Y-95214890D01*
X150252486Y-95196268D01*
X150247902Y-95189959D01*
X150247899Y-95189953D01*
X150226817Y-95160937D01*
X150220401Y-95151170D01*
X150202143Y-95120296D01*
X150202140Y-95120292D01*
X150198170Y-95113579D01*
X150184005Y-95099414D01*
X150171368Y-95084618D01*
X150164184Y-95074729D01*
X150164178Y-95074723D01*
X150159594Y-95068413D01*
X150125946Y-95040577D01*
X150117305Y-95032714D01*
X150021760Y-94937169D01*
X149992022Y-94889348D01*
X149986501Y-94833306D01*
X150006336Y-94780601D01*
X150047431Y-94742107D01*
X150145191Y-94685658D01*
X150273260Y-94578183D01*
X150380721Y-94450101D01*
X150464308Y-94305305D01*
X150521482Y-94148194D01*
X150532951Y-94083125D01*
X150560073Y-94024955D01*
X150612651Y-93988135D01*
X150676595Y-93982538D01*
X150734770Y-94009663D01*
X150792298Y-94057932D01*
X150796987Y-94060639D01*
X150892494Y-94115778D01*
X150952239Y-94150270D01*
X151080423Y-94196923D01*
X151126328Y-94226401D01*
X151155139Y-94272727D01*
X151161279Y-94326934D01*
X151144823Y-94374855D01*
X151144840Y-94374863D01*
X151144766Y-94375021D01*
X151143561Y-94378531D01*
X151141790Y-94381401D01*
X151141784Y-94381411D01*
X151137997Y-94387553D01*
X151135726Y-94394404D01*
X151135725Y-94394408D01*
X151086781Y-94542113D01*
X151084651Y-94548542D01*
X151083963Y-94555272D01*
X151083962Y-94555279D01*
X151074819Y-94644773D01*
X151074818Y-94644791D01*
X151074500Y-94647905D01*
X151074500Y-94651052D01*
X151074500Y-94651053D01*
X151074500Y-95241444D01*
X151074500Y-95241463D01*
X151074501Y-95244594D01*
X151074820Y-95247726D01*
X151074821Y-95247727D01*
X151083962Y-95337222D01*
X151083963Y-95337230D01*
X151084651Y-95343958D01*
X151086779Y-95350381D01*
X151086780Y-95350384D01*
X151133309Y-95490800D01*
X151137997Y-95504947D01*
X151141788Y-95511093D01*
X151141789Y-95511095D01*
X151222837Y-95642494D01*
X151227032Y-95649294D01*
X151346956Y-95769218D01*
X151491303Y-95858253D01*
X151652292Y-95911599D01*
X151751655Y-95921750D01*
X152298344Y-95921749D01*
X152397708Y-95911599D01*
X152558697Y-95858253D01*
X152703044Y-95769218D01*
X152712319Y-95759942D01*
X152767906Y-95727849D01*
X152832094Y-95727849D01*
X152887681Y-95759942D01*
X152896956Y-95769218D01*
X153041303Y-95858253D01*
X153202292Y-95911599D01*
X153301655Y-95921750D01*
X153848344Y-95921749D01*
X153947708Y-95911599D01*
X154108697Y-95858253D01*
X154253044Y-95769218D01*
X154258150Y-95764111D01*
X154263819Y-95759630D01*
X154265205Y-95761383D01*
X154310543Y-95735182D01*
X154374750Y-95735166D01*
X154430358Y-95767265D01*
X154439815Y-95776722D01*
X154585394Y-95864728D01*
X154692677Y-95898158D01*
X154741542Y-95913385D01*
X154741544Y-95913385D01*
X154747804Y-95915336D01*
X154818384Y-95921750D01*
X155328797Y-95921750D01*
X155331616Y-95921750D01*
X155402196Y-95915336D01*
X155564606Y-95864728D01*
X155710185Y-95776722D01*
X155812319Y-95674587D01*
X155867906Y-95642494D01*
X155932094Y-95642494D01*
X155987681Y-95674587D01*
X156089815Y-95776722D01*
X156235394Y-95864728D01*
X156342677Y-95898158D01*
X156391542Y-95913385D01*
X156391544Y-95913385D01*
X156397804Y-95915336D01*
X156468384Y-95921750D01*
X156978797Y-95921750D01*
X156981616Y-95921750D01*
X157052196Y-95915336D01*
X157214606Y-95864728D01*
X157360185Y-95776722D01*
X157387076Y-95749830D01*
X157433125Y-95720710D01*
X157487218Y-95714142D01*
X157538900Y-95731395D01*
X157635394Y-95789728D01*
X157726779Y-95818204D01*
X157791542Y-95838385D01*
X157791544Y-95838385D01*
X157797804Y-95840336D01*
X157868384Y-95846750D01*
X158528797Y-95846750D01*
X158531616Y-95846750D01*
X158602196Y-95840336D01*
X158745819Y-95795581D01*
X158803720Y-95791760D01*
X158857019Y-95814699D01*
X158957669Y-95890046D01*
X159092517Y-95940341D01*
X159152127Y-95946750D01*
X160247872Y-95946749D01*
X160307483Y-95940341D01*
X160442331Y-95890046D01*
X160557546Y-95803796D01*
X160643796Y-95688581D01*
X160694091Y-95553733D01*
X160700500Y-95494123D01*
X160700499Y-94398378D01*
X160694091Y-94338767D01*
X160643796Y-94203919D01*
X160557546Y-94088704D01*
X160550101Y-94083131D01*
X160449431Y-94007769D01*
X160449430Y-94007768D01*
X160442331Y-94002454D01*
X160371965Y-93976209D01*
X160314752Y-93954870D01*
X160314750Y-93954869D01*
X160307483Y-93952159D01*
X160299770Y-93951329D01*
X160299767Y-93951329D01*
X160251180Y-93946105D01*
X160251169Y-93946104D01*
X160247873Y-93945750D01*
X160244550Y-93945750D01*
X159155439Y-93945750D01*
X159155420Y-93945750D01*
X159152128Y-93945751D01*
X159148850Y-93946103D01*
X159148838Y-93946104D01*
X159100231Y-93951329D01*
X159100225Y-93951330D01*
X159092517Y-93952159D01*
X159085252Y-93954868D01*
X159085246Y-93954870D01*
X158965980Y-93999354D01*
X158965978Y-93999354D01*
X158957669Y-94002454D01*
X158950572Y-94007766D01*
X158950564Y-94007771D01*
X158857019Y-94077799D01*
X158803720Y-94100739D01*
X158745819Y-94096918D01*
X158745488Y-94096815D01*
X158727390Y-94091175D01*
X158608457Y-94054114D01*
X158608448Y-94054112D01*
X158602196Y-94052164D01*
X158595662Y-94051570D01*
X158595661Y-94051570D01*
X158534425Y-94046005D01*
X158534419Y-94046004D01*
X158531616Y-94045750D01*
X157868384Y-94045750D01*
X157865581Y-94046004D01*
X157865574Y-94046005D01*
X157804338Y-94051570D01*
X157804335Y-94051570D01*
X157797804Y-94052164D01*
X157791553Y-94054111D01*
X157791542Y-94054114D01*
X157642550Y-94100542D01*
X157635394Y-94102772D01*
X157628984Y-94106646D01*
X157628977Y-94106650D01*
X157538904Y-94161102D01*
X157487219Y-94178357D01*
X157433127Y-94171789D01*
X157387073Y-94142666D01*
X157365488Y-94121081D01*
X157365487Y-94121080D01*
X157360185Y-94115778D01*
X157323756Y-94093756D01*
X157221021Y-94031650D01*
X157221020Y-94031649D01*
X157214606Y-94027772D01*
X157185500Y-94018702D01*
X157058457Y-93979114D01*
X157058448Y-93979112D01*
X157052196Y-93977164D01*
X157045662Y-93976570D01*
X157045661Y-93976570D01*
X156984425Y-93971005D01*
X156984419Y-93971004D01*
X156981616Y-93970750D01*
X156468384Y-93970750D01*
X156465581Y-93971004D01*
X156465574Y-93971005D01*
X156404338Y-93976570D01*
X156404335Y-93976570D01*
X156397804Y-93977164D01*
X156391553Y-93979111D01*
X156391542Y-93979114D01*
X156244434Y-94024955D01*
X156235394Y-94027772D01*
X156228982Y-94031648D01*
X156228978Y-94031650D01*
X156096232Y-94111898D01*
X156096227Y-94111901D01*
X156089815Y-94115778D01*
X156084515Y-94121077D01*
X156084511Y-94121081D01*
X155987681Y-94217912D01*
X155932094Y-94250006D01*
X155867906Y-94250006D01*
X155812319Y-94217912D01*
X155715488Y-94121081D01*
X155715487Y-94121080D01*
X155710185Y-94115778D01*
X155673756Y-94093756D01*
X155571021Y-94031650D01*
X155571020Y-94031649D01*
X155564606Y-94027772D01*
X155535500Y-94018702D01*
X155408457Y-93979114D01*
X155408448Y-93979112D01*
X155402196Y-93977164D01*
X155395662Y-93976570D01*
X155395661Y-93976570D01*
X155334425Y-93971005D01*
X155334419Y-93971004D01*
X155331616Y-93970750D01*
X154818384Y-93970750D01*
X154815581Y-93971004D01*
X154815574Y-93971005D01*
X154754338Y-93976570D01*
X154754335Y-93976570D01*
X154747804Y-93977164D01*
X154741553Y-93979111D01*
X154741542Y-93979114D01*
X154594434Y-94024955D01*
X154585394Y-94027772D01*
X154578982Y-94031648D01*
X154578978Y-94031650D01*
X154446228Y-94111900D01*
X154446221Y-94111905D01*
X154439815Y-94115778D01*
X154434519Y-94121072D01*
X154434511Y-94121080D01*
X154430348Y-94125243D01*
X154374761Y-94157329D01*
X154310578Y-94157326D01*
X154265196Y-94131123D01*
X154263816Y-94132869D01*
X154258153Y-94128391D01*
X154253044Y-94123282D01*
X154246894Y-94119488D01*
X154246892Y-94119487D01*
X154114845Y-94038039D01*
X154114843Y-94038038D01*
X154108697Y-94034247D01*
X154101842Y-94031975D01*
X154101841Y-94031975D01*
X153954136Y-93983031D01*
X153954135Y-93983030D01*
X153947708Y-93980901D01*
X153940975Y-93980213D01*
X153940970Y-93980212D01*
X153851476Y-93971069D01*
X153851459Y-93971068D01*
X153848345Y-93970750D01*
X153845196Y-93970750D01*
X153304805Y-93970750D01*
X153304785Y-93970750D01*
X153301656Y-93970751D01*
X153298524Y-93971070D01*
X153298522Y-93971071D01*
X153209027Y-93980212D01*
X153209017Y-93980213D01*
X153202292Y-93980901D01*
X153195870Y-93983028D01*
X153195865Y-93983030D01*
X153048158Y-94031975D01*
X153048154Y-94031976D01*
X153041303Y-94034247D01*
X153035159Y-94038036D01*
X153035154Y-94038039D01*
X152903107Y-94119487D01*
X152903101Y-94119491D01*
X152896956Y-94123282D01*
X152891851Y-94128386D01*
X152891842Y-94128394D01*
X152888167Y-94132070D01*
X152839543Y-94162074D01*
X152782628Y-94167091D01*
X152729506Y-94146056D01*
X152691454Y-94103434D01*
X152676552Y-94048276D01*
X152676111Y-94034247D01*
X152675561Y-94016721D01*
X152675500Y-94012829D01*
X152675500Y-93987977D01*
X152675500Y-93984075D01*
X152674948Y-93979712D01*
X152674031Y-93968063D01*
X152672598Y-93922431D01*
X152666675Y-93902045D01*
X152662729Y-93882988D01*
X152662036Y-93877503D01*
X152660071Y-93861942D01*
X152643261Y-93819487D01*
X152639481Y-93808444D01*
X152628921Y-93772095D01*
X152628920Y-93772094D01*
X152626744Y-93764602D01*
X152615940Y-93746334D01*
X152607378Y-93728856D01*
X152606814Y-93727431D01*
X152599568Y-93709129D01*
X152572737Y-93672198D01*
X152566324Y-93662436D01*
X152547052Y-93629849D01*
X152547050Y-93629847D01*
X152543081Y-93623135D01*
X152528074Y-93608128D01*
X152515436Y-93593331D01*
X152507545Y-93582470D01*
X152502963Y-93576163D01*
X152467780Y-93547057D01*
X152459140Y-93539194D01*
X152112299Y-93192353D01*
X152104436Y-93183712D01*
X152104382Y-93183647D01*
X152100202Y-93177060D01*
X152049166Y-93129134D01*
X152046369Y-93126423D01*
X152028789Y-93108843D01*
X152026035Y-93106089D01*
X152022956Y-93103701D01*
X152022951Y-93103696D01*
X152022548Y-93103383D01*
X152013669Y-93095799D01*
X151986085Y-93069896D01*
X151986079Y-93069892D01*
X151980393Y-93064552D01*
X151973557Y-93060794D01*
X151973556Y-93060793D01*
X151961794Y-93054327D01*
X151945531Y-93043644D01*
X151934924Y-93035416D01*
X151934922Y-93035415D01*
X151928764Y-93030638D01*
X151921612Y-93027543D01*
X151921607Y-93027540D01*
X151886869Y-93012508D01*
X151876379Y-93007369D01*
X151843207Y-92989132D01*
X151843202Y-92989130D01*
X151836368Y-92985373D01*
X151815796Y-92980090D01*
X151797397Y-92973790D01*
X151785087Y-92968463D01*
X151785081Y-92968461D01*
X151777926Y-92965365D01*
X151770227Y-92964145D01*
X151770222Y-92964144D01*
X151732837Y-92958223D01*
X151721398Y-92955854D01*
X151681766Y-92945678D01*
X151629309Y-92917433D01*
X151596081Y-92867982D01*
X151584389Y-92835857D01*
X151550322Y-92742251D01*
X151538783Y-92722266D01*
X151509015Y-92670707D01*
X151457970Y-92582295D01*
X151339244Y-92440808D01*
X151197749Y-92322090D01*
X151037787Y-92229750D01*
X151032704Y-92227900D01*
X151032701Y-92227899D01*
X150965854Y-92203575D01*
X150915032Y-92168814D01*
X150887196Y-92113893D01*
X150889209Y-92052353D01*
X150920573Y-91999371D01*
X152427656Y-90492288D01*
X152436291Y-90484432D01*
X152436347Y-90484385D01*
X152442940Y-90480202D01*
X152490897Y-90429131D01*
X152493515Y-90426429D01*
X152513911Y-90406035D01*
X152516610Y-90402554D01*
X152524174Y-90393695D01*
X152555448Y-90360393D01*
X152565674Y-90341790D01*
X152576346Y-90325542D01*
X152589362Y-90308764D01*
X152607495Y-90266857D01*
X152612625Y-90256386D01*
X152634627Y-90216368D01*
X152639906Y-90195802D01*
X152646210Y-90177395D01*
X152650369Y-90167784D01*
X152654635Y-90157927D01*
X152661777Y-90112829D01*
X152664139Y-90101422D01*
X152675500Y-90057177D01*
X152675500Y-90035948D01*
X152677027Y-90016550D01*
X152679125Y-90003303D01*
X152680346Y-89995595D01*
X152676050Y-89950147D01*
X152675500Y-89938478D01*
X152675500Y-89348124D01*
X152684939Y-89300671D01*
X152711819Y-89260443D01*
X152712319Y-89259943D01*
X152767906Y-89227849D01*
X152832094Y-89227849D01*
X152887681Y-89259943D01*
X152896956Y-89269218D01*
X153041303Y-89358253D01*
X153202292Y-89411599D01*
X153301655Y-89421750D01*
X153848344Y-89421749D01*
X153947708Y-89411599D01*
X154108697Y-89358253D01*
X154253044Y-89269218D01*
X154254640Y-89267621D01*
X154301583Y-89245129D01*
X154356256Y-89245005D01*
X154405668Y-89268407D01*
X154409510Y-89271417D01*
X154414815Y-89276722D01*
X154560394Y-89364728D01*
X154675193Y-89400500D01*
X154716542Y-89413385D01*
X154716544Y-89413385D01*
X154722804Y-89415336D01*
X154793384Y-89421750D01*
X155303797Y-89421750D01*
X155306616Y-89421750D01*
X155377196Y-89415336D01*
X155539606Y-89364728D01*
X155685185Y-89276722D01*
X155787319Y-89174588D01*
X155842906Y-89142494D01*
X155907094Y-89142494D01*
X155962681Y-89174588D01*
X156064815Y-89276722D01*
X156210394Y-89364728D01*
X156325193Y-89400500D01*
X156366542Y-89413385D01*
X156366544Y-89413385D01*
X156372804Y-89415336D01*
X156443384Y-89421750D01*
X156953797Y-89421750D01*
X156956616Y-89421750D01*
X157027196Y-89415336D01*
X157189606Y-89364728D01*
X157335185Y-89276722D01*
X157371493Y-89240413D01*
X157417545Y-89211291D01*
X157471638Y-89204723D01*
X157523321Y-89221977D01*
X157635394Y-89289728D01*
X157754859Y-89326954D01*
X157791542Y-89338385D01*
X157791544Y-89338385D01*
X157797804Y-89340336D01*
X157868384Y-89346750D01*
X158528797Y-89346750D01*
X158531616Y-89346750D01*
X158602196Y-89340336D01*
X158745819Y-89295581D01*
X158803720Y-89291760D01*
X158857019Y-89314699D01*
X158957669Y-89390046D01*
X159092517Y-89440341D01*
X159152127Y-89446750D01*
X160247872Y-89446749D01*
X160307483Y-89440341D01*
X160442331Y-89390046D01*
X160557546Y-89303796D01*
X160643796Y-89188581D01*
X160694091Y-89053733D01*
X160700500Y-88994123D01*
X160700499Y-87898378D01*
X160694091Y-87838767D01*
X160643796Y-87703919D01*
X160557546Y-87588704D01*
X160507941Y-87551570D01*
X160449431Y-87507769D01*
X160449430Y-87507768D01*
X160442331Y-87502454D01*
X160354052Y-87469528D01*
X160314752Y-87454870D01*
X160314750Y-87454869D01*
X160307483Y-87452159D01*
X160299770Y-87451329D01*
X160299767Y-87451329D01*
X160251180Y-87446105D01*
X160251169Y-87446104D01*
X160247873Y-87445750D01*
X160244550Y-87445750D01*
X159155439Y-87445750D01*
X159155420Y-87445750D01*
X159152128Y-87445751D01*
X159148850Y-87446103D01*
X159148838Y-87446104D01*
X159100231Y-87451329D01*
X159100225Y-87451330D01*
X159092517Y-87452159D01*
X159085252Y-87454868D01*
X159085246Y-87454870D01*
X158965980Y-87499354D01*
X158965978Y-87499354D01*
X158957669Y-87502454D01*
X158950572Y-87507766D01*
X158950564Y-87507771D01*
X158857019Y-87577799D01*
X158803720Y-87600739D01*
X158745819Y-87596918D01*
X158742231Y-87595800D01*
X158723025Y-87589815D01*
X158608457Y-87554114D01*
X158608448Y-87554112D01*
X158602196Y-87552164D01*
X158595662Y-87551570D01*
X158595661Y-87551570D01*
X158534425Y-87546005D01*
X158534419Y-87546004D01*
X158531616Y-87545750D01*
X157868384Y-87545750D01*
X157865581Y-87546004D01*
X157865574Y-87546005D01*
X157804338Y-87551570D01*
X157804335Y-87551570D01*
X157797804Y-87552164D01*
X157791553Y-87554111D01*
X157791542Y-87554114D01*
X157642550Y-87600542D01*
X157635394Y-87602772D01*
X157628984Y-87606646D01*
X157628977Y-87606650D01*
X157523323Y-87670521D01*
X157471638Y-87687776D01*
X157417546Y-87681208D01*
X157371492Y-87652085D01*
X157340488Y-87621081D01*
X157340488Y-87621080D01*
X157335185Y-87615778D01*
X157320325Y-87606795D01*
X157196021Y-87531650D01*
X157196020Y-87531649D01*
X157189606Y-87527772D01*
X157160500Y-87518702D01*
X157033457Y-87479114D01*
X157033448Y-87479112D01*
X157027196Y-87477164D01*
X157020662Y-87476570D01*
X157020661Y-87476570D01*
X156959425Y-87471005D01*
X156959419Y-87471004D01*
X156956616Y-87470750D01*
X156443384Y-87470750D01*
X156440581Y-87471004D01*
X156440574Y-87471005D01*
X156379338Y-87476570D01*
X156379335Y-87476570D01*
X156372804Y-87477164D01*
X156366553Y-87479111D01*
X156366542Y-87479114D01*
X156217550Y-87525542D01*
X156210394Y-87527772D01*
X156203982Y-87531648D01*
X156203978Y-87531650D01*
X156071232Y-87611898D01*
X156071227Y-87611901D01*
X156064815Y-87615778D01*
X156059515Y-87621077D01*
X156059511Y-87621081D01*
X155962681Y-87717912D01*
X155907094Y-87750006D01*
X155842906Y-87750006D01*
X155787319Y-87717912D01*
X155690488Y-87621081D01*
X155690488Y-87621080D01*
X155685185Y-87615778D01*
X155670325Y-87606795D01*
X155546021Y-87531650D01*
X155546020Y-87531649D01*
X155539606Y-87527772D01*
X155510500Y-87518702D01*
X155383457Y-87479114D01*
X155383448Y-87479112D01*
X155377196Y-87477164D01*
X155370662Y-87476570D01*
X155370661Y-87476570D01*
X155309425Y-87471005D01*
X155309419Y-87471004D01*
X155306616Y-87470750D01*
X154793384Y-87470750D01*
X154790581Y-87471004D01*
X154790574Y-87471005D01*
X154729338Y-87476570D01*
X154729335Y-87476570D01*
X154722804Y-87477164D01*
X154716553Y-87479111D01*
X154716542Y-87479114D01*
X154567550Y-87525542D01*
X154560394Y-87527772D01*
X154553982Y-87531648D01*
X154553978Y-87531650D01*
X154421229Y-87611900D01*
X154421225Y-87611902D01*
X154414815Y-87615778D01*
X154409518Y-87621074D01*
X154405663Y-87624095D01*
X154356256Y-87647493D01*
X154301590Y-87647371D01*
X154254643Y-87624881D01*
X154253044Y-87623282D01*
X154246891Y-87619487D01*
X154114845Y-87538039D01*
X154114843Y-87538038D01*
X154108697Y-87534247D01*
X154101842Y-87531975D01*
X154101841Y-87531975D01*
X153954136Y-87483031D01*
X153954135Y-87483030D01*
X153947708Y-87480901D01*
X153940975Y-87480213D01*
X153940970Y-87480212D01*
X153851476Y-87471069D01*
X153851459Y-87471068D01*
X153848345Y-87470750D01*
X153845196Y-87470750D01*
X153304805Y-87470750D01*
X153304785Y-87470750D01*
X153301656Y-87470751D01*
X153298524Y-87471070D01*
X153298522Y-87471071D01*
X153209027Y-87480212D01*
X153209017Y-87480213D01*
X153202292Y-87480901D01*
X153195870Y-87483028D01*
X153195865Y-87483030D01*
X153048158Y-87531975D01*
X153048154Y-87531976D01*
X153041303Y-87534247D01*
X153035159Y-87538036D01*
X153035154Y-87538039D01*
X152903107Y-87619487D01*
X152903101Y-87619491D01*
X152896956Y-87623282D01*
X152891849Y-87628388D01*
X152891845Y-87628392D01*
X152887681Y-87632557D01*
X152832094Y-87664651D01*
X152767906Y-87664651D01*
X152712319Y-87632557D01*
X152708154Y-87628392D01*
X152708154Y-87628391D01*
X152703044Y-87623282D01*
X152696894Y-87619488D01*
X152696892Y-87619487D01*
X152564845Y-87538039D01*
X152564843Y-87538038D01*
X152558697Y-87534247D01*
X152551842Y-87531975D01*
X152551841Y-87531975D01*
X152404136Y-87483031D01*
X152404135Y-87483030D01*
X152397708Y-87480901D01*
X152390975Y-87480213D01*
X152390970Y-87480212D01*
X152301476Y-87471069D01*
X152301459Y-87471068D01*
X152298345Y-87470750D01*
X152295196Y-87470750D01*
X151754805Y-87470750D01*
X151754785Y-87470750D01*
X151751656Y-87470751D01*
X151748524Y-87471070D01*
X151748522Y-87471071D01*
X151659027Y-87480212D01*
X151659017Y-87480213D01*
X151652292Y-87480901D01*
X151645870Y-87483028D01*
X151645865Y-87483030D01*
X151498158Y-87531975D01*
X151498154Y-87531976D01*
X151491303Y-87534247D01*
X151485159Y-87538036D01*
X151485154Y-87538039D01*
X151353107Y-87619487D01*
X151353101Y-87619491D01*
X151346956Y-87623282D01*
X151341849Y-87628388D01*
X151341845Y-87628392D01*
X151232142Y-87738095D01*
X151232138Y-87738099D01*
X151227032Y-87743206D01*
X151223241Y-87749351D01*
X151223237Y-87749357D01*
X151141789Y-87881404D01*
X151141786Y-87881409D01*
X151137997Y-87887553D01*
X151135726Y-87894404D01*
X151135725Y-87894408D01*
X151086781Y-88042113D01*
X151084651Y-88048542D01*
X151083963Y-88055272D01*
X151083962Y-88055279D01*
X151074819Y-88144773D01*
X151074818Y-88144791D01*
X151074500Y-88147905D01*
X151074500Y-88151052D01*
X151074500Y-88151053D01*
X151074500Y-88741444D01*
X151074500Y-88741463D01*
X151074501Y-88744594D01*
X151074820Y-88747726D01*
X151074821Y-88747727D01*
X151083962Y-88837222D01*
X151083963Y-88837230D01*
X151084651Y-88843958D01*
X151086779Y-88850381D01*
X151086780Y-88850384D01*
X151134765Y-88995194D01*
X151137997Y-89004947D01*
X151141788Y-89011093D01*
X151141789Y-89011095D01*
X151222837Y-89142494D01*
X151227032Y-89149294D01*
X151232142Y-89154404D01*
X151338181Y-89260443D01*
X151365061Y-89300671D01*
X151374500Y-89348124D01*
X151374500Y-89654192D01*
X151365061Y-89701645D01*
X151338181Y-89741873D01*
X150112181Y-90967873D01*
X150062818Y-90998123D01*
X150005102Y-91002665D01*
X149951615Y-90980510D01*
X149914015Y-90936487D01*
X149900500Y-90880192D01*
X149900500Y-90424921D01*
X149900726Y-90417433D01*
X149901249Y-90408792D01*
X149904358Y-90357394D01*
X149893514Y-90298221D01*
X149892387Y-90290815D01*
X149889480Y-90266873D01*
X149885140Y-90231128D01*
X149881547Y-90221656D01*
X149875522Y-90200041D01*
X149873695Y-90190069D01*
X149849009Y-90135220D01*
X149846142Y-90128298D01*
X149827480Y-90079090D01*
X149824818Y-90072070D01*
X149819059Y-90063727D01*
X149808033Y-90044177D01*
X149806956Y-90041784D01*
X149803878Y-90034944D01*
X149789467Y-90016550D01*
X149766791Y-89987605D01*
X149762353Y-89981574D01*
X149736645Y-89944330D01*
X149728183Y-89932071D01*
X149722568Y-89927097D01*
X149722565Y-89927093D01*
X149683170Y-89892193D01*
X149677716Y-89887059D01*
X149602838Y-89812181D01*
X149572588Y-89762818D01*
X149568046Y-89705102D01*
X149590201Y-89651615D01*
X149634224Y-89614015D01*
X149690519Y-89600500D01*
X149788143Y-89600500D01*
X149794646Y-89600500D01*
X149979803Y-89561144D01*
X150152730Y-89484151D01*
X150305871Y-89372888D01*
X150432533Y-89232216D01*
X150527179Y-89068284D01*
X150585674Y-88888256D01*
X150605460Y-88700000D01*
X150585674Y-88511744D01*
X150527179Y-88331716D01*
X150432533Y-88167784D01*
X150305871Y-88027112D01*
X150300613Y-88023292D01*
X150300611Y-88023290D01*
X150157988Y-87919669D01*
X150157987Y-87919668D01*
X150152730Y-87915849D01*
X150146792Y-87913205D01*
X149985745Y-87841501D01*
X149985740Y-87841499D01*
X149979803Y-87838856D01*
X149973444Y-87837504D01*
X149973440Y-87837503D01*
X149801008Y-87800852D01*
X149801005Y-87800851D01*
X149794646Y-87799500D01*
X149605354Y-87799500D01*
X149598995Y-87800851D01*
X149598991Y-87800852D01*
X149426559Y-87837503D01*
X149426552Y-87837505D01*
X149420197Y-87838856D01*
X149414262Y-87841498D01*
X149414254Y-87841501D01*
X149253207Y-87913205D01*
X149253202Y-87913207D01*
X149247270Y-87915849D01*
X149164726Y-87975820D01*
X149130163Y-87993431D01*
X149091845Y-87999500D01*
X148926874Y-87999500D01*
X148879421Y-87990061D01*
X148839193Y-87963181D01*
X148758154Y-87882142D01*
X148753044Y-87877032D01*
X148746894Y-87873238D01*
X148746892Y-87873237D01*
X148614845Y-87791789D01*
X148614843Y-87791788D01*
X148608697Y-87787997D01*
X148601842Y-87785725D01*
X148601841Y-87785725D01*
X148454136Y-87736781D01*
X148454135Y-87736780D01*
X148447708Y-87734651D01*
X148440975Y-87733963D01*
X148440970Y-87733962D01*
X148351476Y-87724819D01*
X148351459Y-87724818D01*
X148348345Y-87724500D01*
X148345196Y-87724500D01*
X147804805Y-87724500D01*
X147804785Y-87724500D01*
X147801656Y-87724501D01*
X147798524Y-87724820D01*
X147798522Y-87724821D01*
X147709027Y-87733962D01*
X147709017Y-87733963D01*
X147702292Y-87734651D01*
X147695870Y-87736778D01*
X147695865Y-87736780D01*
X147548158Y-87785725D01*
X147548154Y-87785726D01*
X147541303Y-87787997D01*
X147535159Y-87791786D01*
X147535154Y-87791789D01*
X147403107Y-87873237D01*
X147403101Y-87873241D01*
X147396956Y-87877032D01*
X147391849Y-87882138D01*
X147391845Y-87882142D01*
X147282142Y-87991845D01*
X147282138Y-87991849D01*
X147277032Y-87996956D01*
X147273241Y-88003101D01*
X147273237Y-88003107D01*
X147191789Y-88135154D01*
X147191786Y-88135159D01*
X147187997Y-88141303D01*
X147185726Y-88148154D01*
X147185725Y-88148158D01*
X147136781Y-88295863D01*
X147134651Y-88302292D01*
X147133963Y-88309022D01*
X147133962Y-88309029D01*
X147124819Y-88398523D01*
X147124818Y-88398541D01*
X147124500Y-88401655D01*
X147124500Y-88404802D01*
X147124500Y-88404803D01*
X147124500Y-88995194D01*
X147124500Y-88995213D01*
X147124501Y-88998344D01*
X147124820Y-89001476D01*
X147124821Y-89001477D01*
X147133962Y-89090972D01*
X147133963Y-89090980D01*
X147134651Y-89097708D01*
X147136779Y-89104131D01*
X147136780Y-89104134D01*
X147181939Y-89240415D01*
X147187997Y-89258697D01*
X147191787Y-89264841D01*
X147191789Y-89264845D01*
X147265842Y-89384903D01*
X147284304Y-89450000D01*
X147265842Y-89515097D01*
X147191789Y-89635154D01*
X147191787Y-89635158D01*
X147187997Y-89641303D01*
X147185726Y-89648154D01*
X147185725Y-89648158D01*
X147136781Y-89795863D01*
X147134651Y-89802292D01*
X147133963Y-89809022D01*
X147133962Y-89809029D01*
X147124819Y-89898523D01*
X147124818Y-89898541D01*
X147124500Y-89901655D01*
X147124500Y-89904802D01*
X147124500Y-89904803D01*
X147124500Y-90495194D01*
X147124500Y-90495213D01*
X147124501Y-90498344D01*
X147124820Y-90501476D01*
X147124821Y-90501477D01*
X147133962Y-90590972D01*
X147133963Y-90590980D01*
X147134651Y-90597708D01*
X147187997Y-90758697D01*
X147191792Y-90764850D01*
X147193444Y-90768392D01*
X147204914Y-90826879D01*
X147187772Y-90883961D01*
X147145977Y-90926451D01*
X147089289Y-90944500D01*
X147085640Y-90944501D01*
X147081615Y-90945030D01*
X147081612Y-90945031D01*
X146976296Y-90958895D01*
X146976294Y-90958895D01*
X146968238Y-90959956D01*
X146960738Y-90963062D01*
X146960729Y-90963065D01*
X146829666Y-91017354D01*
X146829662Y-91017355D01*
X146822159Y-91020464D01*
X146815714Y-91025408D01*
X146815711Y-91025411D01*
X146703164Y-91111771D01*
X146703160Y-91111774D01*
X146696718Y-91116718D01*
X146691774Y-91123160D01*
X146691771Y-91123164D01*
X146605411Y-91235711D01*
X146605408Y-91235714D01*
X146600464Y-91242159D01*
X146597355Y-91249662D01*
X146597354Y-91249666D01*
X146543066Y-91380728D01*
X146543064Y-91380733D01*
X146539956Y-91388238D01*
X146538896Y-91396289D01*
X146538894Y-91396297D01*
X146526283Y-91492094D01*
X146524500Y-91505639D01*
X146524500Y-91509691D01*
X146524500Y-91509692D01*
X146524500Y-91780305D01*
X146524500Y-91780320D01*
X146524501Y-91784360D01*
X146525029Y-91788374D01*
X146525030Y-91788382D01*
X146530745Y-91831795D01*
X146539956Y-91901762D01*
X146543063Y-91909263D01*
X146543065Y-91909270D01*
X146548565Y-91922546D01*
X146558004Y-91969997D01*
X146548567Y-92017448D01*
X146543066Y-92030728D01*
X146543064Y-92030733D01*
X146539956Y-92038238D01*
X146538896Y-92046289D01*
X146538894Y-92046297D01*
X146525029Y-92151618D01*
X146524500Y-92155639D01*
X146524500Y-92159691D01*
X146524500Y-92159692D01*
X146524500Y-92430305D01*
X146524500Y-92430320D01*
X146524501Y-92434360D01*
X146525029Y-92438374D01*
X146525030Y-92438382D01*
X146534458Y-92509999D01*
X146539956Y-92551762D01*
X146543063Y-92559263D01*
X146543065Y-92559270D01*
X146548565Y-92572546D01*
X146558004Y-92619997D01*
X146548567Y-92667448D01*
X146543066Y-92680728D01*
X146543064Y-92680733D01*
X146539956Y-92688238D01*
X146538896Y-92696289D01*
X146538894Y-92696297D01*
X146525029Y-92801618D01*
X146524500Y-92805639D01*
X146524500Y-92809691D01*
X146524500Y-92809692D01*
X146524500Y-93080305D01*
X146524500Y-93080320D01*
X146524501Y-93084360D01*
X146525029Y-93088374D01*
X146525030Y-93088382D01*
X146530395Y-93129134D01*
X146539956Y-93201762D01*
X146543064Y-93209265D01*
X146543065Y-93209269D01*
X146548566Y-93222549D01*
X146558004Y-93270000D01*
X146548566Y-93317451D01*
X146543066Y-93330728D01*
X146543064Y-93330733D01*
X146539956Y-93338238D01*
X146538896Y-93346289D01*
X146538894Y-93346297D01*
X146525029Y-93451618D01*
X146524500Y-93455639D01*
X146524500Y-93459691D01*
X146524500Y-93459692D01*
X146524500Y-93730305D01*
X146524500Y-93730320D01*
X146524501Y-93734360D01*
X146525029Y-93738374D01*
X146525030Y-93738382D01*
X146535051Y-93814500D01*
X146539956Y-93851762D01*
X146543063Y-93859263D01*
X146543065Y-93859270D01*
X146589375Y-93971071D01*
X146600464Y-93997841D01*
X146696718Y-94123282D01*
X146706499Y-94130787D01*
X146727139Y-94146625D01*
X146762864Y-94190157D01*
X146775651Y-94245000D01*
X146762864Y-94299843D01*
X146727139Y-94343375D01*
X146703163Y-94361772D01*
X146703160Y-94361774D01*
X146696718Y-94366718D01*
X146691774Y-94373160D01*
X146691771Y-94373164D01*
X146605411Y-94485711D01*
X146605408Y-94485714D01*
X146600464Y-94492159D01*
X146597355Y-94499662D01*
X146597354Y-94499666D01*
X146543066Y-94630728D01*
X146543066Y-94630729D01*
X146539956Y-94638238D01*
X146538896Y-94646289D01*
X146538894Y-94646297D01*
X146525029Y-94751618D01*
X146524500Y-94755639D01*
X146524500Y-94759691D01*
X146524500Y-94759692D01*
X146524500Y-95030305D01*
X146524500Y-95030320D01*
X144675500Y-95030320D01*
X144675499Y-94755640D01*
X144660044Y-94638238D01*
X144656933Y-94630728D01*
X144625681Y-94555279D01*
X144599536Y-94492159D01*
X144503282Y-94366718D01*
X144472861Y-94343375D01*
X144437136Y-94299844D01*
X144424348Y-94245000D01*
X144437136Y-94190156D01*
X144472862Y-94146624D01*
X144478020Y-94142666D01*
X144503282Y-94123282D01*
X144599536Y-93997841D01*
X144660044Y-93851762D01*
X144675500Y-93734361D01*
X144675499Y-93455640D01*
X144660044Y-93338238D01*
X144651435Y-93317454D01*
X144641995Y-93269997D01*
X144651437Y-93222540D01*
X144656934Y-93209271D01*
X144656934Y-93209268D01*
X144660044Y-93201762D01*
X144675500Y-93084361D01*
X144675499Y-92805640D01*
X144660365Y-92690684D01*
X144670923Y-92622095D01*
X144716680Y-92569919D01*
X144783305Y-92550500D01*
X144788143Y-92550500D01*
X144794646Y-92550500D01*
X144979803Y-92511144D01*
X145152730Y-92434151D01*
X145305871Y-92322888D01*
X145432533Y-92182216D01*
X145527179Y-92018284D01*
X145585674Y-91838256D01*
X145605460Y-91650000D01*
X145585674Y-91461744D01*
X145527179Y-91281716D01*
X145432533Y-91117784D01*
X145415189Y-91098522D01*
X145310220Y-90981942D01*
X145310219Y-90981941D01*
X145305871Y-90977112D01*
X145300613Y-90973292D01*
X145300611Y-90973290D01*
X145157988Y-90869669D01*
X145157987Y-90869668D01*
X145152730Y-90865849D01*
X145146792Y-90863205D01*
X144985745Y-90791501D01*
X144985740Y-90791499D01*
X144979803Y-90788856D01*
X144973444Y-90787504D01*
X144973440Y-90787503D01*
X144801008Y-90750852D01*
X144801005Y-90750851D01*
X144794646Y-90749500D01*
X144605354Y-90749500D01*
X144598995Y-90750851D01*
X144598991Y-90750852D01*
X144426559Y-90787503D01*
X144426552Y-90787505D01*
X144420197Y-90788856D01*
X144414262Y-90791498D01*
X144414254Y-90791501D01*
X144253210Y-90863204D01*
X144253207Y-90863205D01*
X144247270Y-90865849D01*
X144242016Y-90869665D01*
X144242011Y-90869669D01*
X144202388Y-90898456D01*
X144141979Y-90921507D01*
X144078180Y-90911015D01*
X144028334Y-90869833D01*
X144005996Y-90809158D01*
X144014744Y-90759605D01*
X144012003Y-90758697D01*
X144014603Y-90750852D01*
X144065349Y-90597708D01*
X144075500Y-90498345D01*
X144075499Y-89901656D01*
X144065349Y-89802292D01*
X144012003Y-89641303D01*
X143934155Y-89515094D01*
X143915695Y-89450000D01*
X143934155Y-89384905D01*
X144012003Y-89258697D01*
X144065349Y-89097708D01*
X144075500Y-88998345D01*
X144075499Y-88401656D01*
X144065349Y-88302292D01*
X144012003Y-88141303D01*
X143922968Y-87996956D01*
X143803044Y-87877032D01*
X143796892Y-87873237D01*
X143795126Y-87871841D01*
X143756141Y-87818675D01*
X143749917Y-87753041D01*
X143778212Y-87693494D01*
X143833030Y-87656866D01*
X143847458Y-87652085D01*
X143897925Y-87635362D01*
X144046003Y-87544026D01*
X144169026Y-87421003D01*
X144205961Y-87361121D01*
X144247839Y-87319808D01*
X144304048Y-87302444D01*
X144361931Y-87312940D01*
X144470197Y-87361144D01*
X144655354Y-87400500D01*
X144838143Y-87400500D01*
X144844646Y-87400500D01*
X145029803Y-87361144D01*
X145202730Y-87284151D01*
X145355871Y-87172888D01*
X145482533Y-87032216D01*
X145577179Y-86868284D01*
X145635674Y-86688256D01*
X145655460Y-86500000D01*
X145635674Y-86311744D01*
X145577179Y-86131716D01*
X145482533Y-85967784D01*
X145355871Y-85827112D01*
X145350613Y-85823292D01*
X145350611Y-85823290D01*
X145207988Y-85719669D01*
X145207987Y-85719668D01*
X145202730Y-85715849D01*
X145161642Y-85697555D01*
X145035745Y-85641501D01*
X145035740Y-85641499D01*
X145029803Y-85638856D01*
X145023444Y-85637504D01*
X145023440Y-85637503D01*
X144851008Y-85600852D01*
X144851005Y-85600851D01*
X144844646Y-85599500D01*
X144655354Y-85599500D01*
X144648995Y-85600851D01*
X144648991Y-85600852D01*
X144476559Y-85637503D01*
X144476552Y-85637505D01*
X144470197Y-85638856D01*
X144361931Y-85687059D01*
X144304048Y-85697555D01*
X144247840Y-85680191D01*
X144205960Y-85638876D01*
X144172820Y-85585148D01*
X144172819Y-85585147D01*
X144169026Y-85578997D01*
X144152209Y-85562179D01*
X144121959Y-85512817D01*
X144117417Y-85455101D01*
X144139572Y-85401614D01*
X144183595Y-85364014D01*
X144239890Y-85350499D01*
X144382061Y-85350499D01*
X144385372Y-85350499D01*
X144444983Y-85344091D01*
X144579831Y-85293796D01*
X144695046Y-85207546D01*
X144781296Y-85092331D01*
X144831591Y-84957483D01*
X144838000Y-84897873D01*
X144837999Y-83302128D01*
X144831591Y-83242517D01*
X144781296Y-83107669D01*
X144695046Y-82992454D01*
X144638122Y-82949841D01*
X144586931Y-82911519D01*
X144586930Y-82911518D01*
X144579831Y-82906204D01*
X144444983Y-82855909D01*
X144437270Y-82855079D01*
X144437267Y-82855079D01*
X144388680Y-82849855D01*
X144388669Y-82849854D01*
X144385373Y-82849500D01*
X144382050Y-82849500D01*
X142292939Y-82849500D01*
X142292920Y-82849500D01*
X142289628Y-82849501D01*
X142286350Y-82849853D01*
X142286338Y-82849854D01*
X142237731Y-82855079D01*
X142237725Y-82855080D01*
X142230017Y-82855909D01*
X142222752Y-82858618D01*
X142222746Y-82858620D01*
X142103480Y-82903104D01*
X142103478Y-82903104D01*
X142095169Y-82906204D01*
X142088072Y-82911516D01*
X142088068Y-82911519D01*
X141987050Y-82987141D01*
X141987046Y-82987144D01*
X141979954Y-82992454D01*
X141974644Y-82999546D01*
X141974641Y-82999550D01*
X141899019Y-83100568D01*
X141899016Y-83100572D01*
X141893704Y-83107669D01*
X141890604Y-83115978D01*
X141890604Y-83115980D01*
X141846120Y-83235247D01*
X141846119Y-83235250D01*
X141843409Y-83242517D01*
X141842579Y-83250227D01*
X141842579Y-83250232D01*
X141837355Y-83298819D01*
X141837354Y-83298831D01*
X141837000Y-83302127D01*
X141837000Y-83305449D01*
X141837000Y-83325010D01*
X141828033Y-83371308D01*
X141802428Y-83410909D01*
X141763888Y-83438087D01*
X141735219Y-83450989D01*
X141728305Y-83453853D01*
X141679080Y-83472522D01*
X141679070Y-83472526D01*
X141672070Y-83475182D01*
X141665904Y-83479437D01*
X141665898Y-83479441D01*
X141663727Y-83480940D01*
X141644185Y-83491962D01*
X141634945Y-83496121D01*
X141634244Y-83494564D01*
X141578787Y-83509886D01*
X141521953Y-83493626D01*
X141521387Y-83494840D01*
X141514845Y-83491789D01*
X141508697Y-83487997D01*
X141501842Y-83485725D01*
X141501841Y-83485725D01*
X141354136Y-83436781D01*
X141354135Y-83436780D01*
X141347708Y-83434651D01*
X141340975Y-83433963D01*
X141340970Y-83433962D01*
X141251476Y-83424819D01*
X141251459Y-83424818D01*
X141248345Y-83424500D01*
X141245196Y-83424500D01*
X140704805Y-83424500D01*
X140704785Y-83424500D01*
X140701656Y-83424501D01*
X140698524Y-83424820D01*
X140698522Y-83424821D01*
X140609027Y-83433962D01*
X140609017Y-83433963D01*
X140602292Y-83434651D01*
X140595870Y-83436778D01*
X140595865Y-83436780D01*
X140448158Y-83485725D01*
X140448154Y-83485726D01*
X140441303Y-83487997D01*
X140435159Y-83491786D01*
X140435154Y-83491789D01*
X140303107Y-83573237D01*
X140303101Y-83573241D01*
X140296956Y-83577032D01*
X140291849Y-83582138D01*
X140291845Y-83582142D01*
X140182142Y-83691845D01*
X140182138Y-83691849D01*
X140177032Y-83696956D01*
X140173241Y-83703101D01*
X140173237Y-83703107D01*
X140091789Y-83835154D01*
X140091786Y-83835159D01*
X140087997Y-83841303D01*
X140085726Y-83848154D01*
X140085725Y-83848158D01*
X140037551Y-83993540D01*
X140034651Y-84002292D01*
X140033963Y-84009022D01*
X140033962Y-84009029D01*
X140024819Y-84098523D01*
X140024818Y-84098541D01*
X140024500Y-84101655D01*
X140024500Y-84104802D01*
X140024500Y-84104803D01*
X140024500Y-84695194D01*
X140024500Y-84695213D01*
X140024501Y-84698344D01*
X140024820Y-84701476D01*
X140024821Y-84701477D01*
X140033649Y-84787899D01*
X140021635Y-84855075D01*
X139975898Y-84905722D01*
X139910291Y-84924500D01*
X139668384Y-84924500D01*
X139665581Y-84924754D01*
X139665574Y-84924755D01*
X139604338Y-84930320D01*
X139604335Y-84930320D01*
X139597804Y-84930914D01*
X139591553Y-84932861D01*
X139591542Y-84932864D01*
X139442550Y-84979292D01*
X139435394Y-84981522D01*
X139428982Y-84985398D01*
X139428978Y-84985400D01*
X139296232Y-85065648D01*
X139296227Y-85065651D01*
X139289815Y-85069528D01*
X139284515Y-85074827D01*
X139284511Y-85074831D01*
X139174831Y-85184511D01*
X139174827Y-85184515D01*
X139169528Y-85189815D01*
X139165651Y-85196227D01*
X139165648Y-85196232D01*
X139085400Y-85328978D01*
X139085398Y-85328982D01*
X139081522Y-85335394D01*
X139079292Y-85342548D01*
X139079292Y-85342550D01*
X139032864Y-85491542D01*
X139032861Y-85491553D01*
X139030914Y-85497804D01*
X139030320Y-85504335D01*
X139030320Y-85504338D01*
X139025064Y-85562180D01*
X139024500Y-85568384D01*
X139024500Y-86231616D01*
X139024754Y-86234419D01*
X139024755Y-86234425D01*
X139030320Y-86295661D01*
X139030914Y-86302196D01*
X139032862Y-86308448D01*
X139032864Y-86308457D01*
X139068648Y-86423290D01*
X139081522Y-86464606D01*
X139085399Y-86471020D01*
X139085400Y-86471021D01*
X139152200Y-86581522D01*
X139169528Y-86610185D01*
X139289815Y-86730472D01*
X139435394Y-86818478D01*
X139554711Y-86855658D01*
X139591542Y-86867135D01*
X139591544Y-86867135D01*
X139597804Y-86869086D01*
X139668384Y-86875500D01*
X139671203Y-86875500D01*
X140137030Y-86875500D01*
X140182677Y-86884208D01*
X140221913Y-86909107D01*
X140263223Y-86947899D01*
X140266020Y-86950610D01*
X140285529Y-86970120D01*
X140288709Y-86972587D01*
X140297571Y-86980155D01*
X140311020Y-86992785D01*
X140323732Y-87004723D01*
X140323734Y-87004724D01*
X140329418Y-87010062D01*
X140336251Y-87013818D01*
X140336252Y-87013819D01*
X140346973Y-87019713D01*
X140363234Y-87030394D01*
X140379064Y-87042673D01*
X140419155Y-87060021D01*
X140429631Y-87065154D01*
X140437300Y-87069370D01*
X140472876Y-87098713D01*
X140495269Y-87139028D01*
X140504888Y-87168057D01*
X140539638Y-87272925D01*
X140543430Y-87279073D01*
X140546481Y-87285615D01*
X140544226Y-87286666D01*
X140559125Y-87337333D01*
X140543114Y-87400708D01*
X140497101Y-87447135D01*
X140433872Y-87463714D01*
X140370998Y-87445838D01*
X140271022Y-87385400D01*
X140271017Y-87385398D01*
X140264606Y-87381522D01*
X140235500Y-87372452D01*
X140108457Y-87332864D01*
X140108448Y-87332862D01*
X140102196Y-87330914D01*
X140095662Y-87330320D01*
X140095661Y-87330320D01*
X140034425Y-87324755D01*
X140034419Y-87324754D01*
X140031616Y-87324500D01*
X139518384Y-87324500D01*
X139515581Y-87324754D01*
X139515574Y-87324755D01*
X139454338Y-87330320D01*
X139454335Y-87330320D01*
X139447804Y-87330914D01*
X139441553Y-87332861D01*
X139441542Y-87332864D01*
X139299527Y-87377118D01*
X139285394Y-87381522D01*
X139278982Y-87385398D01*
X139278978Y-87385400D01*
X139146232Y-87465648D01*
X139146227Y-87465651D01*
X139139815Y-87469528D01*
X139134515Y-87474827D01*
X139134511Y-87474831D01*
X139024831Y-87584511D01*
X139024827Y-87584515D01*
X139019528Y-87589815D01*
X139015652Y-87596225D01*
X139015646Y-87596234D01*
X139004515Y-87614649D01*
X138959314Y-87658506D01*
X138898398Y-87674500D01*
X137699500Y-87674500D01*
X137637500Y-87657887D01*
X137592113Y-87612500D01*
X137575500Y-87550500D01*
X137575500Y-87171203D01*
X137575500Y-87168384D01*
X137569086Y-87097804D01*
X137564752Y-87083897D01*
X137548648Y-87032216D01*
X137518478Y-86935394D01*
X137430472Y-86789815D01*
X137310185Y-86669528D01*
X137164606Y-86581522D01*
X137135500Y-86572452D01*
X137008457Y-86532864D01*
X137008448Y-86532862D01*
X137002196Y-86530914D01*
X136995662Y-86530320D01*
X136995661Y-86530320D01*
X136934425Y-86524755D01*
X136934419Y-86524754D01*
X136931616Y-86524500D01*
X136418384Y-86524500D01*
X136415581Y-86524754D01*
X136415574Y-86524755D01*
X136354338Y-86530320D01*
X136354335Y-86530320D01*
X136347804Y-86530914D01*
X136341553Y-86532861D01*
X136341542Y-86532864D01*
X136192550Y-86579292D01*
X136185394Y-86581522D01*
X136178982Y-86585398D01*
X136178978Y-86585400D01*
X136046232Y-86665648D01*
X136046227Y-86665651D01*
X136039815Y-86669528D01*
X136034515Y-86674827D01*
X136034511Y-86674831D01*
X135924831Y-86784511D01*
X135924827Y-86784515D01*
X135919528Y-86789815D01*
X135915652Y-86796225D01*
X135915646Y-86796234D01*
X135904515Y-86814649D01*
X135859314Y-86858506D01*
X135798398Y-86874500D01*
X134324836Y-86874500D01*
X134259126Y-86855658D01*
X134213386Y-86804859D01*
X134201515Y-86737540D01*
X134204781Y-86706462D01*
X134204781Y-86706460D01*
X134205460Y-86700000D01*
X134187231Y-86526561D01*
X134186353Y-86518204D01*
X134186352Y-86518203D01*
X134185674Y-86511744D01*
X134127179Y-86331716D01*
X134077546Y-86245750D01*
X134061364Y-86194068D01*
X134068753Y-86140416D01*
X134091379Y-86079753D01*
X134094091Y-86072483D01*
X134100500Y-86012873D01*
X134100499Y-84863295D01*
X134113287Y-84808452D01*
X134149011Y-84764921D01*
X134200451Y-84725451D01*
X134292698Y-84605233D01*
X134350687Y-84465236D01*
X134370466Y-84315000D01*
X134350687Y-84164764D01*
X134292698Y-84024767D01*
X134287753Y-84018322D01*
X134287751Y-84018319D01*
X134205394Y-83910991D01*
X134200451Y-83904549D01*
X134194008Y-83899605D01*
X134086680Y-83817248D01*
X134086674Y-83817245D01*
X134080233Y-83812302D01*
X134072724Y-83809191D01*
X134072723Y-83809191D01*
X133947745Y-83757423D01*
X133947742Y-83757422D01*
X133940236Y-83754313D01*
X133932182Y-83753252D01*
X133932176Y-83753251D01*
X133831739Y-83740029D01*
X133831737Y-83740028D01*
X133827720Y-83739500D01*
X133752280Y-83739500D01*
X133748263Y-83740028D01*
X133748260Y-83740029D01*
X133647823Y-83753251D01*
X133647815Y-83753252D01*
X133639764Y-83754313D01*
X133632259Y-83757421D01*
X133632254Y-83757423D01*
X133507276Y-83809191D01*
X133507272Y-83809193D01*
X133499767Y-83812302D01*
X133493328Y-83817242D01*
X133493319Y-83817248D01*
X133385991Y-83899605D01*
X133385987Y-83899608D01*
X133379549Y-83904549D01*
X133374608Y-83910987D01*
X133374605Y-83910991D01*
X133292248Y-84018319D01*
X133292242Y-84018328D01*
X133287302Y-84024767D01*
X133284193Y-84032272D01*
X133284191Y-84032276D01*
X133232424Y-84157253D01*
X133229313Y-84164764D01*
X133228251Y-84172823D01*
X133228252Y-84172823D01*
X133223793Y-84206688D01*
X133202428Y-84261625D01*
X133158111Y-84300489D01*
X133100855Y-84314500D01*
X132955440Y-84314500D01*
X132955421Y-84314500D01*
X132952128Y-84314501D01*
X132948853Y-84314852D01*
X132948834Y-84314854D01*
X132913253Y-84318679D01*
X132886749Y-84318679D01*
X132851163Y-84314853D01*
X132851150Y-84314852D01*
X132847873Y-84314500D01*
X132844562Y-84314500D01*
X132455439Y-84314500D01*
X132455420Y-84314500D01*
X132452128Y-84314501D01*
X132448853Y-84314852D01*
X132448834Y-84314854D01*
X132413253Y-84318679D01*
X132386749Y-84318679D01*
X132351163Y-84314853D01*
X132351150Y-84314852D01*
X132347873Y-84314500D01*
X132344562Y-84314500D01*
X131955439Y-84314500D01*
X131955420Y-84314500D01*
X131952128Y-84314501D01*
X131948853Y-84314852D01*
X131948834Y-84314854D01*
X131913253Y-84318679D01*
X131886749Y-84318679D01*
X131851163Y-84314853D01*
X131851150Y-84314852D01*
X131847873Y-84314500D01*
X131844562Y-84314500D01*
X131455439Y-84314500D01*
X131455420Y-84314500D01*
X131452128Y-84314501D01*
X131448853Y-84314852D01*
X131448834Y-84314854D01*
X131413253Y-84318679D01*
X131386749Y-84318679D01*
X131351163Y-84314853D01*
X131351150Y-84314852D01*
X131347873Y-84314500D01*
X131344562Y-84314500D01*
X130955439Y-84314500D01*
X130955420Y-84314500D01*
X130952128Y-84314501D01*
X130948853Y-84314852D01*
X130948834Y-84314854D01*
X130913253Y-84318679D01*
X130886749Y-84318679D01*
X130851163Y-84314853D01*
X130851150Y-84314852D01*
X130847873Y-84314500D01*
X130844562Y-84314500D01*
X130455439Y-84314500D01*
X130455420Y-84314500D01*
X130452128Y-84314501D01*
X130448853Y-84314852D01*
X130448834Y-84314854D01*
X130413253Y-84318679D01*
X130386749Y-84318679D01*
X130351163Y-84314853D01*
X130351150Y-84314852D01*
X130347873Y-84314500D01*
X130344562Y-84314500D01*
X129955439Y-84314500D01*
X129955420Y-84314500D01*
X129952128Y-84314501D01*
X129948853Y-84314852D01*
X129948834Y-84314854D01*
X129913253Y-84318679D01*
X129886749Y-84318679D01*
X129851163Y-84314853D01*
X129851150Y-84314852D01*
X129847873Y-84314500D01*
X129844562Y-84314500D01*
X129455439Y-84314500D01*
X129455420Y-84314500D01*
X129452128Y-84314501D01*
X129448853Y-84314852D01*
X129448834Y-84314854D01*
X129413253Y-84318679D01*
X129386749Y-84318679D01*
X129351163Y-84314853D01*
X129351150Y-84314852D01*
X129347873Y-84314500D01*
X129344562Y-84314500D01*
X128955439Y-84314500D01*
X128955420Y-84314500D01*
X128952128Y-84314501D01*
X128948853Y-84314852D01*
X128948834Y-84314854D01*
X128913253Y-84318679D01*
X128886749Y-84318679D01*
X128851163Y-84314853D01*
X128851150Y-84314852D01*
X128847873Y-84314500D01*
X128844563Y-84314500D01*
X128699145Y-84314500D01*
X128641888Y-84300489D01*
X128597570Y-84261623D01*
X128576206Y-84206685D01*
X128571748Y-84172823D01*
X128571747Y-84172822D01*
X128570687Y-84164764D01*
X128512698Y-84024767D01*
X128507753Y-84018322D01*
X128507751Y-84018319D01*
X128425394Y-83910991D01*
X128420451Y-83904549D01*
X128414008Y-83899605D01*
X128306680Y-83817248D01*
X128306674Y-83817245D01*
X128300233Y-83812302D01*
X128292724Y-83809191D01*
X128292723Y-83809191D01*
X128167745Y-83757423D01*
X128167742Y-83757422D01*
X128160236Y-83754313D01*
X128152182Y-83753252D01*
X128152176Y-83753251D01*
X128051739Y-83740029D01*
X128051737Y-83740028D01*
X128047720Y-83739500D01*
X127972280Y-83739500D01*
X127968263Y-83740028D01*
X127968260Y-83740029D01*
X127867823Y-83753251D01*
X127867815Y-83753252D01*
X127859764Y-83754313D01*
X127852259Y-83757421D01*
X127852254Y-83757423D01*
X127727276Y-83809191D01*
X127727272Y-83809193D01*
X127719767Y-83812302D01*
X127713328Y-83817242D01*
X127713319Y-83817248D01*
X127605991Y-83899605D01*
X127605987Y-83899608D01*
X127599549Y-83904549D01*
X127594608Y-83910987D01*
X127594605Y-83910991D01*
X127512248Y-84018319D01*
X127512242Y-84018328D01*
X127507302Y-84024767D01*
X127504193Y-84032272D01*
X127504191Y-84032276D01*
X127452423Y-84157254D01*
X127452421Y-84157259D01*
X127449313Y-84164764D01*
X127448252Y-84172815D01*
X127448251Y-84172823D01*
X127436561Y-84261623D01*
X127429534Y-84315000D01*
X127430595Y-84323059D01*
X127448251Y-84457176D01*
X127448252Y-84457182D01*
X127449313Y-84465236D01*
X127452422Y-84472742D01*
X127452423Y-84472745D01*
X127504191Y-84597723D01*
X127507302Y-84605233D01*
X127512245Y-84611674D01*
X127512248Y-84611680D01*
X127578749Y-84698344D01*
X127599549Y-84725451D01*
X127650987Y-84764921D01*
X127686712Y-84808450D01*
X127699500Y-84863295D01*
X127699500Y-86009560D01*
X127699500Y-86009578D01*
X127699501Y-86012872D01*
X127699853Y-86016150D01*
X127699854Y-86016161D01*
X127705079Y-86064768D01*
X127705080Y-86064773D01*
X127705909Y-86072483D01*
X127708619Y-86079749D01*
X127708620Y-86079753D01*
X127720429Y-86111415D01*
X127726927Y-86172784D01*
X127703039Y-86229685D01*
X127654682Y-86268025D01*
X127553208Y-86313205D01*
X127547270Y-86315849D01*
X127542016Y-86319665D01*
X127542011Y-86319669D01*
X127399388Y-86423290D01*
X127399381Y-86423295D01*
X127394129Y-86427112D01*
X127389784Y-86431937D01*
X127389779Y-86431942D01*
X127271813Y-86562956D01*
X127271808Y-86562962D01*
X127267467Y-86567784D01*
X127264222Y-86573404D01*
X127264218Y-86573410D01*
X127176069Y-86726089D01*
X127176066Y-86726094D01*
X127172821Y-86731716D01*
X127170815Y-86737888D01*
X127170813Y-86737894D01*
X127116333Y-86905564D01*
X127116331Y-86905573D01*
X127114326Y-86911744D01*
X127113648Y-86918194D01*
X127113646Y-86918204D01*
X127098743Y-87060013D01*
X127094540Y-87100000D01*
X127095219Y-87106460D01*
X127113646Y-87281795D01*
X127113647Y-87281803D01*
X127114326Y-87288256D01*
X127116331Y-87294428D01*
X127116333Y-87294435D01*
X127170143Y-87460043D01*
X127172821Y-87468284D01*
X127176068Y-87473908D01*
X127176069Y-87473910D01*
X127257976Y-87615778D01*
X127267467Y-87632216D01*
X127271811Y-87637041D01*
X127271813Y-87637043D01*
X127389779Y-87768057D01*
X127394129Y-87772888D01*
X127399387Y-87776708D01*
X127399388Y-87776709D01*
X127411796Y-87785724D01*
X127547270Y-87884151D01*
X127720197Y-87961144D01*
X127905354Y-88000500D01*
X128088143Y-88000500D01*
X128094646Y-88000500D01*
X128279803Y-87961144D01*
X128452730Y-87884151D01*
X128605871Y-87772888D01*
X128652250Y-87721378D01*
X128708144Y-87685769D01*
X128774397Y-87684034D01*
X128832080Y-87716670D01*
X129802707Y-88687297D01*
X129810156Y-88695483D01*
X129814214Y-88701877D01*
X129819899Y-88707215D01*
X129819901Y-88707218D01*
X129863239Y-88747915D01*
X129866036Y-88750626D01*
X129885530Y-88770120D01*
X129888615Y-88772513D01*
X129888701Y-88772580D01*
X129897573Y-88780158D01*
X129929418Y-88810062D01*
X129936248Y-88813817D01*
X129936251Y-88813819D01*
X129946971Y-88819712D01*
X129963222Y-88830386D01*
X129979064Y-88842674D01*
X129986221Y-88845771D01*
X129986223Y-88845772D01*
X130019155Y-88860022D01*
X130029650Y-88865164D01*
X130067908Y-88886197D01*
X130087312Y-88891179D01*
X130105714Y-88897480D01*
X130116941Y-88902338D01*
X130124105Y-88905438D01*
X130161697Y-88911391D01*
X130167239Y-88912269D01*
X130178682Y-88914639D01*
X130213425Y-88923560D01*
X130213426Y-88923560D01*
X130220981Y-88925500D01*
X130241017Y-88925500D01*
X130260402Y-88927025D01*
X130280196Y-88930160D01*
X130318276Y-88926560D01*
X130323676Y-88926050D01*
X130335345Y-88925500D01*
X138898398Y-88925500D01*
X138959314Y-88941494D01*
X139004515Y-88985351D01*
X139015646Y-89003765D01*
X139015648Y-89003767D01*
X139019528Y-89010185D01*
X139139815Y-89130472D01*
X139285394Y-89218478D01*
X139392462Y-89251841D01*
X139441542Y-89267135D01*
X139441544Y-89267135D01*
X139447804Y-89269086D01*
X139518384Y-89275500D01*
X140028797Y-89275500D01*
X140031616Y-89275500D01*
X140102196Y-89269086D01*
X140264606Y-89218478D01*
X140410185Y-89130472D01*
X140530472Y-89010185D01*
X140618478Y-88864606D01*
X140669086Y-88702196D01*
X140675500Y-88631616D01*
X140675500Y-87968384D01*
X140669086Y-87897804D01*
X140662613Y-87877032D01*
X140620709Y-87742554D01*
X140618478Y-87735394D01*
X140614595Y-87728972D01*
X140611730Y-87722605D01*
X140601266Y-87661016D01*
X140622157Y-87602142D01*
X140669102Y-87560925D01*
X140730184Y-87547827D01*
X140789901Y-87566172D01*
X140902075Y-87635362D01*
X141067225Y-87690087D01*
X141169152Y-87700500D01*
X141752699Y-87700500D01*
X141755848Y-87700500D01*
X141857775Y-87690087D01*
X142022925Y-87635362D01*
X142171003Y-87544026D01*
X142294026Y-87421003D01*
X142297821Y-87414849D01*
X142302296Y-87409191D01*
X142304359Y-87410822D01*
X142339564Y-87377118D01*
X142400000Y-87361393D01*
X142460436Y-87377118D01*
X142495640Y-87410822D01*
X142497704Y-87409191D01*
X142502179Y-87414851D01*
X142505974Y-87421003D01*
X142628997Y-87544026D01*
X142646802Y-87555008D01*
X142693312Y-87606511D01*
X142704867Y-87674939D01*
X142677846Y-87738859D01*
X142620712Y-87778251D01*
X142598159Y-87785724D01*
X142598150Y-87785728D01*
X142591303Y-87787997D01*
X142585159Y-87791786D01*
X142585154Y-87791789D01*
X142453107Y-87873237D01*
X142453101Y-87873241D01*
X142446956Y-87877032D01*
X142441849Y-87882138D01*
X142441845Y-87882142D01*
X142332142Y-87991845D01*
X142332138Y-87991849D01*
X142327032Y-87996956D01*
X142323241Y-88003101D01*
X142323237Y-88003107D01*
X142241789Y-88135154D01*
X142241786Y-88135159D01*
X142237997Y-88141303D01*
X142235726Y-88148154D01*
X142235725Y-88148158D01*
X142186781Y-88295863D01*
X142184651Y-88302292D01*
X142183963Y-88309022D01*
X142183962Y-88309029D01*
X142174819Y-88398523D01*
X142174818Y-88398541D01*
X142174500Y-88401655D01*
X142174500Y-88404802D01*
X142174500Y-88404803D01*
X142174500Y-88995194D01*
X142174500Y-88995213D01*
X142174501Y-88998344D01*
X142174820Y-89001476D01*
X142174821Y-89001477D01*
X142183962Y-89090972D01*
X142183963Y-89090980D01*
X142184651Y-89097708D01*
X142186779Y-89104131D01*
X142186780Y-89104134D01*
X142231939Y-89240415D01*
X142237997Y-89258697D01*
X142269480Y-89309739D01*
X142287939Y-89374002D01*
X142270345Y-89438508D01*
X142221814Y-89484502D01*
X142156457Y-89498609D01*
X142114884Y-89496094D01*
X142114874Y-89496094D01*
X142107394Y-89495642D01*
X142100018Y-89496993D01*
X142100011Y-89496994D01*
X142048228Y-89506483D01*
X142040828Y-89507610D01*
X141988569Y-89513956D01*
X141988565Y-89513956D01*
X141981128Y-89514860D01*
X141974119Y-89517517D01*
X141974114Y-89517519D01*
X141971643Y-89518456D01*
X141950053Y-89524474D01*
X141947452Y-89524950D01*
X141947438Y-89524954D01*
X141940069Y-89526305D01*
X141933232Y-89529381D01*
X141933232Y-89529382D01*
X141885226Y-89550987D01*
X141878310Y-89553851D01*
X141829082Y-89572521D01*
X141829070Y-89572526D01*
X141822070Y-89575182D01*
X141815904Y-89579437D01*
X141815894Y-89579443D01*
X141813717Y-89580946D01*
X141794195Y-89591957D01*
X141791783Y-89593042D01*
X141791771Y-89593048D01*
X141784944Y-89596122D01*
X141779048Y-89600740D01*
X141779043Y-89600744D01*
X141737608Y-89633205D01*
X141731581Y-89637640D01*
X141688245Y-89667554D01*
X141688238Y-89667559D01*
X141682071Y-89671817D01*
X141677102Y-89677425D01*
X141677096Y-89677431D01*
X141642192Y-89716829D01*
X141637060Y-89722280D01*
X141587026Y-89772315D01*
X141558512Y-89793608D01*
X141525125Y-89805925D01*
X141376559Y-89837503D01*
X141376552Y-89837505D01*
X141370197Y-89838856D01*
X141364262Y-89841498D01*
X141364254Y-89841501D01*
X141203207Y-89913205D01*
X141203202Y-89913207D01*
X141197270Y-89915849D01*
X141192016Y-89919665D01*
X141192011Y-89919669D01*
X141049388Y-90023290D01*
X141049381Y-90023295D01*
X141044129Y-90027112D01*
X141039784Y-90031937D01*
X141039779Y-90031942D01*
X140921813Y-90162956D01*
X140921808Y-90162962D01*
X140917467Y-90167784D01*
X140914222Y-90173404D01*
X140914218Y-90173410D01*
X140826069Y-90326089D01*
X140826066Y-90326094D01*
X140822821Y-90331716D01*
X140820815Y-90337888D01*
X140820813Y-90337894D01*
X140766333Y-90505564D01*
X140766331Y-90505573D01*
X140764326Y-90511744D01*
X140763648Y-90518194D01*
X140763646Y-90518204D01*
X140751247Y-90636182D01*
X140744540Y-90700000D01*
X140745219Y-90706460D01*
X140763646Y-90881795D01*
X140763647Y-90881803D01*
X140764326Y-90888256D01*
X140766331Y-90894428D01*
X140766333Y-90894435D01*
X140820813Y-91062105D01*
X140822821Y-91068284D01*
X140826068Y-91073908D01*
X140826069Y-91073910D01*
X140890575Y-91185638D01*
X140917467Y-91232216D01*
X140921813Y-91237043D01*
X140925637Y-91242306D01*
X140924296Y-91243279D01*
X140941251Y-91270920D01*
X140949500Y-91315392D01*
X140949500Y-91345500D01*
X140932887Y-91407500D01*
X140887500Y-91452887D01*
X140825500Y-91469500D01*
X140404805Y-91469500D01*
X140404785Y-91469500D01*
X140401656Y-91469501D01*
X140398524Y-91469820D01*
X140398522Y-91469821D01*
X140309027Y-91478962D01*
X140309017Y-91478963D01*
X140302292Y-91479651D01*
X140295870Y-91481778D01*
X140295865Y-91481780D01*
X140148158Y-91530725D01*
X140148154Y-91530726D01*
X140141303Y-91532997D01*
X140135159Y-91536786D01*
X140135154Y-91536789D01*
X140003107Y-91618237D01*
X140003101Y-91618241D01*
X139996956Y-91622032D01*
X139991849Y-91627138D01*
X139991845Y-91627142D01*
X139987681Y-91631307D01*
X139932094Y-91663401D01*
X139867906Y-91663401D01*
X139812319Y-91631307D01*
X139808154Y-91627142D01*
X139808154Y-91627141D01*
X139803044Y-91622032D01*
X139796894Y-91618238D01*
X139796892Y-91618237D01*
X139664845Y-91536789D01*
X139664843Y-91536788D01*
X139658697Y-91532997D01*
X139651842Y-91530725D01*
X139651841Y-91530725D01*
X139504136Y-91481781D01*
X139504135Y-91481780D01*
X139497708Y-91479651D01*
X139490975Y-91478963D01*
X139490970Y-91478962D01*
X139401476Y-91469819D01*
X139401459Y-91469818D01*
X139398345Y-91469500D01*
X139395196Y-91469500D01*
X138854805Y-91469500D01*
X138854785Y-91469500D01*
X138851656Y-91469501D01*
X138848524Y-91469820D01*
X138848522Y-91469821D01*
X138759027Y-91478962D01*
X138759017Y-91478963D01*
X138752292Y-91479651D01*
X138745870Y-91481778D01*
X138745865Y-91481780D01*
X138598158Y-91530725D01*
X138598154Y-91530726D01*
X138591303Y-91532997D01*
X138585159Y-91536786D01*
X138585154Y-91536789D01*
X138453107Y-91618237D01*
X138453101Y-91618241D01*
X138446956Y-91622032D01*
X138441849Y-91627138D01*
X138441845Y-91627142D01*
X138332141Y-91736846D01*
X138332137Y-91736850D01*
X138327032Y-91741956D01*
X138323548Y-91747603D01*
X138280553Y-91782109D01*
X138226521Y-91794500D01*
X137424154Y-91794500D01*
X137363555Y-91778684D01*
X137318414Y-91735270D01*
X137301429Y-91679232D01*
X137300500Y-91679306D01*
X137297598Y-91642431D01*
X137251744Y-91484602D01*
X137168081Y-91343135D01*
X137051865Y-91226919D01*
X137045151Y-91222948D01*
X137045148Y-91222946D01*
X136917113Y-91147227D01*
X136917111Y-91147226D01*
X136910398Y-91143256D01*
X136900475Y-91140373D01*
X136758657Y-91099170D01*
X136758650Y-91099168D01*
X136752569Y-91097402D01*
X136746258Y-91096905D01*
X136746251Y-91096904D01*
X136718128Y-91094691D01*
X136718114Y-91094690D01*
X136715694Y-91094500D01*
X136284306Y-91094500D01*
X136281886Y-91094690D01*
X136281871Y-91094691D01*
X136253748Y-91096904D01*
X136253739Y-91096905D01*
X136247431Y-91097402D01*
X136241351Y-91099168D01*
X136241342Y-91099170D01*
X136097094Y-91141079D01*
X136097091Y-91141080D01*
X136089602Y-91143256D01*
X136082891Y-91147224D01*
X136082886Y-91147227D01*
X135954851Y-91222946D01*
X135954844Y-91222950D01*
X135948135Y-91226919D01*
X135942620Y-91232433D01*
X135942616Y-91232437D01*
X135837437Y-91337616D01*
X135837433Y-91337620D01*
X135831919Y-91343135D01*
X135827950Y-91349844D01*
X135827946Y-91349851D01*
X135752227Y-91477886D01*
X135752224Y-91477891D01*
X135748256Y-91484602D01*
X135746080Y-91492091D01*
X135746079Y-91492094D01*
X135704170Y-91636342D01*
X135704168Y-91636351D01*
X135702402Y-91642431D01*
X135701905Y-91648739D01*
X135701904Y-91648748D01*
X135699500Y-91679306D01*
X135698570Y-91679232D01*
X135681586Y-91735270D01*
X135636445Y-91778684D01*
X135575846Y-91794500D01*
X134866519Y-91794500D01*
X134819066Y-91785061D01*
X134778838Y-91758181D01*
X134715488Y-91694831D01*
X134710185Y-91689528D01*
X134693153Y-91679232D01*
X134571021Y-91605400D01*
X134571020Y-91605399D01*
X134564606Y-91601522D01*
X134535500Y-91592452D01*
X134408457Y-91552864D01*
X134408448Y-91552862D01*
X134402196Y-91550914D01*
X134395662Y-91550320D01*
X134395661Y-91550320D01*
X134334425Y-91544755D01*
X134334419Y-91544754D01*
X134331616Y-91544500D01*
X134328797Y-91544500D01*
X134070808Y-91544500D01*
X134023355Y-91535061D01*
X133983127Y-91508181D01*
X133822299Y-91347353D01*
X133814436Y-91338712D01*
X133814382Y-91338647D01*
X133810202Y-91332060D01*
X133759166Y-91284134D01*
X133756369Y-91281423D01*
X133738789Y-91263843D01*
X133736035Y-91261089D01*
X133732956Y-91258701D01*
X133732951Y-91258696D01*
X133732548Y-91258383D01*
X133723669Y-91250799D01*
X133696085Y-91224896D01*
X133696079Y-91224892D01*
X133690393Y-91219552D01*
X133683557Y-91215794D01*
X133683556Y-91215793D01*
X133671794Y-91209327D01*
X133655531Y-91198644D01*
X133644924Y-91190416D01*
X133644922Y-91190415D01*
X133638764Y-91185638D01*
X133631612Y-91182543D01*
X133631607Y-91182540D01*
X133596869Y-91167508D01*
X133586379Y-91162369D01*
X133553207Y-91144132D01*
X133553202Y-91144130D01*
X133546368Y-91140373D01*
X133525796Y-91135090D01*
X133507397Y-91128790D01*
X133495087Y-91123463D01*
X133495081Y-91123461D01*
X133487926Y-91120365D01*
X133480227Y-91119145D01*
X133480222Y-91119144D01*
X133442837Y-91113223D01*
X133431399Y-91110854D01*
X133394735Y-91101440D01*
X133394730Y-91101439D01*
X133387177Y-91099500D01*
X133379377Y-91099500D01*
X133371634Y-91098522D01*
X133371933Y-91096151D01*
X133332178Y-91086988D01*
X133288851Y-91051975D01*
X133284350Y-91046231D01*
X133280472Y-91039815D01*
X133160185Y-90919528D01*
X133132917Y-90903044D01*
X133021021Y-90835400D01*
X133021020Y-90835399D01*
X133014606Y-90831522D01*
X132985500Y-90822452D01*
X132858457Y-90782864D01*
X132858448Y-90782862D01*
X132852196Y-90780914D01*
X132845662Y-90780320D01*
X132845661Y-90780320D01*
X132784425Y-90774755D01*
X132784419Y-90774754D01*
X132781616Y-90774500D01*
X132268384Y-90774500D01*
X132265581Y-90774754D01*
X132265574Y-90774755D01*
X132204338Y-90780320D01*
X132204335Y-90780320D01*
X132197804Y-90780914D01*
X132191553Y-90782861D01*
X132191542Y-90782864D01*
X132050294Y-90826879D01*
X132035394Y-90831522D01*
X132028982Y-90835398D01*
X132028978Y-90835400D01*
X131896232Y-90915648D01*
X131896227Y-90915651D01*
X131889815Y-90919528D01*
X131884515Y-90924827D01*
X131884511Y-90924831D01*
X131787681Y-91021662D01*
X131732094Y-91053756D01*
X131667906Y-91053756D01*
X131612319Y-91021662D01*
X131515488Y-90924831D01*
X131515487Y-90924830D01*
X131510185Y-90919528D01*
X131482917Y-90903044D01*
X131371021Y-90835400D01*
X131371020Y-90835399D01*
X131364606Y-90831522D01*
X131335500Y-90822452D01*
X131208457Y-90782864D01*
X131208448Y-90782862D01*
X131202196Y-90780914D01*
X131195662Y-90780320D01*
X131195661Y-90780320D01*
X131134425Y-90774755D01*
X131134419Y-90774754D01*
X131131616Y-90774500D01*
X130618384Y-90774500D01*
X130615581Y-90774754D01*
X130615574Y-90774755D01*
X130554338Y-90780320D01*
X130554335Y-90780320D01*
X130547804Y-90780914D01*
X130541553Y-90782861D01*
X130541542Y-90782864D01*
X130400294Y-90826879D01*
X130385394Y-90831522D01*
X130378982Y-90835398D01*
X130378978Y-90835400D01*
X130246228Y-90915650D01*
X130246221Y-90915655D01*
X130239815Y-90919528D01*
X130234518Y-90924823D01*
X130234510Y-90924831D01*
X130225283Y-90934058D01*
X130175358Y-90964487D01*
X130117040Y-90968657D01*
X130063294Y-90945640D01*
X130044433Y-90931520D01*
X130044430Y-90931518D01*
X130037331Y-90926204D01*
X130029021Y-90923104D01*
X130029020Y-90923104D01*
X129909752Y-90878620D01*
X129909750Y-90878619D01*
X129902483Y-90875909D01*
X129894770Y-90875079D01*
X129894767Y-90875079D01*
X129846180Y-90869855D01*
X129846169Y-90869854D01*
X129842873Y-90869500D01*
X129839550Y-90869500D01*
X128610439Y-90869500D01*
X128610420Y-90869500D01*
X128607128Y-90869501D01*
X128603850Y-90869853D01*
X128603838Y-90869854D01*
X128555231Y-90875079D01*
X128555225Y-90875080D01*
X128547517Y-90875909D01*
X128540252Y-90878618D01*
X128540246Y-90878620D01*
X128420980Y-90923104D01*
X128420978Y-90923104D01*
X128412669Y-90926204D01*
X128405572Y-90931516D01*
X128405568Y-90931519D01*
X128304550Y-91007141D01*
X128304546Y-91007144D01*
X128297454Y-91012454D01*
X128292144Y-91019546D01*
X128292141Y-91019550D01*
X128216519Y-91120568D01*
X128216516Y-91120572D01*
X128211204Y-91127669D01*
X128208104Y-91135978D01*
X128208104Y-91135980D01*
X128163620Y-91255247D01*
X128163619Y-91255250D01*
X128160909Y-91262517D01*
X128160079Y-91270227D01*
X128160079Y-91270232D01*
X128154855Y-91318819D01*
X128154854Y-91318831D01*
X128154500Y-91322127D01*
X128154500Y-91325448D01*
X128154500Y-91325449D01*
X128154500Y-92174560D01*
X128154500Y-92174578D01*
X128154501Y-92177872D01*
X128154853Y-92181150D01*
X128154854Y-92181161D01*
X128160079Y-92229768D01*
X128160080Y-92229773D01*
X128160909Y-92237483D01*
X128163619Y-92244749D01*
X128163620Y-92244753D01*
X128194188Y-92326709D01*
X128211204Y-92372331D01*
X128216518Y-92379430D01*
X128216519Y-92379431D01*
X128247073Y-92420246D01*
X128271222Y-92482534D01*
X128259549Y-92548311D01*
X128215443Y-92598486D01*
X128151705Y-92618496D01*
X128125203Y-92619329D01*
X128121720Y-92619439D01*
X128117829Y-92619500D01*
X128089075Y-92619500D01*
X128085212Y-92619987D01*
X128085193Y-92619989D01*
X128084691Y-92620053D01*
X128073069Y-92620967D01*
X128035223Y-92622156D01*
X128035214Y-92622157D01*
X128027431Y-92622402D01*
X128019948Y-92624575D01*
X128019941Y-92624577D01*
X128007040Y-92628325D01*
X127987996Y-92632269D01*
X127974682Y-92633951D01*
X127974680Y-92633951D01*
X127966942Y-92634929D01*
X127959689Y-92637800D01*
X127959687Y-92637801D01*
X127924489Y-92651736D01*
X127913444Y-92655517D01*
X127877094Y-92666078D01*
X127877085Y-92666081D01*
X127869602Y-92668256D01*
X127862893Y-92672223D01*
X127862885Y-92672227D01*
X127851330Y-92679061D01*
X127833862Y-92687618D01*
X127814129Y-92695432D01*
X127807818Y-92700016D01*
X127807814Y-92700019D01*
X127777191Y-92722266D01*
X127767436Y-92728674D01*
X127734851Y-92747946D01*
X127734845Y-92747950D01*
X127728135Y-92751919D01*
X127722619Y-92757434D01*
X127722616Y-92757437D01*
X127713122Y-92766930D01*
X127698338Y-92779557D01*
X127687475Y-92787449D01*
X127687466Y-92787457D01*
X127681163Y-92792037D01*
X127676196Y-92798039D01*
X127676185Y-92798051D01*
X127652055Y-92827219D01*
X127644195Y-92835857D01*
X127457180Y-93022873D01*
X127407817Y-93053123D01*
X127350101Y-93057665D01*
X127296614Y-93035510D01*
X127259014Y-92991487D01*
X127245499Y-92935192D01*
X127245499Y-92845439D01*
X127245499Y-92842128D01*
X127239091Y-92782517D01*
X127188796Y-92647669D01*
X127141365Y-92584310D01*
X127119467Y-92536358D01*
X127119467Y-92483642D01*
X127141366Y-92435689D01*
X127142361Y-92434360D01*
X127188796Y-92372331D01*
X127239091Y-92237483D01*
X127245500Y-92177873D01*
X127245499Y-91322128D01*
X127239091Y-91262517D01*
X127188796Y-91127669D01*
X127102546Y-91012454D01*
X127083402Y-90998123D01*
X126994431Y-90931519D01*
X126994430Y-90931518D01*
X126987331Y-90926204D01*
X126874072Y-90883961D01*
X126859752Y-90878620D01*
X126859750Y-90878619D01*
X126852483Y-90875909D01*
X126844770Y-90875079D01*
X126844767Y-90875079D01*
X126796180Y-90869855D01*
X126796169Y-90869854D01*
X126792873Y-90869500D01*
X126789550Y-90869500D01*
X125560439Y-90869500D01*
X125560420Y-90869500D01*
X125557128Y-90869501D01*
X125553850Y-90869853D01*
X125553838Y-90869854D01*
X125505231Y-90875079D01*
X125505225Y-90875080D01*
X125497517Y-90875909D01*
X125490252Y-90878618D01*
X125490246Y-90878620D01*
X125370980Y-90923104D01*
X125370978Y-90923104D01*
X125362669Y-90926204D01*
X125355572Y-90931516D01*
X125355568Y-90931519D01*
X125271140Y-90994722D01*
X125217392Y-91017738D01*
X125159073Y-91013567D01*
X125109148Y-90983136D01*
X125058154Y-90932142D01*
X125053044Y-90927032D01*
X125046894Y-90923238D01*
X125046892Y-90923237D01*
X124914845Y-90841789D01*
X124914843Y-90841788D01*
X124908697Y-90837997D01*
X124901842Y-90835725D01*
X124901841Y-90835725D01*
X124754136Y-90786781D01*
X124754135Y-90786780D01*
X124747708Y-90784651D01*
X124740975Y-90783963D01*
X124740970Y-90783962D01*
X124651476Y-90774819D01*
X124651459Y-90774818D01*
X124648345Y-90774500D01*
X124645196Y-90774500D01*
X124104805Y-90774500D01*
X124104785Y-90774500D01*
X124101656Y-90774501D01*
X124098524Y-90774820D01*
X124098522Y-90774821D01*
X124009027Y-90783962D01*
X124009017Y-90783963D01*
X124002292Y-90784651D01*
X123995870Y-90786778D01*
X123995865Y-90786780D01*
X123848158Y-90835725D01*
X123848154Y-90835726D01*
X123841303Y-90837997D01*
X123835159Y-90841786D01*
X123835154Y-90841789D01*
X123703107Y-90923237D01*
X123703101Y-90923241D01*
X123696956Y-90927032D01*
X123691849Y-90932138D01*
X123691845Y-90932142D01*
X123687681Y-90936307D01*
X123632094Y-90968401D01*
X123567906Y-90968401D01*
X123512319Y-90936307D01*
X123508154Y-90932142D01*
X123503044Y-90927032D01*
X123496894Y-90923238D01*
X123496892Y-90923237D01*
X123364845Y-90841789D01*
X123364843Y-90841788D01*
X123358697Y-90837997D01*
X123351842Y-90835725D01*
X123351841Y-90835725D01*
X123204136Y-90786781D01*
X123204135Y-90786780D01*
X123197708Y-90784651D01*
X123190975Y-90783963D01*
X123190970Y-90783962D01*
X123101476Y-90774819D01*
X123101459Y-90774818D01*
X123098345Y-90774500D01*
X123095196Y-90774500D01*
X122554805Y-90774500D01*
X122554785Y-90774500D01*
X122551656Y-90774501D01*
X122548527Y-90774820D01*
X122548519Y-90774821D01*
X122539632Y-90775729D01*
X122484618Y-90768892D01*
X122438083Y-90738765D01*
X122409325Y-90691371D01*
X122404093Y-90636184D01*
X122405500Y-90625500D01*
X122405500Y-89624000D01*
X122388275Y-89493166D01*
X122371662Y-89431166D01*
X122321163Y-89309250D01*
X122307893Y-89291957D01*
X122243308Y-89207789D01*
X122240829Y-89204558D01*
X122195442Y-89159171D01*
X122173708Y-89142494D01*
X122097199Y-89083785D01*
X122097196Y-89083783D01*
X122090750Y-89078837D01*
X122083241Y-89075726D01*
X122083240Y-89075726D01*
X121972589Y-89029893D01*
X121972584Y-89029891D01*
X121968834Y-89028338D01*
X121964913Y-89027287D01*
X121964909Y-89027286D01*
X121910754Y-89012775D01*
X121910748Y-89012773D01*
X121906834Y-89011725D01*
X121902819Y-89011196D01*
X121902807Y-89011194D01*
X121780019Y-88995029D01*
X121780017Y-88995028D01*
X121776000Y-88994500D01*
X118524500Y-88994500D01*
X118462500Y-88977887D01*
X118417113Y-88932500D01*
X118400500Y-88870500D01*
X118400500Y-81167765D01*
X119245788Y-81167765D01*
X119246282Y-81172262D01*
X119246283Y-81172267D01*
X119274917Y-81432506D01*
X119274918Y-81432513D01*
X119275414Y-81437018D01*
X119276559Y-81441398D01*
X119276561Y-81441408D01*
X119296955Y-81519415D01*
X119343928Y-81699088D01*
X119345693Y-81703242D01*
X119345696Y-81703250D01*
X119414367Y-81864845D01*
X119449870Y-81948390D01*
X119452226Y-81952251D01*
X119452229Y-81952256D01*
X119578097Y-82158498D01*
X119590982Y-82179610D01*
X119660561Y-82263218D01*
X119754878Y-82376553D01*
X119764255Y-82387820D01*
X119767630Y-82390844D01*
X119767631Y-82390845D01*
X119872330Y-82484656D01*
X119965998Y-82568582D01*
X120191910Y-82718044D01*
X120437176Y-82833020D01*
X120696569Y-82911060D01*
X120964561Y-82950500D01*
X121165369Y-82950500D01*
X121167631Y-82950500D01*
X121370156Y-82935677D01*
X121634553Y-82876780D01*
X121887558Y-82780014D01*
X122123777Y-82647441D01*
X122338177Y-82481888D01*
X122526186Y-82286881D01*
X122683799Y-82066579D01*
X122807656Y-81825675D01*
X122895118Y-81569305D01*
X122944319Y-81302933D01*
X122954212Y-81032235D01*
X122924586Y-80762982D01*
X122856072Y-80500912D01*
X122852425Y-80492331D01*
X122813551Y-80400852D01*
X122750130Y-80251610D01*
X122609018Y-80020390D01*
X122435745Y-79812180D01*
X122330759Y-79718112D01*
X122237382Y-79634446D01*
X122237378Y-79634442D01*
X122234002Y-79631418D01*
X122008090Y-79481956D01*
X122003996Y-79480036D01*
X122003991Y-79480034D01*
X121766929Y-79368904D01*
X121766925Y-79368902D01*
X121762824Y-79366980D01*
X121758477Y-79365672D01*
X121758474Y-79365671D01*
X121507772Y-79290246D01*
X121507771Y-79290245D01*
X121503431Y-79288940D01*
X121498957Y-79288281D01*
X121498950Y-79288280D01*
X121239913Y-79250158D01*
X121239907Y-79250157D01*
X121235439Y-79249500D01*
X121032369Y-79249500D01*
X121030120Y-79249664D01*
X121030109Y-79249665D01*
X120834363Y-79263992D01*
X120834359Y-79263992D01*
X120829844Y-79264323D01*
X120825426Y-79265307D01*
X120825420Y-79265308D01*
X120569877Y-79322232D01*
X120569861Y-79322236D01*
X120565447Y-79323220D01*
X120561216Y-79324838D01*
X120561210Y-79324840D01*
X120316673Y-79418367D01*
X120316663Y-79418371D01*
X120312442Y-79419986D01*
X120308494Y-79422201D01*
X120308489Y-79422204D01*
X120080176Y-79550340D01*
X120080171Y-79550343D01*
X120076223Y-79552559D01*
X120072639Y-79555325D01*
X120072635Y-79555329D01*
X119865407Y-79715343D01*
X119865394Y-79715354D01*
X119861823Y-79718112D01*
X119858685Y-79721366D01*
X119858678Y-79721373D01*
X119676958Y-79909857D01*
X119676952Y-79909864D01*
X119673814Y-79913119D01*
X119671189Y-79916787D01*
X119671179Y-79916800D01*
X119518834Y-80129740D01*
X119518830Y-80129745D01*
X119516201Y-80133421D01*
X119514132Y-80137444D01*
X119514129Y-80137450D01*
X119394416Y-80370293D01*
X119394411Y-80370304D01*
X119392344Y-80374325D01*
X119390884Y-80378602D01*
X119390879Y-80378616D01*
X119306348Y-80626395D01*
X119306344Y-80626407D01*
X119304882Y-80630695D01*
X119304057Y-80635159D01*
X119304057Y-80635161D01*
X119256504Y-80892606D01*
X119256502Y-80892619D01*
X119255681Y-80897067D01*
X119255515Y-80901593D01*
X119255515Y-80901599D01*
X119247827Y-81111981D01*
X119245788Y-81167765D01*
X118400500Y-81167765D01*
X118400500Y-78524500D01*
X118417113Y-78462500D01*
X118462500Y-78417113D01*
X118524500Y-78400500D01*
X138234159Y-78400500D01*
X138296938Y-78417566D01*
G37*
%TD.AperFunction*%
%TD*%
M02*
