%TF.GenerationSoftware,KiCad,Pcbnew,(7.0.0)*%
%TF.CreationDate,2023-03-22T16:00:14+00:00*%
%TF.ProjectId,CSAD2,43534144-322e-46b6-9963-61645f706362,0.2*%
%TF.SameCoordinates,Original*%
%TF.FileFunction,Copper,L2,Inr*%
%TF.FilePolarity,Positive*%
%FSLAX46Y46*%
G04 Gerber Fmt 4.6, Leading zero omitted, Abs format (unit mm)*
G04 Created by KiCad (PCBNEW (7.0.0)) date 2023-03-22 16:00:14*
%MOMM*%
%LPD*%
G01*
G04 APERTURE LIST*
G04 Aperture macros list*
%AMRoundRect*
0 Rectangle with rounded corners*
0 $1 Rounding radius*
0 $2 $3 $4 $5 $6 $7 $8 $9 X,Y pos of 4 corners*
0 Add a 4 corners polygon primitive as box body*
4,1,4,$2,$3,$4,$5,$6,$7,$8,$9,$2,$3,0*
0 Add four circle primitives for the rounded corners*
1,1,$1+$1,$2,$3*
1,1,$1+$1,$4,$5*
1,1,$1+$1,$6,$7*
1,1,$1+$1,$8,$9*
0 Add four rect primitives between the rounded corners*
20,1,$1+$1,$2,$3,$4,$5,0*
20,1,$1+$1,$4,$5,$6,$7,0*
20,1,$1+$1,$6,$7,$8,$9,0*
20,1,$1+$1,$8,$9,$2,$3,0*%
G04 Aperture macros list end*
%TA.AperFunction,ComponentPad*%
%ADD10RoundRect,0.250000X-0.620000X-0.845000X0.620000X-0.845000X0.620000X0.845000X-0.620000X0.845000X0*%
%TD*%
%TA.AperFunction,ComponentPad*%
%ADD11O,1.740000X2.190000*%
%TD*%
%TA.AperFunction,ViaPad*%
%ADD12C,0.800000*%
%TD*%
G04 APERTURE END LIST*
D10*
%TO.N,GND*%
%TO.C,J1*%
X152700000Y-81800000D03*
D11*
%TO.N,Net-(J1-Pin_2)*%
X155239999Y-81799999D03*
%TD*%
D12*
%TO.N,GND*%
X124000000Y-85000000D03*
X120000000Y-85000000D03*
X127000000Y-103000000D03*
X135000000Y-90000000D03*
X150400000Y-87500000D03*
X153000000Y-98000000D03*
X161000000Y-92000000D03*
X157500000Y-83900000D03*
X136900000Y-83100000D03*
X161000000Y-85000000D03*
X158000000Y-98000000D03*
X127000000Y-100000000D03*
X131000000Y-98000000D03*
X126800000Y-86500000D03*
X125000000Y-98000000D03*
X153000000Y-91000000D03*
X138000000Y-90000000D03*
X150300000Y-84900000D03*
X148000000Y-103000000D03*
X139900000Y-103200000D03*
X131000000Y-103000000D03*
X124000000Y-89000000D03*
X144000000Y-103000000D03*
X129000000Y-89000000D03*
X149100000Y-84900000D03*
X149000000Y-79200000D03*
X142900000Y-98000000D03*
X148000000Y-98000000D03*
X135000000Y-86400000D03*
X150300000Y-79200000D03*
X121000000Y-98000000D03*
X153000000Y-103000000D03*
X158000000Y-91000000D03*
%TO.N,+3.3V*%
X144750000Y-86500000D03*
X133700000Y-98300000D03*
X149700000Y-96000000D03*
X141650000Y-90700000D03*
X137900000Y-98300000D03*
X149700000Y-88700000D03*
%TO.N,Net-(JP1-C)*%
X144700000Y-91650000D03*
X135800000Y-101900000D03*
%TO.N,Net-(JP3-B)*%
X138050000Y-81300000D03*
X128000000Y-87100000D03*
X133300000Y-86700000D03*
X146100000Y-79400000D03*
%TO.N,Net-(J1-Pin_2)*%
X146100000Y-84000000D03*
%TD*%
%TA.AperFunction,Conductor*%
%TO.N,GND*%
G36*
X145621777Y-78415838D02*
G01*
X145666737Y-78458058D01*
X145685795Y-78516714D01*
X145674238Y-78577297D01*
X145634925Y-78624818D01*
X145499388Y-78723290D01*
X145499381Y-78723295D01*
X145494129Y-78727112D01*
X145489784Y-78731937D01*
X145489779Y-78731942D01*
X145371813Y-78862956D01*
X145371808Y-78862962D01*
X145367467Y-78867784D01*
X145364222Y-78873404D01*
X145364218Y-78873410D01*
X145276069Y-79026089D01*
X145276066Y-79026094D01*
X145272821Y-79031716D01*
X145270815Y-79037888D01*
X145270813Y-79037894D01*
X145216333Y-79205564D01*
X145216331Y-79205573D01*
X145214326Y-79211744D01*
X145213648Y-79218194D01*
X145213646Y-79218204D01*
X145202439Y-79324840D01*
X145194540Y-79400000D01*
X145195219Y-79406460D01*
X145213646Y-79581795D01*
X145213647Y-79581803D01*
X145214326Y-79588256D01*
X145216331Y-79594428D01*
X145216333Y-79594435D01*
X145270813Y-79762105D01*
X145272821Y-79768284D01*
X145276068Y-79773908D01*
X145276069Y-79773910D01*
X145358566Y-79916800D01*
X145367467Y-79932216D01*
X145494129Y-80072888D01*
X145647270Y-80184151D01*
X145820197Y-80261144D01*
X146005354Y-80300500D01*
X146188143Y-80300500D01*
X146194646Y-80300500D01*
X146379803Y-80261144D01*
X146552730Y-80184151D01*
X146705871Y-80072888D01*
X146832533Y-79932216D01*
X146927179Y-79768284D01*
X146985674Y-79588256D01*
X147005460Y-79400000D01*
X146985674Y-79211744D01*
X146927179Y-79031716D01*
X146832533Y-78867784D01*
X146705871Y-78727112D01*
X146700613Y-78723292D01*
X146700611Y-78723290D01*
X146565075Y-78624818D01*
X146525762Y-78577297D01*
X146514205Y-78516714D01*
X146533263Y-78458058D01*
X146578223Y-78415838D01*
X146637960Y-78400500D01*
X162475500Y-78400500D01*
X162537500Y-78417113D01*
X162582887Y-78462500D01*
X162599500Y-78524500D01*
X162599500Y-104975500D01*
X162582887Y-105037500D01*
X162537500Y-105082887D01*
X162475500Y-105099500D01*
X118524500Y-105099500D01*
X118462500Y-105082887D01*
X118417113Y-105037500D01*
X118400500Y-104975500D01*
X118400500Y-102467765D01*
X119245788Y-102467765D01*
X119246282Y-102472262D01*
X119246283Y-102472267D01*
X119274917Y-102732506D01*
X119274918Y-102732513D01*
X119275414Y-102737018D01*
X119276559Y-102741398D01*
X119276561Y-102741408D01*
X119292010Y-102800500D01*
X119343928Y-102999088D01*
X119345693Y-103003242D01*
X119345696Y-103003250D01*
X119448099Y-103244223D01*
X119449870Y-103248390D01*
X119452226Y-103252251D01*
X119452229Y-103252256D01*
X119588618Y-103475737D01*
X119590982Y-103479610D01*
X119764255Y-103687820D01*
X119767630Y-103690844D01*
X119767631Y-103690845D01*
X119872330Y-103784656D01*
X119965998Y-103868582D01*
X120191910Y-104018044D01*
X120437176Y-104133020D01*
X120696569Y-104211060D01*
X120964561Y-104250500D01*
X121165369Y-104250500D01*
X121167631Y-104250500D01*
X121370156Y-104235677D01*
X121634553Y-104176780D01*
X121887558Y-104080014D01*
X122123777Y-103947441D01*
X122338177Y-103781888D01*
X122526186Y-103586881D01*
X122683799Y-103366579D01*
X122807656Y-103125675D01*
X122895118Y-102869305D01*
X122944319Y-102602933D01*
X122954212Y-102332235D01*
X122924586Y-102062982D01*
X122881977Y-101900000D01*
X134894540Y-101900000D01*
X134895219Y-101906460D01*
X134913646Y-102081795D01*
X134913647Y-102081803D01*
X134914326Y-102088256D01*
X134916331Y-102094428D01*
X134916333Y-102094435D01*
X134970813Y-102262105D01*
X134972821Y-102268284D01*
X135067467Y-102432216D01*
X135071811Y-102437041D01*
X135071813Y-102437043D01*
X135103529Y-102472267D01*
X135194129Y-102572888D01*
X135199387Y-102576708D01*
X135199388Y-102576709D01*
X135241621Y-102607393D01*
X135347270Y-102684151D01*
X135520197Y-102761144D01*
X135705354Y-102800500D01*
X135888143Y-102800500D01*
X135894646Y-102800500D01*
X136079803Y-102761144D01*
X136252730Y-102684151D01*
X136405871Y-102572888D01*
X136500524Y-102467765D01*
X158045788Y-102467765D01*
X158046282Y-102472262D01*
X158046283Y-102472267D01*
X158074917Y-102732506D01*
X158074918Y-102732513D01*
X158075414Y-102737018D01*
X158076559Y-102741398D01*
X158076561Y-102741408D01*
X158092010Y-102800500D01*
X158143928Y-102999088D01*
X158145693Y-103003242D01*
X158145696Y-103003250D01*
X158248099Y-103244223D01*
X158249870Y-103248390D01*
X158252226Y-103252251D01*
X158252229Y-103252256D01*
X158388618Y-103475737D01*
X158390982Y-103479610D01*
X158564255Y-103687820D01*
X158567630Y-103690844D01*
X158567631Y-103690845D01*
X158672330Y-103784656D01*
X158765998Y-103868582D01*
X158991910Y-104018044D01*
X159237176Y-104133020D01*
X159496569Y-104211060D01*
X159764561Y-104250500D01*
X159965369Y-104250500D01*
X159967631Y-104250500D01*
X160170156Y-104235677D01*
X160434553Y-104176780D01*
X160687558Y-104080014D01*
X160923777Y-103947441D01*
X161138177Y-103781888D01*
X161326186Y-103586881D01*
X161483799Y-103366579D01*
X161607656Y-103125675D01*
X161695118Y-102869305D01*
X161744319Y-102602933D01*
X161754212Y-102332235D01*
X161724586Y-102062982D01*
X161656072Y-101800912D01*
X161550130Y-101551610D01*
X161409018Y-101320390D01*
X161235745Y-101112180D01*
X161232368Y-101109154D01*
X161037382Y-100934446D01*
X161037378Y-100934442D01*
X161034002Y-100931418D01*
X160808090Y-100781956D01*
X160803996Y-100780036D01*
X160803991Y-100780034D01*
X160566929Y-100668904D01*
X160566925Y-100668902D01*
X160562824Y-100666980D01*
X160558477Y-100665672D01*
X160558474Y-100665671D01*
X160307772Y-100590246D01*
X160307771Y-100590245D01*
X160303431Y-100588940D01*
X160298957Y-100588281D01*
X160298950Y-100588280D01*
X160039913Y-100550158D01*
X160039907Y-100550157D01*
X160035439Y-100549500D01*
X159832369Y-100549500D01*
X159830120Y-100549664D01*
X159830109Y-100549665D01*
X159634363Y-100563992D01*
X159634359Y-100563992D01*
X159629844Y-100564323D01*
X159625426Y-100565307D01*
X159625420Y-100565308D01*
X159369877Y-100622232D01*
X159369861Y-100622236D01*
X159365447Y-100623220D01*
X159361216Y-100624838D01*
X159361210Y-100624840D01*
X159116673Y-100718367D01*
X159116663Y-100718371D01*
X159112442Y-100719986D01*
X159108494Y-100722201D01*
X159108489Y-100722204D01*
X158880176Y-100850340D01*
X158880171Y-100850343D01*
X158876223Y-100852559D01*
X158872639Y-100855325D01*
X158872635Y-100855329D01*
X158665407Y-101015343D01*
X158665394Y-101015354D01*
X158661823Y-101018112D01*
X158658685Y-101021366D01*
X158658678Y-101021373D01*
X158476958Y-101209857D01*
X158476952Y-101209864D01*
X158473814Y-101213119D01*
X158471189Y-101216787D01*
X158471179Y-101216800D01*
X158318834Y-101429740D01*
X158318830Y-101429745D01*
X158316201Y-101433421D01*
X158314132Y-101437444D01*
X158314129Y-101437450D01*
X158194416Y-101670293D01*
X158194411Y-101670304D01*
X158192344Y-101674325D01*
X158190884Y-101678602D01*
X158190879Y-101678616D01*
X158106348Y-101926395D01*
X158106344Y-101926407D01*
X158104882Y-101930695D01*
X158104057Y-101935159D01*
X158104057Y-101935161D01*
X158056504Y-102192606D01*
X158056502Y-102192619D01*
X158055681Y-102197067D01*
X158055515Y-102201593D01*
X158055515Y-102201599D01*
X158046911Y-102437043D01*
X158045788Y-102467765D01*
X136500524Y-102467765D01*
X136532533Y-102432216D01*
X136627179Y-102268284D01*
X136685674Y-102088256D01*
X136705460Y-101900000D01*
X136685674Y-101711744D01*
X136627179Y-101531716D01*
X136532533Y-101367784D01*
X136405871Y-101227112D01*
X136400613Y-101223292D01*
X136400611Y-101223290D01*
X136257988Y-101119669D01*
X136257987Y-101119668D01*
X136252730Y-101115849D01*
X136246792Y-101113205D01*
X136085745Y-101041501D01*
X136085740Y-101041499D01*
X136079803Y-101038856D01*
X136073444Y-101037504D01*
X136073440Y-101037503D01*
X135901008Y-101000852D01*
X135901005Y-101000851D01*
X135894646Y-100999500D01*
X135705354Y-100999500D01*
X135698995Y-101000851D01*
X135698991Y-101000852D01*
X135526559Y-101037503D01*
X135526552Y-101037505D01*
X135520197Y-101038856D01*
X135514262Y-101041498D01*
X135514254Y-101041501D01*
X135353207Y-101113205D01*
X135353202Y-101113207D01*
X135347270Y-101115849D01*
X135342016Y-101119665D01*
X135342011Y-101119669D01*
X135199388Y-101223290D01*
X135199381Y-101223295D01*
X135194129Y-101227112D01*
X135189784Y-101231937D01*
X135189779Y-101231942D01*
X135071813Y-101362956D01*
X135071808Y-101362962D01*
X135067467Y-101367784D01*
X135064222Y-101373404D01*
X135064218Y-101373410D01*
X134976069Y-101526089D01*
X134976066Y-101526094D01*
X134972821Y-101531716D01*
X134970815Y-101537888D01*
X134970813Y-101537894D01*
X134916333Y-101705564D01*
X134916331Y-101705573D01*
X134914326Y-101711744D01*
X134913648Y-101718194D01*
X134913646Y-101718204D01*
X134904954Y-101800912D01*
X134894540Y-101900000D01*
X122881977Y-101900000D01*
X122856072Y-101800912D01*
X122750130Y-101551610D01*
X122609018Y-101320390D01*
X122435745Y-101112180D01*
X122432368Y-101109154D01*
X122237382Y-100934446D01*
X122237378Y-100934442D01*
X122234002Y-100931418D01*
X122008090Y-100781956D01*
X122003996Y-100780036D01*
X122003991Y-100780034D01*
X121766929Y-100668904D01*
X121766925Y-100668902D01*
X121762824Y-100666980D01*
X121758477Y-100665672D01*
X121758474Y-100665671D01*
X121507772Y-100590246D01*
X121507771Y-100590245D01*
X121503431Y-100588940D01*
X121498957Y-100588281D01*
X121498950Y-100588280D01*
X121239913Y-100550158D01*
X121239907Y-100550157D01*
X121235439Y-100549500D01*
X121032369Y-100549500D01*
X121030120Y-100549664D01*
X121030109Y-100549665D01*
X120834363Y-100563992D01*
X120834359Y-100563992D01*
X120829844Y-100564323D01*
X120825426Y-100565307D01*
X120825420Y-100565308D01*
X120569877Y-100622232D01*
X120569861Y-100622236D01*
X120565447Y-100623220D01*
X120561216Y-100624838D01*
X120561210Y-100624840D01*
X120316673Y-100718367D01*
X120316663Y-100718371D01*
X120312442Y-100719986D01*
X120308494Y-100722201D01*
X120308489Y-100722204D01*
X120080176Y-100850340D01*
X120080171Y-100850343D01*
X120076223Y-100852559D01*
X120072639Y-100855325D01*
X120072635Y-100855329D01*
X119865407Y-101015343D01*
X119865394Y-101015354D01*
X119861823Y-101018112D01*
X119858685Y-101021366D01*
X119858678Y-101021373D01*
X119676958Y-101209857D01*
X119676952Y-101209864D01*
X119673814Y-101213119D01*
X119671189Y-101216787D01*
X119671179Y-101216800D01*
X119518834Y-101429740D01*
X119518830Y-101429745D01*
X119516201Y-101433421D01*
X119514132Y-101437444D01*
X119514129Y-101437450D01*
X119394416Y-101670293D01*
X119394411Y-101670304D01*
X119392344Y-101674325D01*
X119390884Y-101678602D01*
X119390879Y-101678616D01*
X119306348Y-101926395D01*
X119306344Y-101926407D01*
X119304882Y-101930695D01*
X119304057Y-101935159D01*
X119304057Y-101935161D01*
X119256504Y-102192606D01*
X119256502Y-102192619D01*
X119255681Y-102197067D01*
X119255515Y-102201593D01*
X119255515Y-102201599D01*
X119246911Y-102437043D01*
X119245788Y-102467765D01*
X118400500Y-102467765D01*
X118400500Y-98300000D01*
X132794540Y-98300000D01*
X132795219Y-98306460D01*
X132813646Y-98481795D01*
X132813647Y-98481803D01*
X132814326Y-98488256D01*
X132816331Y-98494428D01*
X132816333Y-98494435D01*
X132870813Y-98662105D01*
X132872821Y-98668284D01*
X132967467Y-98832216D01*
X133094129Y-98972888D01*
X133247270Y-99084151D01*
X133420197Y-99161144D01*
X133605354Y-99200500D01*
X133788143Y-99200500D01*
X133794646Y-99200500D01*
X133979803Y-99161144D01*
X134152730Y-99084151D01*
X134305871Y-98972888D01*
X134432533Y-98832216D01*
X134527179Y-98668284D01*
X134585674Y-98488256D01*
X134605460Y-98300000D01*
X136994540Y-98300000D01*
X136995219Y-98306460D01*
X137013646Y-98481795D01*
X137013647Y-98481803D01*
X137014326Y-98488256D01*
X137016331Y-98494428D01*
X137016333Y-98494435D01*
X137070813Y-98662105D01*
X137072821Y-98668284D01*
X137167467Y-98832216D01*
X137294129Y-98972888D01*
X137447270Y-99084151D01*
X137620197Y-99161144D01*
X137805354Y-99200500D01*
X137988143Y-99200500D01*
X137994646Y-99200500D01*
X138179803Y-99161144D01*
X138352730Y-99084151D01*
X138505871Y-98972888D01*
X138632533Y-98832216D01*
X138727179Y-98668284D01*
X138785674Y-98488256D01*
X138805460Y-98300000D01*
X138785674Y-98111744D01*
X138727179Y-97931716D01*
X138632533Y-97767784D01*
X138505871Y-97627112D01*
X138500613Y-97623292D01*
X138500611Y-97623290D01*
X138357988Y-97519669D01*
X138357987Y-97519668D01*
X138352730Y-97515849D01*
X138346792Y-97513205D01*
X138185745Y-97441501D01*
X138185740Y-97441499D01*
X138179803Y-97438856D01*
X138173444Y-97437504D01*
X138173440Y-97437503D01*
X138001008Y-97400852D01*
X138001005Y-97400851D01*
X137994646Y-97399500D01*
X137805354Y-97399500D01*
X137798995Y-97400851D01*
X137798991Y-97400852D01*
X137626559Y-97437503D01*
X137626552Y-97437505D01*
X137620197Y-97438856D01*
X137614262Y-97441498D01*
X137614254Y-97441501D01*
X137453207Y-97513205D01*
X137453202Y-97513207D01*
X137447270Y-97515849D01*
X137442016Y-97519665D01*
X137442011Y-97519669D01*
X137299388Y-97623290D01*
X137299381Y-97623295D01*
X137294129Y-97627112D01*
X137289784Y-97631937D01*
X137289779Y-97631942D01*
X137171813Y-97762956D01*
X137171808Y-97762962D01*
X137167467Y-97767784D01*
X137164222Y-97773404D01*
X137164218Y-97773410D01*
X137076069Y-97926089D01*
X137076066Y-97926094D01*
X137072821Y-97931716D01*
X137070815Y-97937888D01*
X137070813Y-97937894D01*
X137016333Y-98105564D01*
X137016331Y-98105573D01*
X137014326Y-98111744D01*
X137013648Y-98118194D01*
X137013646Y-98118204D01*
X136995962Y-98286464D01*
X136994540Y-98300000D01*
X134605460Y-98300000D01*
X134585674Y-98111744D01*
X134527179Y-97931716D01*
X134432533Y-97767784D01*
X134305871Y-97627112D01*
X134300613Y-97623292D01*
X134300611Y-97623290D01*
X134157988Y-97519669D01*
X134157987Y-97519668D01*
X134152730Y-97515849D01*
X134146792Y-97513205D01*
X133985745Y-97441501D01*
X133985740Y-97441499D01*
X133979803Y-97438856D01*
X133973444Y-97437504D01*
X133973440Y-97437503D01*
X133801008Y-97400852D01*
X133801005Y-97400851D01*
X133794646Y-97399500D01*
X133605354Y-97399500D01*
X133598995Y-97400851D01*
X133598991Y-97400852D01*
X133426559Y-97437503D01*
X133426552Y-97437505D01*
X133420197Y-97438856D01*
X133414262Y-97441498D01*
X133414254Y-97441501D01*
X133253207Y-97513205D01*
X133253202Y-97513207D01*
X133247270Y-97515849D01*
X133242016Y-97519665D01*
X133242011Y-97519669D01*
X133099388Y-97623290D01*
X133099381Y-97623295D01*
X133094129Y-97627112D01*
X133089784Y-97631937D01*
X133089779Y-97631942D01*
X132971813Y-97762956D01*
X132971808Y-97762962D01*
X132967467Y-97767784D01*
X132964222Y-97773404D01*
X132964218Y-97773410D01*
X132876069Y-97926089D01*
X132876066Y-97926094D01*
X132872821Y-97931716D01*
X132870815Y-97937888D01*
X132870813Y-97937894D01*
X132816333Y-98105564D01*
X132816331Y-98105573D01*
X132814326Y-98111744D01*
X132813648Y-98118194D01*
X132813646Y-98118204D01*
X132795962Y-98286464D01*
X132794540Y-98300000D01*
X118400500Y-98300000D01*
X118400500Y-96000000D01*
X148794540Y-96000000D01*
X148795219Y-96006460D01*
X148813646Y-96181795D01*
X148813647Y-96181803D01*
X148814326Y-96188256D01*
X148816331Y-96194428D01*
X148816333Y-96194435D01*
X148870813Y-96362105D01*
X148872821Y-96368284D01*
X148967467Y-96532216D01*
X149094129Y-96672888D01*
X149247270Y-96784151D01*
X149420197Y-96861144D01*
X149605354Y-96900500D01*
X149788143Y-96900500D01*
X149794646Y-96900500D01*
X149979803Y-96861144D01*
X150152730Y-96784151D01*
X150305871Y-96672888D01*
X150432533Y-96532216D01*
X150527179Y-96368284D01*
X150585674Y-96188256D01*
X150605460Y-96000000D01*
X150585674Y-95811744D01*
X150527179Y-95631716D01*
X150432533Y-95467784D01*
X150305871Y-95327112D01*
X150300613Y-95323292D01*
X150300611Y-95323290D01*
X150157988Y-95219669D01*
X150157987Y-95219668D01*
X150152730Y-95215849D01*
X150146792Y-95213205D01*
X149985745Y-95141501D01*
X149985740Y-95141499D01*
X149979803Y-95138856D01*
X149973444Y-95137504D01*
X149973440Y-95137503D01*
X149801008Y-95100852D01*
X149801005Y-95100851D01*
X149794646Y-95099500D01*
X149605354Y-95099500D01*
X149598995Y-95100851D01*
X149598991Y-95100852D01*
X149426559Y-95137503D01*
X149426552Y-95137505D01*
X149420197Y-95138856D01*
X149414262Y-95141498D01*
X149414254Y-95141501D01*
X149253207Y-95213205D01*
X149253202Y-95213207D01*
X149247270Y-95215849D01*
X149242016Y-95219665D01*
X149242011Y-95219669D01*
X149099388Y-95323290D01*
X149099381Y-95323295D01*
X149094129Y-95327112D01*
X149089784Y-95331937D01*
X149089779Y-95331942D01*
X148971813Y-95462956D01*
X148971808Y-95462962D01*
X148967467Y-95467784D01*
X148964222Y-95473404D01*
X148964218Y-95473410D01*
X148876069Y-95626089D01*
X148876066Y-95626094D01*
X148872821Y-95631716D01*
X148870815Y-95637888D01*
X148870813Y-95637894D01*
X148816333Y-95805564D01*
X148816331Y-95805573D01*
X148814326Y-95811744D01*
X148813648Y-95818194D01*
X148813646Y-95818204D01*
X148795962Y-95986464D01*
X148794540Y-96000000D01*
X118400500Y-96000000D01*
X118400500Y-91650000D01*
X143794540Y-91650000D01*
X143795219Y-91656460D01*
X143813646Y-91831795D01*
X143813647Y-91831803D01*
X143814326Y-91838256D01*
X143816331Y-91844428D01*
X143816333Y-91844435D01*
X143870813Y-92012105D01*
X143872821Y-92018284D01*
X143967467Y-92182216D01*
X144094129Y-92322888D01*
X144247270Y-92434151D01*
X144420197Y-92511144D01*
X144605354Y-92550500D01*
X144788143Y-92550500D01*
X144794646Y-92550500D01*
X144979803Y-92511144D01*
X145152730Y-92434151D01*
X145305871Y-92322888D01*
X145432533Y-92182216D01*
X145527179Y-92018284D01*
X145585674Y-91838256D01*
X145605460Y-91650000D01*
X145585674Y-91461744D01*
X145527179Y-91281716D01*
X145432533Y-91117784D01*
X145305871Y-90977112D01*
X145300613Y-90973292D01*
X145300611Y-90973290D01*
X145157988Y-90869669D01*
X145157987Y-90869668D01*
X145152730Y-90865849D01*
X145146792Y-90863205D01*
X144985745Y-90791501D01*
X144985740Y-90791499D01*
X144979803Y-90788856D01*
X144973444Y-90787504D01*
X144973440Y-90787503D01*
X144801008Y-90750852D01*
X144801005Y-90750851D01*
X144794646Y-90749500D01*
X144605354Y-90749500D01*
X144598995Y-90750851D01*
X144598991Y-90750852D01*
X144426559Y-90787503D01*
X144426552Y-90787505D01*
X144420197Y-90788856D01*
X144414262Y-90791498D01*
X144414254Y-90791501D01*
X144253207Y-90863205D01*
X144253202Y-90863207D01*
X144247270Y-90865849D01*
X144242016Y-90869665D01*
X144242011Y-90869669D01*
X144099388Y-90973290D01*
X144099381Y-90973295D01*
X144094129Y-90977112D01*
X144089784Y-90981937D01*
X144089779Y-90981942D01*
X143971813Y-91112956D01*
X143971808Y-91112962D01*
X143967467Y-91117784D01*
X143964222Y-91123404D01*
X143964218Y-91123410D01*
X143876069Y-91276089D01*
X143876066Y-91276094D01*
X143872821Y-91281716D01*
X143870815Y-91287888D01*
X143870813Y-91287894D01*
X143816333Y-91455564D01*
X143816331Y-91455573D01*
X143814326Y-91461744D01*
X143813648Y-91468194D01*
X143813646Y-91468204D01*
X143795962Y-91636464D01*
X143794540Y-91650000D01*
X118400500Y-91650000D01*
X118400500Y-90700000D01*
X140744540Y-90700000D01*
X140745219Y-90706460D01*
X140763646Y-90881795D01*
X140763647Y-90881803D01*
X140764326Y-90888256D01*
X140766331Y-90894428D01*
X140766333Y-90894435D01*
X140820813Y-91062105D01*
X140822821Y-91068284D01*
X140917467Y-91232216D01*
X140921811Y-91237041D01*
X140921813Y-91237043D01*
X140962037Y-91281716D01*
X141044129Y-91372888D01*
X141197270Y-91484151D01*
X141370197Y-91561144D01*
X141555354Y-91600500D01*
X141738143Y-91600500D01*
X141744646Y-91600500D01*
X141929803Y-91561144D01*
X142102730Y-91484151D01*
X142255871Y-91372888D01*
X142382533Y-91232216D01*
X142477179Y-91068284D01*
X142535674Y-90888256D01*
X142555460Y-90700000D01*
X142535674Y-90511744D01*
X142477179Y-90331716D01*
X142382533Y-90167784D01*
X142255871Y-90027112D01*
X142250613Y-90023292D01*
X142250611Y-90023290D01*
X142107988Y-89919669D01*
X142107987Y-89919668D01*
X142102730Y-89915849D01*
X142096792Y-89913205D01*
X141935745Y-89841501D01*
X141935740Y-89841499D01*
X141929803Y-89838856D01*
X141923444Y-89837504D01*
X141923440Y-89837503D01*
X141751008Y-89800852D01*
X141751005Y-89800851D01*
X141744646Y-89799500D01*
X141555354Y-89799500D01*
X141548995Y-89800851D01*
X141548991Y-89800852D01*
X141376559Y-89837503D01*
X141376552Y-89837505D01*
X141370197Y-89838856D01*
X141364262Y-89841498D01*
X141364254Y-89841501D01*
X141203207Y-89913205D01*
X141203202Y-89913207D01*
X141197270Y-89915849D01*
X141192016Y-89919665D01*
X141192011Y-89919669D01*
X141049388Y-90023290D01*
X141049381Y-90023295D01*
X141044129Y-90027112D01*
X141039784Y-90031937D01*
X141039779Y-90031942D01*
X140921813Y-90162956D01*
X140921808Y-90162962D01*
X140917467Y-90167784D01*
X140914222Y-90173404D01*
X140914218Y-90173410D01*
X140826069Y-90326089D01*
X140826066Y-90326094D01*
X140822821Y-90331716D01*
X140820815Y-90337888D01*
X140820813Y-90337894D01*
X140766333Y-90505564D01*
X140766331Y-90505573D01*
X140764326Y-90511744D01*
X140763648Y-90518194D01*
X140763646Y-90518204D01*
X140745962Y-90686464D01*
X140744540Y-90700000D01*
X118400500Y-90700000D01*
X118400500Y-88700000D01*
X148794540Y-88700000D01*
X148795219Y-88706460D01*
X148813646Y-88881795D01*
X148813647Y-88881803D01*
X148814326Y-88888256D01*
X148816331Y-88894428D01*
X148816333Y-88894435D01*
X148870813Y-89062105D01*
X148872821Y-89068284D01*
X148967467Y-89232216D01*
X149094129Y-89372888D01*
X149247270Y-89484151D01*
X149420197Y-89561144D01*
X149605354Y-89600500D01*
X149788143Y-89600500D01*
X149794646Y-89600500D01*
X149979803Y-89561144D01*
X150152730Y-89484151D01*
X150305871Y-89372888D01*
X150432533Y-89232216D01*
X150527179Y-89068284D01*
X150585674Y-88888256D01*
X150605460Y-88700000D01*
X150585674Y-88511744D01*
X150527179Y-88331716D01*
X150432533Y-88167784D01*
X150305871Y-88027112D01*
X150300613Y-88023292D01*
X150300611Y-88023290D01*
X150157988Y-87919669D01*
X150157987Y-87919668D01*
X150152730Y-87915849D01*
X150146792Y-87913205D01*
X149985745Y-87841501D01*
X149985740Y-87841499D01*
X149979803Y-87838856D01*
X149973444Y-87837504D01*
X149973440Y-87837503D01*
X149801008Y-87800852D01*
X149801005Y-87800851D01*
X149794646Y-87799500D01*
X149605354Y-87799500D01*
X149598995Y-87800851D01*
X149598991Y-87800852D01*
X149426559Y-87837503D01*
X149426552Y-87837505D01*
X149420197Y-87838856D01*
X149414262Y-87841498D01*
X149414254Y-87841501D01*
X149253207Y-87913205D01*
X149253202Y-87913207D01*
X149247270Y-87915849D01*
X149242016Y-87919665D01*
X149242011Y-87919669D01*
X149099388Y-88023290D01*
X149099381Y-88023295D01*
X149094129Y-88027112D01*
X149089784Y-88031937D01*
X149089779Y-88031942D01*
X148971813Y-88162956D01*
X148971808Y-88162962D01*
X148967467Y-88167784D01*
X148964222Y-88173404D01*
X148964218Y-88173410D01*
X148876069Y-88326089D01*
X148876066Y-88326094D01*
X148872821Y-88331716D01*
X148870815Y-88337888D01*
X148870813Y-88337894D01*
X148816333Y-88505564D01*
X148816331Y-88505573D01*
X148814326Y-88511744D01*
X148813648Y-88518194D01*
X148813646Y-88518204D01*
X148795962Y-88686464D01*
X148794540Y-88700000D01*
X118400500Y-88700000D01*
X118400500Y-87100000D01*
X127094540Y-87100000D01*
X127095219Y-87106460D01*
X127113646Y-87281795D01*
X127113647Y-87281803D01*
X127114326Y-87288256D01*
X127116331Y-87294428D01*
X127116333Y-87294435D01*
X127170813Y-87462105D01*
X127172821Y-87468284D01*
X127176068Y-87473908D01*
X127176069Y-87473910D01*
X127248374Y-87599147D01*
X127267467Y-87632216D01*
X127394129Y-87772888D01*
X127547270Y-87884151D01*
X127720197Y-87961144D01*
X127905354Y-88000500D01*
X128088143Y-88000500D01*
X128094646Y-88000500D01*
X128279803Y-87961144D01*
X128452730Y-87884151D01*
X128605871Y-87772888D01*
X128732533Y-87632216D01*
X128827179Y-87468284D01*
X128885674Y-87288256D01*
X128905460Y-87100000D01*
X128885674Y-86911744D01*
X128827179Y-86731716D01*
X128808868Y-86700000D01*
X132394540Y-86700000D01*
X132395219Y-86706460D01*
X132413646Y-86881795D01*
X132413647Y-86881803D01*
X132414326Y-86888256D01*
X132416331Y-86894428D01*
X132416333Y-86894435D01*
X132462670Y-87037043D01*
X132472821Y-87068284D01*
X132476068Y-87073908D01*
X132476069Y-87073910D01*
X132487402Y-87093540D01*
X132567467Y-87232216D01*
X132571811Y-87237041D01*
X132571813Y-87237043D01*
X132684772Y-87362496D01*
X132694129Y-87372888D01*
X132699387Y-87376708D01*
X132699388Y-87376709D01*
X132732134Y-87400500D01*
X132847270Y-87484151D01*
X133020197Y-87561144D01*
X133205354Y-87600500D01*
X133388143Y-87600500D01*
X133394646Y-87600500D01*
X133579803Y-87561144D01*
X133752730Y-87484151D01*
X133905871Y-87372888D01*
X134032533Y-87232216D01*
X134127179Y-87068284D01*
X134185674Y-86888256D01*
X134205460Y-86700000D01*
X134185674Y-86511744D01*
X134181858Y-86500000D01*
X143844540Y-86500000D01*
X143845219Y-86506460D01*
X143863646Y-86681795D01*
X143863647Y-86681803D01*
X143864326Y-86688256D01*
X143866331Y-86694428D01*
X143866333Y-86694435D01*
X143880454Y-86737894D01*
X143922821Y-86868284D01*
X143926068Y-86873908D01*
X143926069Y-86873910D01*
X143947912Y-86911744D01*
X144017467Y-87032216D01*
X144021811Y-87037041D01*
X144021813Y-87037043D01*
X144078500Y-87100000D01*
X144144129Y-87172888D01*
X144297270Y-87284151D01*
X144470197Y-87361144D01*
X144655354Y-87400500D01*
X144838143Y-87400500D01*
X144844646Y-87400500D01*
X145029803Y-87361144D01*
X145202730Y-87284151D01*
X145355871Y-87172888D01*
X145482533Y-87032216D01*
X145577179Y-86868284D01*
X145635674Y-86688256D01*
X145655460Y-86500000D01*
X145635674Y-86311744D01*
X145577179Y-86131716D01*
X145482533Y-85967784D01*
X145355871Y-85827112D01*
X145350613Y-85823292D01*
X145350611Y-85823290D01*
X145207988Y-85719669D01*
X145207987Y-85719668D01*
X145202730Y-85715849D01*
X145196792Y-85713205D01*
X145035745Y-85641501D01*
X145035740Y-85641499D01*
X145029803Y-85638856D01*
X145023444Y-85637504D01*
X145023440Y-85637503D01*
X144851008Y-85600852D01*
X144851005Y-85600851D01*
X144844646Y-85599500D01*
X144655354Y-85599500D01*
X144648995Y-85600851D01*
X144648991Y-85600852D01*
X144476559Y-85637503D01*
X144476552Y-85637505D01*
X144470197Y-85638856D01*
X144464262Y-85641498D01*
X144464254Y-85641501D01*
X144303207Y-85713205D01*
X144303202Y-85713207D01*
X144297270Y-85715849D01*
X144292016Y-85719665D01*
X144292011Y-85719669D01*
X144149388Y-85823290D01*
X144149381Y-85823295D01*
X144144129Y-85827112D01*
X144139784Y-85831937D01*
X144139779Y-85831942D01*
X144021813Y-85962956D01*
X144021808Y-85962962D01*
X144017467Y-85967784D01*
X144014222Y-85973404D01*
X144014218Y-85973410D01*
X143926069Y-86126089D01*
X143926066Y-86126094D01*
X143922821Y-86131716D01*
X143920815Y-86137888D01*
X143920813Y-86137894D01*
X143866333Y-86305564D01*
X143866331Y-86305573D01*
X143864326Y-86311744D01*
X143863648Y-86318194D01*
X143863646Y-86318204D01*
X143851693Y-86431942D01*
X143844540Y-86500000D01*
X134181858Y-86500000D01*
X134127179Y-86331716D01*
X134032533Y-86167784D01*
X133905871Y-86027112D01*
X133900613Y-86023292D01*
X133900611Y-86023290D01*
X133757988Y-85919669D01*
X133757987Y-85919668D01*
X133752730Y-85915849D01*
X133746792Y-85913205D01*
X133585745Y-85841501D01*
X133585740Y-85841499D01*
X133579803Y-85838856D01*
X133573444Y-85837504D01*
X133573440Y-85837503D01*
X133401008Y-85800852D01*
X133401005Y-85800851D01*
X133394646Y-85799500D01*
X133205354Y-85799500D01*
X133198995Y-85800851D01*
X133198991Y-85800852D01*
X133026559Y-85837503D01*
X133026552Y-85837505D01*
X133020197Y-85838856D01*
X133014262Y-85841498D01*
X133014254Y-85841501D01*
X132853207Y-85913205D01*
X132853202Y-85913207D01*
X132847270Y-85915849D01*
X132842016Y-85919665D01*
X132842011Y-85919669D01*
X132699388Y-86023290D01*
X132699381Y-86023295D01*
X132694129Y-86027112D01*
X132689784Y-86031937D01*
X132689779Y-86031942D01*
X132571813Y-86162956D01*
X132571808Y-86162962D01*
X132567467Y-86167784D01*
X132564222Y-86173404D01*
X132564218Y-86173410D01*
X132476069Y-86326089D01*
X132476066Y-86326094D01*
X132472821Y-86331716D01*
X132470815Y-86337888D01*
X132470813Y-86337894D01*
X132416333Y-86505564D01*
X132416331Y-86505573D01*
X132414326Y-86511744D01*
X132413648Y-86518194D01*
X132413646Y-86518204D01*
X132396453Y-86681795D01*
X132394540Y-86700000D01*
X128808868Y-86700000D01*
X128732533Y-86567784D01*
X128677316Y-86506460D01*
X128610220Y-86431942D01*
X128610219Y-86431941D01*
X128605871Y-86427112D01*
X128600613Y-86423292D01*
X128600611Y-86423290D01*
X128457988Y-86319669D01*
X128457987Y-86319668D01*
X128452730Y-86315849D01*
X128446792Y-86313205D01*
X128285745Y-86241501D01*
X128285740Y-86241499D01*
X128279803Y-86238856D01*
X128273444Y-86237504D01*
X128273440Y-86237503D01*
X128101008Y-86200852D01*
X128101005Y-86200851D01*
X128094646Y-86199500D01*
X127905354Y-86199500D01*
X127898995Y-86200851D01*
X127898991Y-86200852D01*
X127726559Y-86237503D01*
X127726552Y-86237505D01*
X127720197Y-86238856D01*
X127714262Y-86241498D01*
X127714254Y-86241501D01*
X127553207Y-86313205D01*
X127553202Y-86313207D01*
X127547270Y-86315849D01*
X127542016Y-86319665D01*
X127542011Y-86319669D01*
X127399388Y-86423290D01*
X127399381Y-86423295D01*
X127394129Y-86427112D01*
X127389784Y-86431937D01*
X127389779Y-86431942D01*
X127271813Y-86562956D01*
X127271808Y-86562962D01*
X127267467Y-86567784D01*
X127264222Y-86573404D01*
X127264218Y-86573410D01*
X127176069Y-86726089D01*
X127176066Y-86726094D01*
X127172821Y-86731716D01*
X127170815Y-86737888D01*
X127170813Y-86737894D01*
X127116333Y-86905564D01*
X127116331Y-86905573D01*
X127114326Y-86911744D01*
X127113648Y-86918194D01*
X127113646Y-86918204D01*
X127101664Y-87032216D01*
X127094540Y-87100000D01*
X118400500Y-87100000D01*
X118400500Y-84315000D01*
X127429534Y-84315000D01*
X127430595Y-84323059D01*
X127448251Y-84457176D01*
X127448252Y-84457182D01*
X127449313Y-84465236D01*
X127452422Y-84472742D01*
X127452423Y-84472745D01*
X127504191Y-84597723D01*
X127507302Y-84605233D01*
X127512245Y-84611674D01*
X127512248Y-84611680D01*
X127594605Y-84719008D01*
X127599549Y-84725451D01*
X127605991Y-84730394D01*
X127713319Y-84812751D01*
X127713322Y-84812753D01*
X127719767Y-84817698D01*
X127859764Y-84875687D01*
X127972280Y-84890500D01*
X128043667Y-84890500D01*
X128047720Y-84890500D01*
X128160236Y-84875687D01*
X128300233Y-84817698D01*
X128420451Y-84725451D01*
X128512698Y-84605233D01*
X128570687Y-84465236D01*
X128590466Y-84315000D01*
X133209534Y-84315000D01*
X133210595Y-84323059D01*
X133228251Y-84457176D01*
X133228252Y-84457182D01*
X133229313Y-84465236D01*
X133232422Y-84472742D01*
X133232423Y-84472745D01*
X133284191Y-84597723D01*
X133287302Y-84605233D01*
X133292245Y-84611674D01*
X133292248Y-84611680D01*
X133374605Y-84719008D01*
X133379549Y-84725451D01*
X133385991Y-84730394D01*
X133493319Y-84812751D01*
X133493322Y-84812753D01*
X133499767Y-84817698D01*
X133639764Y-84875687D01*
X133752280Y-84890500D01*
X133823667Y-84890500D01*
X133827720Y-84890500D01*
X133940236Y-84875687D01*
X134080233Y-84817698D01*
X134200451Y-84725451D01*
X134292698Y-84605233D01*
X134350687Y-84465236D01*
X134370466Y-84315000D01*
X134350687Y-84164764D01*
X134292698Y-84024767D01*
X134287753Y-84018322D01*
X134287751Y-84018319D01*
X134273694Y-84000000D01*
X145194540Y-84000000D01*
X145195219Y-84006460D01*
X145213646Y-84181795D01*
X145213647Y-84181803D01*
X145214326Y-84188256D01*
X145216331Y-84194428D01*
X145216333Y-84194435D01*
X145258126Y-84323059D01*
X145272821Y-84368284D01*
X145367467Y-84532216D01*
X145494129Y-84672888D01*
X145647270Y-84784151D01*
X145820197Y-84861144D01*
X146005354Y-84900500D01*
X146188143Y-84900500D01*
X146194646Y-84900500D01*
X146379803Y-84861144D01*
X146552730Y-84784151D01*
X146705871Y-84672888D01*
X146832533Y-84532216D01*
X146927179Y-84368284D01*
X146985674Y-84188256D01*
X147005460Y-84000000D01*
X146985674Y-83811744D01*
X146927179Y-83631716D01*
X146832533Y-83467784D01*
X146705871Y-83327112D01*
X146700613Y-83323292D01*
X146700611Y-83323290D01*
X146557988Y-83219669D01*
X146557987Y-83219668D01*
X146552730Y-83215849D01*
X146514007Y-83198608D01*
X146385745Y-83141501D01*
X146385740Y-83141499D01*
X146379803Y-83138856D01*
X146373444Y-83137504D01*
X146373440Y-83137503D01*
X146201008Y-83100852D01*
X146201005Y-83100851D01*
X146194646Y-83099500D01*
X146005354Y-83099500D01*
X145998995Y-83100851D01*
X145998991Y-83100852D01*
X145826559Y-83137503D01*
X145826552Y-83137505D01*
X145820197Y-83138856D01*
X145814262Y-83141498D01*
X145814254Y-83141501D01*
X145653207Y-83213205D01*
X145653202Y-83213207D01*
X145647270Y-83215849D01*
X145642016Y-83219665D01*
X145642011Y-83219669D01*
X145499388Y-83323290D01*
X145499381Y-83323295D01*
X145494129Y-83327112D01*
X145489784Y-83331937D01*
X145489779Y-83331942D01*
X145371813Y-83462956D01*
X145371808Y-83462962D01*
X145367467Y-83467784D01*
X145364222Y-83473404D01*
X145364218Y-83473410D01*
X145276069Y-83626089D01*
X145276066Y-83626094D01*
X145272821Y-83631716D01*
X145270815Y-83637888D01*
X145270813Y-83637894D01*
X145216333Y-83805564D01*
X145216331Y-83805573D01*
X145214326Y-83811744D01*
X145213648Y-83818194D01*
X145213646Y-83818204D01*
X145204572Y-83904549D01*
X145194540Y-84000000D01*
X134273694Y-84000000D01*
X134205394Y-83910991D01*
X134200451Y-83904549D01*
X134194008Y-83899605D01*
X134086680Y-83817248D01*
X134086674Y-83817245D01*
X134080233Y-83812302D01*
X134072724Y-83809191D01*
X134072723Y-83809191D01*
X133947745Y-83757423D01*
X133947742Y-83757422D01*
X133940236Y-83754313D01*
X133932182Y-83753252D01*
X133932176Y-83753251D01*
X133831739Y-83740029D01*
X133831737Y-83740028D01*
X133827720Y-83739500D01*
X133752280Y-83739500D01*
X133748263Y-83740028D01*
X133748260Y-83740029D01*
X133647823Y-83753251D01*
X133647815Y-83753252D01*
X133639764Y-83754313D01*
X133632259Y-83757421D01*
X133632254Y-83757423D01*
X133507276Y-83809191D01*
X133507272Y-83809193D01*
X133499767Y-83812302D01*
X133493328Y-83817242D01*
X133493319Y-83817248D01*
X133385991Y-83899605D01*
X133385987Y-83899608D01*
X133379549Y-83904549D01*
X133374608Y-83910987D01*
X133374605Y-83910991D01*
X133292248Y-84018319D01*
X133292242Y-84018328D01*
X133287302Y-84024767D01*
X133284193Y-84032272D01*
X133284191Y-84032276D01*
X133232423Y-84157254D01*
X133232421Y-84157259D01*
X133229313Y-84164764D01*
X133228252Y-84172815D01*
X133228251Y-84172823D01*
X133210760Y-84305683D01*
X133209534Y-84315000D01*
X128590466Y-84315000D01*
X128570687Y-84164764D01*
X128512698Y-84024767D01*
X128507753Y-84018322D01*
X128507751Y-84018319D01*
X128425394Y-83910991D01*
X128420451Y-83904549D01*
X128414008Y-83899605D01*
X128306680Y-83817248D01*
X128306674Y-83817245D01*
X128300233Y-83812302D01*
X128292724Y-83809191D01*
X128292723Y-83809191D01*
X128167745Y-83757423D01*
X128167742Y-83757422D01*
X128160236Y-83754313D01*
X128152182Y-83753252D01*
X128152176Y-83753251D01*
X128051739Y-83740029D01*
X128051737Y-83740028D01*
X128047720Y-83739500D01*
X127972280Y-83739500D01*
X127968263Y-83740028D01*
X127968260Y-83740029D01*
X127867823Y-83753251D01*
X127867815Y-83753252D01*
X127859764Y-83754313D01*
X127852259Y-83757421D01*
X127852254Y-83757423D01*
X127727276Y-83809191D01*
X127727272Y-83809193D01*
X127719767Y-83812302D01*
X127713328Y-83817242D01*
X127713319Y-83817248D01*
X127605991Y-83899605D01*
X127605987Y-83899608D01*
X127599549Y-83904549D01*
X127594608Y-83910987D01*
X127594605Y-83910991D01*
X127512248Y-84018319D01*
X127512242Y-84018328D01*
X127507302Y-84024767D01*
X127504193Y-84032272D01*
X127504191Y-84032276D01*
X127452423Y-84157254D01*
X127452421Y-84157259D01*
X127449313Y-84164764D01*
X127448252Y-84172815D01*
X127448251Y-84172823D01*
X127430760Y-84305683D01*
X127429534Y-84315000D01*
X118400500Y-84315000D01*
X118400500Y-81167765D01*
X119245788Y-81167765D01*
X119246282Y-81172262D01*
X119246283Y-81172267D01*
X119274917Y-81432506D01*
X119274918Y-81432513D01*
X119275414Y-81437018D01*
X119276559Y-81441398D01*
X119276561Y-81441408D01*
X119296955Y-81519415D01*
X119343928Y-81699088D01*
X119345693Y-81703242D01*
X119345696Y-81703250D01*
X119448099Y-81944223D01*
X119449870Y-81948390D01*
X119452226Y-81952251D01*
X119452229Y-81952256D01*
X119578097Y-82158498D01*
X119590982Y-82179610D01*
X119677189Y-82283199D01*
X119754878Y-82376553D01*
X119764255Y-82387820D01*
X119767630Y-82390844D01*
X119767631Y-82390845D01*
X119872330Y-82484656D01*
X119965998Y-82568582D01*
X120191910Y-82718044D01*
X120437176Y-82833020D01*
X120696569Y-82911060D01*
X120964561Y-82950500D01*
X121165369Y-82950500D01*
X121167631Y-82950500D01*
X121370156Y-82935677D01*
X121634553Y-82876780D01*
X121887558Y-82780014D01*
X122123777Y-82647441D01*
X122338177Y-82481888D01*
X122526186Y-82286881D01*
X122683799Y-82066579D01*
X122807656Y-81825675D01*
X122895118Y-81569305D01*
X122944319Y-81302933D01*
X122944426Y-81300000D01*
X137144540Y-81300000D01*
X137145219Y-81306460D01*
X137163646Y-81481795D01*
X137163647Y-81481803D01*
X137164326Y-81488256D01*
X137166331Y-81494428D01*
X137166333Y-81494435D01*
X137192057Y-81573604D01*
X137222821Y-81668284D01*
X137226068Y-81673908D01*
X137226069Y-81673910D01*
X137313690Y-81825675D01*
X137317467Y-81832216D01*
X137444129Y-81972888D01*
X137597270Y-82084151D01*
X137770197Y-82161144D01*
X137955354Y-82200500D01*
X138138143Y-82200500D01*
X138144646Y-82200500D01*
X138329803Y-82161144D01*
X138502730Y-82084151D01*
X138504017Y-82083216D01*
X153869500Y-82083216D01*
X153869722Y-82085832D01*
X153869723Y-82085840D01*
X153883882Y-82252199D01*
X153883883Y-82252208D01*
X153884330Y-82257453D01*
X153943115Y-82483219D01*
X153945283Y-82488015D01*
X153945284Y-82488018D01*
X154037036Y-82690999D01*
X154037040Y-82691007D01*
X154039208Y-82695802D01*
X154169847Y-82889088D01*
X154331272Y-83057516D01*
X154518839Y-83196240D01*
X154727153Y-83301270D01*
X154950220Y-83369583D01*
X155181624Y-83399216D01*
X155414707Y-83389314D01*
X155642765Y-83340164D01*
X155859235Y-83253179D01*
X156057891Y-83130862D01*
X156233018Y-82976731D01*
X156379578Y-82795220D01*
X156493354Y-82591552D01*
X156571073Y-82371584D01*
X156610500Y-82141647D01*
X156610500Y-81516784D01*
X156595670Y-81342547D01*
X156550160Y-81167765D01*
X158045788Y-81167765D01*
X158046282Y-81172262D01*
X158046283Y-81172267D01*
X158074917Y-81432506D01*
X158074918Y-81432513D01*
X158075414Y-81437018D01*
X158076559Y-81441398D01*
X158076561Y-81441408D01*
X158096955Y-81519415D01*
X158143928Y-81699088D01*
X158145693Y-81703242D01*
X158145696Y-81703250D01*
X158248099Y-81944223D01*
X158249870Y-81948390D01*
X158252226Y-81952251D01*
X158252229Y-81952256D01*
X158378097Y-82158498D01*
X158390982Y-82179610D01*
X158477189Y-82283199D01*
X158554878Y-82376553D01*
X158564255Y-82387820D01*
X158567630Y-82390844D01*
X158567631Y-82390845D01*
X158672330Y-82484656D01*
X158765998Y-82568582D01*
X158991910Y-82718044D01*
X159237176Y-82833020D01*
X159496569Y-82911060D01*
X159764561Y-82950500D01*
X159965369Y-82950500D01*
X159967631Y-82950500D01*
X160170156Y-82935677D01*
X160434553Y-82876780D01*
X160687558Y-82780014D01*
X160923777Y-82647441D01*
X161138177Y-82481888D01*
X161326186Y-82286881D01*
X161483799Y-82066579D01*
X161607656Y-81825675D01*
X161695118Y-81569305D01*
X161744319Y-81302933D01*
X161754212Y-81032235D01*
X161724586Y-80762982D01*
X161656072Y-80500912D01*
X161642569Y-80469138D01*
X161613551Y-80400852D01*
X161550130Y-80251610D01*
X161409018Y-80020390D01*
X161235745Y-79812180D01*
X161130759Y-79718112D01*
X161037382Y-79634446D01*
X161037378Y-79634442D01*
X161034002Y-79631418D01*
X160808090Y-79481956D01*
X160803996Y-79480036D01*
X160803991Y-79480034D01*
X160566929Y-79368904D01*
X160566925Y-79368902D01*
X160562824Y-79366980D01*
X160558477Y-79365672D01*
X160558474Y-79365671D01*
X160307772Y-79290246D01*
X160307771Y-79290245D01*
X160303431Y-79288940D01*
X160298957Y-79288281D01*
X160298950Y-79288280D01*
X160039913Y-79250158D01*
X160039907Y-79250157D01*
X160035439Y-79249500D01*
X159832369Y-79249500D01*
X159830120Y-79249664D01*
X159830109Y-79249665D01*
X159634363Y-79263992D01*
X159634359Y-79263992D01*
X159629844Y-79264323D01*
X159625426Y-79265307D01*
X159625420Y-79265308D01*
X159369877Y-79322232D01*
X159369861Y-79322236D01*
X159365447Y-79323220D01*
X159361216Y-79324838D01*
X159361210Y-79324840D01*
X159116673Y-79418367D01*
X159116663Y-79418371D01*
X159112442Y-79419986D01*
X159108494Y-79422201D01*
X159108489Y-79422204D01*
X158880176Y-79550340D01*
X158880171Y-79550343D01*
X158876223Y-79552559D01*
X158872639Y-79555325D01*
X158872635Y-79555329D01*
X158665407Y-79715343D01*
X158665394Y-79715354D01*
X158661823Y-79718112D01*
X158658685Y-79721366D01*
X158658678Y-79721373D01*
X158476958Y-79909857D01*
X158476952Y-79909864D01*
X158473814Y-79913119D01*
X158471189Y-79916787D01*
X158471179Y-79916800D01*
X158318834Y-80129740D01*
X158318830Y-80129745D01*
X158316201Y-80133421D01*
X158314132Y-80137444D01*
X158314129Y-80137450D01*
X158194416Y-80370293D01*
X158194411Y-80370304D01*
X158192344Y-80374325D01*
X158190884Y-80378602D01*
X158190879Y-80378616D01*
X158106348Y-80626395D01*
X158106344Y-80626407D01*
X158104882Y-80630695D01*
X158104057Y-80635159D01*
X158104057Y-80635161D01*
X158056504Y-80892606D01*
X158056502Y-80892619D01*
X158055681Y-80897067D01*
X158055515Y-80901593D01*
X158055515Y-80901599D01*
X158047827Y-81111981D01*
X158045788Y-81167765D01*
X156550160Y-81167765D01*
X156536885Y-81116781D01*
X156485836Y-81003847D01*
X156442963Y-80909000D01*
X156442961Y-80908996D01*
X156440792Y-80904198D01*
X156310153Y-80710912D01*
X156148728Y-80542484D01*
X155961161Y-80403760D01*
X155956465Y-80401392D01*
X155956463Y-80401391D01*
X155844336Y-80344858D01*
X155752847Y-80298730D01*
X155634530Y-80262496D01*
X155534816Y-80231959D01*
X155534813Y-80231958D01*
X155529780Y-80230417D01*
X155375701Y-80210686D01*
X155303593Y-80201452D01*
X155303592Y-80201451D01*
X155298376Y-80200784D01*
X155293121Y-80201007D01*
X155293117Y-80201007D01*
X155070558Y-80210462D01*
X155070554Y-80210462D01*
X155065293Y-80210686D01*
X155060153Y-80211793D01*
X155060143Y-80211795D01*
X154842383Y-80258726D01*
X154842377Y-80258727D01*
X154837235Y-80259836D01*
X154832351Y-80261798D01*
X154832346Y-80261800D01*
X154625649Y-80344858D01*
X154625644Y-80344860D01*
X154620765Y-80346821D01*
X154616288Y-80349577D01*
X154616285Y-80349579D01*
X154426588Y-80466379D01*
X154426578Y-80466386D01*
X154422109Y-80469138D01*
X154418167Y-80472607D01*
X154418158Y-80472614D01*
X154250938Y-80619787D01*
X154246982Y-80623269D01*
X154243674Y-80627365D01*
X154243669Y-80627371D01*
X154103733Y-80800679D01*
X154100422Y-80804780D01*
X154097855Y-80809374D01*
X154097853Y-80809378D01*
X153989215Y-81003847D01*
X153989209Y-81003858D01*
X153986646Y-81008448D01*
X153984893Y-81013408D01*
X153984890Y-81013416D01*
X153910682Y-81223446D01*
X153910679Y-81223456D01*
X153908927Y-81228416D01*
X153908037Y-81233603D01*
X153908035Y-81233613D01*
X153870390Y-81453159D01*
X153870389Y-81453166D01*
X153869500Y-81458353D01*
X153869500Y-82083216D01*
X138504017Y-82083216D01*
X138655871Y-81972888D01*
X138782533Y-81832216D01*
X138877179Y-81668284D01*
X138935674Y-81488256D01*
X138955460Y-81300000D01*
X138935674Y-81111744D01*
X138877179Y-80931716D01*
X138782533Y-80767784D01*
X138655871Y-80627112D01*
X138650613Y-80623292D01*
X138650611Y-80623290D01*
X138507988Y-80519669D01*
X138507987Y-80519668D01*
X138502730Y-80515849D01*
X138479008Y-80505287D01*
X138335745Y-80441501D01*
X138335740Y-80441499D01*
X138329803Y-80438856D01*
X138323444Y-80437504D01*
X138323440Y-80437503D01*
X138151008Y-80400852D01*
X138151005Y-80400851D01*
X138144646Y-80399500D01*
X137955354Y-80399500D01*
X137948995Y-80400851D01*
X137948991Y-80400852D01*
X137776559Y-80437503D01*
X137776552Y-80437505D01*
X137770197Y-80438856D01*
X137764262Y-80441498D01*
X137764254Y-80441501D01*
X137603207Y-80513205D01*
X137603202Y-80513207D01*
X137597270Y-80515849D01*
X137592016Y-80519665D01*
X137592011Y-80519669D01*
X137449388Y-80623290D01*
X137449381Y-80623295D01*
X137444129Y-80627112D01*
X137439784Y-80631937D01*
X137439779Y-80631942D01*
X137321813Y-80762956D01*
X137321808Y-80762962D01*
X137317467Y-80767784D01*
X137314222Y-80773404D01*
X137314218Y-80773410D01*
X137226069Y-80926089D01*
X137226066Y-80926094D01*
X137222821Y-80931716D01*
X137220815Y-80937888D01*
X137220813Y-80937894D01*
X137166333Y-81105564D01*
X137166331Y-81105573D01*
X137164326Y-81111744D01*
X137163648Y-81118194D01*
X137163646Y-81118204D01*
X137151517Y-81233613D01*
X137144540Y-81300000D01*
X122944426Y-81300000D01*
X122954212Y-81032235D01*
X122924586Y-80762982D01*
X122856072Y-80500912D01*
X122842569Y-80469138D01*
X122813551Y-80400852D01*
X122750130Y-80251610D01*
X122609018Y-80020390D01*
X122435745Y-79812180D01*
X122330759Y-79718112D01*
X122237382Y-79634446D01*
X122237378Y-79634442D01*
X122234002Y-79631418D01*
X122008090Y-79481956D01*
X122003996Y-79480036D01*
X122003991Y-79480034D01*
X121766929Y-79368904D01*
X121766925Y-79368902D01*
X121762824Y-79366980D01*
X121758477Y-79365672D01*
X121758474Y-79365671D01*
X121507772Y-79290246D01*
X121507771Y-79290245D01*
X121503431Y-79288940D01*
X121498957Y-79288281D01*
X121498950Y-79288280D01*
X121239913Y-79250158D01*
X121239907Y-79250157D01*
X121235439Y-79249500D01*
X121032369Y-79249500D01*
X121030120Y-79249664D01*
X121030109Y-79249665D01*
X120834363Y-79263992D01*
X120834359Y-79263992D01*
X120829844Y-79264323D01*
X120825426Y-79265307D01*
X120825420Y-79265308D01*
X120569877Y-79322232D01*
X120569861Y-79322236D01*
X120565447Y-79323220D01*
X120561216Y-79324838D01*
X120561210Y-79324840D01*
X120316673Y-79418367D01*
X120316663Y-79418371D01*
X120312442Y-79419986D01*
X120308494Y-79422201D01*
X120308489Y-79422204D01*
X120080176Y-79550340D01*
X120080171Y-79550343D01*
X120076223Y-79552559D01*
X120072639Y-79555325D01*
X120072635Y-79555329D01*
X119865407Y-79715343D01*
X119865394Y-79715354D01*
X119861823Y-79718112D01*
X119858685Y-79721366D01*
X119858678Y-79721373D01*
X119676958Y-79909857D01*
X119676952Y-79909864D01*
X119673814Y-79913119D01*
X119671189Y-79916787D01*
X119671179Y-79916800D01*
X119518834Y-80129740D01*
X119518830Y-80129745D01*
X119516201Y-80133421D01*
X119514132Y-80137444D01*
X119514129Y-80137450D01*
X119394416Y-80370293D01*
X119394411Y-80370304D01*
X119392344Y-80374325D01*
X119390884Y-80378602D01*
X119390879Y-80378616D01*
X119306348Y-80626395D01*
X119306344Y-80626407D01*
X119304882Y-80630695D01*
X119304057Y-80635159D01*
X119304057Y-80635161D01*
X119256504Y-80892606D01*
X119256502Y-80892619D01*
X119255681Y-80897067D01*
X119255515Y-80901593D01*
X119255515Y-80901599D01*
X119247827Y-81111981D01*
X119245788Y-81167765D01*
X118400500Y-81167765D01*
X118400500Y-78524500D01*
X118417113Y-78462500D01*
X118462500Y-78417113D01*
X118524500Y-78400500D01*
X145562040Y-78400500D01*
X145621777Y-78415838D01*
G37*
%TD.AperFunction*%
%TD*%
M02*
