%TF.GenerationSoftware,KiCad,Pcbnew,(7.0.0)*%
%TF.CreationDate,2023-06-21T12:56:18+01:00*%
%TF.ProjectId,CSAD10,43534144-3130-42e6-9b69-6361645f7063,0.2*%
%TF.SameCoordinates,Original*%
%TF.FileFunction,Copper,L4,Bot*%
%TF.FilePolarity,Positive*%
%FSLAX46Y46*%
G04 Gerber Fmt 4.6, Leading zero omitted, Abs format (unit mm)*
G04 Created by KiCad (PCBNEW (7.0.0)) date 2023-06-21 12:56:18*
%MOMM*%
%LPD*%
G01*
G04 APERTURE LIST*
G04 Aperture macros list*
%AMRoundRect*
0 Rectangle with rounded corners*
0 $1 Rounding radius*
0 $2 $3 $4 $5 $6 $7 $8 $9 X,Y pos of 4 corners*
0 Add a 4 corners polygon primitive as box body*
4,1,4,$2,$3,$4,$5,$6,$7,$8,$9,$2,$3,0*
0 Add four circle primitives for the rounded corners*
1,1,$1+$1,$2,$3*
1,1,$1+$1,$4,$5*
1,1,$1+$1,$6,$7*
1,1,$1+$1,$8,$9*
0 Add four rect primitives between the rounded corners*
20,1,$1+$1,$2,$3,$4,$5,0*
20,1,$1+$1,$4,$5,$6,$7,0*
20,1,$1+$1,$6,$7,$8,$9,0*
20,1,$1+$1,$8,$9,$2,$3,0*%
G04 Aperture macros list end*
%TA.AperFunction,ComponentPad*%
%ADD10RoundRect,0.250000X-0.620000X-0.845000X0.620000X-0.845000X0.620000X0.845000X-0.620000X0.845000X0*%
%TD*%
%TA.AperFunction,ComponentPad*%
%ADD11O,1.740000X2.190000*%
%TD*%
%TA.AperFunction,ComponentPad*%
%ADD12C,0.550000*%
%TD*%
%TA.AperFunction,ViaPad*%
%ADD13C,0.800000*%
%TD*%
%TA.AperFunction,ViaPad*%
%ADD14C,0.500000*%
%TD*%
%TA.AperFunction,Conductor*%
%ADD15C,0.400000*%
%TD*%
%TA.AperFunction,Conductor*%
%ADD16C,0.300000*%
%TD*%
%TA.AperFunction,Conductor*%
%ADD17C,0.500000*%
%TD*%
%TA.AperFunction,Conductor*%
%ADD18C,0.250000*%
%TD*%
G04 APERTURE END LIST*
D10*
%TO.P,J1,1,Pin_1*%
%TO.N,GND*%
X152760000Y-86000000D03*
D11*
%TO.P,J1,2,Pin_2*%
%TO.N,Net-(J1-Pin_2)*%
X155299999Y-85999999D03*
%TD*%
D12*
%TO.P,U3,33,EP*%
%TO.N,GND*%
X154000000Y-99400000D03*
X155300000Y-100700000D03*
X154000000Y-100700000D03*
X152700000Y-100700000D03*
X154000000Y-102000000D03*
%TD*%
D13*
%TO.N,GND*%
X124000000Y-85000000D03*
X146525000Y-87500000D03*
X120000000Y-85000000D03*
X127000000Y-103000000D03*
X135000000Y-90000000D03*
X153000000Y-120000000D03*
D14*
X153250000Y-106900000D03*
D13*
X153000000Y-113000000D03*
D14*
X147200000Y-99450000D03*
D13*
X168800000Y-114000000D03*
X162200000Y-87200000D03*
X168800000Y-104900000D03*
X165000000Y-119000000D03*
X169100000Y-82500000D03*
X163500000Y-79000000D03*
X136900000Y-83100000D03*
X133000000Y-120000000D03*
X149400000Y-110100000D03*
X166300000Y-82600000D03*
X158000000Y-85000000D03*
X127000000Y-100000000D03*
X166400000Y-87100000D03*
X131000000Y-98000000D03*
X146000000Y-104000000D03*
X159000000Y-91500000D03*
X126800000Y-86500000D03*
X159000000Y-101000000D03*
X168700000Y-118500000D03*
X165500000Y-109700000D03*
D14*
X153250000Y-94600000D03*
D13*
X166000000Y-91500000D03*
X125000000Y-98000000D03*
X145000000Y-96000000D03*
X123000000Y-110000000D03*
X156300000Y-81000000D03*
X165200000Y-101000000D03*
X138000000Y-90000000D03*
X162200000Y-114300000D03*
X150300000Y-85200000D03*
D14*
X155300000Y-94600000D03*
D13*
X135900000Y-103900000D03*
X131000000Y-103000000D03*
X168800000Y-100400000D03*
X158000000Y-106000000D03*
X124000000Y-89000000D03*
X151300000Y-91400000D03*
X165600000Y-122500000D03*
X160000000Y-110000000D03*
X129000000Y-89000000D03*
X149100000Y-85200000D03*
X149000000Y-79000000D03*
X166700000Y-95900000D03*
X166100000Y-105500000D03*
X135000000Y-86400000D03*
X168900000Y-95900000D03*
X150300000Y-79000000D03*
X169000000Y-91400000D03*
X169100000Y-86900000D03*
X165500000Y-114300000D03*
X132400000Y-110100000D03*
X121000000Y-98000000D03*
X143000000Y-120000000D03*
X156900000Y-95200000D03*
D14*
X155250000Y-106900000D03*
D13*
X168900000Y-109100000D03*
%TO.N,+3.3V*%
X144750000Y-86500000D03*
X133700000Y-98300000D03*
D14*
X155250000Y-104300000D03*
X155300000Y-97000000D03*
D13*
X141700000Y-90200000D03*
D14*
X153250000Y-97000000D03*
D13*
X137900000Y-98300000D03*
D14*
X157600000Y-99450000D03*
X153250000Y-104300000D03*
D13*
X149800000Y-88700000D03*
D14*
X150200000Y-99450000D03*
D13*
%TO.N,Net-(JP1-C)*%
X144700000Y-91650000D03*
X131800000Y-101900000D03*
%TO.N,Net-(J1-Pin_2)*%
X138050000Y-81300000D03*
X128000000Y-87100000D03*
X133300000Y-86700000D03*
%TD*%
D15*
%TO.N,+3.3V*%
X149800000Y-92750000D02*
X149800000Y-90200000D01*
X153250000Y-96200000D02*
X149800000Y-92750000D01*
X153250000Y-97000000D02*
X153250000Y-96200000D01*
X149800000Y-90200000D02*
X149800000Y-88700000D01*
X141700000Y-90200000D02*
X149800000Y-90200000D01*
D16*
X153250000Y-104300000D02*
X155250000Y-104300000D01*
D17*
X140500000Y-98300000D02*
X133700000Y-98300000D01*
D18*
X155300000Y-97000000D02*
X156600000Y-97000000D01*
D15*
X151900000Y-99450000D02*
X150200000Y-99450000D01*
X153250000Y-97000000D02*
X152800000Y-97000000D01*
D18*
X157600000Y-98000000D02*
X157600000Y-99450000D01*
D17*
X141700000Y-90200000D02*
X141700000Y-97100000D01*
D18*
X156600000Y-97000000D02*
X157600000Y-98000000D01*
D17*
X148900000Y-86500000D02*
X149800000Y-87400000D01*
X149800000Y-87400000D02*
X149800000Y-88700000D01*
D15*
X151900000Y-97900000D02*
X151900000Y-102950000D01*
X152800000Y-97000000D02*
X151900000Y-97900000D01*
X153250000Y-97000000D02*
X155300000Y-97000000D01*
X151900000Y-102950000D02*
X153250000Y-104300000D01*
D17*
X141700000Y-97100000D02*
X140500000Y-98300000D01*
X144750000Y-86500000D02*
X148900000Y-86500000D01*
D18*
%TO.N,Net-(JP1-C)*%
X131800000Y-104500000D02*
X132300000Y-105000000D01*
X142100000Y-105000000D02*
X142900000Y-104200000D01*
X142900000Y-93450000D02*
X144700000Y-91650000D01*
X131800000Y-101900000D02*
X131800000Y-104500000D01*
X132300000Y-105000000D02*
X142100000Y-105000000D01*
X142900000Y-104200000D02*
X142900000Y-93450000D01*
D15*
%TO.N,Net-(J1-Pin_2)*%
X132500000Y-86100000D02*
X133100000Y-86700000D01*
X128400000Y-86700000D02*
X128000000Y-87100000D01*
X155300000Y-84000000D02*
X155300000Y-86000000D01*
X138050000Y-81300000D02*
X132900000Y-81300000D01*
X152600000Y-81300000D02*
X155300000Y-84000000D01*
X132500000Y-81700000D02*
X132500000Y-86100000D01*
X138050000Y-81300000D02*
X152600000Y-81300000D01*
X132900000Y-81300000D02*
X132500000Y-81700000D01*
X133300000Y-86700000D02*
X128400000Y-86700000D01*
X133100000Y-86700000D02*
X133300000Y-86700000D01*
%TD*%
%TA.AperFunction,Conductor*%
%TO.N,GND*%
G36*
X173837500Y-78417113D02*
G01*
X173882887Y-78462500D01*
X173899500Y-78524500D01*
X173899500Y-123375500D01*
X173882887Y-123437500D01*
X173837500Y-123482887D01*
X173775500Y-123499500D01*
X118524500Y-123499500D01*
X118462500Y-123482887D01*
X118417113Y-123437500D01*
X118400500Y-123375500D01*
X118400500Y-120867765D01*
X119245788Y-120867765D01*
X119246282Y-120872262D01*
X119246283Y-120872267D01*
X119274917Y-121132506D01*
X119274918Y-121132513D01*
X119275414Y-121137018D01*
X119276559Y-121141398D01*
X119276561Y-121141408D01*
X119308830Y-121264838D01*
X119343928Y-121399088D01*
X119345693Y-121403242D01*
X119345696Y-121403250D01*
X119448099Y-121644223D01*
X119449870Y-121648390D01*
X119452226Y-121652251D01*
X119452229Y-121652256D01*
X119588618Y-121875737D01*
X119590982Y-121879610D01*
X119764255Y-122087820D01*
X119767630Y-122090844D01*
X119767631Y-122090845D01*
X119872330Y-122184656D01*
X119965998Y-122268582D01*
X120191910Y-122418044D01*
X120437176Y-122533020D01*
X120696569Y-122611060D01*
X120964561Y-122650500D01*
X121165369Y-122650500D01*
X121167631Y-122650500D01*
X121370156Y-122635677D01*
X121634553Y-122576780D01*
X121887558Y-122480014D01*
X122123777Y-122347441D01*
X122338177Y-122181888D01*
X122526186Y-121986881D01*
X122683799Y-121766579D01*
X122807656Y-121525675D01*
X122895118Y-121269305D01*
X122944319Y-121002933D01*
X122949259Y-120867765D01*
X158045788Y-120867765D01*
X158046282Y-120872262D01*
X158046283Y-120872267D01*
X158074917Y-121132506D01*
X158074918Y-121132513D01*
X158075414Y-121137018D01*
X158076559Y-121141398D01*
X158076561Y-121141408D01*
X158108830Y-121264838D01*
X158143928Y-121399088D01*
X158145693Y-121403242D01*
X158145696Y-121403250D01*
X158248099Y-121644223D01*
X158249870Y-121648390D01*
X158252226Y-121652251D01*
X158252229Y-121652256D01*
X158388618Y-121875737D01*
X158390982Y-121879610D01*
X158564255Y-122087820D01*
X158567630Y-122090844D01*
X158567631Y-122090845D01*
X158672330Y-122184656D01*
X158765998Y-122268582D01*
X158991910Y-122418044D01*
X159237176Y-122533020D01*
X159496569Y-122611060D01*
X159764561Y-122650500D01*
X159965369Y-122650500D01*
X159967631Y-122650500D01*
X160170156Y-122635677D01*
X160434553Y-122576780D01*
X160687558Y-122480014D01*
X160923777Y-122347441D01*
X161138177Y-122181888D01*
X161326186Y-121986881D01*
X161483799Y-121766579D01*
X161607656Y-121525675D01*
X161695118Y-121269305D01*
X161744319Y-121002933D01*
X161754212Y-120732235D01*
X161724586Y-120462982D01*
X161656072Y-120200912D01*
X161550130Y-119951610D01*
X161409018Y-119720390D01*
X161235745Y-119512180D01*
X161130759Y-119418112D01*
X161037382Y-119334446D01*
X161037378Y-119334442D01*
X161034002Y-119331418D01*
X160808090Y-119181956D01*
X160803996Y-119180036D01*
X160803991Y-119180034D01*
X160566929Y-119068904D01*
X160566925Y-119068902D01*
X160562824Y-119066980D01*
X160558477Y-119065672D01*
X160558474Y-119065671D01*
X160307772Y-118990246D01*
X160307771Y-118990245D01*
X160303431Y-118988940D01*
X160298957Y-118988281D01*
X160298950Y-118988280D01*
X160039913Y-118950158D01*
X160039907Y-118950157D01*
X160035439Y-118949500D01*
X159832369Y-118949500D01*
X159830120Y-118949664D01*
X159830109Y-118949665D01*
X159634363Y-118963992D01*
X159634359Y-118963992D01*
X159629844Y-118964323D01*
X159625426Y-118965307D01*
X159625420Y-118965308D01*
X159369877Y-119022232D01*
X159369861Y-119022236D01*
X159365447Y-119023220D01*
X159361216Y-119024838D01*
X159361210Y-119024840D01*
X159116673Y-119118367D01*
X159116663Y-119118371D01*
X159112442Y-119119986D01*
X159108494Y-119122201D01*
X159108489Y-119122204D01*
X158880176Y-119250340D01*
X158880171Y-119250343D01*
X158876223Y-119252559D01*
X158872639Y-119255325D01*
X158872635Y-119255329D01*
X158665407Y-119415343D01*
X158665394Y-119415354D01*
X158661823Y-119418112D01*
X158658685Y-119421366D01*
X158658678Y-119421373D01*
X158476958Y-119609857D01*
X158476952Y-119609864D01*
X158473814Y-119613119D01*
X158471189Y-119616787D01*
X158471179Y-119616800D01*
X158318834Y-119829740D01*
X158318830Y-119829745D01*
X158316201Y-119833421D01*
X158314132Y-119837444D01*
X158314129Y-119837450D01*
X158194416Y-120070293D01*
X158194411Y-120070304D01*
X158192344Y-120074325D01*
X158190884Y-120078602D01*
X158190879Y-120078616D01*
X158106348Y-120326395D01*
X158106344Y-120326407D01*
X158104882Y-120330695D01*
X158104057Y-120335159D01*
X158104057Y-120335161D01*
X158056504Y-120592606D01*
X158056502Y-120592619D01*
X158055681Y-120597067D01*
X158055515Y-120601593D01*
X158055515Y-120601599D01*
X158050576Y-120736762D01*
X158045788Y-120867765D01*
X122949259Y-120867765D01*
X122954212Y-120732235D01*
X122924586Y-120462982D01*
X122856072Y-120200912D01*
X122750130Y-119951610D01*
X122609018Y-119720390D01*
X122435745Y-119512180D01*
X122330759Y-119418112D01*
X122237382Y-119334446D01*
X122237378Y-119334442D01*
X122234002Y-119331418D01*
X122008090Y-119181956D01*
X122003996Y-119180036D01*
X122003991Y-119180034D01*
X121766929Y-119068904D01*
X121766925Y-119068902D01*
X121762824Y-119066980D01*
X121758477Y-119065672D01*
X121758474Y-119065671D01*
X121507772Y-118990246D01*
X121507771Y-118990245D01*
X121503431Y-118988940D01*
X121498957Y-118988281D01*
X121498950Y-118988280D01*
X121239913Y-118950158D01*
X121239907Y-118950157D01*
X121235439Y-118949500D01*
X121032369Y-118949500D01*
X121030120Y-118949664D01*
X121030109Y-118949665D01*
X120834363Y-118963992D01*
X120834359Y-118963992D01*
X120829844Y-118964323D01*
X120825426Y-118965307D01*
X120825420Y-118965308D01*
X120569877Y-119022232D01*
X120569861Y-119022236D01*
X120565447Y-119023220D01*
X120561216Y-119024838D01*
X120561210Y-119024840D01*
X120316673Y-119118367D01*
X120316663Y-119118371D01*
X120312442Y-119119986D01*
X120308494Y-119122201D01*
X120308489Y-119122204D01*
X120080176Y-119250340D01*
X120080171Y-119250343D01*
X120076223Y-119252559D01*
X120072639Y-119255325D01*
X120072635Y-119255329D01*
X119865407Y-119415343D01*
X119865394Y-119415354D01*
X119861823Y-119418112D01*
X119858685Y-119421366D01*
X119858678Y-119421373D01*
X119676958Y-119609857D01*
X119676952Y-119609864D01*
X119673814Y-119613119D01*
X119671189Y-119616787D01*
X119671179Y-119616800D01*
X119518834Y-119829740D01*
X119518830Y-119829745D01*
X119516201Y-119833421D01*
X119514132Y-119837444D01*
X119514129Y-119837450D01*
X119394416Y-120070293D01*
X119394411Y-120070304D01*
X119392344Y-120074325D01*
X119390884Y-120078602D01*
X119390879Y-120078616D01*
X119306348Y-120326395D01*
X119306344Y-120326407D01*
X119304882Y-120330695D01*
X119304057Y-120335159D01*
X119304057Y-120335161D01*
X119256504Y-120592606D01*
X119256502Y-120592619D01*
X119255681Y-120597067D01*
X119255515Y-120601593D01*
X119255515Y-120601599D01*
X119250576Y-120736762D01*
X119245788Y-120867765D01*
X118400500Y-120867765D01*
X118400500Y-101900000D01*
X130894540Y-101900000D01*
X130895219Y-101906460D01*
X130913646Y-102081795D01*
X130913647Y-102081803D01*
X130914326Y-102088256D01*
X130916331Y-102094428D01*
X130916333Y-102094435D01*
X130970813Y-102262105D01*
X130972821Y-102268284D01*
X131067467Y-102432216D01*
X131071811Y-102437041D01*
X131071813Y-102437043D01*
X131142650Y-102515715D01*
X131166264Y-102554249D01*
X131174500Y-102598687D01*
X131174500Y-104422225D01*
X131173978Y-104433280D01*
X131172327Y-104440667D01*
X131172571Y-104448453D01*
X131172571Y-104448461D01*
X131174439Y-104507873D01*
X131174500Y-104511768D01*
X131174500Y-104539350D01*
X131174988Y-104543219D01*
X131174989Y-104543225D01*
X131175004Y-104543343D01*
X131175918Y-104554966D01*
X131177045Y-104590830D01*
X131177046Y-104590837D01*
X131177291Y-104598627D01*
X131179467Y-104606119D01*
X131179468Y-104606121D01*
X131182879Y-104617862D01*
X131186825Y-104636915D01*
X131189336Y-104656792D01*
X131192206Y-104664042D01*
X131192208Y-104664048D01*
X131205414Y-104697404D01*
X131209197Y-104708451D01*
X131221382Y-104750390D01*
X131225353Y-104757105D01*
X131225354Y-104757107D01*
X131231581Y-104767637D01*
X131240136Y-104785099D01*
X131244642Y-104796480D01*
X131244643Y-104796483D01*
X131247514Y-104803732D01*
X131269440Y-104833912D01*
X131273181Y-104839060D01*
X131279593Y-104848822D01*
X131297856Y-104879702D01*
X131297859Y-104879707D01*
X131301830Y-104886420D01*
X131307345Y-104891935D01*
X131315990Y-104900580D01*
X131328626Y-104915374D01*
X131335819Y-104925275D01*
X131335823Y-104925279D01*
X131340406Y-104931587D01*
X131346415Y-104936558D01*
X131346416Y-104936559D01*
X131374058Y-104959426D01*
X131382699Y-104967289D01*
X131802707Y-105387297D01*
X131810156Y-105395483D01*
X131814214Y-105401877D01*
X131819899Y-105407215D01*
X131819901Y-105407218D01*
X131863239Y-105447915D01*
X131866036Y-105450626D01*
X131885530Y-105470120D01*
X131888615Y-105472513D01*
X131888701Y-105472580D01*
X131897573Y-105480158D01*
X131923732Y-105504723D01*
X131923734Y-105504724D01*
X131929418Y-105510062D01*
X131936251Y-105513818D01*
X131936252Y-105513819D01*
X131946973Y-105519713D01*
X131963234Y-105530394D01*
X131979064Y-105542673D01*
X132008383Y-105555360D01*
X132019140Y-105560015D01*
X132029636Y-105565156D01*
X132067908Y-105586197D01*
X132075458Y-105588135D01*
X132075467Y-105588139D01*
X132087312Y-105591180D01*
X132105716Y-105597480D01*
X132124105Y-105605438D01*
X132161697Y-105611391D01*
X132167239Y-105612269D01*
X132178682Y-105614639D01*
X132213425Y-105623560D01*
X132213426Y-105623560D01*
X132220981Y-105625500D01*
X132241017Y-105625500D01*
X132260402Y-105627025D01*
X132280196Y-105630160D01*
X132318276Y-105626560D01*
X132323676Y-105626050D01*
X132335345Y-105625500D01*
X142022225Y-105625500D01*
X142033280Y-105626021D01*
X142040667Y-105627673D01*
X142107872Y-105625561D01*
X142111768Y-105625500D01*
X142135448Y-105625500D01*
X142139350Y-105625500D01*
X142143313Y-105624999D01*
X142154963Y-105624080D01*
X142198627Y-105622709D01*
X142217861Y-105617119D01*
X142236917Y-105613174D01*
X142256792Y-105610664D01*
X142297395Y-105594587D01*
X142308450Y-105590802D01*
X142350390Y-105578618D01*
X142367629Y-105568422D01*
X142385103Y-105559862D01*
X142396474Y-105555360D01*
X142396476Y-105555358D01*
X142403732Y-105552486D01*
X142439069Y-105526811D01*
X142448824Y-105520403D01*
X142486420Y-105498170D01*
X142500584Y-105484005D01*
X142515379Y-105471368D01*
X142531587Y-105459594D01*
X142559428Y-105425938D01*
X142567279Y-105417309D01*
X143287311Y-104697278D01*
X143295481Y-104689844D01*
X143301877Y-104685786D01*
X143347918Y-104636756D01*
X143350535Y-104634054D01*
X143370120Y-104614471D01*
X143372585Y-104611292D01*
X143380167Y-104602416D01*
X143391047Y-104590830D01*
X143410062Y-104570582D01*
X143419713Y-104553023D01*
X143430390Y-104536770D01*
X143442673Y-104520936D01*
X143460026Y-104480832D01*
X143465158Y-104470361D01*
X143482435Y-104438935D01*
X143482435Y-104438934D01*
X143486197Y-104432092D01*
X143491177Y-104412691D01*
X143497481Y-104394281D01*
X143505438Y-104375896D01*
X143512272Y-104332741D01*
X143514638Y-104321321D01*
X143523560Y-104286574D01*
X143525500Y-104279019D01*
X143525500Y-104258983D01*
X143527025Y-104239597D01*
X143530160Y-104219804D01*
X143526050Y-104176324D01*
X143525500Y-104164655D01*
X143525500Y-93760452D01*
X143534939Y-93712999D01*
X143561819Y-93672771D01*
X144647772Y-92586819D01*
X144688000Y-92559939D01*
X144735453Y-92550500D01*
X144788143Y-92550500D01*
X144794646Y-92550500D01*
X144979803Y-92511144D01*
X145152730Y-92434151D01*
X145305871Y-92322888D01*
X145432533Y-92182216D01*
X145527179Y-92018284D01*
X145585674Y-91838256D01*
X145605460Y-91650000D01*
X145585674Y-91461744D01*
X145527179Y-91281716D01*
X145432533Y-91117784D01*
X145423247Y-91107471D01*
X145395966Y-91057846D01*
X145393594Y-91001265D01*
X145416628Y-90949530D01*
X145460263Y-90913432D01*
X145515398Y-90900500D01*
X148975500Y-90900500D01*
X149037500Y-90917113D01*
X149082887Y-90962500D01*
X149099500Y-91024500D01*
X149099500Y-92725079D01*
X149099274Y-92732567D01*
X149096094Y-92785118D01*
X149096094Y-92785126D01*
X149095642Y-92792606D01*
X149096993Y-92799982D01*
X149096994Y-92799987D01*
X149106483Y-92851771D01*
X149107610Y-92859171D01*
X149113955Y-92911425D01*
X149113956Y-92911430D01*
X149114860Y-92918872D01*
X149117519Y-92925885D01*
X149117521Y-92925891D01*
X149118450Y-92928340D01*
X149124475Y-92949952D01*
X149124951Y-92952551D01*
X149124954Y-92952560D01*
X149126305Y-92959932D01*
X149129382Y-92966769D01*
X149129383Y-92966772D01*
X149150991Y-93014784D01*
X149153857Y-93021702D01*
X149175182Y-93077930D01*
X149179442Y-93084102D01*
X149179445Y-93084107D01*
X149180937Y-93086268D01*
X149191959Y-93105810D01*
X149193039Y-93108210D01*
X149193044Y-93108219D01*
X149196122Y-93115057D01*
X149200745Y-93120958D01*
X149200747Y-93120961D01*
X149233216Y-93162404D01*
X149237636Y-93168410D01*
X149271817Y-93217929D01*
X149316847Y-93257822D01*
X149322282Y-93262939D01*
X152345131Y-96285788D01*
X152377846Y-96343792D01*
X152375837Y-96410356D01*
X152339682Y-96466280D01*
X152338233Y-96467563D01*
X152332071Y-96471817D01*
X152327107Y-96477419D01*
X152327099Y-96477427D01*
X152292184Y-96516838D01*
X152287051Y-96522290D01*
X151422290Y-97387051D01*
X151416838Y-97392184D01*
X151377431Y-97427096D01*
X151377425Y-97427102D01*
X151371817Y-97432071D01*
X151367560Y-97438236D01*
X151367551Y-97438248D01*
X151337649Y-97481568D01*
X151333213Y-97487597D01*
X151300749Y-97529035D01*
X151300743Y-97529043D01*
X151296122Y-97534943D01*
X151293044Y-97541780D01*
X151293043Y-97541783D01*
X151291962Y-97544185D01*
X151280940Y-97563727D01*
X151279441Y-97565898D01*
X151279437Y-97565904D01*
X151275182Y-97572070D01*
X151272526Y-97579070D01*
X151272522Y-97579080D01*
X151253853Y-97628305D01*
X151250989Y-97635219D01*
X151229382Y-97683229D01*
X151229379Y-97683235D01*
X151226305Y-97690068D01*
X151224953Y-97697439D01*
X151224951Y-97697449D01*
X151224474Y-97700053D01*
X151218456Y-97721643D01*
X151217519Y-97724114D01*
X151217517Y-97724119D01*
X151214860Y-97731128D01*
X151213956Y-97738565D01*
X151213956Y-97738569D01*
X151207610Y-97790827D01*
X151206483Y-97798226D01*
X151196994Y-97850010D01*
X151196993Y-97850018D01*
X151195642Y-97857394D01*
X151196094Y-97864873D01*
X151196094Y-97864881D01*
X151199274Y-97917433D01*
X151199500Y-97924921D01*
X151199500Y-98625500D01*
X151182887Y-98687500D01*
X151137500Y-98732887D01*
X151075500Y-98749500D01*
X150491476Y-98749500D01*
X150450523Y-98742542D01*
X150406665Y-98727195D01*
X150374630Y-98715986D01*
X150374627Y-98715985D01*
X150368059Y-98713687D01*
X150361142Y-98712907D01*
X150361135Y-98712906D01*
X150206923Y-98695531D01*
X150200000Y-98694751D01*
X150193077Y-98695531D01*
X150038864Y-98712906D01*
X150038855Y-98712907D01*
X150031941Y-98713687D01*
X150025371Y-98715985D01*
X150025366Y-98715987D01*
X149878878Y-98767245D01*
X149878872Y-98767247D01*
X149872310Y-98769544D01*
X149866419Y-98773245D01*
X149866418Y-98773246D01*
X149735010Y-98855815D01*
X149735005Y-98855818D01*
X149729110Y-98859523D01*
X149724185Y-98864447D01*
X149724181Y-98864451D01*
X149614451Y-98974181D01*
X149614447Y-98974185D01*
X149609523Y-98979110D01*
X149605818Y-98985005D01*
X149605815Y-98985010D01*
X149562052Y-99054659D01*
X149519544Y-99122310D01*
X149517247Y-99128872D01*
X149517245Y-99128878D01*
X149465987Y-99275366D01*
X149465985Y-99275371D01*
X149463687Y-99281941D01*
X149462907Y-99288855D01*
X149462906Y-99288864D01*
X149445531Y-99443077D01*
X149444751Y-99450000D01*
X149445531Y-99456923D01*
X149462906Y-99611135D01*
X149462907Y-99611142D01*
X149463687Y-99618059D01*
X149519544Y-99777690D01*
X149609523Y-99920890D01*
X149729110Y-100040477D01*
X149872310Y-100130456D01*
X150031941Y-100186313D01*
X150200000Y-100205249D01*
X150368059Y-100186313D01*
X150450523Y-100157457D01*
X150491476Y-100150500D01*
X151075500Y-100150500D01*
X151137500Y-100167113D01*
X151182887Y-100212500D01*
X151199500Y-100274500D01*
X151199500Y-102925079D01*
X151199274Y-102932567D01*
X151196094Y-102985118D01*
X151196094Y-102985126D01*
X151195642Y-102992606D01*
X151196993Y-102999982D01*
X151196994Y-102999987D01*
X151206483Y-103051771D01*
X151207610Y-103059171D01*
X151213955Y-103111425D01*
X151213956Y-103111430D01*
X151214860Y-103118872D01*
X151217519Y-103125885D01*
X151217521Y-103125891D01*
X151218450Y-103128340D01*
X151224475Y-103149952D01*
X151224951Y-103152551D01*
X151224954Y-103152560D01*
X151226305Y-103159932D01*
X151229382Y-103166769D01*
X151229383Y-103166772D01*
X151250991Y-103214784D01*
X151253857Y-103221702D01*
X151275182Y-103277930D01*
X151279442Y-103284102D01*
X151279445Y-103284107D01*
X151280937Y-103286268D01*
X151291959Y-103305810D01*
X151293039Y-103308210D01*
X151293044Y-103308219D01*
X151296122Y-103315057D01*
X151300745Y-103320958D01*
X151300747Y-103320961D01*
X151333216Y-103362404D01*
X151337636Y-103368410D01*
X151371817Y-103417929D01*
X151416847Y-103457822D01*
X151422282Y-103462939D01*
X152540117Y-104580774D01*
X152562166Y-104615835D01*
X152564223Y-104614845D01*
X152567245Y-104621121D01*
X152569544Y-104627690D01*
X152573245Y-104633580D01*
X152573246Y-104633582D01*
X152655815Y-104764989D01*
X152659523Y-104770890D01*
X152779110Y-104890477D01*
X152922310Y-104980456D01*
X153081941Y-105036313D01*
X153250000Y-105055249D01*
X153418059Y-105036313D01*
X153577690Y-104980456D01*
X153595114Y-104969507D01*
X153661088Y-104950500D01*
X154838912Y-104950500D01*
X154904885Y-104969507D01*
X154922310Y-104980456D01*
X155081941Y-105036313D01*
X155250000Y-105055249D01*
X155418059Y-105036313D01*
X155577690Y-104980456D01*
X155720890Y-104890477D01*
X155840477Y-104770890D01*
X155930456Y-104627690D01*
X155986313Y-104468059D01*
X156005249Y-104300000D01*
X155986313Y-104131941D01*
X155930456Y-103972310D01*
X155840477Y-103829110D01*
X155720890Y-103709523D01*
X155577690Y-103619544D01*
X155571124Y-103617246D01*
X155571121Y-103617245D01*
X155424633Y-103565987D01*
X155424630Y-103565986D01*
X155418059Y-103563687D01*
X155411142Y-103562907D01*
X155411135Y-103562906D01*
X155256923Y-103545531D01*
X155250000Y-103544751D01*
X155243077Y-103545531D01*
X155088864Y-103562906D01*
X155088855Y-103562907D01*
X155081941Y-103563687D01*
X155075371Y-103565985D01*
X155075366Y-103565987D01*
X154928878Y-103617245D01*
X154928872Y-103617247D01*
X154922310Y-103619544D01*
X154916422Y-103623243D01*
X154916415Y-103623247D01*
X154904885Y-103630493D01*
X154838912Y-103649500D01*
X153661088Y-103649500D01*
X153595115Y-103630493D01*
X153583584Y-103623247D01*
X153583580Y-103623245D01*
X153577690Y-103619544D01*
X153571121Y-103617245D01*
X153564843Y-103614222D01*
X153565833Y-103612165D01*
X153530774Y-103590117D01*
X152636819Y-102696162D01*
X152609939Y-102655934D01*
X152600500Y-102608481D01*
X152600500Y-98241519D01*
X152609939Y-98194066D01*
X152636819Y-98153838D01*
X152731324Y-98059333D01*
X153014914Y-97775741D01*
X153061638Y-97746382D01*
X153116475Y-97740204D01*
X153250000Y-97755249D01*
X153418059Y-97736313D01*
X153500523Y-97707457D01*
X153541476Y-97700500D01*
X155008524Y-97700500D01*
X155049476Y-97707457D01*
X155131941Y-97736313D01*
X155300000Y-97755249D01*
X155468059Y-97736313D01*
X155627690Y-97680456D01*
X155684904Y-97644505D01*
X155750876Y-97625500D01*
X156289548Y-97625500D01*
X156337001Y-97634939D01*
X156377229Y-97661819D01*
X156938181Y-98222771D01*
X156965061Y-98262999D01*
X156974500Y-98310452D01*
X156974500Y-98999124D01*
X156955494Y-99065096D01*
X156923246Y-99116417D01*
X156923246Y-99116418D01*
X156919544Y-99122310D01*
X156917247Y-99128872D01*
X156917245Y-99128878D01*
X156865987Y-99275366D01*
X156865985Y-99275371D01*
X156863687Y-99281941D01*
X156862907Y-99288855D01*
X156862906Y-99288864D01*
X156845531Y-99443077D01*
X156844751Y-99450000D01*
X156845531Y-99456923D01*
X156862906Y-99611135D01*
X156862907Y-99611142D01*
X156863687Y-99618059D01*
X156919544Y-99777690D01*
X157009523Y-99920890D01*
X157129110Y-100040477D01*
X157272310Y-100130456D01*
X157431941Y-100186313D01*
X157600000Y-100205249D01*
X157768059Y-100186313D01*
X157927690Y-100130456D01*
X158070890Y-100040477D01*
X158190477Y-99920890D01*
X158280456Y-99777690D01*
X158336313Y-99618059D01*
X158355249Y-99450000D01*
X158336313Y-99281941D01*
X158280456Y-99122310D01*
X158244505Y-99065095D01*
X158225500Y-98999124D01*
X158225500Y-98077775D01*
X158226021Y-98066719D01*
X158227673Y-98059333D01*
X158225561Y-97992113D01*
X158225500Y-97988219D01*
X158225500Y-97964542D01*
X158225500Y-97960650D01*
X158224998Y-97956683D01*
X158224081Y-97945026D01*
X158223486Y-97926089D01*
X158222710Y-97901373D01*
X158217118Y-97882128D01*
X158213174Y-97863083D01*
X158210664Y-97843208D01*
X158194579Y-97802583D01*
X158190806Y-97791562D01*
X158178618Y-97749610D01*
X158168417Y-97732360D01*
X158159863Y-97714901D01*
X158152486Y-97696268D01*
X158126808Y-97660925D01*
X158120401Y-97651171D01*
X158102142Y-97620296D01*
X158102141Y-97620294D01*
X158098170Y-97613580D01*
X158084005Y-97599415D01*
X158071370Y-97584622D01*
X158059594Y-97568413D01*
X158053583Y-97563440D01*
X158053581Y-97563438D01*
X158025941Y-97540573D01*
X158017300Y-97532710D01*
X157097286Y-96612695D01*
X157089842Y-96604514D01*
X157085786Y-96598123D01*
X157036775Y-96552098D01*
X157033978Y-96549387D01*
X157017227Y-96532636D01*
X157014471Y-96529880D01*
X157011290Y-96527412D01*
X157002414Y-96519830D01*
X156976269Y-96495278D01*
X156976267Y-96495276D01*
X156970582Y-96489938D01*
X156963749Y-96486182D01*
X156963743Y-96486177D01*
X156953025Y-96480285D01*
X156936766Y-96469606D01*
X156927095Y-96462104D01*
X156927092Y-96462102D01*
X156920936Y-96457327D01*
X156913779Y-96454229D01*
X156913776Y-96454228D01*
X156880849Y-96439978D01*
X156870363Y-96434841D01*
X156838932Y-96417562D01*
X156838923Y-96417558D01*
X156832092Y-96413803D01*
X156824535Y-96411862D01*
X156824531Y-96411861D01*
X156812688Y-96408820D01*
X156794284Y-96402519D01*
X156783057Y-96397660D01*
X156783050Y-96397658D01*
X156775896Y-96394562D01*
X156768192Y-96393341D01*
X156768190Y-96393341D01*
X156732759Y-96387729D01*
X156721324Y-96385361D01*
X156686571Y-96376438D01*
X156686563Y-96376437D01*
X156679019Y-96374500D01*
X156671223Y-96374500D01*
X156658983Y-96374500D01*
X156639597Y-96372974D01*
X156619804Y-96369840D01*
X156612038Y-96370574D01*
X156612035Y-96370574D01*
X156576324Y-96373950D01*
X156564655Y-96374500D01*
X155750876Y-96374500D01*
X155684904Y-96355494D01*
X155633582Y-96323246D01*
X155633580Y-96323245D01*
X155627690Y-96319544D01*
X155621124Y-96317246D01*
X155621121Y-96317245D01*
X155474633Y-96265987D01*
X155474630Y-96265986D01*
X155468059Y-96263687D01*
X155461142Y-96262907D01*
X155461135Y-96262906D01*
X155306923Y-96245531D01*
X155300000Y-96244751D01*
X155293077Y-96245531D01*
X155138864Y-96262906D01*
X155138855Y-96262907D01*
X155131941Y-96263687D01*
X155125374Y-96265984D01*
X155125369Y-96265986D01*
X155080700Y-96281617D01*
X155049476Y-96292542D01*
X155008524Y-96299500D01*
X154077490Y-96299500D01*
X154013341Y-96281617D01*
X153967694Y-96233128D01*
X153954646Y-96172351D01*
X153954358Y-96172369D01*
X153954243Y-96170472D01*
X153953716Y-96168016D01*
X153953905Y-96164882D01*
X153954358Y-96157394D01*
X153943514Y-96098221D01*
X153942387Y-96090815D01*
X153942146Y-96088831D01*
X153935140Y-96031128D01*
X153931547Y-96021656D01*
X153925522Y-96000041D01*
X153923695Y-95990069D01*
X153899009Y-95935220D01*
X153896142Y-95928298D01*
X153877480Y-95879090D01*
X153874818Y-95872070D01*
X153869059Y-95863727D01*
X153858033Y-95844177D01*
X153856956Y-95841784D01*
X153853878Y-95834944D01*
X153816791Y-95787605D01*
X153812353Y-95781574D01*
X153782446Y-95738247D01*
X153778183Y-95732071D01*
X153772568Y-95727097D01*
X153772565Y-95727093D01*
X153733170Y-95692193D01*
X153727716Y-95687059D01*
X150536819Y-92496162D01*
X150509939Y-92455934D01*
X150500500Y-92408481D01*
X150500500Y-89315392D01*
X150508749Y-89270920D01*
X150525703Y-89243279D01*
X150524363Y-89242306D01*
X150528184Y-89237045D01*
X150532533Y-89232216D01*
X150627179Y-89068284D01*
X150685674Y-88888256D01*
X150705460Y-88700000D01*
X150685674Y-88511744D01*
X150627179Y-88331716D01*
X150567112Y-88227678D01*
X150550500Y-88165679D01*
X150550500Y-87463707D01*
X150551809Y-87445736D01*
X150552297Y-87442396D01*
X150555289Y-87421977D01*
X150550971Y-87372633D01*
X150550500Y-87361827D01*
X150550500Y-87359902D01*
X150550500Y-87356291D01*
X150546894Y-87325443D01*
X150546537Y-87321956D01*
X150539998Y-87247203D01*
X150537724Y-87240341D01*
X150537027Y-87236965D01*
X150536970Y-87236613D01*
X150536875Y-87236277D01*
X150536079Y-87232919D01*
X150535241Y-87225745D01*
X150509569Y-87155212D01*
X150508401Y-87151848D01*
X150487086Y-87087521D01*
X150487085Y-87087519D01*
X150484814Y-87080665D01*
X150481022Y-87074518D01*
X150479559Y-87071379D01*
X150479431Y-87071069D01*
X150479257Y-87070758D01*
X150477710Y-87067677D01*
X150475237Y-87060883D01*
X150434005Y-86998194D01*
X150432106Y-86995212D01*
X150396504Y-86937491D01*
X150396501Y-86937488D01*
X150392712Y-86931344D01*
X150387605Y-86926237D01*
X150385459Y-86923523D01*
X150385257Y-86923244D01*
X150385022Y-86922987D01*
X150382796Y-86920334D01*
X150378830Y-86914304D01*
X150324290Y-86862848D01*
X150321703Y-86860335D01*
X149475729Y-86014361D01*
X149463947Y-86000727D01*
X149453925Y-85987265D01*
X149453921Y-85987261D01*
X149449610Y-85981470D01*
X149411667Y-85949631D01*
X149403691Y-85942323D01*
X149402329Y-85940961D01*
X149402328Y-85940960D01*
X149399777Y-85938409D01*
X149396953Y-85936176D01*
X149396944Y-85936168D01*
X149375445Y-85919170D01*
X149372674Y-85916913D01*
X149315214Y-85868698D01*
X149308760Y-85865456D01*
X149305859Y-85863548D01*
X149305588Y-85863352D01*
X149305292Y-85863187D01*
X149302339Y-85861366D01*
X149296677Y-85856889D01*
X149290134Y-85853838D01*
X149290131Y-85853836D01*
X149228692Y-85825186D01*
X149225446Y-85823615D01*
X149180121Y-85800852D01*
X149158433Y-85789960D01*
X149151409Y-85788295D01*
X149148151Y-85787109D01*
X149147832Y-85786977D01*
X149147504Y-85786884D01*
X149144218Y-85785795D01*
X149137673Y-85782743D01*
X149130604Y-85781283D01*
X149130600Y-85781282D01*
X149064212Y-85767574D01*
X149060691Y-85766794D01*
X148994741Y-85751163D01*
X148994734Y-85751162D01*
X148987721Y-85749500D01*
X148980510Y-85749500D01*
X148977061Y-85749097D01*
X148976727Y-85749043D01*
X148976374Y-85749028D01*
X148972929Y-85748726D01*
X148965856Y-85747266D01*
X148958638Y-85747476D01*
X148890870Y-85749448D01*
X148887263Y-85749500D01*
X145289336Y-85749500D01*
X145251018Y-85743431D01*
X145216454Y-85725820D01*
X145202730Y-85715849D01*
X145196792Y-85713205D01*
X145035745Y-85641501D01*
X145035740Y-85641499D01*
X145029803Y-85638856D01*
X145023444Y-85637504D01*
X145023440Y-85637503D01*
X144851008Y-85600852D01*
X144851005Y-85600851D01*
X144844646Y-85599500D01*
X144655354Y-85599500D01*
X144648995Y-85600851D01*
X144648991Y-85600852D01*
X144476559Y-85637503D01*
X144476552Y-85637505D01*
X144470197Y-85638856D01*
X144464262Y-85641498D01*
X144464254Y-85641501D01*
X144303207Y-85713205D01*
X144303202Y-85713207D01*
X144297270Y-85715849D01*
X144292016Y-85719665D01*
X144292011Y-85719669D01*
X144149388Y-85823290D01*
X144149381Y-85823295D01*
X144144129Y-85827112D01*
X144139784Y-85831937D01*
X144139779Y-85831942D01*
X144021813Y-85962956D01*
X144021808Y-85962962D01*
X144017467Y-85967784D01*
X144014222Y-85973404D01*
X144014218Y-85973410D01*
X143926069Y-86126089D01*
X143926066Y-86126094D01*
X143922821Y-86131716D01*
X143920815Y-86137888D01*
X143920813Y-86137894D01*
X143866333Y-86305564D01*
X143866331Y-86305573D01*
X143864326Y-86311744D01*
X143863648Y-86318194D01*
X143863646Y-86318204D01*
X143851693Y-86431942D01*
X143844540Y-86500000D01*
X143845219Y-86506460D01*
X143863646Y-86681795D01*
X143863647Y-86681803D01*
X143864326Y-86688256D01*
X143866331Y-86694428D01*
X143866333Y-86694435D01*
X143920813Y-86862105D01*
X143922821Y-86868284D01*
X143926068Y-86873908D01*
X143926069Y-86873910D01*
X143998474Y-86999320D01*
X144017467Y-87032216D01*
X144021811Y-87037041D01*
X144021813Y-87037043D01*
X144078500Y-87100000D01*
X144144129Y-87172888D01*
X144149387Y-87176708D01*
X144149388Y-87176709D01*
X144207542Y-87218960D01*
X144297270Y-87284151D01*
X144470197Y-87361144D01*
X144655354Y-87400500D01*
X144838143Y-87400500D01*
X144844646Y-87400500D01*
X145029803Y-87361144D01*
X145202730Y-87284151D01*
X145216454Y-87274179D01*
X145251018Y-87256569D01*
X145289336Y-87250500D01*
X148537770Y-87250500D01*
X148585223Y-87259939D01*
X148625451Y-87286819D01*
X149013181Y-87674548D01*
X149040061Y-87714776D01*
X149049500Y-87762229D01*
X149049500Y-88165679D01*
X149032887Y-88227679D01*
X148976069Y-88326089D01*
X148976066Y-88326094D01*
X148972821Y-88331716D01*
X148970815Y-88337888D01*
X148970813Y-88337894D01*
X148916333Y-88505564D01*
X148916331Y-88505573D01*
X148914326Y-88511744D01*
X148913648Y-88518194D01*
X148913646Y-88518204D01*
X148895962Y-88686464D01*
X148894540Y-88700000D01*
X148895219Y-88706460D01*
X148913646Y-88881795D01*
X148913647Y-88881803D01*
X148914326Y-88888256D01*
X148916331Y-88894428D01*
X148916333Y-88894435D01*
X148970813Y-89062105D01*
X148972821Y-89068284D01*
X149067467Y-89232216D01*
X149071813Y-89237043D01*
X149075637Y-89242306D01*
X149074296Y-89243279D01*
X149091251Y-89270920D01*
X149099500Y-89315392D01*
X149099500Y-89375500D01*
X149082887Y-89437500D01*
X149037500Y-89482887D01*
X148975500Y-89499500D01*
X142308155Y-89499500D01*
X142269837Y-89493431D01*
X142235273Y-89475820D01*
X142152730Y-89415849D01*
X142146792Y-89413205D01*
X141985745Y-89341501D01*
X141985740Y-89341499D01*
X141979803Y-89338856D01*
X141973444Y-89337504D01*
X141973440Y-89337503D01*
X141801008Y-89300852D01*
X141801005Y-89300851D01*
X141794646Y-89299500D01*
X141605354Y-89299500D01*
X141598995Y-89300851D01*
X141598991Y-89300852D01*
X141426559Y-89337503D01*
X141426552Y-89337505D01*
X141420197Y-89338856D01*
X141414262Y-89341498D01*
X141414254Y-89341501D01*
X141253207Y-89413205D01*
X141253202Y-89413207D01*
X141247270Y-89415849D01*
X141242016Y-89419665D01*
X141242011Y-89419669D01*
X141099388Y-89523290D01*
X141099381Y-89523295D01*
X141094129Y-89527112D01*
X141089784Y-89531937D01*
X141089779Y-89531942D01*
X140971813Y-89662956D01*
X140971808Y-89662962D01*
X140967467Y-89667784D01*
X140964222Y-89673404D01*
X140964218Y-89673410D01*
X140876069Y-89826089D01*
X140876066Y-89826094D01*
X140872821Y-89831716D01*
X140870815Y-89837888D01*
X140870813Y-89837894D01*
X140816333Y-90005564D01*
X140816331Y-90005573D01*
X140814326Y-90011744D01*
X140813648Y-90018194D01*
X140813646Y-90018204D01*
X140798993Y-90157628D01*
X140794540Y-90200000D01*
X140795219Y-90206460D01*
X140813646Y-90381795D01*
X140813647Y-90381803D01*
X140814326Y-90388256D01*
X140816331Y-90394428D01*
X140816333Y-90394435D01*
X140870813Y-90562105D01*
X140872821Y-90568284D01*
X140876068Y-90573908D01*
X140876069Y-90573910D01*
X140932887Y-90672321D01*
X140949500Y-90734321D01*
X140949500Y-96737770D01*
X140940061Y-96785223D01*
X140913181Y-96825451D01*
X140225451Y-97513181D01*
X140185223Y-97540061D01*
X140137770Y-97549500D01*
X138439336Y-97549500D01*
X138401018Y-97543431D01*
X138366454Y-97525820D01*
X138352730Y-97515849D01*
X138289276Y-97487597D01*
X138185745Y-97441501D01*
X138185740Y-97441499D01*
X138179803Y-97438856D01*
X138173444Y-97437504D01*
X138173440Y-97437503D01*
X138001008Y-97400852D01*
X138001005Y-97400851D01*
X137994646Y-97399500D01*
X137805354Y-97399500D01*
X137798995Y-97400851D01*
X137798991Y-97400852D01*
X137626559Y-97437503D01*
X137626552Y-97437505D01*
X137620197Y-97438856D01*
X137614262Y-97441498D01*
X137614254Y-97441501D01*
X137453207Y-97513205D01*
X137453202Y-97513207D01*
X137447270Y-97515849D01*
X137433545Y-97525820D01*
X137398982Y-97543431D01*
X137360664Y-97549500D01*
X134239336Y-97549500D01*
X134201018Y-97543431D01*
X134166454Y-97525820D01*
X134152730Y-97515849D01*
X134089276Y-97487597D01*
X133985745Y-97441501D01*
X133985740Y-97441499D01*
X133979803Y-97438856D01*
X133973444Y-97437504D01*
X133973440Y-97437503D01*
X133801008Y-97400852D01*
X133801005Y-97400851D01*
X133794646Y-97399500D01*
X133605354Y-97399500D01*
X133598995Y-97400851D01*
X133598991Y-97400852D01*
X133426559Y-97437503D01*
X133426552Y-97437505D01*
X133420197Y-97438856D01*
X133414262Y-97441498D01*
X133414254Y-97441501D01*
X133253207Y-97513205D01*
X133253202Y-97513207D01*
X133247270Y-97515849D01*
X133242016Y-97519665D01*
X133242011Y-97519669D01*
X133099388Y-97623290D01*
X133099381Y-97623295D01*
X133094129Y-97627112D01*
X133089784Y-97631937D01*
X133089779Y-97631942D01*
X132971813Y-97762956D01*
X132971808Y-97762962D01*
X132967467Y-97767784D01*
X132964222Y-97773404D01*
X132964218Y-97773410D01*
X132876069Y-97926089D01*
X132876066Y-97926094D01*
X132872821Y-97931716D01*
X132870815Y-97937888D01*
X132870813Y-97937894D01*
X132816333Y-98105564D01*
X132816331Y-98105573D01*
X132814326Y-98111744D01*
X132813648Y-98118194D01*
X132813646Y-98118204D01*
X132800686Y-98241519D01*
X132794540Y-98300000D01*
X132795219Y-98306460D01*
X132813646Y-98481795D01*
X132813647Y-98481803D01*
X132814326Y-98488256D01*
X132816331Y-98494428D01*
X132816333Y-98494435D01*
X132870813Y-98662105D01*
X132872821Y-98668284D01*
X132876068Y-98673908D01*
X132876069Y-98673910D01*
X132933420Y-98773246D01*
X132967467Y-98832216D01*
X132971811Y-98837041D01*
X132971813Y-98837043D01*
X133057386Y-98932081D01*
X133094129Y-98972888D01*
X133099387Y-98976708D01*
X133099388Y-98976709D01*
X133113672Y-98987087D01*
X133247270Y-99084151D01*
X133420197Y-99161144D01*
X133605354Y-99200500D01*
X133788143Y-99200500D01*
X133794646Y-99200500D01*
X133979803Y-99161144D01*
X134152730Y-99084151D01*
X134166454Y-99074179D01*
X134201018Y-99056569D01*
X134239336Y-99050500D01*
X137360664Y-99050500D01*
X137398982Y-99056569D01*
X137433545Y-99074179D01*
X137447270Y-99084151D01*
X137620197Y-99161144D01*
X137805354Y-99200500D01*
X137988143Y-99200500D01*
X137994646Y-99200500D01*
X138179803Y-99161144D01*
X138352730Y-99084151D01*
X138366454Y-99074179D01*
X138401018Y-99056569D01*
X138439336Y-99050500D01*
X140436293Y-99050500D01*
X140454264Y-99051809D01*
X140458160Y-99052379D01*
X140478023Y-99055289D01*
X140527368Y-99050972D01*
X140538176Y-99050500D01*
X140540100Y-99050500D01*
X140543709Y-99050500D01*
X140574550Y-99046894D01*
X140578031Y-99046539D01*
X140652797Y-99039999D01*
X140659653Y-99037726D01*
X140663043Y-99037027D01*
X140663375Y-99036973D01*
X140663728Y-99036873D01*
X140667071Y-99036080D01*
X140674255Y-99035241D01*
X140744760Y-99009579D01*
X140748118Y-99008412D01*
X140819334Y-98984814D01*
X140825486Y-98981018D01*
X140828607Y-98979564D01*
X140828929Y-98979430D01*
X140829238Y-98979258D01*
X140832315Y-98977712D01*
X140839117Y-98975237D01*
X140901837Y-98933984D01*
X140904732Y-98932140D01*
X140968656Y-98892712D01*
X140973763Y-98887603D01*
X140976476Y-98885459D01*
X140976758Y-98885254D01*
X140977029Y-98885007D01*
X140979658Y-98882800D01*
X140985696Y-98878830D01*
X141037186Y-98824252D01*
X141039631Y-98821735D01*
X142062819Y-97798546D01*
X142112182Y-97768297D01*
X142169898Y-97763755D01*
X142223385Y-97785910D01*
X142260985Y-97829933D01*
X142274500Y-97886228D01*
X142274500Y-103889548D01*
X142265061Y-103937001D01*
X142238181Y-103977229D01*
X141877228Y-104338181D01*
X141837000Y-104365061D01*
X141789547Y-104374500D01*
X132610453Y-104374500D01*
X132563000Y-104365061D01*
X132522771Y-104338181D01*
X132461818Y-104277227D01*
X132434939Y-104236998D01*
X132425500Y-104189546D01*
X132425500Y-102598687D01*
X132433736Y-102554249D01*
X132457350Y-102515715D01*
X132532533Y-102432216D01*
X132627179Y-102268284D01*
X132685674Y-102088256D01*
X132705460Y-101900000D01*
X132685674Y-101711744D01*
X132627179Y-101531716D01*
X132532533Y-101367784D01*
X132405871Y-101227112D01*
X132400613Y-101223292D01*
X132400611Y-101223290D01*
X132257988Y-101119669D01*
X132257987Y-101119668D01*
X132252730Y-101115849D01*
X132246792Y-101113205D01*
X132085745Y-101041501D01*
X132085740Y-101041499D01*
X132079803Y-101038856D01*
X132073444Y-101037504D01*
X132073440Y-101037503D01*
X131901008Y-101000852D01*
X131901005Y-101000851D01*
X131894646Y-100999500D01*
X131705354Y-100999500D01*
X131698995Y-101000851D01*
X131698991Y-101000852D01*
X131526559Y-101037503D01*
X131526552Y-101037505D01*
X131520197Y-101038856D01*
X131514262Y-101041498D01*
X131514254Y-101041501D01*
X131353207Y-101113205D01*
X131353202Y-101113207D01*
X131347270Y-101115849D01*
X131342016Y-101119665D01*
X131342011Y-101119669D01*
X131199388Y-101223290D01*
X131199381Y-101223295D01*
X131194129Y-101227112D01*
X131189784Y-101231937D01*
X131189779Y-101231942D01*
X131071813Y-101362956D01*
X131071808Y-101362962D01*
X131067467Y-101367784D01*
X131064222Y-101373404D01*
X131064218Y-101373410D01*
X130976069Y-101526089D01*
X130976066Y-101526094D01*
X130972821Y-101531716D01*
X130970815Y-101537888D01*
X130970813Y-101537894D01*
X130916333Y-101705564D01*
X130916331Y-101705573D01*
X130914326Y-101711744D01*
X130913648Y-101718194D01*
X130913646Y-101718204D01*
X130895962Y-101886464D01*
X130894540Y-101900000D01*
X118400500Y-101900000D01*
X118400500Y-87100000D01*
X127094540Y-87100000D01*
X127095219Y-87106460D01*
X127113646Y-87281795D01*
X127113647Y-87281803D01*
X127114326Y-87288256D01*
X127116331Y-87294428D01*
X127116333Y-87294435D01*
X127170813Y-87462105D01*
X127172821Y-87468284D01*
X127176068Y-87473908D01*
X127176069Y-87473910D01*
X127248374Y-87599147D01*
X127267467Y-87632216D01*
X127271811Y-87637041D01*
X127271813Y-87637043D01*
X127389779Y-87768057D01*
X127394129Y-87772888D01*
X127547270Y-87884151D01*
X127720197Y-87961144D01*
X127905354Y-88000500D01*
X128088143Y-88000500D01*
X128094646Y-88000500D01*
X128279803Y-87961144D01*
X128452730Y-87884151D01*
X128605871Y-87772888D01*
X128732533Y-87632216D01*
X128827179Y-87468284D01*
X128827699Y-87468584D01*
X128851002Y-87435304D01*
X128890689Y-87409530D01*
X128937141Y-87400500D01*
X132691845Y-87400500D01*
X132730163Y-87406569D01*
X132764726Y-87424179D01*
X132847270Y-87484151D01*
X133020197Y-87561144D01*
X133205354Y-87600500D01*
X133388143Y-87600500D01*
X133394646Y-87600500D01*
X133579803Y-87561144D01*
X133752730Y-87484151D01*
X133905871Y-87372888D01*
X134032533Y-87232216D01*
X134127179Y-87068284D01*
X134185674Y-86888256D01*
X134205460Y-86700000D01*
X134185674Y-86511744D01*
X134127179Y-86331716D01*
X134032533Y-86167784D01*
X133972172Y-86100747D01*
X133910220Y-86031942D01*
X133910219Y-86031941D01*
X133905871Y-86027112D01*
X133900613Y-86023292D01*
X133900611Y-86023290D01*
X133757988Y-85919669D01*
X133757987Y-85919668D01*
X133752730Y-85915849D01*
X133746792Y-85913205D01*
X133585745Y-85841501D01*
X133585740Y-85841499D01*
X133579803Y-85838856D01*
X133573444Y-85837504D01*
X133573440Y-85837503D01*
X133401008Y-85800852D01*
X133401005Y-85800851D01*
X133394646Y-85799500D01*
X133324500Y-85799500D01*
X133262500Y-85782887D01*
X133217113Y-85737500D01*
X133200500Y-85675500D01*
X133200500Y-84839510D01*
X133219199Y-84774030D01*
X133269656Y-84728298D01*
X133336654Y-84716107D01*
X133399986Y-84741134D01*
X133493315Y-84812748D01*
X133493319Y-84812750D01*
X133499767Y-84817698D01*
X133639764Y-84875687D01*
X133752280Y-84890500D01*
X133823667Y-84890500D01*
X133827720Y-84890500D01*
X133940236Y-84875687D01*
X134080233Y-84817698D01*
X134200451Y-84725451D01*
X134292698Y-84605233D01*
X134350687Y-84465236D01*
X134370466Y-84315000D01*
X134350687Y-84164764D01*
X134292698Y-84024767D01*
X134287753Y-84018322D01*
X134287751Y-84018319D01*
X134205394Y-83910991D01*
X134200451Y-83904549D01*
X134192204Y-83898221D01*
X134086680Y-83817248D01*
X134086674Y-83817245D01*
X134080233Y-83812302D01*
X134072724Y-83809191D01*
X134072723Y-83809191D01*
X133947745Y-83757423D01*
X133947742Y-83757422D01*
X133940236Y-83754313D01*
X133932182Y-83753252D01*
X133932176Y-83753251D01*
X133831739Y-83740029D01*
X133831737Y-83740028D01*
X133827720Y-83739500D01*
X133752280Y-83739500D01*
X133748263Y-83740028D01*
X133748260Y-83740029D01*
X133647823Y-83753251D01*
X133647815Y-83753252D01*
X133639764Y-83754313D01*
X133632259Y-83757421D01*
X133632254Y-83757423D01*
X133507276Y-83809191D01*
X133507272Y-83809193D01*
X133499767Y-83812302D01*
X133493324Y-83817245D01*
X133493315Y-83817251D01*
X133399986Y-83888866D01*
X133336654Y-83913893D01*
X133269656Y-83901702D01*
X133219199Y-83855970D01*
X133200500Y-83790490D01*
X133200500Y-82124500D01*
X133217113Y-82062500D01*
X133262500Y-82017113D01*
X133324500Y-82000500D01*
X137441845Y-82000500D01*
X137480163Y-82006569D01*
X137514726Y-82024179D01*
X137597270Y-82084151D01*
X137770197Y-82161144D01*
X137955354Y-82200500D01*
X138138143Y-82200500D01*
X138144646Y-82200500D01*
X138329803Y-82161144D01*
X138502730Y-82084151D01*
X138585273Y-82024179D01*
X138619837Y-82006569D01*
X138658155Y-82000500D01*
X152258481Y-82000500D01*
X152305934Y-82009939D01*
X152346162Y-82036819D01*
X154563181Y-84253838D01*
X154590061Y-84294066D01*
X154599500Y-84341519D01*
X154599500Y-84527587D01*
X154583754Y-84588061D01*
X154540514Y-84633176D01*
X154482109Y-84669138D01*
X154478167Y-84672607D01*
X154478158Y-84672614D01*
X154313312Y-84817698D01*
X154306982Y-84823269D01*
X154303674Y-84827365D01*
X154303669Y-84827371D01*
X154163733Y-85000679D01*
X154160422Y-85004780D01*
X154157855Y-85009374D01*
X154157853Y-85009378D01*
X154049215Y-85203847D01*
X154049209Y-85203858D01*
X154046646Y-85208448D01*
X154044893Y-85213408D01*
X154044890Y-85213416D01*
X153970682Y-85423446D01*
X153970679Y-85423456D01*
X153968927Y-85428416D01*
X153968037Y-85433603D01*
X153968035Y-85433613D01*
X153930390Y-85653159D01*
X153930389Y-85653166D01*
X153929500Y-85658353D01*
X153929500Y-86283216D01*
X153929722Y-86285832D01*
X153929723Y-86285840D01*
X153943882Y-86452199D01*
X153943883Y-86452208D01*
X153944330Y-86457453D01*
X154003115Y-86683219D01*
X154005283Y-86688015D01*
X154005284Y-86688018D01*
X154097036Y-86890999D01*
X154097040Y-86891007D01*
X154099208Y-86895802D01*
X154229847Y-87089088D01*
X154391272Y-87257516D01*
X154578839Y-87396240D01*
X154787153Y-87501270D01*
X155010220Y-87569583D01*
X155241624Y-87599216D01*
X155474707Y-87589314D01*
X155702765Y-87540164D01*
X155919235Y-87453179D01*
X156117891Y-87330862D01*
X156293018Y-87176731D01*
X156439578Y-86995220D01*
X156553354Y-86791552D01*
X156631073Y-86571584D01*
X156670500Y-86341647D01*
X156670500Y-85716784D01*
X156655670Y-85542547D01*
X156596885Y-85316781D01*
X156500792Y-85104198D01*
X156370153Y-84910912D01*
X156208728Y-84742484D01*
X156192381Y-84730394D01*
X156050765Y-84625655D01*
X156013777Y-84581784D01*
X156000500Y-84525959D01*
X156000500Y-84024921D01*
X156000726Y-84017433D01*
X156003905Y-83964881D01*
X156004358Y-83957394D01*
X155993514Y-83898221D01*
X155992387Y-83890815D01*
X155988156Y-83855970D01*
X155985140Y-83831128D01*
X155981547Y-83821656D01*
X155975522Y-83800041D01*
X155973695Y-83790069D01*
X155949009Y-83735220D01*
X155946142Y-83728298D01*
X155927480Y-83679090D01*
X155924818Y-83672070D01*
X155919059Y-83663727D01*
X155908033Y-83644177D01*
X155906956Y-83641784D01*
X155903878Y-83634944D01*
X155866791Y-83587605D01*
X155862353Y-83581574D01*
X155832446Y-83538247D01*
X155828183Y-83532071D01*
X155822568Y-83527097D01*
X155822565Y-83527093D01*
X155783170Y-83492193D01*
X155777716Y-83487059D01*
X153458422Y-81167765D01*
X158045788Y-81167765D01*
X158046282Y-81172262D01*
X158046283Y-81172267D01*
X158074917Y-81432506D01*
X158074918Y-81432513D01*
X158075414Y-81437018D01*
X158076559Y-81441398D01*
X158076561Y-81441408D01*
X158108830Y-81564838D01*
X158143928Y-81699088D01*
X158145693Y-81703242D01*
X158145696Y-81703250D01*
X158248099Y-81944223D01*
X158249870Y-81948390D01*
X158252226Y-81952251D01*
X158252229Y-81952256D01*
X158378097Y-82158498D01*
X158390982Y-82179610D01*
X158564255Y-82387820D01*
X158567630Y-82390844D01*
X158567631Y-82390845D01*
X158672330Y-82484656D01*
X158765998Y-82568582D01*
X158991910Y-82718044D01*
X159237176Y-82833020D01*
X159496569Y-82911060D01*
X159764561Y-82950500D01*
X159965369Y-82950500D01*
X159967631Y-82950500D01*
X160170156Y-82935677D01*
X160434553Y-82876780D01*
X160687558Y-82780014D01*
X160923777Y-82647441D01*
X161138177Y-82481888D01*
X161326186Y-82286881D01*
X161483799Y-82066579D01*
X161607656Y-81825675D01*
X161695118Y-81569305D01*
X161744319Y-81302933D01*
X161754212Y-81032235D01*
X161724586Y-80762982D01*
X161656072Y-80500912D01*
X161550130Y-80251610D01*
X161409018Y-80020390D01*
X161235745Y-79812180D01*
X161130759Y-79718112D01*
X161037382Y-79634446D01*
X161037378Y-79634442D01*
X161034002Y-79631418D01*
X160808090Y-79481956D01*
X160803996Y-79480036D01*
X160803991Y-79480034D01*
X160566929Y-79368904D01*
X160566925Y-79368902D01*
X160562824Y-79366980D01*
X160558477Y-79365672D01*
X160558474Y-79365671D01*
X160307772Y-79290246D01*
X160307771Y-79290245D01*
X160303431Y-79288940D01*
X160298957Y-79288281D01*
X160298950Y-79288280D01*
X160039913Y-79250158D01*
X160039907Y-79250157D01*
X160035439Y-79249500D01*
X159832369Y-79249500D01*
X159830120Y-79249664D01*
X159830109Y-79249665D01*
X159634363Y-79263992D01*
X159634359Y-79263992D01*
X159629844Y-79264323D01*
X159625426Y-79265307D01*
X159625420Y-79265308D01*
X159369877Y-79322232D01*
X159369861Y-79322236D01*
X159365447Y-79323220D01*
X159361216Y-79324838D01*
X159361210Y-79324840D01*
X159116673Y-79418367D01*
X159116663Y-79418371D01*
X159112442Y-79419986D01*
X159108494Y-79422201D01*
X159108489Y-79422204D01*
X158880176Y-79550340D01*
X158880171Y-79550343D01*
X158876223Y-79552559D01*
X158872639Y-79555325D01*
X158872635Y-79555329D01*
X158665407Y-79715343D01*
X158665394Y-79715354D01*
X158661823Y-79718112D01*
X158658685Y-79721366D01*
X158658678Y-79721373D01*
X158476958Y-79909857D01*
X158476952Y-79909864D01*
X158473814Y-79913119D01*
X158471189Y-79916787D01*
X158471179Y-79916800D01*
X158318834Y-80129740D01*
X158318830Y-80129745D01*
X158316201Y-80133421D01*
X158314132Y-80137444D01*
X158314129Y-80137450D01*
X158194416Y-80370293D01*
X158194411Y-80370304D01*
X158192344Y-80374325D01*
X158190884Y-80378602D01*
X158190879Y-80378616D01*
X158106348Y-80626395D01*
X158106344Y-80626407D01*
X158104882Y-80630695D01*
X158104057Y-80635159D01*
X158104057Y-80635161D01*
X158056504Y-80892606D01*
X158056502Y-80892619D01*
X158055681Y-80897067D01*
X158055515Y-80901593D01*
X158055515Y-80901599D01*
X158050576Y-81036762D01*
X158045788Y-81167765D01*
X153458422Y-81167765D01*
X153112939Y-80822282D01*
X153107822Y-80816847D01*
X153067929Y-80771817D01*
X153018410Y-80737636D01*
X153012404Y-80733216D01*
X152970961Y-80700747D01*
X152970958Y-80700745D01*
X152965057Y-80696122D01*
X152958219Y-80693044D01*
X152958210Y-80693039D01*
X152955810Y-80691959D01*
X152936268Y-80680937D01*
X152934107Y-80679445D01*
X152934102Y-80679442D01*
X152927930Y-80675182D01*
X152871702Y-80653857D01*
X152864784Y-80650991D01*
X152816772Y-80629383D01*
X152816769Y-80629382D01*
X152809932Y-80626305D01*
X152802560Y-80624954D01*
X152802551Y-80624951D01*
X152799952Y-80624475D01*
X152778340Y-80618450D01*
X152775891Y-80617521D01*
X152775885Y-80617519D01*
X152768872Y-80614860D01*
X152761430Y-80613956D01*
X152761425Y-80613955D01*
X152709171Y-80607610D01*
X152701771Y-80606483D01*
X152649987Y-80596994D01*
X152649982Y-80596993D01*
X152642606Y-80595642D01*
X152635126Y-80596094D01*
X152635118Y-80596094D01*
X152582567Y-80599274D01*
X152575079Y-80599500D01*
X138658155Y-80599500D01*
X138619837Y-80593431D01*
X138585273Y-80575820D01*
X138502730Y-80515849D01*
X138479008Y-80505287D01*
X138335745Y-80441501D01*
X138335740Y-80441499D01*
X138329803Y-80438856D01*
X138323444Y-80437504D01*
X138323440Y-80437503D01*
X138151008Y-80400852D01*
X138151005Y-80400851D01*
X138144646Y-80399500D01*
X137955354Y-80399500D01*
X137948995Y-80400851D01*
X137948991Y-80400852D01*
X137776559Y-80437503D01*
X137776552Y-80437505D01*
X137770197Y-80438856D01*
X137764262Y-80441498D01*
X137764254Y-80441501D01*
X137603207Y-80513205D01*
X137603202Y-80513207D01*
X137597270Y-80515849D01*
X137514726Y-80575820D01*
X137480163Y-80593431D01*
X137441845Y-80599500D01*
X132924909Y-80599500D01*
X132917422Y-80599274D01*
X132864881Y-80596095D01*
X132864873Y-80596095D01*
X132857394Y-80595643D01*
X132850019Y-80596994D01*
X132850009Y-80596995D01*
X132798242Y-80606481D01*
X132790843Y-80607608D01*
X132738567Y-80613956D01*
X132738561Y-80613957D01*
X132731128Y-80614860D01*
X132724123Y-80617516D01*
X132724112Y-80617519D01*
X132721639Y-80618457D01*
X132700041Y-80624478D01*
X132697451Y-80624952D01*
X132697444Y-80624954D01*
X132690068Y-80626306D01*
X132683225Y-80629385D01*
X132683227Y-80629385D01*
X132635234Y-80650984D01*
X132628318Y-80653848D01*
X132579088Y-80672519D01*
X132579078Y-80672523D01*
X132572070Y-80675182D01*
X132565899Y-80679441D01*
X132565894Y-80679444D01*
X132563722Y-80680944D01*
X132544187Y-80691962D01*
X132541784Y-80693043D01*
X132541777Y-80693047D01*
X132534943Y-80696123D01*
X132529043Y-80700745D01*
X132529040Y-80700747D01*
X132487595Y-80733216D01*
X132481566Y-80737651D01*
X132438249Y-80767551D01*
X132438241Y-80767557D01*
X132432071Y-80771817D01*
X132427101Y-80777426D01*
X132427094Y-80777433D01*
X132392184Y-80816838D01*
X132387051Y-80822290D01*
X132022290Y-81187051D01*
X132016838Y-81192184D01*
X131977431Y-81227096D01*
X131977425Y-81227102D01*
X131971817Y-81232071D01*
X131967560Y-81238236D01*
X131967551Y-81238248D01*
X131937649Y-81281568D01*
X131933213Y-81287597D01*
X131900749Y-81329035D01*
X131900743Y-81329043D01*
X131896122Y-81334943D01*
X131893044Y-81341780D01*
X131893043Y-81341783D01*
X131891962Y-81344185D01*
X131880940Y-81363727D01*
X131879441Y-81365898D01*
X131879437Y-81365904D01*
X131875182Y-81372070D01*
X131872526Y-81379070D01*
X131872522Y-81379080D01*
X131853853Y-81428305D01*
X131850989Y-81435219D01*
X131829382Y-81483229D01*
X131829379Y-81483235D01*
X131826305Y-81490068D01*
X131824953Y-81497439D01*
X131824951Y-81497449D01*
X131824474Y-81500053D01*
X131818456Y-81521643D01*
X131817519Y-81524114D01*
X131817517Y-81524119D01*
X131814860Y-81531128D01*
X131813956Y-81538565D01*
X131813956Y-81538569D01*
X131807610Y-81590827D01*
X131806483Y-81598226D01*
X131796994Y-81650010D01*
X131796993Y-81650018D01*
X131795642Y-81657394D01*
X131796094Y-81664873D01*
X131796094Y-81664881D01*
X131799274Y-81717433D01*
X131799500Y-81724921D01*
X131799500Y-85875500D01*
X131782887Y-85937500D01*
X131737500Y-85982887D01*
X131675500Y-85999500D01*
X128424909Y-85999500D01*
X128417422Y-85999274D01*
X128364881Y-85996095D01*
X128364873Y-85996095D01*
X128357394Y-85995643D01*
X128350019Y-85996994D01*
X128350009Y-85996995D01*
X128298242Y-86006481D01*
X128290843Y-86007608D01*
X128238567Y-86013956D01*
X128238561Y-86013957D01*
X128231128Y-86014860D01*
X128224123Y-86017516D01*
X128224112Y-86017519D01*
X128221639Y-86018457D01*
X128200041Y-86024478D01*
X128197451Y-86024952D01*
X128197444Y-86024954D01*
X128190068Y-86026306D01*
X128183225Y-86029385D01*
X128183227Y-86029385D01*
X128135234Y-86050984D01*
X128128318Y-86053848D01*
X128079088Y-86072519D01*
X128079078Y-86072523D01*
X128072070Y-86075182D01*
X128065899Y-86079441D01*
X128065894Y-86079444D01*
X128063722Y-86080944D01*
X128044187Y-86091962D01*
X128041784Y-86093043D01*
X128041777Y-86093047D01*
X128034943Y-86096123D01*
X128029043Y-86100745D01*
X128029040Y-86100747D01*
X127987595Y-86133216D01*
X127981566Y-86137651D01*
X127938244Y-86167555D01*
X127938238Y-86167559D01*
X127932071Y-86171817D01*
X127927100Y-86177427D01*
X127925654Y-86178709D01*
X127869210Y-86207182D01*
X127726559Y-86237503D01*
X127726552Y-86237505D01*
X127720197Y-86238856D01*
X127714262Y-86241498D01*
X127714254Y-86241501D01*
X127553207Y-86313205D01*
X127553202Y-86313207D01*
X127547270Y-86315849D01*
X127542016Y-86319665D01*
X127542011Y-86319669D01*
X127399388Y-86423290D01*
X127399381Y-86423295D01*
X127394129Y-86427112D01*
X127389784Y-86431937D01*
X127389779Y-86431942D01*
X127271813Y-86562956D01*
X127271808Y-86562962D01*
X127267467Y-86567784D01*
X127264222Y-86573404D01*
X127264218Y-86573410D01*
X127176069Y-86726089D01*
X127176066Y-86726094D01*
X127172821Y-86731716D01*
X127170815Y-86737888D01*
X127170813Y-86737894D01*
X127116333Y-86905564D01*
X127116331Y-86905573D01*
X127114326Y-86911744D01*
X127113648Y-86918194D01*
X127113646Y-86918204D01*
X127101664Y-87032216D01*
X127094540Y-87100000D01*
X118400500Y-87100000D01*
X118400500Y-84315000D01*
X127429534Y-84315000D01*
X127430595Y-84323059D01*
X127448251Y-84457176D01*
X127448252Y-84457182D01*
X127449313Y-84465236D01*
X127452422Y-84472742D01*
X127452423Y-84472745D01*
X127497589Y-84581784D01*
X127507302Y-84605233D01*
X127512245Y-84611674D01*
X127512248Y-84611680D01*
X127592379Y-84716107D01*
X127599549Y-84725451D01*
X127605991Y-84730394D01*
X127713319Y-84812751D01*
X127713322Y-84812753D01*
X127719767Y-84817698D01*
X127859764Y-84875687D01*
X127972280Y-84890500D01*
X128043667Y-84890500D01*
X128047720Y-84890500D01*
X128160236Y-84875687D01*
X128300233Y-84817698D01*
X128420451Y-84725451D01*
X128512698Y-84605233D01*
X128570687Y-84465236D01*
X128590466Y-84315000D01*
X128570687Y-84164764D01*
X128512698Y-84024767D01*
X128507753Y-84018322D01*
X128507751Y-84018319D01*
X128425394Y-83910991D01*
X128420451Y-83904549D01*
X128412204Y-83898221D01*
X128306680Y-83817248D01*
X128306674Y-83817245D01*
X128300233Y-83812302D01*
X128292724Y-83809191D01*
X128292723Y-83809191D01*
X128167745Y-83757423D01*
X128167742Y-83757422D01*
X128160236Y-83754313D01*
X128152182Y-83753252D01*
X128152176Y-83753251D01*
X128051739Y-83740029D01*
X128051737Y-83740028D01*
X128047720Y-83739500D01*
X127972280Y-83739500D01*
X127968263Y-83740028D01*
X127968260Y-83740029D01*
X127867823Y-83753251D01*
X127867815Y-83753252D01*
X127859764Y-83754313D01*
X127852259Y-83757421D01*
X127852254Y-83757423D01*
X127727276Y-83809191D01*
X127727272Y-83809193D01*
X127719767Y-83812302D01*
X127713328Y-83817242D01*
X127713319Y-83817248D01*
X127605991Y-83899605D01*
X127605987Y-83899608D01*
X127599549Y-83904549D01*
X127594608Y-83910987D01*
X127594605Y-83910991D01*
X127512248Y-84018319D01*
X127512242Y-84018328D01*
X127507302Y-84024767D01*
X127504193Y-84032272D01*
X127504191Y-84032276D01*
X127452423Y-84157254D01*
X127452421Y-84157259D01*
X127449313Y-84164764D01*
X127448252Y-84172815D01*
X127448251Y-84172823D01*
X127437586Y-84253838D01*
X127429534Y-84315000D01*
X118400500Y-84315000D01*
X118400500Y-81167765D01*
X119245788Y-81167765D01*
X119246282Y-81172262D01*
X119246283Y-81172267D01*
X119274917Y-81432506D01*
X119274918Y-81432513D01*
X119275414Y-81437018D01*
X119276559Y-81441398D01*
X119276561Y-81441408D01*
X119308830Y-81564838D01*
X119343928Y-81699088D01*
X119345693Y-81703242D01*
X119345696Y-81703250D01*
X119448099Y-81944223D01*
X119449870Y-81948390D01*
X119452226Y-81952251D01*
X119452229Y-81952256D01*
X119578097Y-82158498D01*
X119590982Y-82179610D01*
X119764255Y-82387820D01*
X119767630Y-82390844D01*
X119767631Y-82390845D01*
X119872330Y-82484656D01*
X119965998Y-82568582D01*
X120191910Y-82718044D01*
X120437176Y-82833020D01*
X120696569Y-82911060D01*
X120964561Y-82950500D01*
X121165369Y-82950500D01*
X121167631Y-82950500D01*
X121370156Y-82935677D01*
X121634553Y-82876780D01*
X121887558Y-82780014D01*
X122123777Y-82647441D01*
X122338177Y-82481888D01*
X122526186Y-82286881D01*
X122683799Y-82066579D01*
X122807656Y-81825675D01*
X122895118Y-81569305D01*
X122944319Y-81302933D01*
X122954212Y-81032235D01*
X122924586Y-80762982D01*
X122856072Y-80500912D01*
X122750130Y-80251610D01*
X122609018Y-80020390D01*
X122435745Y-79812180D01*
X122330759Y-79718112D01*
X122237382Y-79634446D01*
X122237378Y-79634442D01*
X122234002Y-79631418D01*
X122008090Y-79481956D01*
X122003996Y-79480036D01*
X122003991Y-79480034D01*
X121766929Y-79368904D01*
X121766925Y-79368902D01*
X121762824Y-79366980D01*
X121758477Y-79365672D01*
X121758474Y-79365671D01*
X121507772Y-79290246D01*
X121507771Y-79290245D01*
X121503431Y-79288940D01*
X121498957Y-79288281D01*
X121498950Y-79288280D01*
X121239913Y-79250158D01*
X121239907Y-79250157D01*
X121235439Y-79249500D01*
X121032369Y-79249500D01*
X121030120Y-79249664D01*
X121030109Y-79249665D01*
X120834363Y-79263992D01*
X120834359Y-79263992D01*
X120829844Y-79264323D01*
X120825426Y-79265307D01*
X120825420Y-79265308D01*
X120569877Y-79322232D01*
X120569861Y-79322236D01*
X120565447Y-79323220D01*
X120561216Y-79324838D01*
X120561210Y-79324840D01*
X120316673Y-79418367D01*
X120316663Y-79418371D01*
X120312442Y-79419986D01*
X120308494Y-79422201D01*
X120308489Y-79422204D01*
X120080176Y-79550340D01*
X120080171Y-79550343D01*
X120076223Y-79552559D01*
X120072639Y-79555325D01*
X120072635Y-79555329D01*
X119865407Y-79715343D01*
X119865394Y-79715354D01*
X119861823Y-79718112D01*
X119858685Y-79721366D01*
X119858678Y-79721373D01*
X119676958Y-79909857D01*
X119676952Y-79909864D01*
X119673814Y-79913119D01*
X119671189Y-79916787D01*
X119671179Y-79916800D01*
X119518834Y-80129740D01*
X119518830Y-80129745D01*
X119516201Y-80133421D01*
X119514132Y-80137444D01*
X119514129Y-80137450D01*
X119394416Y-80370293D01*
X119394411Y-80370304D01*
X119392344Y-80374325D01*
X119390884Y-80378602D01*
X119390879Y-80378616D01*
X119306348Y-80626395D01*
X119306344Y-80626407D01*
X119304882Y-80630695D01*
X119304057Y-80635159D01*
X119304057Y-80635161D01*
X119256504Y-80892606D01*
X119256502Y-80892619D01*
X119255681Y-80897067D01*
X119255515Y-80901593D01*
X119255515Y-80901599D01*
X119250576Y-81036762D01*
X119245788Y-81167765D01*
X118400500Y-81167765D01*
X118400500Y-78524500D01*
X118417113Y-78462500D01*
X118462500Y-78417113D01*
X118524500Y-78400500D01*
X173775500Y-78400500D01*
X173837500Y-78417113D01*
G37*
%TD.AperFunction*%
%TD*%
M02*
