M48
; DRILL file {KiCad (7.0.0)} date Wed Jun 21 12:56:20 2023
; FORMAT={-:-/ absolute / inch / decimal}
; #@! TF.CreationDate,2023-06-21T12:56:20+01:00
; #@! TF.GenerationSoftware,Kicad,Pcbnew,(7.0.0)
; #@! TF.FileFunction,Plated,1,4,PTH
FMAT,2
INCH
; #@! TA.AperFunction,Plated,PTH,ViaDrill
T1C0.0079
; #@! TA.AperFunction,Plated,PTH,ComponentDrill
T2C0.0098
; #@! TA.AperFunction,Plated,PTH,ViaDrill
T3C0.0157
; #@! TA.AperFunction,Plated,PTH,ComponentDrill
T4C0.0469
%
G90
G05
T1
X5.7953Y-3.9154
X5.9134Y-3.9154
X6.0335Y-3.7244
X6.0335Y-3.8189
X6.0335Y-4.1063
X6.0335Y-4.2087
X6.1122Y-4.1063
X6.1122Y-4.2087
X6.1142Y-3.7244
X6.1142Y-3.8189
X6.2047Y-3.9154
T2
X6.0118Y-3.9646
X6.063Y-3.9134
X6.063Y-3.9646
X6.063Y-4.0157
X6.1142Y-3.9646
T3
X4.7244Y-3.3465
X4.7638Y-3.8583
X4.8425Y-4.3307
X4.8819Y-3.3465
X4.8819Y-3.5039
X4.9213Y-3.8583
X4.9921Y-3.4055
X5.0Y-3.937
X5.0Y-4.0551
X5.0394Y-3.4291
X5.0787Y-3.5039
X5.1575Y-3.8583
X5.1575Y-4.0551
X5.189Y-4.0118
X5.2126Y-4.3346
X5.2362Y-4.7244
X5.248Y-3.4134
X5.2638Y-3.8701
X5.315Y-3.4016
X5.315Y-3.5433
X5.3504Y-4.0906
X5.3898Y-3.2717
X5.4291Y-3.8701
X5.4331Y-3.5433
X5.435Y-3.2008
X5.5787Y-3.5512
X5.6299Y-4.7244
X5.6969Y-3.6083
X5.6988Y-3.4055
X5.7087Y-3.7795
X5.748Y-4.0945
X5.7687Y-3.4449
X5.8661Y-3.1102
X5.8701Y-3.3543
X5.8819Y-4.3346
X5.8976Y-3.4921
X5.9173Y-3.1102
X5.9173Y-3.3543
X5.9567Y-3.5984
X6.0236Y-4.4488
X6.0236Y-4.7244
X6.1535Y-3.189
X6.1772Y-3.748
X6.2205Y-3.3465
X6.2205Y-4.1732
X6.2598Y-3.6024
X6.2598Y-3.9764
X6.2992Y-4.3307
X6.3858Y-3.4331
X6.3858Y-4.5
X6.437Y-3.1102
X6.4961Y-4.685
X6.5039Y-3.9764
X6.5157Y-4.3189
X6.5157Y-4.5
X6.5197Y-4.8228
X6.5354Y-3.6024
X6.5394Y-4.1535
X6.5472Y-3.252
X6.5512Y-3.4291
X6.563Y-3.7756
X6.6417Y-4.6654
X6.6457Y-3.9528
X6.6457Y-4.1299
X6.6457Y-4.4882
X6.6496Y-3.7756
X6.6496Y-4.2953
X6.6535Y-3.5984
X6.6575Y-3.248
X6.6575Y-3.4213
T4
X6.0142Y-3.3858
X6.1142Y-3.3858
T0
M30
