%TF.GenerationSoftware,KiCad,Pcbnew,(7.0.0)*%
%TF.CreationDate,2023-06-21T12:56:18+01:00*%
%TF.ProjectId,CSAD10,43534144-3130-42e6-9b69-6361645f7063,0.2*%
%TF.SameCoordinates,Original*%
%TF.FileFunction,Legend,Top*%
%TF.FilePolarity,Positive*%
%FSLAX46Y46*%
G04 Gerber Fmt 4.6, Leading zero omitted, Abs format (unit mm)*
G04 Created by KiCad (PCBNEW (7.0.0)) date 2023-06-21 12:56:18*
%MOMM*%
%LPD*%
G01*
G04 APERTURE LIST*
%ADD10C,0.150000*%
%ADD11C,0.120000*%
%ADD12C,0.283607*%
G04 APERTURE END LIST*
D10*
X152614285Y-79182380D02*
X152138095Y-79182380D01*
X152138095Y-79182380D02*
X152090476Y-79658571D01*
X152090476Y-79658571D02*
X152138095Y-79610952D01*
X152138095Y-79610952D02*
X152233333Y-79563333D01*
X152233333Y-79563333D02*
X152471428Y-79563333D01*
X152471428Y-79563333D02*
X152566666Y-79610952D01*
X152566666Y-79610952D02*
X152614285Y-79658571D01*
X152614285Y-79658571D02*
X152661904Y-79753809D01*
X152661904Y-79753809D02*
X152661904Y-79991904D01*
X152661904Y-79991904D02*
X152614285Y-80087142D01*
X152614285Y-80087142D02*
X152566666Y-80134761D01*
X152566666Y-80134761D02*
X152471428Y-80182380D01*
X152471428Y-80182380D02*
X152233333Y-80182380D01*
X152233333Y-80182380D02*
X152138095Y-80134761D01*
X152138095Y-80134761D02*
X152090476Y-80087142D01*
X152947619Y-79182380D02*
X153280952Y-80182380D01*
X153280952Y-80182380D02*
X153614285Y-79182380D01*
X154547619Y-80182380D02*
X154547619Y-79182380D01*
X155023809Y-80182380D02*
X155023809Y-79182380D01*
X155023809Y-79182380D02*
X155595237Y-80182380D01*
X155595237Y-80182380D02*
X155595237Y-79182380D01*
X154919048Y-81586428D02*
X155680953Y-81586428D01*
X155300000Y-81967380D02*
X155300000Y-81205476D01*
X152319048Y-81586428D02*
X153080953Y-81586428D01*
X138052380Y-108387142D02*
X138004761Y-108434761D01*
X138004761Y-108434761D02*
X137861904Y-108482380D01*
X137861904Y-108482380D02*
X137766666Y-108482380D01*
X137766666Y-108482380D02*
X137623809Y-108434761D01*
X137623809Y-108434761D02*
X137528571Y-108339523D01*
X137528571Y-108339523D02*
X137480952Y-108244285D01*
X137480952Y-108244285D02*
X137433333Y-108053809D01*
X137433333Y-108053809D02*
X137433333Y-107910952D01*
X137433333Y-107910952D02*
X137480952Y-107720476D01*
X137480952Y-107720476D02*
X137528571Y-107625238D01*
X137528571Y-107625238D02*
X137623809Y-107530000D01*
X137623809Y-107530000D02*
X137766666Y-107482380D01*
X137766666Y-107482380D02*
X137861904Y-107482380D01*
X137861904Y-107482380D02*
X138004761Y-107530000D01*
X138004761Y-107530000D02*
X138052380Y-107577619D01*
X138433333Y-108434761D02*
X138576190Y-108482380D01*
X138576190Y-108482380D02*
X138814285Y-108482380D01*
X138814285Y-108482380D02*
X138909523Y-108434761D01*
X138909523Y-108434761D02*
X138957142Y-108387142D01*
X138957142Y-108387142D02*
X139004761Y-108291904D01*
X139004761Y-108291904D02*
X139004761Y-108196666D01*
X139004761Y-108196666D02*
X138957142Y-108101428D01*
X138957142Y-108101428D02*
X138909523Y-108053809D01*
X138909523Y-108053809D02*
X138814285Y-108006190D01*
X138814285Y-108006190D02*
X138623809Y-107958571D01*
X138623809Y-107958571D02*
X138528571Y-107910952D01*
X138528571Y-107910952D02*
X138480952Y-107863333D01*
X138480952Y-107863333D02*
X138433333Y-107768095D01*
X138433333Y-107768095D02*
X138433333Y-107672857D01*
X138433333Y-107672857D02*
X138480952Y-107577619D01*
X138480952Y-107577619D02*
X138528571Y-107530000D01*
X138528571Y-107530000D02*
X138623809Y-107482380D01*
X138623809Y-107482380D02*
X138861904Y-107482380D01*
X138861904Y-107482380D02*
X139004761Y-107530000D01*
X139385714Y-108196666D02*
X139861904Y-108196666D01*
X139290476Y-108482380D02*
X139623809Y-107482380D01*
X139623809Y-107482380D02*
X139957142Y-108482380D01*
X140290476Y-108482380D02*
X140290476Y-107482380D01*
X140290476Y-107482380D02*
X140528571Y-107482380D01*
X140528571Y-107482380D02*
X140671428Y-107530000D01*
X140671428Y-107530000D02*
X140766666Y-107625238D01*
X140766666Y-107625238D02*
X140814285Y-107720476D01*
X140814285Y-107720476D02*
X140861904Y-107910952D01*
X140861904Y-107910952D02*
X140861904Y-108053809D01*
X140861904Y-108053809D02*
X140814285Y-108244285D01*
X140814285Y-108244285D02*
X140766666Y-108339523D01*
X140766666Y-108339523D02*
X140671428Y-108434761D01*
X140671428Y-108434761D02*
X140528571Y-108482380D01*
X140528571Y-108482380D02*
X140290476Y-108482380D01*
X141814285Y-108482380D02*
X141242857Y-108482380D01*
X141528571Y-108482380D02*
X141528571Y-107482380D01*
X141528571Y-107482380D02*
X141433333Y-107625238D01*
X141433333Y-107625238D02*
X141338095Y-107720476D01*
X141338095Y-107720476D02*
X141242857Y-107768095D01*
X142433333Y-107482380D02*
X142528571Y-107482380D01*
X142528571Y-107482380D02*
X142623809Y-107530000D01*
X142623809Y-107530000D02*
X142671428Y-107577619D01*
X142671428Y-107577619D02*
X142719047Y-107672857D01*
X142719047Y-107672857D02*
X142766666Y-107863333D01*
X142766666Y-107863333D02*
X142766666Y-108101428D01*
X142766666Y-108101428D02*
X142719047Y-108291904D01*
X142719047Y-108291904D02*
X142671428Y-108387142D01*
X142671428Y-108387142D02*
X142623809Y-108434761D01*
X142623809Y-108434761D02*
X142528571Y-108482380D01*
X142528571Y-108482380D02*
X142433333Y-108482380D01*
X142433333Y-108482380D02*
X142338095Y-108434761D01*
X142338095Y-108434761D02*
X142290476Y-108387142D01*
X142290476Y-108387142D02*
X142242857Y-108291904D01*
X142242857Y-108291904D02*
X142195238Y-108101428D01*
X142195238Y-108101428D02*
X142195238Y-107863333D01*
X142195238Y-107863333D02*
X142242857Y-107672857D01*
X142242857Y-107672857D02*
X142290476Y-107577619D01*
X142290476Y-107577619D02*
X142338095Y-107530000D01*
X142338095Y-107530000D02*
X142433333Y-107482380D01*
%TO.C,C8*%
X149633333Y-90472142D02*
X149585714Y-90519761D01*
X149585714Y-90519761D02*
X149442857Y-90567380D01*
X149442857Y-90567380D02*
X149347619Y-90567380D01*
X149347619Y-90567380D02*
X149204762Y-90519761D01*
X149204762Y-90519761D02*
X149109524Y-90424523D01*
X149109524Y-90424523D02*
X149061905Y-90329285D01*
X149061905Y-90329285D02*
X149014286Y-90138809D01*
X149014286Y-90138809D02*
X149014286Y-89995952D01*
X149014286Y-89995952D02*
X149061905Y-89805476D01*
X149061905Y-89805476D02*
X149109524Y-89710238D01*
X149109524Y-89710238D02*
X149204762Y-89615000D01*
X149204762Y-89615000D02*
X149347619Y-89567380D01*
X149347619Y-89567380D02*
X149442857Y-89567380D01*
X149442857Y-89567380D02*
X149585714Y-89615000D01*
X149585714Y-89615000D02*
X149633333Y-89662619D01*
X150204762Y-89995952D02*
X150109524Y-89948333D01*
X150109524Y-89948333D02*
X150061905Y-89900714D01*
X150061905Y-89900714D02*
X150014286Y-89805476D01*
X150014286Y-89805476D02*
X150014286Y-89757857D01*
X150014286Y-89757857D02*
X150061905Y-89662619D01*
X150061905Y-89662619D02*
X150109524Y-89615000D01*
X150109524Y-89615000D02*
X150204762Y-89567380D01*
X150204762Y-89567380D02*
X150395238Y-89567380D01*
X150395238Y-89567380D02*
X150490476Y-89615000D01*
X150490476Y-89615000D02*
X150538095Y-89662619D01*
X150538095Y-89662619D02*
X150585714Y-89757857D01*
X150585714Y-89757857D02*
X150585714Y-89805476D01*
X150585714Y-89805476D02*
X150538095Y-89900714D01*
X150538095Y-89900714D02*
X150490476Y-89948333D01*
X150490476Y-89948333D02*
X150395238Y-89995952D01*
X150395238Y-89995952D02*
X150204762Y-89995952D01*
X150204762Y-89995952D02*
X150109524Y-90043571D01*
X150109524Y-90043571D02*
X150061905Y-90091190D01*
X150061905Y-90091190D02*
X150014286Y-90186428D01*
X150014286Y-90186428D02*
X150014286Y-90376904D01*
X150014286Y-90376904D02*
X150061905Y-90472142D01*
X150061905Y-90472142D02*
X150109524Y-90519761D01*
X150109524Y-90519761D02*
X150204762Y-90567380D01*
X150204762Y-90567380D02*
X150395238Y-90567380D01*
X150395238Y-90567380D02*
X150490476Y-90519761D01*
X150490476Y-90519761D02*
X150538095Y-90472142D01*
X150538095Y-90472142D02*
X150585714Y-90376904D01*
X150585714Y-90376904D02*
X150585714Y-90186428D01*
X150585714Y-90186428D02*
X150538095Y-90091190D01*
X150538095Y-90091190D02*
X150490476Y-90043571D01*
X150490476Y-90043571D02*
X150395238Y-89995952D01*
%TO.C,C28*%
X164107142Y-80772142D02*
X164059523Y-80819761D01*
X164059523Y-80819761D02*
X163916666Y-80867380D01*
X163916666Y-80867380D02*
X163821428Y-80867380D01*
X163821428Y-80867380D02*
X163678571Y-80819761D01*
X163678571Y-80819761D02*
X163583333Y-80724523D01*
X163583333Y-80724523D02*
X163535714Y-80629285D01*
X163535714Y-80629285D02*
X163488095Y-80438809D01*
X163488095Y-80438809D02*
X163488095Y-80295952D01*
X163488095Y-80295952D02*
X163535714Y-80105476D01*
X163535714Y-80105476D02*
X163583333Y-80010238D01*
X163583333Y-80010238D02*
X163678571Y-79915000D01*
X163678571Y-79915000D02*
X163821428Y-79867380D01*
X163821428Y-79867380D02*
X163916666Y-79867380D01*
X163916666Y-79867380D02*
X164059523Y-79915000D01*
X164059523Y-79915000D02*
X164107142Y-79962619D01*
X164488095Y-79962619D02*
X164535714Y-79915000D01*
X164535714Y-79915000D02*
X164630952Y-79867380D01*
X164630952Y-79867380D02*
X164869047Y-79867380D01*
X164869047Y-79867380D02*
X164964285Y-79915000D01*
X164964285Y-79915000D02*
X165011904Y-79962619D01*
X165011904Y-79962619D02*
X165059523Y-80057857D01*
X165059523Y-80057857D02*
X165059523Y-80153095D01*
X165059523Y-80153095D02*
X165011904Y-80295952D01*
X165011904Y-80295952D02*
X164440476Y-80867380D01*
X164440476Y-80867380D02*
X165059523Y-80867380D01*
X165630952Y-80295952D02*
X165535714Y-80248333D01*
X165535714Y-80248333D02*
X165488095Y-80200714D01*
X165488095Y-80200714D02*
X165440476Y-80105476D01*
X165440476Y-80105476D02*
X165440476Y-80057857D01*
X165440476Y-80057857D02*
X165488095Y-79962619D01*
X165488095Y-79962619D02*
X165535714Y-79915000D01*
X165535714Y-79915000D02*
X165630952Y-79867380D01*
X165630952Y-79867380D02*
X165821428Y-79867380D01*
X165821428Y-79867380D02*
X165916666Y-79915000D01*
X165916666Y-79915000D02*
X165964285Y-79962619D01*
X165964285Y-79962619D02*
X166011904Y-80057857D01*
X166011904Y-80057857D02*
X166011904Y-80105476D01*
X166011904Y-80105476D02*
X165964285Y-80200714D01*
X165964285Y-80200714D02*
X165916666Y-80248333D01*
X165916666Y-80248333D02*
X165821428Y-80295952D01*
X165821428Y-80295952D02*
X165630952Y-80295952D01*
X165630952Y-80295952D02*
X165535714Y-80343571D01*
X165535714Y-80343571D02*
X165488095Y-80391190D01*
X165488095Y-80391190D02*
X165440476Y-80486428D01*
X165440476Y-80486428D02*
X165440476Y-80676904D01*
X165440476Y-80676904D02*
X165488095Y-80772142D01*
X165488095Y-80772142D02*
X165535714Y-80819761D01*
X165535714Y-80819761D02*
X165630952Y-80867380D01*
X165630952Y-80867380D02*
X165821428Y-80867380D01*
X165821428Y-80867380D02*
X165916666Y-80819761D01*
X165916666Y-80819761D02*
X165964285Y-80772142D01*
X165964285Y-80772142D02*
X166011904Y-80676904D01*
X166011904Y-80676904D02*
X166011904Y-80486428D01*
X166011904Y-80486428D02*
X165964285Y-80391190D01*
X165964285Y-80391190D02*
X165916666Y-80343571D01*
X165916666Y-80343571D02*
X165821428Y-80295952D01*
%TO.C,J12*%
X167290476Y-110067380D02*
X167290476Y-110781666D01*
X167290476Y-110781666D02*
X167242857Y-110924523D01*
X167242857Y-110924523D02*
X167147619Y-111019761D01*
X167147619Y-111019761D02*
X167004762Y-111067380D01*
X167004762Y-111067380D02*
X166909524Y-111067380D01*
X168290476Y-111067380D02*
X167719048Y-111067380D01*
X168004762Y-111067380D02*
X168004762Y-110067380D01*
X168004762Y-110067380D02*
X167909524Y-110210238D01*
X167909524Y-110210238D02*
X167814286Y-110305476D01*
X167814286Y-110305476D02*
X167719048Y-110353095D01*
X168671429Y-110162619D02*
X168719048Y-110115000D01*
X168719048Y-110115000D02*
X168814286Y-110067380D01*
X168814286Y-110067380D02*
X169052381Y-110067380D01*
X169052381Y-110067380D02*
X169147619Y-110115000D01*
X169147619Y-110115000D02*
X169195238Y-110162619D01*
X169195238Y-110162619D02*
X169242857Y-110257857D01*
X169242857Y-110257857D02*
X169242857Y-110353095D01*
X169242857Y-110353095D02*
X169195238Y-110495952D01*
X169195238Y-110495952D02*
X168623810Y-111067380D01*
X168623810Y-111067380D02*
X169242857Y-111067380D01*
%TO.C,C17*%
X129472142Y-97842857D02*
X129519761Y-97890476D01*
X129519761Y-97890476D02*
X129567380Y-98033333D01*
X129567380Y-98033333D02*
X129567380Y-98128571D01*
X129567380Y-98128571D02*
X129519761Y-98271428D01*
X129519761Y-98271428D02*
X129424523Y-98366666D01*
X129424523Y-98366666D02*
X129329285Y-98414285D01*
X129329285Y-98414285D02*
X129138809Y-98461904D01*
X129138809Y-98461904D02*
X128995952Y-98461904D01*
X128995952Y-98461904D02*
X128805476Y-98414285D01*
X128805476Y-98414285D02*
X128710238Y-98366666D01*
X128710238Y-98366666D02*
X128615000Y-98271428D01*
X128615000Y-98271428D02*
X128567380Y-98128571D01*
X128567380Y-98128571D02*
X128567380Y-98033333D01*
X128567380Y-98033333D02*
X128615000Y-97890476D01*
X128615000Y-97890476D02*
X128662619Y-97842857D01*
X129567380Y-96890476D02*
X129567380Y-97461904D01*
X129567380Y-97176190D02*
X128567380Y-97176190D01*
X128567380Y-97176190D02*
X128710238Y-97271428D01*
X128710238Y-97271428D02*
X128805476Y-97366666D01*
X128805476Y-97366666D02*
X128853095Y-97461904D01*
X128567380Y-96557142D02*
X128567380Y-95890476D01*
X128567380Y-95890476D02*
X129567380Y-96319047D01*
%TO.C,C32*%
X145857142Y-98372142D02*
X145809523Y-98419761D01*
X145809523Y-98419761D02*
X145666666Y-98467380D01*
X145666666Y-98467380D02*
X145571428Y-98467380D01*
X145571428Y-98467380D02*
X145428571Y-98419761D01*
X145428571Y-98419761D02*
X145333333Y-98324523D01*
X145333333Y-98324523D02*
X145285714Y-98229285D01*
X145285714Y-98229285D02*
X145238095Y-98038809D01*
X145238095Y-98038809D02*
X145238095Y-97895952D01*
X145238095Y-97895952D02*
X145285714Y-97705476D01*
X145285714Y-97705476D02*
X145333333Y-97610238D01*
X145333333Y-97610238D02*
X145428571Y-97515000D01*
X145428571Y-97515000D02*
X145571428Y-97467380D01*
X145571428Y-97467380D02*
X145666666Y-97467380D01*
X145666666Y-97467380D02*
X145809523Y-97515000D01*
X145809523Y-97515000D02*
X145857142Y-97562619D01*
X146190476Y-97467380D02*
X146809523Y-97467380D01*
X146809523Y-97467380D02*
X146476190Y-97848333D01*
X146476190Y-97848333D02*
X146619047Y-97848333D01*
X146619047Y-97848333D02*
X146714285Y-97895952D01*
X146714285Y-97895952D02*
X146761904Y-97943571D01*
X146761904Y-97943571D02*
X146809523Y-98038809D01*
X146809523Y-98038809D02*
X146809523Y-98276904D01*
X146809523Y-98276904D02*
X146761904Y-98372142D01*
X146761904Y-98372142D02*
X146714285Y-98419761D01*
X146714285Y-98419761D02*
X146619047Y-98467380D01*
X146619047Y-98467380D02*
X146333333Y-98467380D01*
X146333333Y-98467380D02*
X146238095Y-98419761D01*
X146238095Y-98419761D02*
X146190476Y-98372142D01*
X147190476Y-97562619D02*
X147238095Y-97515000D01*
X147238095Y-97515000D02*
X147333333Y-97467380D01*
X147333333Y-97467380D02*
X147571428Y-97467380D01*
X147571428Y-97467380D02*
X147666666Y-97515000D01*
X147666666Y-97515000D02*
X147714285Y-97562619D01*
X147714285Y-97562619D02*
X147761904Y-97657857D01*
X147761904Y-97657857D02*
X147761904Y-97753095D01*
X147761904Y-97753095D02*
X147714285Y-97895952D01*
X147714285Y-97895952D02*
X147142857Y-98467380D01*
X147142857Y-98467380D02*
X147761904Y-98467380D01*
D11*
%TO.C,R15*%
X145493904Y-102914285D02*
X145112952Y-103180952D01*
X145493904Y-103371428D02*
X144693904Y-103371428D01*
X144693904Y-103371428D02*
X144693904Y-103066666D01*
X144693904Y-103066666D02*
X144732000Y-102990476D01*
X144732000Y-102990476D02*
X144770095Y-102952381D01*
X144770095Y-102952381D02*
X144846285Y-102914285D01*
X144846285Y-102914285D02*
X144960571Y-102914285D01*
X144960571Y-102914285D02*
X145036761Y-102952381D01*
X145036761Y-102952381D02*
X145074857Y-102990476D01*
X145074857Y-102990476D02*
X145112952Y-103066666D01*
X145112952Y-103066666D02*
X145112952Y-103371428D01*
X145493904Y-102152381D02*
X145493904Y-102609524D01*
X145493904Y-102380952D02*
X144693904Y-102380952D01*
X144693904Y-102380952D02*
X144808190Y-102457143D01*
X144808190Y-102457143D02*
X144884380Y-102533333D01*
X144884380Y-102533333D02*
X144922476Y-102609524D01*
X144693904Y-101428571D02*
X144693904Y-101809523D01*
X144693904Y-101809523D02*
X145074857Y-101847619D01*
X145074857Y-101847619D02*
X145036761Y-101809523D01*
X145036761Y-101809523D02*
X144998666Y-101733333D01*
X144998666Y-101733333D02*
X144998666Y-101542857D01*
X144998666Y-101542857D02*
X145036761Y-101466666D01*
X145036761Y-101466666D02*
X145074857Y-101428571D01*
X145074857Y-101428571D02*
X145151047Y-101390476D01*
X145151047Y-101390476D02*
X145341523Y-101390476D01*
X145341523Y-101390476D02*
X145417714Y-101428571D01*
X145417714Y-101428571D02*
X145455809Y-101466666D01*
X145455809Y-101466666D02*
X145493904Y-101542857D01*
X145493904Y-101542857D02*
X145493904Y-101733333D01*
X145493904Y-101733333D02*
X145455809Y-101809523D01*
X145455809Y-101809523D02*
X145417714Y-101847619D01*
D10*
%TO.C,R5*%
X134833333Y-87867380D02*
X134500000Y-87391190D01*
X134261905Y-87867380D02*
X134261905Y-86867380D01*
X134261905Y-86867380D02*
X134642857Y-86867380D01*
X134642857Y-86867380D02*
X134738095Y-86915000D01*
X134738095Y-86915000D02*
X134785714Y-86962619D01*
X134785714Y-86962619D02*
X134833333Y-87057857D01*
X134833333Y-87057857D02*
X134833333Y-87200714D01*
X134833333Y-87200714D02*
X134785714Y-87295952D01*
X134785714Y-87295952D02*
X134738095Y-87343571D01*
X134738095Y-87343571D02*
X134642857Y-87391190D01*
X134642857Y-87391190D02*
X134261905Y-87391190D01*
X135738095Y-86867380D02*
X135261905Y-86867380D01*
X135261905Y-86867380D02*
X135214286Y-87343571D01*
X135214286Y-87343571D02*
X135261905Y-87295952D01*
X135261905Y-87295952D02*
X135357143Y-87248333D01*
X135357143Y-87248333D02*
X135595238Y-87248333D01*
X135595238Y-87248333D02*
X135690476Y-87295952D01*
X135690476Y-87295952D02*
X135738095Y-87343571D01*
X135738095Y-87343571D02*
X135785714Y-87438809D01*
X135785714Y-87438809D02*
X135785714Y-87676904D01*
X135785714Y-87676904D02*
X135738095Y-87772142D01*
X135738095Y-87772142D02*
X135690476Y-87819761D01*
X135690476Y-87819761D02*
X135595238Y-87867380D01*
X135595238Y-87867380D02*
X135357143Y-87867380D01*
X135357143Y-87867380D02*
X135261905Y-87819761D01*
X135261905Y-87819761D02*
X135214286Y-87772142D01*
D11*
%TO.C,C1*%
X138317714Y-82733332D02*
X138355809Y-82771428D01*
X138355809Y-82771428D02*
X138393904Y-82885713D01*
X138393904Y-82885713D02*
X138393904Y-82961904D01*
X138393904Y-82961904D02*
X138355809Y-83076190D01*
X138355809Y-83076190D02*
X138279619Y-83152380D01*
X138279619Y-83152380D02*
X138203428Y-83190475D01*
X138203428Y-83190475D02*
X138051047Y-83228571D01*
X138051047Y-83228571D02*
X137936761Y-83228571D01*
X137936761Y-83228571D02*
X137784380Y-83190475D01*
X137784380Y-83190475D02*
X137708190Y-83152380D01*
X137708190Y-83152380D02*
X137632000Y-83076190D01*
X137632000Y-83076190D02*
X137593904Y-82961904D01*
X137593904Y-82961904D02*
X137593904Y-82885713D01*
X137593904Y-82885713D02*
X137632000Y-82771428D01*
X137632000Y-82771428D02*
X137670095Y-82733332D01*
X138393904Y-81971428D02*
X138393904Y-82428571D01*
X138393904Y-82199999D02*
X137593904Y-82199999D01*
X137593904Y-82199999D02*
X137708190Y-82276190D01*
X137708190Y-82276190D02*
X137784380Y-82352380D01*
X137784380Y-82352380D02*
X137822476Y-82428571D01*
D10*
%TO.C,C16*%
X139257142Y-91472142D02*
X139209523Y-91519761D01*
X139209523Y-91519761D02*
X139066666Y-91567380D01*
X139066666Y-91567380D02*
X138971428Y-91567380D01*
X138971428Y-91567380D02*
X138828571Y-91519761D01*
X138828571Y-91519761D02*
X138733333Y-91424523D01*
X138733333Y-91424523D02*
X138685714Y-91329285D01*
X138685714Y-91329285D02*
X138638095Y-91138809D01*
X138638095Y-91138809D02*
X138638095Y-90995952D01*
X138638095Y-90995952D02*
X138685714Y-90805476D01*
X138685714Y-90805476D02*
X138733333Y-90710238D01*
X138733333Y-90710238D02*
X138828571Y-90615000D01*
X138828571Y-90615000D02*
X138971428Y-90567380D01*
X138971428Y-90567380D02*
X139066666Y-90567380D01*
X139066666Y-90567380D02*
X139209523Y-90615000D01*
X139209523Y-90615000D02*
X139257142Y-90662619D01*
X140209523Y-91567380D02*
X139638095Y-91567380D01*
X139923809Y-91567380D02*
X139923809Y-90567380D01*
X139923809Y-90567380D02*
X139828571Y-90710238D01*
X139828571Y-90710238D02*
X139733333Y-90805476D01*
X139733333Y-90805476D02*
X139638095Y-90853095D01*
X141066666Y-90567380D02*
X140876190Y-90567380D01*
X140876190Y-90567380D02*
X140780952Y-90615000D01*
X140780952Y-90615000D02*
X140733333Y-90662619D01*
X140733333Y-90662619D02*
X140638095Y-90805476D01*
X140638095Y-90805476D02*
X140590476Y-90995952D01*
X140590476Y-90995952D02*
X140590476Y-91376904D01*
X140590476Y-91376904D02*
X140638095Y-91472142D01*
X140638095Y-91472142D02*
X140685714Y-91519761D01*
X140685714Y-91519761D02*
X140780952Y-91567380D01*
X140780952Y-91567380D02*
X140971428Y-91567380D01*
X140971428Y-91567380D02*
X141066666Y-91519761D01*
X141066666Y-91519761D02*
X141114285Y-91472142D01*
X141114285Y-91472142D02*
X141161904Y-91376904D01*
X141161904Y-91376904D02*
X141161904Y-91138809D01*
X141161904Y-91138809D02*
X141114285Y-91043571D01*
X141114285Y-91043571D02*
X141066666Y-90995952D01*
X141066666Y-90995952D02*
X140971428Y-90948333D01*
X140971428Y-90948333D02*
X140780952Y-90948333D01*
X140780952Y-90948333D02*
X140685714Y-90995952D01*
X140685714Y-90995952D02*
X140638095Y-91043571D01*
X140638095Y-91043571D02*
X140590476Y-91138809D01*
D11*
%TO.C,JP3*%
X147293904Y-82416666D02*
X147865333Y-82416666D01*
X147865333Y-82416666D02*
X147979619Y-82454761D01*
X147979619Y-82454761D02*
X148055809Y-82530952D01*
X148055809Y-82530952D02*
X148093904Y-82645237D01*
X148093904Y-82645237D02*
X148093904Y-82721428D01*
X148093904Y-82035713D02*
X147293904Y-82035713D01*
X147293904Y-82035713D02*
X147293904Y-81730951D01*
X147293904Y-81730951D02*
X147332000Y-81654761D01*
X147332000Y-81654761D02*
X147370095Y-81616666D01*
X147370095Y-81616666D02*
X147446285Y-81578570D01*
X147446285Y-81578570D02*
X147560571Y-81578570D01*
X147560571Y-81578570D02*
X147636761Y-81616666D01*
X147636761Y-81616666D02*
X147674857Y-81654761D01*
X147674857Y-81654761D02*
X147712952Y-81730951D01*
X147712952Y-81730951D02*
X147712952Y-82035713D01*
X147293904Y-81311904D02*
X147293904Y-80816666D01*
X147293904Y-80816666D02*
X147598666Y-81083332D01*
X147598666Y-81083332D02*
X147598666Y-80969047D01*
X147598666Y-80969047D02*
X147636761Y-80892856D01*
X147636761Y-80892856D02*
X147674857Y-80854761D01*
X147674857Y-80854761D02*
X147751047Y-80816666D01*
X147751047Y-80816666D02*
X147941523Y-80816666D01*
X147941523Y-80816666D02*
X148017714Y-80854761D01*
X148017714Y-80854761D02*
X148055809Y-80892856D01*
X148055809Y-80892856D02*
X148093904Y-80969047D01*
X148093904Y-80969047D02*
X148093904Y-81197618D01*
X148093904Y-81197618D02*
X148055809Y-81273809D01*
X148055809Y-81273809D02*
X148017714Y-81311904D01*
D10*
%TO.C,C30*%
X148057142Y-87672142D02*
X148009523Y-87719761D01*
X148009523Y-87719761D02*
X147866666Y-87767380D01*
X147866666Y-87767380D02*
X147771428Y-87767380D01*
X147771428Y-87767380D02*
X147628571Y-87719761D01*
X147628571Y-87719761D02*
X147533333Y-87624523D01*
X147533333Y-87624523D02*
X147485714Y-87529285D01*
X147485714Y-87529285D02*
X147438095Y-87338809D01*
X147438095Y-87338809D02*
X147438095Y-87195952D01*
X147438095Y-87195952D02*
X147485714Y-87005476D01*
X147485714Y-87005476D02*
X147533333Y-86910238D01*
X147533333Y-86910238D02*
X147628571Y-86815000D01*
X147628571Y-86815000D02*
X147771428Y-86767380D01*
X147771428Y-86767380D02*
X147866666Y-86767380D01*
X147866666Y-86767380D02*
X148009523Y-86815000D01*
X148009523Y-86815000D02*
X148057142Y-86862619D01*
X148390476Y-86767380D02*
X149009523Y-86767380D01*
X149009523Y-86767380D02*
X148676190Y-87148333D01*
X148676190Y-87148333D02*
X148819047Y-87148333D01*
X148819047Y-87148333D02*
X148914285Y-87195952D01*
X148914285Y-87195952D02*
X148961904Y-87243571D01*
X148961904Y-87243571D02*
X149009523Y-87338809D01*
X149009523Y-87338809D02*
X149009523Y-87576904D01*
X149009523Y-87576904D02*
X148961904Y-87672142D01*
X148961904Y-87672142D02*
X148914285Y-87719761D01*
X148914285Y-87719761D02*
X148819047Y-87767380D01*
X148819047Y-87767380D02*
X148533333Y-87767380D01*
X148533333Y-87767380D02*
X148438095Y-87719761D01*
X148438095Y-87719761D02*
X148390476Y-87672142D01*
X149628571Y-86767380D02*
X149723809Y-86767380D01*
X149723809Y-86767380D02*
X149819047Y-86815000D01*
X149819047Y-86815000D02*
X149866666Y-86862619D01*
X149866666Y-86862619D02*
X149914285Y-86957857D01*
X149914285Y-86957857D02*
X149961904Y-87148333D01*
X149961904Y-87148333D02*
X149961904Y-87386428D01*
X149961904Y-87386428D02*
X149914285Y-87576904D01*
X149914285Y-87576904D02*
X149866666Y-87672142D01*
X149866666Y-87672142D02*
X149819047Y-87719761D01*
X149819047Y-87719761D02*
X149723809Y-87767380D01*
X149723809Y-87767380D02*
X149628571Y-87767380D01*
X149628571Y-87767380D02*
X149533333Y-87719761D01*
X149533333Y-87719761D02*
X149485714Y-87672142D01*
X149485714Y-87672142D02*
X149438095Y-87576904D01*
X149438095Y-87576904D02*
X149390476Y-87386428D01*
X149390476Y-87386428D02*
X149390476Y-87148333D01*
X149390476Y-87148333D02*
X149438095Y-86957857D01*
X149438095Y-86957857D02*
X149485714Y-86862619D01*
X149485714Y-86862619D02*
X149533333Y-86815000D01*
X149533333Y-86815000D02*
X149628571Y-86767380D01*
%TO.C,C25*%
X163857142Y-116772142D02*
X163809523Y-116819761D01*
X163809523Y-116819761D02*
X163666666Y-116867380D01*
X163666666Y-116867380D02*
X163571428Y-116867380D01*
X163571428Y-116867380D02*
X163428571Y-116819761D01*
X163428571Y-116819761D02*
X163333333Y-116724523D01*
X163333333Y-116724523D02*
X163285714Y-116629285D01*
X163285714Y-116629285D02*
X163238095Y-116438809D01*
X163238095Y-116438809D02*
X163238095Y-116295952D01*
X163238095Y-116295952D02*
X163285714Y-116105476D01*
X163285714Y-116105476D02*
X163333333Y-116010238D01*
X163333333Y-116010238D02*
X163428571Y-115915000D01*
X163428571Y-115915000D02*
X163571428Y-115867380D01*
X163571428Y-115867380D02*
X163666666Y-115867380D01*
X163666666Y-115867380D02*
X163809523Y-115915000D01*
X163809523Y-115915000D02*
X163857142Y-115962619D01*
X164238095Y-115962619D02*
X164285714Y-115915000D01*
X164285714Y-115915000D02*
X164380952Y-115867380D01*
X164380952Y-115867380D02*
X164619047Y-115867380D01*
X164619047Y-115867380D02*
X164714285Y-115915000D01*
X164714285Y-115915000D02*
X164761904Y-115962619D01*
X164761904Y-115962619D02*
X164809523Y-116057857D01*
X164809523Y-116057857D02*
X164809523Y-116153095D01*
X164809523Y-116153095D02*
X164761904Y-116295952D01*
X164761904Y-116295952D02*
X164190476Y-116867380D01*
X164190476Y-116867380D02*
X164809523Y-116867380D01*
X165714285Y-115867380D02*
X165238095Y-115867380D01*
X165238095Y-115867380D02*
X165190476Y-116343571D01*
X165190476Y-116343571D02*
X165238095Y-116295952D01*
X165238095Y-116295952D02*
X165333333Y-116248333D01*
X165333333Y-116248333D02*
X165571428Y-116248333D01*
X165571428Y-116248333D02*
X165666666Y-116295952D01*
X165666666Y-116295952D02*
X165714285Y-116343571D01*
X165714285Y-116343571D02*
X165761904Y-116438809D01*
X165761904Y-116438809D02*
X165761904Y-116676904D01*
X165761904Y-116676904D02*
X165714285Y-116772142D01*
X165714285Y-116772142D02*
X165666666Y-116819761D01*
X165666666Y-116819761D02*
X165571428Y-116867380D01*
X165571428Y-116867380D02*
X165333333Y-116867380D01*
X165333333Y-116867380D02*
X165238095Y-116819761D01*
X165238095Y-116819761D02*
X165190476Y-116772142D01*
%TO.C,C18*%
X139257142Y-95872142D02*
X139209523Y-95919761D01*
X139209523Y-95919761D02*
X139066666Y-95967380D01*
X139066666Y-95967380D02*
X138971428Y-95967380D01*
X138971428Y-95967380D02*
X138828571Y-95919761D01*
X138828571Y-95919761D02*
X138733333Y-95824523D01*
X138733333Y-95824523D02*
X138685714Y-95729285D01*
X138685714Y-95729285D02*
X138638095Y-95538809D01*
X138638095Y-95538809D02*
X138638095Y-95395952D01*
X138638095Y-95395952D02*
X138685714Y-95205476D01*
X138685714Y-95205476D02*
X138733333Y-95110238D01*
X138733333Y-95110238D02*
X138828571Y-95015000D01*
X138828571Y-95015000D02*
X138971428Y-94967380D01*
X138971428Y-94967380D02*
X139066666Y-94967380D01*
X139066666Y-94967380D02*
X139209523Y-95015000D01*
X139209523Y-95015000D02*
X139257142Y-95062619D01*
X140209523Y-95967380D02*
X139638095Y-95967380D01*
X139923809Y-95967380D02*
X139923809Y-94967380D01*
X139923809Y-94967380D02*
X139828571Y-95110238D01*
X139828571Y-95110238D02*
X139733333Y-95205476D01*
X139733333Y-95205476D02*
X139638095Y-95253095D01*
X140780952Y-95395952D02*
X140685714Y-95348333D01*
X140685714Y-95348333D02*
X140638095Y-95300714D01*
X140638095Y-95300714D02*
X140590476Y-95205476D01*
X140590476Y-95205476D02*
X140590476Y-95157857D01*
X140590476Y-95157857D02*
X140638095Y-95062619D01*
X140638095Y-95062619D02*
X140685714Y-95015000D01*
X140685714Y-95015000D02*
X140780952Y-94967380D01*
X140780952Y-94967380D02*
X140971428Y-94967380D01*
X140971428Y-94967380D02*
X141066666Y-95015000D01*
X141066666Y-95015000D02*
X141114285Y-95062619D01*
X141114285Y-95062619D02*
X141161904Y-95157857D01*
X141161904Y-95157857D02*
X141161904Y-95205476D01*
X141161904Y-95205476D02*
X141114285Y-95300714D01*
X141114285Y-95300714D02*
X141066666Y-95348333D01*
X141066666Y-95348333D02*
X140971428Y-95395952D01*
X140971428Y-95395952D02*
X140780952Y-95395952D01*
X140780952Y-95395952D02*
X140685714Y-95443571D01*
X140685714Y-95443571D02*
X140638095Y-95491190D01*
X140638095Y-95491190D02*
X140590476Y-95586428D01*
X140590476Y-95586428D02*
X140590476Y-95776904D01*
X140590476Y-95776904D02*
X140638095Y-95872142D01*
X140638095Y-95872142D02*
X140685714Y-95919761D01*
X140685714Y-95919761D02*
X140780952Y-95967380D01*
X140780952Y-95967380D02*
X140971428Y-95967380D01*
X140971428Y-95967380D02*
X141066666Y-95919761D01*
X141066666Y-95919761D02*
X141114285Y-95872142D01*
X141114285Y-95872142D02*
X141161904Y-95776904D01*
X141161904Y-95776904D02*
X141161904Y-95586428D01*
X141161904Y-95586428D02*
X141114285Y-95491190D01*
X141114285Y-95491190D02*
X141066666Y-95443571D01*
X141066666Y-95443571D02*
X140971428Y-95395952D01*
%TO.C,J9*%
X168866666Y-83016772D02*
X168866666Y-83731058D01*
X168866666Y-83731058D02*
X168819047Y-83873915D01*
X168819047Y-83873915D02*
X168723809Y-83969153D01*
X168723809Y-83969153D02*
X168580952Y-84016772D01*
X168580952Y-84016772D02*
X168485714Y-84016772D01*
X169390476Y-84016772D02*
X169580952Y-84016772D01*
X169580952Y-84016772D02*
X169676190Y-83969153D01*
X169676190Y-83969153D02*
X169723809Y-83921534D01*
X169723809Y-83921534D02*
X169819047Y-83778677D01*
X169819047Y-83778677D02*
X169866666Y-83588201D01*
X169866666Y-83588201D02*
X169866666Y-83207249D01*
X169866666Y-83207249D02*
X169819047Y-83112011D01*
X169819047Y-83112011D02*
X169771428Y-83064392D01*
X169771428Y-83064392D02*
X169676190Y-83016772D01*
X169676190Y-83016772D02*
X169485714Y-83016772D01*
X169485714Y-83016772D02*
X169390476Y-83064392D01*
X169390476Y-83064392D02*
X169342857Y-83112011D01*
X169342857Y-83112011D02*
X169295238Y-83207249D01*
X169295238Y-83207249D02*
X169295238Y-83445344D01*
X169295238Y-83445344D02*
X169342857Y-83540582D01*
X169342857Y-83540582D02*
X169390476Y-83588201D01*
X169390476Y-83588201D02*
X169485714Y-83635820D01*
X169485714Y-83635820D02*
X169676190Y-83635820D01*
X169676190Y-83635820D02*
X169771428Y-83588201D01*
X169771428Y-83588201D02*
X169819047Y-83540582D01*
X169819047Y-83540582D02*
X169866666Y-83445344D01*
%TO.C,C10*%
X122957142Y-90772142D02*
X122909523Y-90819761D01*
X122909523Y-90819761D02*
X122766666Y-90867380D01*
X122766666Y-90867380D02*
X122671428Y-90867380D01*
X122671428Y-90867380D02*
X122528571Y-90819761D01*
X122528571Y-90819761D02*
X122433333Y-90724523D01*
X122433333Y-90724523D02*
X122385714Y-90629285D01*
X122385714Y-90629285D02*
X122338095Y-90438809D01*
X122338095Y-90438809D02*
X122338095Y-90295952D01*
X122338095Y-90295952D02*
X122385714Y-90105476D01*
X122385714Y-90105476D02*
X122433333Y-90010238D01*
X122433333Y-90010238D02*
X122528571Y-89915000D01*
X122528571Y-89915000D02*
X122671428Y-89867380D01*
X122671428Y-89867380D02*
X122766666Y-89867380D01*
X122766666Y-89867380D02*
X122909523Y-89915000D01*
X122909523Y-89915000D02*
X122957142Y-89962619D01*
X123909523Y-90867380D02*
X123338095Y-90867380D01*
X123623809Y-90867380D02*
X123623809Y-89867380D01*
X123623809Y-89867380D02*
X123528571Y-90010238D01*
X123528571Y-90010238D02*
X123433333Y-90105476D01*
X123433333Y-90105476D02*
X123338095Y-90153095D01*
X124528571Y-89867380D02*
X124623809Y-89867380D01*
X124623809Y-89867380D02*
X124719047Y-89915000D01*
X124719047Y-89915000D02*
X124766666Y-89962619D01*
X124766666Y-89962619D02*
X124814285Y-90057857D01*
X124814285Y-90057857D02*
X124861904Y-90248333D01*
X124861904Y-90248333D02*
X124861904Y-90486428D01*
X124861904Y-90486428D02*
X124814285Y-90676904D01*
X124814285Y-90676904D02*
X124766666Y-90772142D01*
X124766666Y-90772142D02*
X124719047Y-90819761D01*
X124719047Y-90819761D02*
X124623809Y-90867380D01*
X124623809Y-90867380D02*
X124528571Y-90867380D01*
X124528571Y-90867380D02*
X124433333Y-90819761D01*
X124433333Y-90819761D02*
X124385714Y-90772142D01*
X124385714Y-90772142D02*
X124338095Y-90676904D01*
X124338095Y-90676904D02*
X124290476Y-90486428D01*
X124290476Y-90486428D02*
X124290476Y-90248333D01*
X124290476Y-90248333D02*
X124338095Y-90057857D01*
X124338095Y-90057857D02*
X124385714Y-89962619D01*
X124385714Y-89962619D02*
X124433333Y-89915000D01*
X124433333Y-89915000D02*
X124528571Y-89867380D01*
%TO.C,J8*%
X168666666Y-87617380D02*
X168666666Y-88331666D01*
X168666666Y-88331666D02*
X168619047Y-88474523D01*
X168619047Y-88474523D02*
X168523809Y-88569761D01*
X168523809Y-88569761D02*
X168380952Y-88617380D01*
X168380952Y-88617380D02*
X168285714Y-88617380D01*
X169285714Y-88045952D02*
X169190476Y-87998333D01*
X169190476Y-87998333D02*
X169142857Y-87950714D01*
X169142857Y-87950714D02*
X169095238Y-87855476D01*
X169095238Y-87855476D02*
X169095238Y-87807857D01*
X169095238Y-87807857D02*
X169142857Y-87712619D01*
X169142857Y-87712619D02*
X169190476Y-87665000D01*
X169190476Y-87665000D02*
X169285714Y-87617380D01*
X169285714Y-87617380D02*
X169476190Y-87617380D01*
X169476190Y-87617380D02*
X169571428Y-87665000D01*
X169571428Y-87665000D02*
X169619047Y-87712619D01*
X169619047Y-87712619D02*
X169666666Y-87807857D01*
X169666666Y-87807857D02*
X169666666Y-87855476D01*
X169666666Y-87855476D02*
X169619047Y-87950714D01*
X169619047Y-87950714D02*
X169571428Y-87998333D01*
X169571428Y-87998333D02*
X169476190Y-88045952D01*
X169476190Y-88045952D02*
X169285714Y-88045952D01*
X169285714Y-88045952D02*
X169190476Y-88093571D01*
X169190476Y-88093571D02*
X169142857Y-88141190D01*
X169142857Y-88141190D02*
X169095238Y-88236428D01*
X169095238Y-88236428D02*
X169095238Y-88426904D01*
X169095238Y-88426904D02*
X169142857Y-88522142D01*
X169142857Y-88522142D02*
X169190476Y-88569761D01*
X169190476Y-88569761D02*
X169285714Y-88617380D01*
X169285714Y-88617380D02*
X169476190Y-88617380D01*
X169476190Y-88617380D02*
X169571428Y-88569761D01*
X169571428Y-88569761D02*
X169619047Y-88522142D01*
X169619047Y-88522142D02*
X169666666Y-88426904D01*
X169666666Y-88426904D02*
X169666666Y-88236428D01*
X169666666Y-88236428D02*
X169619047Y-88141190D01*
X169619047Y-88141190D02*
X169571428Y-88093571D01*
X169571428Y-88093571D02*
X169476190Y-88045952D01*
%TO.C,U2*%
X145738095Y-95667380D02*
X145738095Y-96476904D01*
X145738095Y-96476904D02*
X145785714Y-96572142D01*
X145785714Y-96572142D02*
X145833333Y-96619761D01*
X145833333Y-96619761D02*
X145928571Y-96667380D01*
X145928571Y-96667380D02*
X146119047Y-96667380D01*
X146119047Y-96667380D02*
X146214285Y-96619761D01*
X146214285Y-96619761D02*
X146261904Y-96572142D01*
X146261904Y-96572142D02*
X146309523Y-96476904D01*
X146309523Y-96476904D02*
X146309523Y-95667380D01*
X146738095Y-95762619D02*
X146785714Y-95715000D01*
X146785714Y-95715000D02*
X146880952Y-95667380D01*
X146880952Y-95667380D02*
X147119047Y-95667380D01*
X147119047Y-95667380D02*
X147214285Y-95715000D01*
X147214285Y-95715000D02*
X147261904Y-95762619D01*
X147261904Y-95762619D02*
X147309523Y-95857857D01*
X147309523Y-95857857D02*
X147309523Y-95953095D01*
X147309523Y-95953095D02*
X147261904Y-96095952D01*
X147261904Y-96095952D02*
X146690476Y-96667380D01*
X146690476Y-96667380D02*
X147309523Y-96667380D01*
%TO.C,J11*%
X167190476Y-114567380D02*
X167190476Y-115281666D01*
X167190476Y-115281666D02*
X167142857Y-115424523D01*
X167142857Y-115424523D02*
X167047619Y-115519761D01*
X167047619Y-115519761D02*
X166904762Y-115567380D01*
X166904762Y-115567380D02*
X166809524Y-115567380D01*
X168190476Y-115567380D02*
X167619048Y-115567380D01*
X167904762Y-115567380D02*
X167904762Y-114567380D01*
X167904762Y-114567380D02*
X167809524Y-114710238D01*
X167809524Y-114710238D02*
X167714286Y-114805476D01*
X167714286Y-114805476D02*
X167619048Y-114853095D01*
X169142857Y-115567380D02*
X168571429Y-115567380D01*
X168857143Y-115567380D02*
X168857143Y-114567380D01*
X168857143Y-114567380D02*
X168761905Y-114710238D01*
X168761905Y-114710238D02*
X168666667Y-114805476D01*
X168666667Y-114805476D02*
X168571429Y-114853095D01*
%TO.C,R10*%
X131057142Y-90867380D02*
X130723809Y-90391190D01*
X130485714Y-90867380D02*
X130485714Y-89867380D01*
X130485714Y-89867380D02*
X130866666Y-89867380D01*
X130866666Y-89867380D02*
X130961904Y-89915000D01*
X130961904Y-89915000D02*
X131009523Y-89962619D01*
X131009523Y-89962619D02*
X131057142Y-90057857D01*
X131057142Y-90057857D02*
X131057142Y-90200714D01*
X131057142Y-90200714D02*
X131009523Y-90295952D01*
X131009523Y-90295952D02*
X130961904Y-90343571D01*
X130961904Y-90343571D02*
X130866666Y-90391190D01*
X130866666Y-90391190D02*
X130485714Y-90391190D01*
X132009523Y-90867380D02*
X131438095Y-90867380D01*
X131723809Y-90867380D02*
X131723809Y-89867380D01*
X131723809Y-89867380D02*
X131628571Y-90010238D01*
X131628571Y-90010238D02*
X131533333Y-90105476D01*
X131533333Y-90105476D02*
X131438095Y-90153095D01*
X132628571Y-89867380D02*
X132723809Y-89867380D01*
X132723809Y-89867380D02*
X132819047Y-89915000D01*
X132819047Y-89915000D02*
X132866666Y-89962619D01*
X132866666Y-89962619D02*
X132914285Y-90057857D01*
X132914285Y-90057857D02*
X132961904Y-90248333D01*
X132961904Y-90248333D02*
X132961904Y-90486428D01*
X132961904Y-90486428D02*
X132914285Y-90676904D01*
X132914285Y-90676904D02*
X132866666Y-90772142D01*
X132866666Y-90772142D02*
X132819047Y-90819761D01*
X132819047Y-90819761D02*
X132723809Y-90867380D01*
X132723809Y-90867380D02*
X132628571Y-90867380D01*
X132628571Y-90867380D02*
X132533333Y-90819761D01*
X132533333Y-90819761D02*
X132485714Y-90772142D01*
X132485714Y-90772142D02*
X132438095Y-90676904D01*
X132438095Y-90676904D02*
X132390476Y-90486428D01*
X132390476Y-90486428D02*
X132390476Y-90248333D01*
X132390476Y-90248333D02*
X132438095Y-90057857D01*
X132438095Y-90057857D02*
X132485714Y-89962619D01*
X132485714Y-89962619D02*
X132533333Y-89915000D01*
X132533333Y-89915000D02*
X132628571Y-89867380D01*
%TO.C,D1*%
X145361905Y-86767380D02*
X145361905Y-85767380D01*
X145361905Y-85767380D02*
X145600000Y-85767380D01*
X145600000Y-85767380D02*
X145742857Y-85815000D01*
X145742857Y-85815000D02*
X145838095Y-85910238D01*
X145838095Y-85910238D02*
X145885714Y-86005476D01*
X145885714Y-86005476D02*
X145933333Y-86195952D01*
X145933333Y-86195952D02*
X145933333Y-86338809D01*
X145933333Y-86338809D02*
X145885714Y-86529285D01*
X145885714Y-86529285D02*
X145838095Y-86624523D01*
X145838095Y-86624523D02*
X145742857Y-86719761D01*
X145742857Y-86719761D02*
X145600000Y-86767380D01*
X145600000Y-86767380D02*
X145361905Y-86767380D01*
X146885714Y-86767380D02*
X146314286Y-86767380D01*
X146600000Y-86767380D02*
X146600000Y-85767380D01*
X146600000Y-85767380D02*
X146504762Y-85910238D01*
X146504762Y-85910238D02*
X146409524Y-86005476D01*
X146409524Y-86005476D02*
X146314286Y-86053095D01*
D11*
%TO.C,C22*%
X149185714Y-100917714D02*
X149147618Y-100955809D01*
X149147618Y-100955809D02*
X149033333Y-100993904D01*
X149033333Y-100993904D02*
X148957142Y-100993904D01*
X148957142Y-100993904D02*
X148842856Y-100955809D01*
X148842856Y-100955809D02*
X148766666Y-100879619D01*
X148766666Y-100879619D02*
X148728571Y-100803428D01*
X148728571Y-100803428D02*
X148690475Y-100651047D01*
X148690475Y-100651047D02*
X148690475Y-100536761D01*
X148690475Y-100536761D02*
X148728571Y-100384380D01*
X148728571Y-100384380D02*
X148766666Y-100308190D01*
X148766666Y-100308190D02*
X148842856Y-100232000D01*
X148842856Y-100232000D02*
X148957142Y-100193904D01*
X148957142Y-100193904D02*
X149033333Y-100193904D01*
X149033333Y-100193904D02*
X149147618Y-100232000D01*
X149147618Y-100232000D02*
X149185714Y-100270095D01*
X149490475Y-100270095D02*
X149528571Y-100232000D01*
X149528571Y-100232000D02*
X149604761Y-100193904D01*
X149604761Y-100193904D02*
X149795237Y-100193904D01*
X149795237Y-100193904D02*
X149871428Y-100232000D01*
X149871428Y-100232000D02*
X149909523Y-100270095D01*
X149909523Y-100270095D02*
X149947618Y-100346285D01*
X149947618Y-100346285D02*
X149947618Y-100422476D01*
X149947618Y-100422476D02*
X149909523Y-100536761D01*
X149909523Y-100536761D02*
X149452380Y-100993904D01*
X149452380Y-100993904D02*
X149947618Y-100993904D01*
X150252380Y-100270095D02*
X150290476Y-100232000D01*
X150290476Y-100232000D02*
X150366666Y-100193904D01*
X150366666Y-100193904D02*
X150557142Y-100193904D01*
X150557142Y-100193904D02*
X150633333Y-100232000D01*
X150633333Y-100232000D02*
X150671428Y-100270095D01*
X150671428Y-100270095D02*
X150709523Y-100346285D01*
X150709523Y-100346285D02*
X150709523Y-100422476D01*
X150709523Y-100422476D02*
X150671428Y-100536761D01*
X150671428Y-100536761D02*
X150214285Y-100993904D01*
X150214285Y-100993904D02*
X150709523Y-100993904D01*
D10*
%TO.C,C9*%
X165333333Y-94272142D02*
X165285714Y-94319761D01*
X165285714Y-94319761D02*
X165142857Y-94367380D01*
X165142857Y-94367380D02*
X165047619Y-94367380D01*
X165047619Y-94367380D02*
X164904762Y-94319761D01*
X164904762Y-94319761D02*
X164809524Y-94224523D01*
X164809524Y-94224523D02*
X164761905Y-94129285D01*
X164761905Y-94129285D02*
X164714286Y-93938809D01*
X164714286Y-93938809D02*
X164714286Y-93795952D01*
X164714286Y-93795952D02*
X164761905Y-93605476D01*
X164761905Y-93605476D02*
X164809524Y-93510238D01*
X164809524Y-93510238D02*
X164904762Y-93415000D01*
X164904762Y-93415000D02*
X165047619Y-93367380D01*
X165047619Y-93367380D02*
X165142857Y-93367380D01*
X165142857Y-93367380D02*
X165285714Y-93415000D01*
X165285714Y-93415000D02*
X165333333Y-93462619D01*
X165809524Y-94367380D02*
X166000000Y-94367380D01*
X166000000Y-94367380D02*
X166095238Y-94319761D01*
X166095238Y-94319761D02*
X166142857Y-94272142D01*
X166142857Y-94272142D02*
X166238095Y-94129285D01*
X166238095Y-94129285D02*
X166285714Y-93938809D01*
X166285714Y-93938809D02*
X166285714Y-93557857D01*
X166285714Y-93557857D02*
X166238095Y-93462619D01*
X166238095Y-93462619D02*
X166190476Y-93415000D01*
X166190476Y-93415000D02*
X166095238Y-93367380D01*
X166095238Y-93367380D02*
X165904762Y-93367380D01*
X165904762Y-93367380D02*
X165809524Y-93415000D01*
X165809524Y-93415000D02*
X165761905Y-93462619D01*
X165761905Y-93462619D02*
X165714286Y-93557857D01*
X165714286Y-93557857D02*
X165714286Y-93795952D01*
X165714286Y-93795952D02*
X165761905Y-93891190D01*
X165761905Y-93891190D02*
X165809524Y-93938809D01*
X165809524Y-93938809D02*
X165904762Y-93986428D01*
X165904762Y-93986428D02*
X166095238Y-93986428D01*
X166095238Y-93986428D02*
X166190476Y-93938809D01*
X166190476Y-93938809D02*
X166238095Y-93891190D01*
X166238095Y-93891190D02*
X166285714Y-93795952D01*
%TO.C,C19*%
X164607142Y-89772142D02*
X164559523Y-89819761D01*
X164559523Y-89819761D02*
X164416666Y-89867380D01*
X164416666Y-89867380D02*
X164321428Y-89867380D01*
X164321428Y-89867380D02*
X164178571Y-89819761D01*
X164178571Y-89819761D02*
X164083333Y-89724523D01*
X164083333Y-89724523D02*
X164035714Y-89629285D01*
X164035714Y-89629285D02*
X163988095Y-89438809D01*
X163988095Y-89438809D02*
X163988095Y-89295952D01*
X163988095Y-89295952D02*
X164035714Y-89105476D01*
X164035714Y-89105476D02*
X164083333Y-89010238D01*
X164083333Y-89010238D02*
X164178571Y-88915000D01*
X164178571Y-88915000D02*
X164321428Y-88867380D01*
X164321428Y-88867380D02*
X164416666Y-88867380D01*
X164416666Y-88867380D02*
X164559523Y-88915000D01*
X164559523Y-88915000D02*
X164607142Y-88962619D01*
X165559523Y-89867380D02*
X164988095Y-89867380D01*
X165273809Y-89867380D02*
X165273809Y-88867380D01*
X165273809Y-88867380D02*
X165178571Y-89010238D01*
X165178571Y-89010238D02*
X165083333Y-89105476D01*
X165083333Y-89105476D02*
X164988095Y-89153095D01*
X166035714Y-89867380D02*
X166226190Y-89867380D01*
X166226190Y-89867380D02*
X166321428Y-89819761D01*
X166321428Y-89819761D02*
X166369047Y-89772142D01*
X166369047Y-89772142D02*
X166464285Y-89629285D01*
X166464285Y-89629285D02*
X166511904Y-89438809D01*
X166511904Y-89438809D02*
X166511904Y-89057857D01*
X166511904Y-89057857D02*
X166464285Y-88962619D01*
X166464285Y-88962619D02*
X166416666Y-88915000D01*
X166416666Y-88915000D02*
X166321428Y-88867380D01*
X166321428Y-88867380D02*
X166130952Y-88867380D01*
X166130952Y-88867380D02*
X166035714Y-88915000D01*
X166035714Y-88915000D02*
X165988095Y-88962619D01*
X165988095Y-88962619D02*
X165940476Y-89057857D01*
X165940476Y-89057857D02*
X165940476Y-89295952D01*
X165940476Y-89295952D02*
X165988095Y-89391190D01*
X165988095Y-89391190D02*
X166035714Y-89438809D01*
X166035714Y-89438809D02*
X166130952Y-89486428D01*
X166130952Y-89486428D02*
X166321428Y-89486428D01*
X166321428Y-89486428D02*
X166416666Y-89438809D01*
X166416666Y-89438809D02*
X166464285Y-89391190D01*
X166464285Y-89391190D02*
X166511904Y-89295952D01*
%TO.C,J1*%
X153696666Y-89567380D02*
X153696666Y-90281666D01*
X153696666Y-90281666D02*
X153649047Y-90424523D01*
X153649047Y-90424523D02*
X153553809Y-90519761D01*
X153553809Y-90519761D02*
X153410952Y-90567380D01*
X153410952Y-90567380D02*
X153315714Y-90567380D01*
X154696666Y-90567380D02*
X154125238Y-90567380D01*
X154410952Y-90567380D02*
X154410952Y-89567380D01*
X154410952Y-89567380D02*
X154315714Y-89710238D01*
X154315714Y-89710238D02*
X154220476Y-89805476D01*
X154220476Y-89805476D02*
X154125238Y-89853095D01*
%TO.C,C12*%
X155572142Y-93442857D02*
X155619761Y-93490476D01*
X155619761Y-93490476D02*
X155667380Y-93633333D01*
X155667380Y-93633333D02*
X155667380Y-93728571D01*
X155667380Y-93728571D02*
X155619761Y-93871428D01*
X155619761Y-93871428D02*
X155524523Y-93966666D01*
X155524523Y-93966666D02*
X155429285Y-94014285D01*
X155429285Y-94014285D02*
X155238809Y-94061904D01*
X155238809Y-94061904D02*
X155095952Y-94061904D01*
X155095952Y-94061904D02*
X154905476Y-94014285D01*
X154905476Y-94014285D02*
X154810238Y-93966666D01*
X154810238Y-93966666D02*
X154715000Y-93871428D01*
X154715000Y-93871428D02*
X154667380Y-93728571D01*
X154667380Y-93728571D02*
X154667380Y-93633333D01*
X154667380Y-93633333D02*
X154715000Y-93490476D01*
X154715000Y-93490476D02*
X154762619Y-93442857D01*
X155667380Y-92490476D02*
X155667380Y-93061904D01*
X155667380Y-92776190D02*
X154667380Y-92776190D01*
X154667380Y-92776190D02*
X154810238Y-92871428D01*
X154810238Y-92871428D02*
X154905476Y-92966666D01*
X154905476Y-92966666D02*
X154953095Y-93061904D01*
X154762619Y-92109523D02*
X154715000Y-92061904D01*
X154715000Y-92061904D02*
X154667380Y-91966666D01*
X154667380Y-91966666D02*
X154667380Y-91728571D01*
X154667380Y-91728571D02*
X154715000Y-91633333D01*
X154715000Y-91633333D02*
X154762619Y-91585714D01*
X154762619Y-91585714D02*
X154857857Y-91538095D01*
X154857857Y-91538095D02*
X154953095Y-91538095D01*
X154953095Y-91538095D02*
X155095952Y-91585714D01*
X155095952Y-91585714D02*
X155667380Y-92157142D01*
X155667380Y-92157142D02*
X155667380Y-91538095D01*
%TO.C,R12*%
X131057142Y-96667380D02*
X130723809Y-96191190D01*
X130485714Y-96667380D02*
X130485714Y-95667380D01*
X130485714Y-95667380D02*
X130866666Y-95667380D01*
X130866666Y-95667380D02*
X130961904Y-95715000D01*
X130961904Y-95715000D02*
X131009523Y-95762619D01*
X131009523Y-95762619D02*
X131057142Y-95857857D01*
X131057142Y-95857857D02*
X131057142Y-96000714D01*
X131057142Y-96000714D02*
X131009523Y-96095952D01*
X131009523Y-96095952D02*
X130961904Y-96143571D01*
X130961904Y-96143571D02*
X130866666Y-96191190D01*
X130866666Y-96191190D02*
X130485714Y-96191190D01*
X132009523Y-96667380D02*
X131438095Y-96667380D01*
X131723809Y-96667380D02*
X131723809Y-95667380D01*
X131723809Y-95667380D02*
X131628571Y-95810238D01*
X131628571Y-95810238D02*
X131533333Y-95905476D01*
X131533333Y-95905476D02*
X131438095Y-95953095D01*
X132390476Y-95762619D02*
X132438095Y-95715000D01*
X132438095Y-95715000D02*
X132533333Y-95667380D01*
X132533333Y-95667380D02*
X132771428Y-95667380D01*
X132771428Y-95667380D02*
X132866666Y-95715000D01*
X132866666Y-95715000D02*
X132914285Y-95762619D01*
X132914285Y-95762619D02*
X132961904Y-95857857D01*
X132961904Y-95857857D02*
X132961904Y-95953095D01*
X132961904Y-95953095D02*
X132914285Y-96095952D01*
X132914285Y-96095952D02*
X132342857Y-96667380D01*
X132342857Y-96667380D02*
X132961904Y-96667380D01*
%TO.C,JP1*%
X131367380Y-102733333D02*
X132081666Y-102733333D01*
X132081666Y-102733333D02*
X132224523Y-102780952D01*
X132224523Y-102780952D02*
X132319761Y-102876190D01*
X132319761Y-102876190D02*
X132367380Y-103019047D01*
X132367380Y-103019047D02*
X132367380Y-103114285D01*
X132367380Y-102257142D02*
X131367380Y-102257142D01*
X131367380Y-102257142D02*
X131367380Y-101876190D01*
X131367380Y-101876190D02*
X131415000Y-101780952D01*
X131415000Y-101780952D02*
X131462619Y-101733333D01*
X131462619Y-101733333D02*
X131557857Y-101685714D01*
X131557857Y-101685714D02*
X131700714Y-101685714D01*
X131700714Y-101685714D02*
X131795952Y-101733333D01*
X131795952Y-101733333D02*
X131843571Y-101780952D01*
X131843571Y-101780952D02*
X131891190Y-101876190D01*
X131891190Y-101876190D02*
X131891190Y-102257142D01*
X132367380Y-100733333D02*
X132367380Y-101304761D01*
X132367380Y-101019047D02*
X131367380Y-101019047D01*
X131367380Y-101019047D02*
X131510238Y-101114285D01*
X131510238Y-101114285D02*
X131605476Y-101209523D01*
X131605476Y-101209523D02*
X131653095Y-101304761D01*
X134067380Y-99014285D02*
X134067380Y-99585713D01*
X134067380Y-99299999D02*
X133067380Y-99299999D01*
X133067380Y-99299999D02*
X133210238Y-99395237D01*
X133210238Y-99395237D02*
X133305476Y-99490475D01*
X133305476Y-99490475D02*
X133353095Y-99585713D01*
X133067380Y-104833332D02*
X133067380Y-104214285D01*
X133067380Y-104214285D02*
X133448333Y-104547618D01*
X133448333Y-104547618D02*
X133448333Y-104404761D01*
X133448333Y-104404761D02*
X133495952Y-104309523D01*
X133495952Y-104309523D02*
X133543571Y-104261904D01*
X133543571Y-104261904D02*
X133638809Y-104214285D01*
X133638809Y-104214285D02*
X133876904Y-104214285D01*
X133876904Y-104214285D02*
X133972142Y-104261904D01*
X133972142Y-104261904D02*
X134019761Y-104309523D01*
X134019761Y-104309523D02*
X134067380Y-104404761D01*
X134067380Y-104404761D02*
X134067380Y-104690475D01*
X134067380Y-104690475D02*
X134019761Y-104785713D01*
X134019761Y-104785713D02*
X133972142Y-104833332D01*
%TO.C,C27*%
X164107142Y-107772142D02*
X164059523Y-107819761D01*
X164059523Y-107819761D02*
X163916666Y-107867380D01*
X163916666Y-107867380D02*
X163821428Y-107867380D01*
X163821428Y-107867380D02*
X163678571Y-107819761D01*
X163678571Y-107819761D02*
X163583333Y-107724523D01*
X163583333Y-107724523D02*
X163535714Y-107629285D01*
X163535714Y-107629285D02*
X163488095Y-107438809D01*
X163488095Y-107438809D02*
X163488095Y-107295952D01*
X163488095Y-107295952D02*
X163535714Y-107105476D01*
X163535714Y-107105476D02*
X163583333Y-107010238D01*
X163583333Y-107010238D02*
X163678571Y-106915000D01*
X163678571Y-106915000D02*
X163821428Y-106867380D01*
X163821428Y-106867380D02*
X163916666Y-106867380D01*
X163916666Y-106867380D02*
X164059523Y-106915000D01*
X164059523Y-106915000D02*
X164107142Y-106962619D01*
X164488095Y-106962619D02*
X164535714Y-106915000D01*
X164535714Y-106915000D02*
X164630952Y-106867380D01*
X164630952Y-106867380D02*
X164869047Y-106867380D01*
X164869047Y-106867380D02*
X164964285Y-106915000D01*
X164964285Y-106915000D02*
X165011904Y-106962619D01*
X165011904Y-106962619D02*
X165059523Y-107057857D01*
X165059523Y-107057857D02*
X165059523Y-107153095D01*
X165059523Y-107153095D02*
X165011904Y-107295952D01*
X165011904Y-107295952D02*
X164440476Y-107867380D01*
X164440476Y-107867380D02*
X165059523Y-107867380D01*
X165392857Y-106867380D02*
X166059523Y-106867380D01*
X166059523Y-106867380D02*
X165630952Y-107867380D01*
%TO.C,C24*%
X163857142Y-121272142D02*
X163809523Y-121319761D01*
X163809523Y-121319761D02*
X163666666Y-121367380D01*
X163666666Y-121367380D02*
X163571428Y-121367380D01*
X163571428Y-121367380D02*
X163428571Y-121319761D01*
X163428571Y-121319761D02*
X163333333Y-121224523D01*
X163333333Y-121224523D02*
X163285714Y-121129285D01*
X163285714Y-121129285D02*
X163238095Y-120938809D01*
X163238095Y-120938809D02*
X163238095Y-120795952D01*
X163238095Y-120795952D02*
X163285714Y-120605476D01*
X163285714Y-120605476D02*
X163333333Y-120510238D01*
X163333333Y-120510238D02*
X163428571Y-120415000D01*
X163428571Y-120415000D02*
X163571428Y-120367380D01*
X163571428Y-120367380D02*
X163666666Y-120367380D01*
X163666666Y-120367380D02*
X163809523Y-120415000D01*
X163809523Y-120415000D02*
X163857142Y-120462619D01*
X164238095Y-120462619D02*
X164285714Y-120415000D01*
X164285714Y-120415000D02*
X164380952Y-120367380D01*
X164380952Y-120367380D02*
X164619047Y-120367380D01*
X164619047Y-120367380D02*
X164714285Y-120415000D01*
X164714285Y-120415000D02*
X164761904Y-120462619D01*
X164761904Y-120462619D02*
X164809523Y-120557857D01*
X164809523Y-120557857D02*
X164809523Y-120653095D01*
X164809523Y-120653095D02*
X164761904Y-120795952D01*
X164761904Y-120795952D02*
X164190476Y-121367380D01*
X164190476Y-121367380D02*
X164809523Y-121367380D01*
X165666666Y-120700714D02*
X165666666Y-121367380D01*
X165428571Y-120319761D02*
X165190476Y-121034047D01*
X165190476Y-121034047D02*
X165809523Y-121034047D01*
%TO.C,U1*%
X147238095Y-85467380D02*
X147238095Y-86276904D01*
X147238095Y-86276904D02*
X147285714Y-86372142D01*
X147285714Y-86372142D02*
X147333333Y-86419761D01*
X147333333Y-86419761D02*
X147428571Y-86467380D01*
X147428571Y-86467380D02*
X147619047Y-86467380D01*
X147619047Y-86467380D02*
X147714285Y-86419761D01*
X147714285Y-86419761D02*
X147761904Y-86372142D01*
X147761904Y-86372142D02*
X147809523Y-86276904D01*
X147809523Y-86276904D02*
X147809523Y-85467380D01*
X148809523Y-86467380D02*
X148238095Y-86467380D01*
X148523809Y-86467380D02*
X148523809Y-85467380D01*
X148523809Y-85467380D02*
X148428571Y-85610238D01*
X148428571Y-85610238D02*
X148333333Y-85705476D01*
X148333333Y-85705476D02*
X148238095Y-85753095D01*
D11*
%TO.C,FB1*%
X137874857Y-80166666D02*
X137874857Y-80433332D01*
X138293904Y-80433332D02*
X137493904Y-80433332D01*
X137493904Y-80433332D02*
X137493904Y-80052380D01*
X137874857Y-79480952D02*
X137912952Y-79366666D01*
X137912952Y-79366666D02*
X137951047Y-79328571D01*
X137951047Y-79328571D02*
X138027238Y-79290475D01*
X138027238Y-79290475D02*
X138141523Y-79290475D01*
X138141523Y-79290475D02*
X138217714Y-79328571D01*
X138217714Y-79328571D02*
X138255809Y-79366666D01*
X138255809Y-79366666D02*
X138293904Y-79442856D01*
X138293904Y-79442856D02*
X138293904Y-79747618D01*
X138293904Y-79747618D02*
X137493904Y-79747618D01*
X137493904Y-79747618D02*
X137493904Y-79480952D01*
X137493904Y-79480952D02*
X137532000Y-79404761D01*
X137532000Y-79404761D02*
X137570095Y-79366666D01*
X137570095Y-79366666D02*
X137646285Y-79328571D01*
X137646285Y-79328571D02*
X137722476Y-79328571D01*
X137722476Y-79328571D02*
X137798666Y-79366666D01*
X137798666Y-79366666D02*
X137836761Y-79404761D01*
X137836761Y-79404761D02*
X137874857Y-79480952D01*
X137874857Y-79480952D02*
X137874857Y-79747618D01*
X138293904Y-78528571D02*
X138293904Y-78985714D01*
X138293904Y-78757142D02*
X137493904Y-78757142D01*
X137493904Y-78757142D02*
X137608190Y-78833333D01*
X137608190Y-78833333D02*
X137684380Y-78909523D01*
X137684380Y-78909523D02*
X137722476Y-78985714D01*
D10*
%TO.C,C26*%
X164107142Y-112272142D02*
X164059523Y-112319761D01*
X164059523Y-112319761D02*
X163916666Y-112367380D01*
X163916666Y-112367380D02*
X163821428Y-112367380D01*
X163821428Y-112367380D02*
X163678571Y-112319761D01*
X163678571Y-112319761D02*
X163583333Y-112224523D01*
X163583333Y-112224523D02*
X163535714Y-112129285D01*
X163535714Y-112129285D02*
X163488095Y-111938809D01*
X163488095Y-111938809D02*
X163488095Y-111795952D01*
X163488095Y-111795952D02*
X163535714Y-111605476D01*
X163535714Y-111605476D02*
X163583333Y-111510238D01*
X163583333Y-111510238D02*
X163678571Y-111415000D01*
X163678571Y-111415000D02*
X163821428Y-111367380D01*
X163821428Y-111367380D02*
X163916666Y-111367380D01*
X163916666Y-111367380D02*
X164059523Y-111415000D01*
X164059523Y-111415000D02*
X164107142Y-111462619D01*
X164488095Y-111462619D02*
X164535714Y-111415000D01*
X164535714Y-111415000D02*
X164630952Y-111367380D01*
X164630952Y-111367380D02*
X164869047Y-111367380D01*
X164869047Y-111367380D02*
X164964285Y-111415000D01*
X164964285Y-111415000D02*
X165011904Y-111462619D01*
X165011904Y-111462619D02*
X165059523Y-111557857D01*
X165059523Y-111557857D02*
X165059523Y-111653095D01*
X165059523Y-111653095D02*
X165011904Y-111795952D01*
X165011904Y-111795952D02*
X164440476Y-112367380D01*
X164440476Y-112367380D02*
X165059523Y-112367380D01*
X165916666Y-111367380D02*
X165726190Y-111367380D01*
X165726190Y-111367380D02*
X165630952Y-111415000D01*
X165630952Y-111415000D02*
X165583333Y-111462619D01*
X165583333Y-111462619D02*
X165488095Y-111605476D01*
X165488095Y-111605476D02*
X165440476Y-111795952D01*
X165440476Y-111795952D02*
X165440476Y-112176904D01*
X165440476Y-112176904D02*
X165488095Y-112272142D01*
X165488095Y-112272142D02*
X165535714Y-112319761D01*
X165535714Y-112319761D02*
X165630952Y-112367380D01*
X165630952Y-112367380D02*
X165821428Y-112367380D01*
X165821428Y-112367380D02*
X165916666Y-112319761D01*
X165916666Y-112319761D02*
X165964285Y-112272142D01*
X165964285Y-112272142D02*
X166011904Y-112176904D01*
X166011904Y-112176904D02*
X166011904Y-111938809D01*
X166011904Y-111938809D02*
X165964285Y-111843571D01*
X165964285Y-111843571D02*
X165916666Y-111795952D01*
X165916666Y-111795952D02*
X165821428Y-111748333D01*
X165821428Y-111748333D02*
X165630952Y-111748333D01*
X165630952Y-111748333D02*
X165535714Y-111795952D01*
X165535714Y-111795952D02*
X165488095Y-111843571D01*
X165488095Y-111843571D02*
X165440476Y-111938809D01*
%TO.C,C20*%
X164607142Y-85272142D02*
X164559523Y-85319761D01*
X164559523Y-85319761D02*
X164416666Y-85367380D01*
X164416666Y-85367380D02*
X164321428Y-85367380D01*
X164321428Y-85367380D02*
X164178571Y-85319761D01*
X164178571Y-85319761D02*
X164083333Y-85224523D01*
X164083333Y-85224523D02*
X164035714Y-85129285D01*
X164035714Y-85129285D02*
X163988095Y-84938809D01*
X163988095Y-84938809D02*
X163988095Y-84795952D01*
X163988095Y-84795952D02*
X164035714Y-84605476D01*
X164035714Y-84605476D02*
X164083333Y-84510238D01*
X164083333Y-84510238D02*
X164178571Y-84415000D01*
X164178571Y-84415000D02*
X164321428Y-84367380D01*
X164321428Y-84367380D02*
X164416666Y-84367380D01*
X164416666Y-84367380D02*
X164559523Y-84415000D01*
X164559523Y-84415000D02*
X164607142Y-84462619D01*
X164988095Y-84462619D02*
X165035714Y-84415000D01*
X165035714Y-84415000D02*
X165130952Y-84367380D01*
X165130952Y-84367380D02*
X165369047Y-84367380D01*
X165369047Y-84367380D02*
X165464285Y-84415000D01*
X165464285Y-84415000D02*
X165511904Y-84462619D01*
X165511904Y-84462619D02*
X165559523Y-84557857D01*
X165559523Y-84557857D02*
X165559523Y-84653095D01*
X165559523Y-84653095D02*
X165511904Y-84795952D01*
X165511904Y-84795952D02*
X164940476Y-85367380D01*
X164940476Y-85367380D02*
X165559523Y-85367380D01*
X166178571Y-84367380D02*
X166273809Y-84367380D01*
X166273809Y-84367380D02*
X166369047Y-84415000D01*
X166369047Y-84415000D02*
X166416666Y-84462619D01*
X166416666Y-84462619D02*
X166464285Y-84557857D01*
X166464285Y-84557857D02*
X166511904Y-84748333D01*
X166511904Y-84748333D02*
X166511904Y-84986428D01*
X166511904Y-84986428D02*
X166464285Y-85176904D01*
X166464285Y-85176904D02*
X166416666Y-85272142D01*
X166416666Y-85272142D02*
X166369047Y-85319761D01*
X166369047Y-85319761D02*
X166273809Y-85367380D01*
X166273809Y-85367380D02*
X166178571Y-85367380D01*
X166178571Y-85367380D02*
X166083333Y-85319761D01*
X166083333Y-85319761D02*
X166035714Y-85272142D01*
X166035714Y-85272142D02*
X165988095Y-85176904D01*
X165988095Y-85176904D02*
X165940476Y-84986428D01*
X165940476Y-84986428D02*
X165940476Y-84748333D01*
X165940476Y-84748333D02*
X165988095Y-84557857D01*
X165988095Y-84557857D02*
X166035714Y-84462619D01*
X166035714Y-84462619D02*
X166083333Y-84415000D01*
X166083333Y-84415000D02*
X166178571Y-84367380D01*
%TO.C,J13*%
X167290476Y-105617380D02*
X167290476Y-106331666D01*
X167290476Y-106331666D02*
X167242857Y-106474523D01*
X167242857Y-106474523D02*
X167147619Y-106569761D01*
X167147619Y-106569761D02*
X167004762Y-106617380D01*
X167004762Y-106617380D02*
X166909524Y-106617380D01*
X168290476Y-106617380D02*
X167719048Y-106617380D01*
X168004762Y-106617380D02*
X168004762Y-105617380D01*
X168004762Y-105617380D02*
X167909524Y-105760238D01*
X167909524Y-105760238D02*
X167814286Y-105855476D01*
X167814286Y-105855476D02*
X167719048Y-105903095D01*
X168623810Y-105617380D02*
X169242857Y-105617380D01*
X169242857Y-105617380D02*
X168909524Y-105998333D01*
X168909524Y-105998333D02*
X169052381Y-105998333D01*
X169052381Y-105998333D02*
X169147619Y-106045952D01*
X169147619Y-106045952D02*
X169195238Y-106093571D01*
X169195238Y-106093571D02*
X169242857Y-106188809D01*
X169242857Y-106188809D02*
X169242857Y-106426904D01*
X169242857Y-106426904D02*
X169195238Y-106522142D01*
X169195238Y-106522142D02*
X169147619Y-106569761D01*
X169147619Y-106569761D02*
X169052381Y-106617380D01*
X169052381Y-106617380D02*
X168766667Y-106617380D01*
X168766667Y-106617380D02*
X168671429Y-106569761D01*
X168671429Y-106569761D02*
X168623810Y-106522142D01*
%TO.C,T1*%
X126938095Y-89867380D02*
X127509523Y-89867380D01*
X127223809Y-90867380D02*
X127223809Y-89867380D01*
X128366666Y-90867380D02*
X127795238Y-90867380D01*
X128080952Y-90867380D02*
X128080952Y-89867380D01*
X128080952Y-89867380D02*
X127985714Y-90010238D01*
X127985714Y-90010238D02*
X127890476Y-90105476D01*
X127890476Y-90105476D02*
X127795238Y-90153095D01*
D11*
%TO.C,C23*%
X149185714Y-102017714D02*
X149147618Y-102055809D01*
X149147618Y-102055809D02*
X149033333Y-102093904D01*
X149033333Y-102093904D02*
X148957142Y-102093904D01*
X148957142Y-102093904D02*
X148842856Y-102055809D01*
X148842856Y-102055809D02*
X148766666Y-101979619D01*
X148766666Y-101979619D02*
X148728571Y-101903428D01*
X148728571Y-101903428D02*
X148690475Y-101751047D01*
X148690475Y-101751047D02*
X148690475Y-101636761D01*
X148690475Y-101636761D02*
X148728571Y-101484380D01*
X148728571Y-101484380D02*
X148766666Y-101408190D01*
X148766666Y-101408190D02*
X148842856Y-101332000D01*
X148842856Y-101332000D02*
X148957142Y-101293904D01*
X148957142Y-101293904D02*
X149033333Y-101293904D01*
X149033333Y-101293904D02*
X149147618Y-101332000D01*
X149147618Y-101332000D02*
X149185714Y-101370095D01*
X149490475Y-101370095D02*
X149528571Y-101332000D01*
X149528571Y-101332000D02*
X149604761Y-101293904D01*
X149604761Y-101293904D02*
X149795237Y-101293904D01*
X149795237Y-101293904D02*
X149871428Y-101332000D01*
X149871428Y-101332000D02*
X149909523Y-101370095D01*
X149909523Y-101370095D02*
X149947618Y-101446285D01*
X149947618Y-101446285D02*
X149947618Y-101522476D01*
X149947618Y-101522476D02*
X149909523Y-101636761D01*
X149909523Y-101636761D02*
X149452380Y-102093904D01*
X149452380Y-102093904D02*
X149947618Y-102093904D01*
X150214285Y-101293904D02*
X150709523Y-101293904D01*
X150709523Y-101293904D02*
X150442857Y-101598666D01*
X150442857Y-101598666D02*
X150557142Y-101598666D01*
X150557142Y-101598666D02*
X150633333Y-101636761D01*
X150633333Y-101636761D02*
X150671428Y-101674857D01*
X150671428Y-101674857D02*
X150709523Y-101751047D01*
X150709523Y-101751047D02*
X150709523Y-101941523D01*
X150709523Y-101941523D02*
X150671428Y-102017714D01*
X150671428Y-102017714D02*
X150633333Y-102055809D01*
X150633333Y-102055809D02*
X150557142Y-102093904D01*
X150557142Y-102093904D02*
X150328571Y-102093904D01*
X150328571Y-102093904D02*
X150252380Y-102055809D01*
X150252380Y-102055809D02*
X150214285Y-102017714D01*
D10*
%TO.C,J5*%
X168466666Y-96617380D02*
X168466666Y-97331666D01*
X168466666Y-97331666D02*
X168419047Y-97474523D01*
X168419047Y-97474523D02*
X168323809Y-97569761D01*
X168323809Y-97569761D02*
X168180952Y-97617380D01*
X168180952Y-97617380D02*
X168085714Y-97617380D01*
X169419047Y-96617380D02*
X168942857Y-96617380D01*
X168942857Y-96617380D02*
X168895238Y-97093571D01*
X168895238Y-97093571D02*
X168942857Y-97045952D01*
X168942857Y-97045952D02*
X169038095Y-96998333D01*
X169038095Y-96998333D02*
X169276190Y-96998333D01*
X169276190Y-96998333D02*
X169371428Y-97045952D01*
X169371428Y-97045952D02*
X169419047Y-97093571D01*
X169419047Y-97093571D02*
X169466666Y-97188809D01*
X169466666Y-97188809D02*
X169466666Y-97426904D01*
X169466666Y-97426904D02*
X169419047Y-97522142D01*
X169419047Y-97522142D02*
X169371428Y-97569761D01*
X169371428Y-97569761D02*
X169276190Y-97617380D01*
X169276190Y-97617380D02*
X169038095Y-97617380D01*
X169038095Y-97617380D02*
X168942857Y-97569761D01*
X168942857Y-97569761D02*
X168895238Y-97522142D01*
%TO.C,C14*%
X153472142Y-109342857D02*
X153519761Y-109390476D01*
X153519761Y-109390476D02*
X153567380Y-109533333D01*
X153567380Y-109533333D02*
X153567380Y-109628571D01*
X153567380Y-109628571D02*
X153519761Y-109771428D01*
X153519761Y-109771428D02*
X153424523Y-109866666D01*
X153424523Y-109866666D02*
X153329285Y-109914285D01*
X153329285Y-109914285D02*
X153138809Y-109961904D01*
X153138809Y-109961904D02*
X152995952Y-109961904D01*
X152995952Y-109961904D02*
X152805476Y-109914285D01*
X152805476Y-109914285D02*
X152710238Y-109866666D01*
X152710238Y-109866666D02*
X152615000Y-109771428D01*
X152615000Y-109771428D02*
X152567380Y-109628571D01*
X152567380Y-109628571D02*
X152567380Y-109533333D01*
X152567380Y-109533333D02*
X152615000Y-109390476D01*
X152615000Y-109390476D02*
X152662619Y-109342857D01*
X153567380Y-108390476D02*
X153567380Y-108961904D01*
X153567380Y-108676190D02*
X152567380Y-108676190D01*
X152567380Y-108676190D02*
X152710238Y-108771428D01*
X152710238Y-108771428D02*
X152805476Y-108866666D01*
X152805476Y-108866666D02*
X152853095Y-108961904D01*
X152900714Y-107533333D02*
X153567380Y-107533333D01*
X152519761Y-107771428D02*
X153234047Y-108009523D01*
X153234047Y-108009523D02*
X153234047Y-107390476D01*
%TO.C,C29*%
X164357142Y-103272142D02*
X164309523Y-103319761D01*
X164309523Y-103319761D02*
X164166666Y-103367380D01*
X164166666Y-103367380D02*
X164071428Y-103367380D01*
X164071428Y-103367380D02*
X163928571Y-103319761D01*
X163928571Y-103319761D02*
X163833333Y-103224523D01*
X163833333Y-103224523D02*
X163785714Y-103129285D01*
X163785714Y-103129285D02*
X163738095Y-102938809D01*
X163738095Y-102938809D02*
X163738095Y-102795952D01*
X163738095Y-102795952D02*
X163785714Y-102605476D01*
X163785714Y-102605476D02*
X163833333Y-102510238D01*
X163833333Y-102510238D02*
X163928571Y-102415000D01*
X163928571Y-102415000D02*
X164071428Y-102367380D01*
X164071428Y-102367380D02*
X164166666Y-102367380D01*
X164166666Y-102367380D02*
X164309523Y-102415000D01*
X164309523Y-102415000D02*
X164357142Y-102462619D01*
X164738095Y-102462619D02*
X164785714Y-102415000D01*
X164785714Y-102415000D02*
X164880952Y-102367380D01*
X164880952Y-102367380D02*
X165119047Y-102367380D01*
X165119047Y-102367380D02*
X165214285Y-102415000D01*
X165214285Y-102415000D02*
X165261904Y-102462619D01*
X165261904Y-102462619D02*
X165309523Y-102557857D01*
X165309523Y-102557857D02*
X165309523Y-102653095D01*
X165309523Y-102653095D02*
X165261904Y-102795952D01*
X165261904Y-102795952D02*
X164690476Y-103367380D01*
X164690476Y-103367380D02*
X165309523Y-103367380D01*
X165785714Y-103367380D02*
X165976190Y-103367380D01*
X165976190Y-103367380D02*
X166071428Y-103319761D01*
X166071428Y-103319761D02*
X166119047Y-103272142D01*
X166119047Y-103272142D02*
X166214285Y-103129285D01*
X166214285Y-103129285D02*
X166261904Y-102938809D01*
X166261904Y-102938809D02*
X166261904Y-102557857D01*
X166261904Y-102557857D02*
X166214285Y-102462619D01*
X166214285Y-102462619D02*
X166166666Y-102415000D01*
X166166666Y-102415000D02*
X166071428Y-102367380D01*
X166071428Y-102367380D02*
X165880952Y-102367380D01*
X165880952Y-102367380D02*
X165785714Y-102415000D01*
X165785714Y-102415000D02*
X165738095Y-102462619D01*
X165738095Y-102462619D02*
X165690476Y-102557857D01*
X165690476Y-102557857D02*
X165690476Y-102795952D01*
X165690476Y-102795952D02*
X165738095Y-102891190D01*
X165738095Y-102891190D02*
X165785714Y-102938809D01*
X165785714Y-102938809D02*
X165880952Y-102986428D01*
X165880952Y-102986428D02*
X166071428Y-102986428D01*
X166071428Y-102986428D02*
X166166666Y-102938809D01*
X166166666Y-102938809D02*
X166214285Y-102891190D01*
X166214285Y-102891190D02*
X166261904Y-102795952D01*
%TO.C,J15*%
X167490476Y-101117380D02*
X167490476Y-101831666D01*
X167490476Y-101831666D02*
X167442857Y-101974523D01*
X167442857Y-101974523D02*
X167347619Y-102069761D01*
X167347619Y-102069761D02*
X167204762Y-102117380D01*
X167204762Y-102117380D02*
X167109524Y-102117380D01*
X168490476Y-102117380D02*
X167919048Y-102117380D01*
X168204762Y-102117380D02*
X168204762Y-101117380D01*
X168204762Y-101117380D02*
X168109524Y-101260238D01*
X168109524Y-101260238D02*
X168014286Y-101355476D01*
X168014286Y-101355476D02*
X167919048Y-101403095D01*
X169395238Y-101117380D02*
X168919048Y-101117380D01*
X168919048Y-101117380D02*
X168871429Y-101593571D01*
X168871429Y-101593571D02*
X168919048Y-101545952D01*
X168919048Y-101545952D02*
X169014286Y-101498333D01*
X169014286Y-101498333D02*
X169252381Y-101498333D01*
X169252381Y-101498333D02*
X169347619Y-101545952D01*
X169347619Y-101545952D02*
X169395238Y-101593571D01*
X169395238Y-101593571D02*
X169442857Y-101688809D01*
X169442857Y-101688809D02*
X169442857Y-101926904D01*
X169442857Y-101926904D02*
X169395238Y-102022142D01*
X169395238Y-102022142D02*
X169347619Y-102069761D01*
X169347619Y-102069761D02*
X169252381Y-102117380D01*
X169252381Y-102117380D02*
X169014286Y-102117380D01*
X169014286Y-102117380D02*
X168919048Y-102069761D01*
X168919048Y-102069761D02*
X168871429Y-102022142D01*
D11*
%TO.C,C3*%
X137866667Y-84617714D02*
X137828571Y-84655809D01*
X137828571Y-84655809D02*
X137714286Y-84693904D01*
X137714286Y-84693904D02*
X137638095Y-84693904D01*
X137638095Y-84693904D02*
X137523809Y-84655809D01*
X137523809Y-84655809D02*
X137447619Y-84579619D01*
X137447619Y-84579619D02*
X137409524Y-84503428D01*
X137409524Y-84503428D02*
X137371428Y-84351047D01*
X137371428Y-84351047D02*
X137371428Y-84236761D01*
X137371428Y-84236761D02*
X137409524Y-84084380D01*
X137409524Y-84084380D02*
X137447619Y-84008190D01*
X137447619Y-84008190D02*
X137523809Y-83932000D01*
X137523809Y-83932000D02*
X137638095Y-83893904D01*
X137638095Y-83893904D02*
X137714286Y-83893904D01*
X137714286Y-83893904D02*
X137828571Y-83932000D01*
X137828571Y-83932000D02*
X137866667Y-83970095D01*
X138133333Y-83893904D02*
X138628571Y-83893904D01*
X138628571Y-83893904D02*
X138361905Y-84198666D01*
X138361905Y-84198666D02*
X138476190Y-84198666D01*
X138476190Y-84198666D02*
X138552381Y-84236761D01*
X138552381Y-84236761D02*
X138590476Y-84274857D01*
X138590476Y-84274857D02*
X138628571Y-84351047D01*
X138628571Y-84351047D02*
X138628571Y-84541523D01*
X138628571Y-84541523D02*
X138590476Y-84617714D01*
X138590476Y-84617714D02*
X138552381Y-84655809D01*
X138552381Y-84655809D02*
X138476190Y-84693904D01*
X138476190Y-84693904D02*
X138247619Y-84693904D01*
X138247619Y-84693904D02*
X138171428Y-84655809D01*
X138171428Y-84655809D02*
X138133333Y-84617714D01*
D10*
%TO.C,D2*%
X135761905Y-91167380D02*
X135761905Y-90167380D01*
X135761905Y-90167380D02*
X136000000Y-90167380D01*
X136000000Y-90167380D02*
X136142857Y-90215000D01*
X136142857Y-90215000D02*
X136238095Y-90310238D01*
X136238095Y-90310238D02*
X136285714Y-90405476D01*
X136285714Y-90405476D02*
X136333333Y-90595952D01*
X136333333Y-90595952D02*
X136333333Y-90738809D01*
X136333333Y-90738809D02*
X136285714Y-90929285D01*
X136285714Y-90929285D02*
X136238095Y-91024523D01*
X136238095Y-91024523D02*
X136142857Y-91119761D01*
X136142857Y-91119761D02*
X136000000Y-91167380D01*
X136000000Y-91167380D02*
X135761905Y-91167380D01*
X136714286Y-90262619D02*
X136761905Y-90215000D01*
X136761905Y-90215000D02*
X136857143Y-90167380D01*
X136857143Y-90167380D02*
X137095238Y-90167380D01*
X137095238Y-90167380D02*
X137190476Y-90215000D01*
X137190476Y-90215000D02*
X137238095Y-90262619D01*
X137238095Y-90262619D02*
X137285714Y-90357857D01*
X137285714Y-90357857D02*
X137285714Y-90453095D01*
X137285714Y-90453095D02*
X137238095Y-90595952D01*
X137238095Y-90595952D02*
X136666667Y-91167380D01*
X136666667Y-91167380D02*
X137285714Y-91167380D01*
%TO.C,JP2*%
X139267380Y-102633333D02*
X139981666Y-102633333D01*
X139981666Y-102633333D02*
X140124523Y-102680952D01*
X140124523Y-102680952D02*
X140219761Y-102776190D01*
X140219761Y-102776190D02*
X140267380Y-102919047D01*
X140267380Y-102919047D02*
X140267380Y-103014285D01*
X140267380Y-102157142D02*
X139267380Y-102157142D01*
X139267380Y-102157142D02*
X139267380Y-101776190D01*
X139267380Y-101776190D02*
X139315000Y-101680952D01*
X139315000Y-101680952D02*
X139362619Y-101633333D01*
X139362619Y-101633333D02*
X139457857Y-101585714D01*
X139457857Y-101585714D02*
X139600714Y-101585714D01*
X139600714Y-101585714D02*
X139695952Y-101633333D01*
X139695952Y-101633333D02*
X139743571Y-101680952D01*
X139743571Y-101680952D02*
X139791190Y-101776190D01*
X139791190Y-101776190D02*
X139791190Y-102157142D01*
X139362619Y-101204761D02*
X139315000Y-101157142D01*
X139315000Y-101157142D02*
X139267380Y-101061904D01*
X139267380Y-101061904D02*
X139267380Y-100823809D01*
X139267380Y-100823809D02*
X139315000Y-100728571D01*
X139315000Y-100728571D02*
X139362619Y-100680952D01*
X139362619Y-100680952D02*
X139457857Y-100633333D01*
X139457857Y-100633333D02*
X139553095Y-100633333D01*
X139553095Y-100633333D02*
X139695952Y-100680952D01*
X139695952Y-100680952D02*
X140267380Y-101252380D01*
X140267380Y-101252380D02*
X140267380Y-100633333D01*
X137267380Y-104833332D02*
X137267380Y-104214285D01*
X137267380Y-104214285D02*
X137648333Y-104547618D01*
X137648333Y-104547618D02*
X137648333Y-104404761D01*
X137648333Y-104404761D02*
X137695952Y-104309523D01*
X137695952Y-104309523D02*
X137743571Y-104261904D01*
X137743571Y-104261904D02*
X137838809Y-104214285D01*
X137838809Y-104214285D02*
X138076904Y-104214285D01*
X138076904Y-104214285D02*
X138172142Y-104261904D01*
X138172142Y-104261904D02*
X138219761Y-104309523D01*
X138219761Y-104309523D02*
X138267380Y-104404761D01*
X138267380Y-104404761D02*
X138267380Y-104690475D01*
X138267380Y-104690475D02*
X138219761Y-104785713D01*
X138219761Y-104785713D02*
X138172142Y-104833332D01*
X138267380Y-99014285D02*
X138267380Y-99585713D01*
X138267380Y-99299999D02*
X137267380Y-99299999D01*
X137267380Y-99299999D02*
X137410238Y-99395237D01*
X137410238Y-99395237D02*
X137505476Y-99490475D01*
X137505476Y-99490475D02*
X137553095Y-99585713D01*
%TO.C,J14*%
X167990476Y-78367380D02*
X167990476Y-79081666D01*
X167990476Y-79081666D02*
X167942857Y-79224523D01*
X167942857Y-79224523D02*
X167847619Y-79319761D01*
X167847619Y-79319761D02*
X167704762Y-79367380D01*
X167704762Y-79367380D02*
X167609524Y-79367380D01*
X168990476Y-79367380D02*
X168419048Y-79367380D01*
X168704762Y-79367380D02*
X168704762Y-78367380D01*
X168704762Y-78367380D02*
X168609524Y-78510238D01*
X168609524Y-78510238D02*
X168514286Y-78605476D01*
X168514286Y-78605476D02*
X168419048Y-78653095D01*
X169847619Y-78700714D02*
X169847619Y-79367380D01*
X169609524Y-78319761D02*
X169371429Y-79034047D01*
X169371429Y-79034047D02*
X169990476Y-79034047D01*
%TO.C,J6*%
X168566666Y-92117380D02*
X168566666Y-92831666D01*
X168566666Y-92831666D02*
X168519047Y-92974523D01*
X168519047Y-92974523D02*
X168423809Y-93069761D01*
X168423809Y-93069761D02*
X168280952Y-93117380D01*
X168280952Y-93117380D02*
X168185714Y-93117380D01*
X169471428Y-92117380D02*
X169280952Y-92117380D01*
X169280952Y-92117380D02*
X169185714Y-92165000D01*
X169185714Y-92165000D02*
X169138095Y-92212619D01*
X169138095Y-92212619D02*
X169042857Y-92355476D01*
X169042857Y-92355476D02*
X168995238Y-92545952D01*
X168995238Y-92545952D02*
X168995238Y-92926904D01*
X168995238Y-92926904D02*
X169042857Y-93022142D01*
X169042857Y-93022142D02*
X169090476Y-93069761D01*
X169090476Y-93069761D02*
X169185714Y-93117380D01*
X169185714Y-93117380D02*
X169376190Y-93117380D01*
X169376190Y-93117380D02*
X169471428Y-93069761D01*
X169471428Y-93069761D02*
X169519047Y-93022142D01*
X169519047Y-93022142D02*
X169566666Y-92926904D01*
X169566666Y-92926904D02*
X169566666Y-92688809D01*
X169566666Y-92688809D02*
X169519047Y-92593571D01*
X169519047Y-92593571D02*
X169471428Y-92545952D01*
X169471428Y-92545952D02*
X169376190Y-92498333D01*
X169376190Y-92498333D02*
X169185714Y-92498333D01*
X169185714Y-92498333D02*
X169090476Y-92545952D01*
X169090476Y-92545952D02*
X169042857Y-92593571D01*
X169042857Y-92593571D02*
X168995238Y-92688809D01*
%TO.C,C13*%
X153572142Y-93442857D02*
X153619761Y-93490476D01*
X153619761Y-93490476D02*
X153667380Y-93633333D01*
X153667380Y-93633333D02*
X153667380Y-93728571D01*
X153667380Y-93728571D02*
X153619761Y-93871428D01*
X153619761Y-93871428D02*
X153524523Y-93966666D01*
X153524523Y-93966666D02*
X153429285Y-94014285D01*
X153429285Y-94014285D02*
X153238809Y-94061904D01*
X153238809Y-94061904D02*
X153095952Y-94061904D01*
X153095952Y-94061904D02*
X152905476Y-94014285D01*
X152905476Y-94014285D02*
X152810238Y-93966666D01*
X152810238Y-93966666D02*
X152715000Y-93871428D01*
X152715000Y-93871428D02*
X152667380Y-93728571D01*
X152667380Y-93728571D02*
X152667380Y-93633333D01*
X152667380Y-93633333D02*
X152715000Y-93490476D01*
X152715000Y-93490476D02*
X152762619Y-93442857D01*
X153667380Y-92490476D02*
X153667380Y-93061904D01*
X153667380Y-92776190D02*
X152667380Y-92776190D01*
X152667380Y-92776190D02*
X152810238Y-92871428D01*
X152810238Y-92871428D02*
X152905476Y-92966666D01*
X152905476Y-92966666D02*
X152953095Y-93061904D01*
X152667380Y-92157142D02*
X152667380Y-91538095D01*
X152667380Y-91538095D02*
X153048333Y-91871428D01*
X153048333Y-91871428D02*
X153048333Y-91728571D01*
X153048333Y-91728571D02*
X153095952Y-91633333D01*
X153095952Y-91633333D02*
X153143571Y-91585714D01*
X153143571Y-91585714D02*
X153238809Y-91538095D01*
X153238809Y-91538095D02*
X153476904Y-91538095D01*
X153476904Y-91538095D02*
X153572142Y-91585714D01*
X153572142Y-91585714D02*
X153619761Y-91633333D01*
X153619761Y-91633333D02*
X153667380Y-91728571D01*
X153667380Y-91728571D02*
X153667380Y-92014285D01*
X153667380Y-92014285D02*
X153619761Y-92109523D01*
X153619761Y-92109523D02*
X153572142Y-92157142D01*
%TO.C,U3*%
X157138095Y-101767380D02*
X157138095Y-102576904D01*
X157138095Y-102576904D02*
X157185714Y-102672142D01*
X157185714Y-102672142D02*
X157233333Y-102719761D01*
X157233333Y-102719761D02*
X157328571Y-102767380D01*
X157328571Y-102767380D02*
X157519047Y-102767380D01*
X157519047Y-102767380D02*
X157614285Y-102719761D01*
X157614285Y-102719761D02*
X157661904Y-102672142D01*
X157661904Y-102672142D02*
X157709523Y-102576904D01*
X157709523Y-102576904D02*
X157709523Y-101767380D01*
X158090476Y-101767380D02*
X158709523Y-101767380D01*
X158709523Y-101767380D02*
X158376190Y-102148333D01*
X158376190Y-102148333D02*
X158519047Y-102148333D01*
X158519047Y-102148333D02*
X158614285Y-102195952D01*
X158614285Y-102195952D02*
X158661904Y-102243571D01*
X158661904Y-102243571D02*
X158709523Y-102338809D01*
X158709523Y-102338809D02*
X158709523Y-102576904D01*
X158709523Y-102576904D02*
X158661904Y-102672142D01*
X158661904Y-102672142D02*
X158614285Y-102719761D01*
X158614285Y-102719761D02*
X158519047Y-102767380D01*
X158519047Y-102767380D02*
X158233333Y-102767380D01*
X158233333Y-102767380D02*
X158138095Y-102719761D01*
X158138095Y-102719761D02*
X158090476Y-102672142D01*
%TO.C,C15*%
X155472142Y-109342857D02*
X155519761Y-109390476D01*
X155519761Y-109390476D02*
X155567380Y-109533333D01*
X155567380Y-109533333D02*
X155567380Y-109628571D01*
X155567380Y-109628571D02*
X155519761Y-109771428D01*
X155519761Y-109771428D02*
X155424523Y-109866666D01*
X155424523Y-109866666D02*
X155329285Y-109914285D01*
X155329285Y-109914285D02*
X155138809Y-109961904D01*
X155138809Y-109961904D02*
X154995952Y-109961904D01*
X154995952Y-109961904D02*
X154805476Y-109914285D01*
X154805476Y-109914285D02*
X154710238Y-109866666D01*
X154710238Y-109866666D02*
X154615000Y-109771428D01*
X154615000Y-109771428D02*
X154567380Y-109628571D01*
X154567380Y-109628571D02*
X154567380Y-109533333D01*
X154567380Y-109533333D02*
X154615000Y-109390476D01*
X154615000Y-109390476D02*
X154662619Y-109342857D01*
X155567380Y-108390476D02*
X155567380Y-108961904D01*
X155567380Y-108676190D02*
X154567380Y-108676190D01*
X154567380Y-108676190D02*
X154710238Y-108771428D01*
X154710238Y-108771428D02*
X154805476Y-108866666D01*
X154805476Y-108866666D02*
X154853095Y-108961904D01*
X154567380Y-107485714D02*
X154567380Y-107961904D01*
X154567380Y-107961904D02*
X155043571Y-108009523D01*
X155043571Y-108009523D02*
X154995952Y-107961904D01*
X154995952Y-107961904D02*
X154948333Y-107866666D01*
X154948333Y-107866666D02*
X154948333Y-107628571D01*
X154948333Y-107628571D02*
X154995952Y-107533333D01*
X154995952Y-107533333D02*
X155043571Y-107485714D01*
X155043571Y-107485714D02*
X155138809Y-107438095D01*
X155138809Y-107438095D02*
X155376904Y-107438095D01*
X155376904Y-107438095D02*
X155472142Y-107485714D01*
X155472142Y-107485714D02*
X155519761Y-107533333D01*
X155519761Y-107533333D02*
X155567380Y-107628571D01*
X155567380Y-107628571D02*
X155567380Y-107866666D01*
X155567380Y-107866666D02*
X155519761Y-107961904D01*
X155519761Y-107961904D02*
X155472142Y-108009523D01*
%TO.C,C6*%
X165583333Y-98772142D02*
X165535714Y-98819761D01*
X165535714Y-98819761D02*
X165392857Y-98867380D01*
X165392857Y-98867380D02*
X165297619Y-98867380D01*
X165297619Y-98867380D02*
X165154762Y-98819761D01*
X165154762Y-98819761D02*
X165059524Y-98724523D01*
X165059524Y-98724523D02*
X165011905Y-98629285D01*
X165011905Y-98629285D02*
X164964286Y-98438809D01*
X164964286Y-98438809D02*
X164964286Y-98295952D01*
X164964286Y-98295952D02*
X165011905Y-98105476D01*
X165011905Y-98105476D02*
X165059524Y-98010238D01*
X165059524Y-98010238D02*
X165154762Y-97915000D01*
X165154762Y-97915000D02*
X165297619Y-97867380D01*
X165297619Y-97867380D02*
X165392857Y-97867380D01*
X165392857Y-97867380D02*
X165535714Y-97915000D01*
X165535714Y-97915000D02*
X165583333Y-97962619D01*
X166440476Y-97867380D02*
X166250000Y-97867380D01*
X166250000Y-97867380D02*
X166154762Y-97915000D01*
X166154762Y-97915000D02*
X166107143Y-97962619D01*
X166107143Y-97962619D02*
X166011905Y-98105476D01*
X166011905Y-98105476D02*
X165964286Y-98295952D01*
X165964286Y-98295952D02*
X165964286Y-98676904D01*
X165964286Y-98676904D02*
X166011905Y-98772142D01*
X166011905Y-98772142D02*
X166059524Y-98819761D01*
X166059524Y-98819761D02*
X166154762Y-98867380D01*
X166154762Y-98867380D02*
X166345238Y-98867380D01*
X166345238Y-98867380D02*
X166440476Y-98819761D01*
X166440476Y-98819761D02*
X166488095Y-98772142D01*
X166488095Y-98772142D02*
X166535714Y-98676904D01*
X166535714Y-98676904D02*
X166535714Y-98438809D01*
X166535714Y-98438809D02*
X166488095Y-98343571D01*
X166488095Y-98343571D02*
X166440476Y-98295952D01*
X166440476Y-98295952D02*
X166345238Y-98248333D01*
X166345238Y-98248333D02*
X166154762Y-98248333D01*
X166154762Y-98248333D02*
X166059524Y-98295952D01*
X166059524Y-98295952D02*
X166011905Y-98343571D01*
X166011905Y-98343571D02*
X165964286Y-98438809D01*
%TO.C,R11*%
X134367380Y-96742857D02*
X133891190Y-97076190D01*
X134367380Y-97314285D02*
X133367380Y-97314285D01*
X133367380Y-97314285D02*
X133367380Y-96933333D01*
X133367380Y-96933333D02*
X133415000Y-96838095D01*
X133415000Y-96838095D02*
X133462619Y-96790476D01*
X133462619Y-96790476D02*
X133557857Y-96742857D01*
X133557857Y-96742857D02*
X133700714Y-96742857D01*
X133700714Y-96742857D02*
X133795952Y-96790476D01*
X133795952Y-96790476D02*
X133843571Y-96838095D01*
X133843571Y-96838095D02*
X133891190Y-96933333D01*
X133891190Y-96933333D02*
X133891190Y-97314285D01*
X134367380Y-95790476D02*
X134367380Y-96361904D01*
X134367380Y-96076190D02*
X133367380Y-96076190D01*
X133367380Y-96076190D02*
X133510238Y-96171428D01*
X133510238Y-96171428D02*
X133605476Y-96266666D01*
X133605476Y-96266666D02*
X133653095Y-96361904D01*
X134367380Y-94838095D02*
X134367380Y-95409523D01*
X134367380Y-95123809D02*
X133367380Y-95123809D01*
X133367380Y-95123809D02*
X133510238Y-95219047D01*
X133510238Y-95219047D02*
X133605476Y-95314285D01*
X133605476Y-95314285D02*
X133653095Y-95409523D01*
D11*
%TO.C,C11*%
X145485714Y-99717714D02*
X145447618Y-99755809D01*
X145447618Y-99755809D02*
X145333333Y-99793904D01*
X145333333Y-99793904D02*
X145257142Y-99793904D01*
X145257142Y-99793904D02*
X145142856Y-99755809D01*
X145142856Y-99755809D02*
X145066666Y-99679619D01*
X145066666Y-99679619D02*
X145028571Y-99603428D01*
X145028571Y-99603428D02*
X144990475Y-99451047D01*
X144990475Y-99451047D02*
X144990475Y-99336761D01*
X144990475Y-99336761D02*
X145028571Y-99184380D01*
X145028571Y-99184380D02*
X145066666Y-99108190D01*
X145066666Y-99108190D02*
X145142856Y-99032000D01*
X145142856Y-99032000D02*
X145257142Y-98993904D01*
X145257142Y-98993904D02*
X145333333Y-98993904D01*
X145333333Y-98993904D02*
X145447618Y-99032000D01*
X145447618Y-99032000D02*
X145485714Y-99070095D01*
X146247618Y-99793904D02*
X145790475Y-99793904D01*
X146019047Y-99793904D02*
X146019047Y-98993904D01*
X146019047Y-98993904D02*
X145942856Y-99108190D01*
X145942856Y-99108190D02*
X145866666Y-99184380D01*
X145866666Y-99184380D02*
X145790475Y-99222476D01*
X147009523Y-99793904D02*
X146552380Y-99793904D01*
X146780952Y-99793904D02*
X146780952Y-98993904D01*
X146780952Y-98993904D02*
X146704761Y-99108190D01*
X146704761Y-99108190D02*
X146628571Y-99184380D01*
X146628571Y-99184380D02*
X146552380Y-99222476D01*
D10*
%TO.C,J10*%
X167090476Y-119117380D02*
X167090476Y-119831666D01*
X167090476Y-119831666D02*
X167042857Y-119974523D01*
X167042857Y-119974523D02*
X166947619Y-120069761D01*
X166947619Y-120069761D02*
X166804762Y-120117380D01*
X166804762Y-120117380D02*
X166709524Y-120117380D01*
X168090476Y-120117380D02*
X167519048Y-120117380D01*
X167804762Y-120117380D02*
X167804762Y-119117380D01*
X167804762Y-119117380D02*
X167709524Y-119260238D01*
X167709524Y-119260238D02*
X167614286Y-119355476D01*
X167614286Y-119355476D02*
X167519048Y-119403095D01*
X168709524Y-119117380D02*
X168804762Y-119117380D01*
X168804762Y-119117380D02*
X168900000Y-119165000D01*
X168900000Y-119165000D02*
X168947619Y-119212619D01*
X168947619Y-119212619D02*
X168995238Y-119307857D01*
X168995238Y-119307857D02*
X169042857Y-119498333D01*
X169042857Y-119498333D02*
X169042857Y-119736428D01*
X169042857Y-119736428D02*
X168995238Y-119926904D01*
X168995238Y-119926904D02*
X168947619Y-120022142D01*
X168947619Y-120022142D02*
X168900000Y-120069761D01*
X168900000Y-120069761D02*
X168804762Y-120117380D01*
X168804762Y-120117380D02*
X168709524Y-120117380D01*
X168709524Y-120117380D02*
X168614286Y-120069761D01*
X168614286Y-120069761D02*
X168566667Y-120022142D01*
X168566667Y-120022142D02*
X168519048Y-119926904D01*
X168519048Y-119926904D02*
X168471429Y-119736428D01*
X168471429Y-119736428D02*
X168471429Y-119498333D01*
X168471429Y-119498333D02*
X168519048Y-119307857D01*
X168519048Y-119307857D02*
X168566667Y-119212619D01*
X168566667Y-119212619D02*
X168614286Y-119165000D01*
X168614286Y-119165000D02*
X168709524Y-119117380D01*
%TO.C,J7*%
X119466666Y-88367380D02*
X119466666Y-89081666D01*
X119466666Y-89081666D02*
X119419047Y-89224523D01*
X119419047Y-89224523D02*
X119323809Y-89319761D01*
X119323809Y-89319761D02*
X119180952Y-89367380D01*
X119180952Y-89367380D02*
X119085714Y-89367380D01*
X119847619Y-88367380D02*
X120514285Y-88367380D01*
X120514285Y-88367380D02*
X120085714Y-89367380D01*
%TO.C,R4*%
X140233333Y-90167380D02*
X139900000Y-89691190D01*
X139661905Y-90167380D02*
X139661905Y-89167380D01*
X139661905Y-89167380D02*
X140042857Y-89167380D01*
X140042857Y-89167380D02*
X140138095Y-89215000D01*
X140138095Y-89215000D02*
X140185714Y-89262619D01*
X140185714Y-89262619D02*
X140233333Y-89357857D01*
X140233333Y-89357857D02*
X140233333Y-89500714D01*
X140233333Y-89500714D02*
X140185714Y-89595952D01*
X140185714Y-89595952D02*
X140138095Y-89643571D01*
X140138095Y-89643571D02*
X140042857Y-89691190D01*
X140042857Y-89691190D02*
X139661905Y-89691190D01*
X141090476Y-89500714D02*
X141090476Y-90167380D01*
X140852381Y-89119761D02*
X140614286Y-89834047D01*
X140614286Y-89834047D02*
X141233333Y-89834047D01*
%TO.C,J2*%
X130566666Y-86577380D02*
X130566666Y-87291666D01*
X130566666Y-87291666D02*
X130519047Y-87434523D01*
X130519047Y-87434523D02*
X130423809Y-87529761D01*
X130423809Y-87529761D02*
X130280952Y-87577380D01*
X130280952Y-87577380D02*
X130185714Y-87577380D01*
X130995238Y-86672619D02*
X131042857Y-86625000D01*
X131042857Y-86625000D02*
X131138095Y-86577380D01*
X131138095Y-86577380D02*
X131376190Y-86577380D01*
X131376190Y-86577380D02*
X131471428Y-86625000D01*
X131471428Y-86625000D02*
X131519047Y-86672619D01*
X131519047Y-86672619D02*
X131566666Y-86767857D01*
X131566666Y-86767857D02*
X131566666Y-86863095D01*
X131566666Y-86863095D02*
X131519047Y-87005952D01*
X131519047Y-87005952D02*
X130947619Y-87577380D01*
X130947619Y-87577380D02*
X131566666Y-87577380D01*
D11*
%TO.C,C21*%
X143085714Y-100917714D02*
X143047618Y-100955809D01*
X143047618Y-100955809D02*
X142933333Y-100993904D01*
X142933333Y-100993904D02*
X142857142Y-100993904D01*
X142857142Y-100993904D02*
X142742856Y-100955809D01*
X142742856Y-100955809D02*
X142666666Y-100879619D01*
X142666666Y-100879619D02*
X142628571Y-100803428D01*
X142628571Y-100803428D02*
X142590475Y-100651047D01*
X142590475Y-100651047D02*
X142590475Y-100536761D01*
X142590475Y-100536761D02*
X142628571Y-100384380D01*
X142628571Y-100384380D02*
X142666666Y-100308190D01*
X142666666Y-100308190D02*
X142742856Y-100232000D01*
X142742856Y-100232000D02*
X142857142Y-100193904D01*
X142857142Y-100193904D02*
X142933333Y-100193904D01*
X142933333Y-100193904D02*
X143047618Y-100232000D01*
X143047618Y-100232000D02*
X143085714Y-100270095D01*
X143390475Y-100270095D02*
X143428571Y-100232000D01*
X143428571Y-100232000D02*
X143504761Y-100193904D01*
X143504761Y-100193904D02*
X143695237Y-100193904D01*
X143695237Y-100193904D02*
X143771428Y-100232000D01*
X143771428Y-100232000D02*
X143809523Y-100270095D01*
X143809523Y-100270095D02*
X143847618Y-100346285D01*
X143847618Y-100346285D02*
X143847618Y-100422476D01*
X143847618Y-100422476D02*
X143809523Y-100536761D01*
X143809523Y-100536761D02*
X143352380Y-100993904D01*
X143352380Y-100993904D02*
X143847618Y-100993904D01*
X144609523Y-100993904D02*
X144152380Y-100993904D01*
X144380952Y-100993904D02*
X144380952Y-100193904D01*
X144380952Y-100193904D02*
X144304761Y-100308190D01*
X144304761Y-100308190D02*
X144228571Y-100384380D01*
X144228571Y-100384380D02*
X144152380Y-100422476D01*
%TO.C,C8*%
X147159420Y-89690000D02*
X147440580Y-89690000D01*
X147159420Y-90710000D02*
X147440580Y-90710000D01*
%TO.C,C28*%
X168640580Y-80910000D02*
X168359420Y-80910000D01*
X168640580Y-79890000D02*
X168359420Y-79890000D01*
%TO.C,C2*%
X140515000Y-82240580D02*
X140515000Y-81959420D01*
X141535000Y-82240580D02*
X141535000Y-81959420D01*
%TO.C,J12*%
X170050000Y-113500000D02*
X173150000Y-113500000D01*
X173150000Y-113500000D02*
X173150000Y-110500000D01*
X173150000Y-110500000D02*
X170050000Y-110500000D01*
X170050000Y-110500000D02*
X170050000Y-113500000D01*
%TO.C,C17*%
X128210000Y-97059420D02*
X128210000Y-97340580D01*
X127190000Y-97059420D02*
X127190000Y-97340580D01*
%TO.C,C32*%
X149284420Y-97490000D02*
X149565580Y-97490000D01*
X149284420Y-98510000D02*
X149565580Y-98510000D01*
%TO.C,R15*%
X145820000Y-102353641D02*
X145820000Y-102046359D01*
X146580000Y-102353641D02*
X146580000Y-102046359D01*
%TO.C,R5*%
X137737258Y-88022500D02*
X137262742Y-88022500D01*
X137737258Y-86977500D02*
X137262742Y-86977500D01*
%TO.C,C1*%
X138690000Y-82215580D02*
X138690000Y-81934420D01*
X139710000Y-82215580D02*
X139710000Y-81934420D01*
%TO.C,C16*%
X139759420Y-91935000D02*
X140040580Y-91935000D01*
X139759420Y-92955000D02*
X140040580Y-92955000D01*
%TO.C,JP3*%
X146400000Y-83150000D02*
X145800000Y-83150000D01*
X145100000Y-82450000D02*
X145100000Y-81050000D01*
X147100000Y-81050000D02*
X147100000Y-82450000D01*
X145800000Y-80350000D02*
X146400000Y-80350000D01*
X145100000Y-82450000D02*
G75*
G03*
X145800000Y-83150000I699999J-1D01*
G01*
X146400000Y-83150000D02*
G75*
G03*
X147100000Y-82450000I1J699999D01*
G01*
X145800000Y-80350000D02*
G75*
G03*
X145100000Y-81050000I0J-700000D01*
G01*
X147100000Y-81050000D02*
G75*
G03*
X146400000Y-80350000I-700000J0D01*
G01*
%TO.C,C30*%
X147159420Y-88190000D02*
X147440580Y-88190000D01*
X147159420Y-89210000D02*
X147440580Y-89210000D01*
%TO.C,C25*%
X167840580Y-117010000D02*
X167559420Y-117010000D01*
X167840580Y-115990000D02*
X167559420Y-115990000D01*
%TO.C,C18*%
X139759420Y-93585000D02*
X140040580Y-93585000D01*
X139759420Y-94605000D02*
X140040580Y-94605000D01*
%TO.C,J9*%
X170650000Y-86400000D02*
X173750000Y-86400000D01*
X173750000Y-86400000D02*
X173750000Y-83400000D01*
X173750000Y-83400000D02*
X170650000Y-83400000D01*
X170650000Y-83400000D02*
X170650000Y-86400000D01*
%TO.C,C10*%
X123459420Y-91240000D02*
X123740580Y-91240000D01*
X123459420Y-92260000D02*
X123740580Y-92260000D01*
%TO.C,J8*%
X170550000Y-90925000D02*
X173650000Y-90925000D01*
X173650000Y-90925000D02*
X173650000Y-87925000D01*
X173650000Y-87925000D02*
X170550000Y-87925000D01*
X170550000Y-87925000D02*
X170550000Y-90925000D01*
%TO.C,U2*%
X145600000Y-91160000D02*
X142725000Y-91160000D01*
X145600000Y-91160000D02*
X147100000Y-91160000D01*
X145600000Y-95380000D02*
X144100000Y-95380000D01*
X145600000Y-95380000D02*
X147100000Y-95380000D01*
%TO.C,J11*%
X169950000Y-118000000D02*
X173050000Y-118000000D01*
X173050000Y-118000000D02*
X173050000Y-115000000D01*
X173050000Y-115000000D02*
X169950000Y-115000000D01*
X169950000Y-115000000D02*
X169950000Y-118000000D01*
%TO.C,R10*%
X131462742Y-91227500D02*
X131937258Y-91227500D01*
X131462742Y-92272500D02*
X131937258Y-92272500D01*
%TO.C,D1*%
X140715000Y-85540000D02*
X140715000Y-87460000D01*
X140715000Y-87460000D02*
X143400000Y-87460000D01*
X143400000Y-85540000D02*
X140715000Y-85540000D01*
%TO.C,C22*%
X147727836Y-101060000D02*
X147512164Y-101060000D01*
X147727836Y-100340000D02*
X147512164Y-100340000D01*
%TO.C,C9*%
X168340580Y-94435000D02*
X168059420Y-94435000D01*
X168340580Y-93415000D02*
X168059420Y-93415000D01*
%TO.C,C19*%
X168440580Y-89935000D02*
X168159420Y-89935000D01*
X168440580Y-88915000D02*
X168159420Y-88915000D01*
%TO.C,J1*%
X151090000Y-84000000D02*
X151090000Y-88000000D01*
X151380000Y-82970000D02*
X151380000Y-88990000D01*
X151380000Y-88990000D02*
X156680000Y-88990000D01*
X151960000Y-82970000D02*
X151960000Y-83570000D01*
X151960000Y-83570000D02*
X153560000Y-83570000D01*
X152760000Y-87990000D02*
X153010000Y-87460000D01*
X152760000Y-87990000D02*
X155300000Y-87990000D01*
X152760000Y-88990000D02*
X152760000Y-87990000D01*
X153010000Y-87460000D02*
X155050000Y-87460000D01*
X153010000Y-88990000D02*
X153010000Y-87990000D01*
X153560000Y-83570000D02*
X153560000Y-82970000D01*
X154500000Y-82970000D02*
X154500000Y-83570000D01*
X154500000Y-83570000D02*
X156100000Y-83570000D01*
X155050000Y-87460000D02*
X155300000Y-87990000D01*
X155050000Y-88990000D02*
X155050000Y-87990000D01*
X155300000Y-87990000D02*
X155300000Y-88990000D01*
X156100000Y-83570000D02*
X156100000Y-82970000D01*
X156680000Y-82970000D02*
X151380000Y-82970000D01*
X156680000Y-88990000D02*
X156680000Y-82970000D01*
%TO.C,C12*%
X155660000Y-95712164D02*
X155660000Y-95927836D01*
X154940000Y-95712164D02*
X154940000Y-95927836D01*
%TO.C,R12*%
X131462742Y-94267500D02*
X131937258Y-94267500D01*
X131462742Y-95312500D02*
X131937258Y-95312500D01*
%TO.C,JP1*%
X133400000Y-99850000D02*
X134000000Y-99850000D01*
X134700000Y-100500000D02*
X134700000Y-103300000D01*
X132700000Y-103300000D02*
X132700000Y-100500000D01*
X134000000Y-103950000D02*
X133400000Y-103950000D01*
X134700000Y-100550000D02*
G75*
G03*
X134000000Y-99850000I-699999J1D01*
G01*
X133400000Y-99850000D02*
G75*
G03*
X132700000Y-100550000I-1J-699999D01*
G01*
X134000000Y-103950000D02*
G75*
G03*
X134700000Y-103250000I0J700000D01*
G01*
X132700000Y-103250000D02*
G75*
G03*
X133400000Y-103950000I700000J0D01*
G01*
%TO.C,C27*%
X168040580Y-108010000D02*
X167759420Y-108010000D01*
X168040580Y-106990000D02*
X167759420Y-106990000D01*
%TO.C,C24*%
X167740580Y-121510000D02*
X167459420Y-121510000D01*
X167740580Y-120490000D02*
X167459420Y-120490000D01*
%TO.C,U1*%
X142387500Y-78390000D02*
X148397500Y-78390000D01*
X144637500Y-85210000D02*
X148397500Y-85210000D01*
X148397500Y-78390000D02*
X148397500Y-79650000D01*
X148397500Y-85210000D02*
X148397500Y-83950000D01*
%TO.C,FB1*%
X139885436Y-78765000D02*
X140339564Y-78765000D01*
X139885436Y-80235000D02*
X140339564Y-80235000D01*
%TO.C,C26*%
X167940580Y-112510000D02*
X167659420Y-112510000D01*
X167940580Y-111490000D02*
X167659420Y-111490000D01*
%TO.C,C20*%
X168540580Y-85410000D02*
X168259420Y-85410000D01*
X168540580Y-84390000D02*
X168259420Y-84390000D01*
%TO.C,J13*%
X170150000Y-109000000D02*
X173250000Y-109000000D01*
X173250000Y-109000000D02*
X173250000Y-106000000D01*
X173250000Y-106000000D02*
X170150000Y-106000000D01*
X170150000Y-106000000D02*
X170150000Y-109000000D01*
%TO.C,T1*%
X129925000Y-91175000D02*
X125475000Y-91175000D01*
X125475000Y-91175000D02*
X125475000Y-95365000D01*
X125475000Y-95365000D02*
X129925000Y-95365000D01*
X129925000Y-95365000D02*
X129925000Y-91175000D01*
D12*
X129366803Y-90670000D02*
G75*
G03*
X129366803Y-90670000I-141803J0D01*
G01*
D11*
%TO.C,C23*%
X147727836Y-102060000D02*
X147512164Y-102060000D01*
X147727836Y-101340000D02*
X147512164Y-101340000D01*
%TO.C,J5*%
X170350000Y-99950000D02*
X173450000Y-99950000D01*
X173450000Y-99950000D02*
X173450000Y-96950000D01*
X173450000Y-96950000D02*
X170350000Y-96950000D01*
X170350000Y-96950000D02*
X170350000Y-99950000D01*
%TO.C,C14*%
X152890000Y-105707836D02*
X152890000Y-105492164D01*
X153610000Y-105707836D02*
X153610000Y-105492164D01*
%TO.C,C29*%
X168140580Y-103510000D02*
X167859420Y-103510000D01*
X168140580Y-102490000D02*
X167859420Y-102490000D01*
%TO.C,J15*%
X170250000Y-104500000D02*
X173350000Y-104500000D01*
X173350000Y-104500000D02*
X173350000Y-101500000D01*
X173350000Y-101500000D02*
X170250000Y-101500000D01*
X170250000Y-101500000D02*
X170250000Y-104500000D01*
%TO.C,R1*%
X139337258Y-86422500D02*
X138862742Y-86422500D01*
X139337258Y-85377500D02*
X138862742Y-85377500D01*
%TO.C,C3*%
X140059420Y-83890000D02*
X140340580Y-83890000D01*
X140059420Y-84910000D02*
X140340580Y-84910000D01*
%TO.C,D2*%
X137660000Y-93950000D02*
X137660000Y-92540000D01*
X135340000Y-92540000D02*
X135340000Y-94570000D01*
X135340000Y-92540000D02*
X136000000Y-92540000D01*
X137000000Y-92540000D02*
X137660000Y-92540000D01*
%TO.C,JP2*%
X137600000Y-99850000D02*
X138200000Y-99850000D01*
X138900000Y-100500000D02*
X138900000Y-103300000D01*
X136900000Y-103300000D02*
X136900000Y-100500000D01*
X138200000Y-103950000D02*
X137600000Y-103950000D01*
X138900000Y-100550000D02*
G75*
G03*
X138200000Y-99850000I-699999J1D01*
G01*
X137600000Y-99850000D02*
G75*
G03*
X136900000Y-100550000I-1J-699999D01*
G01*
X138200000Y-103950000D02*
G75*
G03*
X138900000Y-103250000I0J700000D01*
G01*
X136900000Y-103250000D02*
G75*
G03*
X137600000Y-103950000I700000J0D01*
G01*
%TO.C,J14*%
X170750000Y-81900000D02*
X173850000Y-81900000D01*
X173850000Y-81900000D02*
X173850000Y-78900000D01*
X173850000Y-78900000D02*
X170750000Y-78900000D01*
X170750000Y-78900000D02*
X170750000Y-81900000D01*
%TO.C,J6*%
X170450000Y-95425000D02*
X173550000Y-95425000D01*
X173550000Y-95425000D02*
X173550000Y-92425000D01*
X173550000Y-92425000D02*
X170450000Y-92425000D01*
X170450000Y-92425000D02*
X170450000Y-95425000D01*
%TO.C,C7*%
X144040580Y-90710000D02*
X143759420Y-90710000D01*
X144040580Y-89690000D02*
X143759420Y-89690000D01*
%TO.C,C13*%
X153610000Y-95712164D02*
X153610000Y-95927836D01*
X152890000Y-95712164D02*
X152890000Y-95927836D01*
%TO.C,U3*%
X151333000Y-98033000D02*
X151841000Y-98033000D01*
X156667000Y-98541000D02*
X156667000Y-98033000D01*
X151333000Y-98541000D02*
X151333000Y-98033000D01*
X156667000Y-102859000D02*
X156667000Y-103367000D01*
X156667000Y-103367000D02*
X156159000Y-103367000D01*
X151841000Y-103367000D02*
X151333000Y-103367000D01*
X151333000Y-103367000D02*
X151333000Y-102859000D01*
%TO.C,C15*%
X154890000Y-105707836D02*
X154890000Y-105492164D01*
X155610000Y-105707836D02*
X155610000Y-105492164D01*
%TO.C,C6*%
X168240580Y-98960000D02*
X167959420Y-98960000D01*
X168240580Y-97940000D02*
X167959420Y-97940000D01*
%TO.C,R11*%
X134522500Y-93032742D02*
X134522500Y-93507258D01*
X133477500Y-93032742D02*
X133477500Y-93507258D01*
%TO.C,C31*%
X144040580Y-89210000D02*
X143759420Y-89210000D01*
X144040580Y-88190000D02*
X143759420Y-88190000D01*
%TO.C,C11*%
X148392164Y-99090000D02*
X148607836Y-99090000D01*
X148392164Y-99810000D02*
X148607836Y-99810000D01*
%TO.C,J10*%
X169850000Y-122500000D02*
X172950000Y-122500000D01*
X172950000Y-122500000D02*
X172950000Y-119500000D01*
X172950000Y-119500000D02*
X169850000Y-119500000D01*
X169850000Y-119500000D02*
X169850000Y-122500000D01*
%TO.C,J7*%
X121350000Y-90250000D02*
X118250000Y-90250000D01*
X118250000Y-90250000D02*
X118250000Y-93250000D01*
X118250000Y-93250000D02*
X121350000Y-93250000D01*
X121350000Y-93250000D02*
X121350000Y-90250000D01*
%TO.C,R4*%
X140837258Y-88822500D02*
X140362742Y-88822500D01*
X140837258Y-87777500D02*
X140362742Y-87777500D01*
%TO.C,kibuzzard-6492A46E*%
G36*
X139804725Y-110075590D02*
G01*
X139748527Y-110057969D01*
X139706935Y-110005105D01*
X139687885Y-109950848D01*
X139676455Y-109882056D01*
X139672645Y-109798730D01*
X139673231Y-109786030D01*
X139734875Y-109786030D01*
X139753925Y-109845085D01*
X139805995Y-109869850D01*
X139856160Y-109845085D01*
X139875845Y-109786030D01*
X139856160Y-109726340D01*
X139805995Y-109700940D01*
X139753925Y-109726340D01*
X139734875Y-109786030D01*
X139673231Y-109786030D01*
X139676455Y-109716109D01*
X139687885Y-109647741D01*
X139706935Y-109593625D01*
X139748527Y-109540761D01*
X139804725Y-109523140D01*
X139861716Y-109540761D01*
X139903150Y-109593625D01*
X139921847Y-109647741D01*
X139933066Y-109716109D01*
X139936805Y-109798730D01*
X139933066Y-109882056D01*
X139921847Y-109950848D01*
X139903150Y-110005105D01*
X139861716Y-110057969D01*
X139805995Y-110075197D01*
X139804725Y-110075590D01*
G37*
G36*
X140440995Y-110474793D02*
G01*
X139804725Y-110474793D01*
X139098605Y-110474793D01*
X138870005Y-110474793D01*
X138605422Y-110474793D01*
X138200546Y-110474793D01*
X138463944Y-109596800D01*
X138870005Y-109596800D01*
X138897032Y-109685184D01*
X138924774Y-109769996D01*
X138953230Y-109851237D01*
X138982400Y-109928905D01*
X139021558Y-110025778D01*
X139060293Y-110114043D01*
X139098605Y-110193700D01*
X139229415Y-110193700D01*
X139268362Y-110114043D01*
X139309002Y-110025778D01*
X139351335Y-109928905D01*
X139383006Y-109851237D01*
X139402551Y-109798730D01*
X139531675Y-109798730D01*
X139536041Y-109896203D01*
X139549137Y-109980340D01*
X139570966Y-110051142D01*
X139601525Y-110108610D01*
X139655147Y-110165054D01*
X139722881Y-110198921D01*
X139804725Y-110210210D01*
X139886569Y-110198921D01*
X139954303Y-110165054D01*
X140007925Y-110108610D01*
X140016029Y-110093370D01*
X140326695Y-110093370D01*
X140336220Y-110142265D01*
X140361620Y-110177825D01*
X140397815Y-110200050D01*
X140440995Y-110207670D01*
X140519735Y-110178460D01*
X140524341Y-110167030D01*
X140809295Y-110167030D01*
X140848665Y-110181000D01*
X140903910Y-110194970D01*
X140966140Y-110205765D01*
X141027735Y-110210210D01*
X141101078Y-110205606D01*
X141163625Y-110191795D01*
X141215695Y-110169570D01*
X141257605Y-110139725D01*
X141312215Y-110060350D01*
X141329995Y-109960020D01*
X141321581Y-109896202D01*
X141296340Y-109841910D01*
X141255859Y-109798412D01*
X141201725Y-109766980D01*
X141272845Y-109700940D01*
X141299515Y-109610770D01*
X141284275Y-109523140D01*
X141237285Y-109452655D01*
X141156640Y-109406300D01*
X141103459Y-109393917D01*
X141041705Y-109389790D01*
X140974236Y-109395664D01*
X140914070Y-109413285D01*
X140823265Y-109459640D01*
X140879145Y-109573940D01*
X140954710Y-109537745D01*
X141042975Y-109523140D01*
X141114730Y-109547905D01*
X141140765Y-109615850D01*
X141128700Y-109664110D01*
X141097585Y-109694590D01*
X141054405Y-109711100D01*
X141006145Y-109716180D01*
X140947725Y-109716180D01*
X140947725Y-109845720D01*
X140995985Y-109845720D01*
X141065517Y-109851911D01*
X141121715Y-109870485D01*
X141158862Y-109904616D01*
X141171245Y-109957480D01*
X141138860Y-110042570D01*
X141094569Y-110068288D01*
X141026465Y-110076860D01*
X140966299Y-110073367D01*
X140915340Y-110062890D01*
X140839775Y-110036220D01*
X140809295Y-110167030D01*
X140524341Y-110167030D01*
X140554025Y-110093370D01*
X140519735Y-110010820D01*
X140440995Y-109981610D01*
X140397815Y-109989230D01*
X140361620Y-110010820D01*
X140336220Y-110045745D01*
X140326695Y-110093370D01*
X140016029Y-110093370D01*
X140038484Y-110051142D01*
X140060312Y-109980340D01*
X140073409Y-109896203D01*
X140077775Y-109798730D01*
X140073409Y-109701853D01*
X140060312Y-109618231D01*
X140038484Y-109547865D01*
X140007925Y-109490755D01*
X139954303Y-109434663D01*
X139886569Y-109401008D01*
X139804725Y-109389790D01*
X139724151Y-109401079D01*
X139656841Y-109434946D01*
X139602795Y-109491390D01*
X139571680Y-109548699D01*
X139549455Y-109619025D01*
X139536120Y-109702369D01*
X139531675Y-109798730D01*
X139402551Y-109798730D01*
X139413247Y-109769996D01*
X139442061Y-109685184D01*
X139469445Y-109596800D01*
X139310695Y-109596800D01*
X139297519Y-109646647D01*
X139280850Y-109699670D01*
X139262117Y-109754439D01*
X139242750Y-109809525D01*
X139222906Y-109863976D01*
X139202745Y-109916840D01*
X139165915Y-110012090D01*
X139130990Y-109916840D01*
X139112734Y-109863976D01*
X139094795Y-109809525D01*
X139077491Y-109754439D01*
X139061140Y-109699670D01*
X139046376Y-109646647D01*
X139033835Y-109596800D01*
X138870005Y-109596800D01*
X138463944Y-109596800D01*
X138605422Y-109125207D01*
X138870005Y-109125207D01*
X141329995Y-109125207D01*
X141594578Y-109125207D01*
X141999454Y-109125207D01*
X141594578Y-110474793D01*
X141329995Y-110474793D01*
X141027735Y-110474793D01*
X140440995Y-110474793D01*
G37*
%TO.C,J2*%
X135570000Y-81710000D02*
X135570000Y-83510000D01*
X135570000Y-79610000D02*
X135570000Y-78460000D01*
X126230000Y-81710000D02*
X126230000Y-83510000D01*
X126230000Y-79610000D02*
X126230000Y-78460000D01*
%TO.C,C21*%
X145827836Y-101060000D02*
X145612164Y-101060000D01*
X145827836Y-100340000D02*
X145612164Y-100340000D01*
%TD*%
M02*
